<svg width="1920" height="398" viewBox="0 0 1920 398" fill="none" xmlns="http://www.w3.org/2000/svg">
<mask id="mask0_113_4" style="mask-type:alpha" maskUnits="userSpaceOnUse" x="0" y="0" width="1920" height="398">
<rect x="0.519287" y="0.915039" width="1919.26" height="396.565" fill="#D9D9D9"/>
</mask>
<g mask="url(#mask0_113_4)">
<path d="M1968 258.64C1891.61 222.837 1975.71 156.774 2041.95 187.563C2064.62 198.105 2079.13 217.366 2086.48 240.587C2118.12 340.604 1989.22 363.451 1919.99 358.716C1638.77 339.477 1407.84 146.689 1134.96 94.6428C1042.25 76.9589 885.191 130.74 885.128 244.925C885.071 344.686 1032.43 360.396 1095.95 314.467C1124.57 293.77 1137.68 264.292 1140.6 229.973C1150.64 112.26 1007.65 57.5934 914.691 40.6715C711.751 3.7254 484.546 101.515 310.606 195.161C180.619 265.144 85.4869 364.649 -60.7642 275.177" stroke="#ECE9E1" stroke-width="6" stroke-miterlimit="1.5" stroke-linecap="round" stroke-linejoin="round"/>
</g>
</svg>
