<svg width="661" height="28" viewBox="0 0 661 28" fill="none" xmlns="http://www.w3.org/2000/svg">
<mask id="path-1-inside-1_54_404" fill="white">
<path d="M640.331 24.8955C631.139 24.7851 625.317 23.3798 620.529 19.3093C615.974 15.4397 611.211 15.2239 606.087 17.6882C601.871 19.7134 597.602 21.6583 593.542 23.9645C582.231 30.3863 572.045 27.9872 562.456 20.3157C560.368 18.6443 558.404 16.825 556.381 15.0708C553.262 12.3656 549.808 11.9013 546.14 13.7383C541.956 15.8312 537.913 18.2228 533.66 20.1551C530.342 21.6608 526.882 23.179 523.331 23.7763C516.59 24.9106 510.352 23.0184 505.029 18.7146C502.048 16.303 499.35 13.5375 496.544 10.9125C490.95 5.67772 488.802 5.56231 482.795 10.5086C480.476 12.4183 478.38 14.599 476.147 16.6116C473.291 19.1839 470.498 21.844 467.492 24.228C462.957 27.8216 457.863 28.1779 452.949 25.3271C449.365 23.2493 446.178 20.4738 442.878 17.9291C439.44 15.2766 436.15 12.4308 432.665 9.84852C429.116 7.22106 425.161 6.98014 421.302 9.02539C417.322 11.1334 413.505 13.55 409.635 15.8613C406.194 17.9166 402.842 20.13 399.336 22.0648C394.322 24.8303 389.433 24.3936 384.693 21.1639C380.136 18.0571 375.413 15.1863 370.898 12.0218C366.941 9.24879 362.845 8.82719 358.599 10.895C354.549 12.8675 350.619 15.0909 346.669 17.2641C344.182 18.6318 341.805 20.2153 339.286 21.5152C335.682 23.3748 331.845 23.6308 328.121 22.0598C325.22 20.8352 322.412 19.3094 319.749 17.6205C317.36 16.1047 315.114 14.3079 313.001 12.4183C308.258 8.17718 303.4 8.32026 298.386 11.7583C295.492 13.7408 292.647 15.7986 289.824 17.8789C287.939 19.2667 286.2 20.8578 284.272 22.1752C278.992 25.7839 274.644 25.7915 269.489 21.9318C267.238 20.248 265.323 18.0898 263.386 16.0244C261.672 14.1975 260.219 12.1297 258.51 10.2977C255.012 6.55355 253.461 6.20224 248.866 8.75441C245.669 10.5311 242.69 12.7295 239.729 14.8952C236.087 17.5578 232.69 20.5691 228.958 23.0962C223.073 27.0788 219.118 26.6848 214.272 21.6131C211.984 19.2165 210.061 16.4335 208.209 13.668C205.002 8.88486 203.266 8.3328 198.417 11.6905C194.854 14.1599 191.589 17.0609 188.204 19.7837C178.386 27.6861 174.394 27.5657 164.398 19.7912C160.875 17.0508 156.938 14.7396 152.925 12.7671C148.46 10.5713 144.212 11.4396 140.47 14.9428C137.793 17.4498 134.979 19.8565 132.006 21.9946C125.739 26.4991 119.292 26.5845 112.911 22.1226C110.858 20.6871 108.878 19.1412 106.865 17.6481C104.584 15.9567 102.383 14.1347 100.002 12.5964C91.0479 6.81702 85.4869 7.1985 77.3159 14.0093C74.8767 16.042 72.3797 18.017 70.0384 20.1601C61.9151 27.5857 49.2948 25.9169 42.4689 21.2994C39.4299 19.2441 36.283 17.3294 33.0834 15.5351C24.9149 10.9527 17.3387 12.5362 10.2092 17.9768C8.7487 19.0911 7.37595 20.3408 5.8326 21.3245C4.29427 22.3032 2.61042 22.4086 1.34312 20.8051C0.0180997 19.1312 0.688106 17.6405 2.12605 16.446C6.24917 13.0205 10.4827 9.77578 15.6322 7.94384C20.3702 6.25996 25.1784 5.83583 29.8636 7.66777C33.8839 9.23872 37.7109 11.3191 41.5831 13.2539C44.7124 14.8174 47.6636 16.8124 50.9084 18.0521C55.689 19.8815 60.4998 19.4875 64.7358 16.3632C67.825 14.0846 70.731 11.555 73.6897 9.1032C83.7227 0.796734 91.974 0.227058 102.986 7.26623C105.656 8.97269 108.105 11.023 110.665 12.9026C112.82 14.4836 114.933 16.1324 117.167 17.5954C120.58 19.8314 124.191 19.8916 127.534 17.6004C130.417 15.6254 133.19 13.4246 135.73 11.0255C141.615 5.46941 148.232 3.99132 155.52 7.51466C159.688 9.5298 163.748 11.954 167.42 14.7672C175.32 20.8176 176.953 20.9481 184.765 14.5915C188.136 11.8486 191.446 9.01539 194.972 6.4858C202.578 1.02762 209.59 3.04779 213.514 10.3831C214.912 12.9955 217 15.264 218.935 17.5527C220.717 19.6632 222.918 19.8615 225.151 18.1951C228.366 15.7961 231.483 13.264 234.74 10.9251C238.537 8.19978 242.256 5.28873 246.336 3.05527C253.064 -0.626182 257.684 0.33751 262.939 5.92116C264.656 7.74558 266.151 9.77578 267.82 11.6454C269.266 13.264 270.683 14.9453 272.342 16.3231C275.813 19.2065 277.683 19.2517 281.321 16.6443C283.63 14.9905 285.698 12.9954 288.044 11.4044C291.63 8.97269 295.242 6.52342 299.066 4.51079C304.243 1.78547 309.413 2.28739 314.196 5.7229C316.638 7.47705 318.964 9.39934 321.421 11.1309C323.601 12.6667 325.812 14.19 328.151 15.4573C331.476 17.2566 334.852 17.2491 338.142 15.1411C340.393 13.6981 342.659 12.2627 345.015 11.0054C349.138 8.8071 353.249 6.5586 357.523 4.68399C362.961 2.29996 368.276 2.88463 373.27 6.20722C377.724 9.17095 382.397 11.8361 386.65 15.0583C390.726 18.145 394.535 18.1625 398.643 15.4999C401.73 13.4999 404.787 11.4521 407.938 9.55995C411.66 7.32649 415.352 4.99263 419.266 3.14563C424.785 0.543276 430.406 0.804237 435.495 4.31002C439.337 6.95755 442.896 10.0217 446.577 12.9001C449.338 15.0608 452.003 17.357 454.881 19.3495C458.164 21.6206 461.521 21.4048 464.54 18.7171C467.911 15.7158 471.115 12.5237 474.548 9.59757C477.587 7.00525 480.672 4.39539 484.044 2.28489C488.28 -0.367659 492.712 0.0815482 496.725 3.04277C498.732 4.52589 500.524 6.3051 502.391 7.97141C504.635 9.974 506.715 12.1899 509.114 13.9817C514.778 18.2127 521.009 19.1488 527.547 16.2127C530.894 14.7095 534.069 12.8223 537.354 11.1761C540.042 9.82845 542.704 8.38798 545.505 7.32896C550.2 5.55725 554.74 6.10434 558.803 9.16092C560.938 10.7645 562.85 12.6642 564.986 14.2653C567.383 16.0621 569.777 17.9442 572.419 19.3119C577.774 22.0824 583.283 22.3182 588.746 19.3671C591.539 17.8588 594.335 16.3381 597.203 14.983C600.37 13.4873 603.557 11.9917 606.852 10.8197C612.616 8.76946 617.959 9.66281 622.956 13.3593C625.34 15.1235 627.972 16.8526 630.765 17.7058C639.907 20.5014 647.943 18.401 654.427 11.1987C655.9 9.56247 657.158 7.46699 659.752 9.09064C661.431 10.1421 661.022 12.3254 658.52 15.1587C652.914 21.5077 645.915 24.9181 640.344 24.888L640.331 24.8955Z"/>
</mask>
<path d="M640.331 24.8955C631.139 24.7851 625.317 23.3798 620.529 19.3093C615.974 15.4397 611.211 15.2239 606.087 17.6882C601.871 19.7134 597.602 21.6583 593.542 23.9645C582.231 30.3863 572.045 27.9872 562.456 20.3157C560.368 18.6443 558.404 16.825 556.381 15.0708C553.262 12.3656 549.808 11.9013 546.14 13.7383C541.956 15.8312 537.913 18.2228 533.66 20.1551C530.342 21.6608 526.882 23.179 523.331 23.7763C516.59 24.9106 510.352 23.0184 505.029 18.7146C502.048 16.303 499.35 13.5375 496.544 10.9125C490.95 5.67772 488.802 5.56231 482.795 10.5086C480.476 12.4183 478.38 14.599 476.147 16.6116C473.291 19.1839 470.498 21.844 467.492 24.228C462.957 27.8216 457.863 28.1779 452.949 25.3271C449.365 23.2493 446.178 20.4738 442.878 17.9291C439.44 15.2766 436.15 12.4308 432.665 9.84852C429.116 7.22106 425.161 6.98014 421.302 9.02539C417.322 11.1334 413.505 13.55 409.635 15.8613C406.194 17.9166 402.842 20.13 399.336 22.0648C394.322 24.8303 389.433 24.3936 384.693 21.1639C380.136 18.0571 375.413 15.1863 370.898 12.0218C366.941 9.24879 362.845 8.82719 358.599 10.895C354.549 12.8675 350.619 15.0909 346.669 17.2641C344.182 18.6318 341.805 20.2153 339.286 21.5152C335.682 23.3748 331.845 23.6308 328.121 22.0598C325.22 20.8352 322.412 19.3094 319.749 17.6205C317.36 16.1047 315.114 14.3079 313.001 12.4183C308.258 8.17718 303.4 8.32026 298.386 11.7583C295.492 13.7408 292.647 15.7986 289.824 17.8789C287.939 19.2667 286.2 20.8578 284.272 22.1752C278.992 25.7839 274.644 25.7915 269.489 21.9318C267.238 20.248 265.323 18.0898 263.386 16.0244C261.672 14.1975 260.219 12.1297 258.51 10.2977C255.012 6.55355 253.461 6.20224 248.866 8.75441C245.669 10.5311 242.69 12.7295 239.729 14.8952C236.087 17.5578 232.69 20.5691 228.958 23.0962C223.073 27.0788 219.118 26.6848 214.272 21.6131C211.984 19.2165 210.061 16.4335 208.209 13.668C205.002 8.88486 203.266 8.3328 198.417 11.6905C194.854 14.1599 191.589 17.0609 188.204 19.7837C178.386 27.6861 174.394 27.5657 164.398 19.7912C160.875 17.0508 156.938 14.7396 152.925 12.7671C148.46 10.5713 144.212 11.4396 140.47 14.9428C137.793 17.4498 134.979 19.8565 132.006 21.9946C125.739 26.4991 119.292 26.5845 112.911 22.1226C110.858 20.6871 108.878 19.1412 106.865 17.6481C104.584 15.9567 102.383 14.1347 100.002 12.5964C91.0479 6.81702 85.4869 7.1985 77.3159 14.0093C74.8767 16.042 72.3797 18.017 70.0384 20.1601C61.9151 27.5857 49.2948 25.9169 42.4689 21.2994C39.4299 19.2441 36.283 17.3294 33.0834 15.5351C24.9149 10.9527 17.3387 12.5362 10.2092 17.9768C8.7487 19.0911 7.37595 20.3408 5.8326 21.3245C4.29427 22.3032 2.61042 22.4086 1.34312 20.8051C0.0180997 19.1312 0.688106 17.6405 2.12605 16.446C6.24917 13.0205 10.4827 9.77578 15.6322 7.94384C20.3702 6.25996 25.1784 5.83583 29.8636 7.66777C33.8839 9.23872 37.7109 11.3191 41.5831 13.2539C44.7124 14.8174 47.6636 16.8124 50.9084 18.0521C55.689 19.8815 60.4998 19.4875 64.7358 16.3632C67.825 14.0846 70.731 11.555 73.6897 9.1032C83.7227 0.796734 91.974 0.227058 102.986 7.26623C105.656 8.97269 108.105 11.023 110.665 12.9026C112.82 14.4836 114.933 16.1324 117.167 17.5954C120.58 19.8314 124.191 19.8916 127.534 17.6004C130.417 15.6254 133.19 13.4246 135.73 11.0255C141.615 5.46941 148.232 3.99132 155.52 7.51466C159.688 9.5298 163.748 11.954 167.42 14.7672C175.32 20.8176 176.953 20.9481 184.765 14.5915C188.136 11.8486 191.446 9.01539 194.972 6.4858C202.578 1.02762 209.59 3.04779 213.514 10.3831C214.912 12.9955 217 15.264 218.935 17.5527C220.717 19.6632 222.918 19.8615 225.151 18.1951C228.366 15.7961 231.483 13.264 234.74 10.9251C238.537 8.19978 242.256 5.28873 246.336 3.05527C253.064 -0.626182 257.684 0.33751 262.939 5.92116C264.656 7.74558 266.151 9.77578 267.82 11.6454C269.266 13.264 270.683 14.9453 272.342 16.3231C275.813 19.2065 277.683 19.2517 281.321 16.6443C283.63 14.9905 285.698 12.9954 288.044 11.4044C291.63 8.97269 295.242 6.52342 299.066 4.51079C304.243 1.78547 309.413 2.28739 314.196 5.7229C316.638 7.47705 318.964 9.39934 321.421 11.1309C323.601 12.6667 325.812 14.19 328.151 15.4573C331.476 17.2566 334.852 17.2491 338.142 15.1411C340.393 13.6981 342.659 12.2627 345.015 11.0054C349.138 8.8071 353.249 6.5586 357.523 4.68399C362.961 2.29996 368.276 2.88463 373.27 6.20722C377.724 9.17095 382.397 11.8361 386.65 15.0583C390.726 18.145 394.535 18.1625 398.643 15.4999C401.73 13.4999 404.787 11.4521 407.938 9.55995C411.66 7.32649 415.352 4.99263 419.266 3.14563C424.785 0.543276 430.406 0.804237 435.495 4.31002C439.337 6.95755 442.896 10.0217 446.577 12.9001C449.338 15.0608 452.003 17.357 454.881 19.3495C458.164 21.6206 461.521 21.4048 464.54 18.7171C467.911 15.7158 471.115 12.5237 474.548 9.59757C477.587 7.00525 480.672 4.39539 484.044 2.28489C488.28 -0.367659 492.712 0.0815482 496.725 3.04277C498.732 4.52589 500.524 6.3051 502.391 7.97141C504.635 9.974 506.715 12.1899 509.114 13.9817C514.778 18.2127 521.009 19.1488 527.547 16.2127C530.894 14.7095 534.069 12.8223 537.354 11.1761C540.042 9.82845 542.704 8.38798 545.505 7.32896C550.2 5.55725 554.74 6.10434 558.803 9.16092C560.938 10.7645 562.85 12.6642 564.986 14.2653C567.383 16.0621 569.777 17.9442 572.419 19.3119C577.774 22.0824 583.283 22.3182 588.746 19.3671C591.539 17.8588 594.335 16.3381 597.203 14.983C600.37 13.4873 603.557 11.9917 606.852 10.8197C612.616 8.76946 617.959 9.66281 622.956 13.3593C625.34 15.1235 627.972 16.8526 630.765 17.7058C639.907 20.5014 647.943 18.401 654.427 11.1987C655.9 9.56247 657.158 7.46699 659.752 9.09064C661.431 10.1421 661.022 12.3254 658.52 15.1587C652.914 21.5077 645.915 24.9181 640.344 24.888L640.331 24.8955Z" fill="#44986A" stroke="#ECE9E1" stroke-width="3" mask="url(#path-1-inside-1_54_404)"/>
</svg>
