<svg width="306" height="14" viewBox="0 0 306 14" fill="none" xmlns="http://www.w3.org/2000/svg">
<mask id="path-1-inside-1_117_2" fill="white">
<path d="M295.843 12.2121C291.603 12.1612 288.917 11.5129 286.708 9.63505C284.607 7.84987 282.409 7.75031 280.045 8.88718C278.1 9.82145 276.131 10.7187 274.258 11.7826C269.04 14.7452 264.341 13.6384 259.917 10.0993C258.954 9.32826 258.048 8.48893 257.115 7.6797C255.676 6.43169 254.082 6.2175 252.39 7.06495C250.46 8.03047 248.595 9.13378 246.633 10.0252C245.102 10.7198 243.506 11.4202 241.867 11.6958C238.758 12.2191 235.88 11.3462 233.424 9.36069C232.049 8.24813 230.804 6.97233 229.51 5.76136C226.93 3.34638 225.939 3.29314 223.167 5.57499C222.097 6.456 221.131 7.46203 220.1 8.39052C218.783 9.57717 217.494 10.8044 216.107 11.9042C214.015 13.562 211.665 13.7264 209.398 12.4112C207.745 11.4527 206.275 10.1722 204.753 8.99831C203.166 7.77461 201.649 6.46178 200.041 5.2705C198.404 4.05838 196.579 3.94723 194.799 4.89076C192.962 5.86324 191.202 6.97811 189.416 8.04436C187.829 8.99253 186.282 10.0136 184.665 10.9062C182.352 12.182 180.097 11.9806 177.91 10.4906C175.808 9.05737 173.629 7.73296 171.546 6.27309C169.72 4.99382 167.831 4.79933 165.872 5.75328C164.004 6.66324 162.191 7.68896 160.368 8.69153C159.221 9.32248 158.125 10.053 156.962 10.6527C155.3 11.5105 153.53 11.6287 151.812 10.9039C150.473 10.339 149.178 9.63506 147.95 8.85592C146.847 8.15666 145.811 7.32774 144.836 6.45599C142.648 4.49946 140.407 4.56546 138.094 6.15153C136.759 7.06612 135.446 8.01542 134.144 8.97516C133.274 9.61538 132.472 10.3494 131.583 10.9572C129.147 12.622 127.141 12.6254 124.763 10.8449C123.724 10.0681 122.841 9.07242 121.947 8.11963C121.157 7.27682 120.486 6.32286 119.698 5.47773C118.084 3.75043 117.369 3.58836 115.249 4.76575C113.774 5.58541 112.4 6.59956 111.034 7.59866C109.354 8.82699 107.786 10.2162 106.065 11.382C103.35 13.2193 101.525 13.0376 99.2899 10.6979C98.2341 9.59224 97.3473 8.30832 96.4929 7.03253C95.0133 4.82593 94.2122 4.57125 91.9755 6.12026C90.3315 7.25945 88.8254 8.59776 87.2636 9.85388C82.7347 13.4995 80.8927 13.4439 76.2816 9.85735C74.6562 8.59313 72.8397 7.52689 70.9885 6.61693C68.929 5.60393 66.969 6.00449 65.2428 7.62065C64.0075 8.7772 62.7097 9.88746 61.3379 10.8738C58.4471 12.9519 55.4729 12.9913 52.5289 10.9329C51.5819 10.2707 50.6684 9.5575 49.7399 8.86866C48.6876 8.08837 47.6723 7.24786 46.5736 6.53818C42.4429 3.87198 39.8774 4.04796 36.1079 7.18999C34.9826 8.12773 33.8307 9.03885 32.7506 10.0275C29.0031 13.4532 23.1809 12.6833 20.032 10.5531C18.63 9.60497 17.1782 8.72164 15.7021 7.89388C11.9338 5.77991 8.43869 6.51042 5.14964 9.02033C4.47586 9.53435 3.84257 10.1109 3.13058 10.5647C2.4209 11.0162 1.64409 11.0648 1.05945 10.3251C0.448177 9.55288 0.757271 8.86519 1.42064 8.31412C3.32275 6.73384 5.27582 5.23694 7.65143 4.39181C9.83719 3.61499 12.0554 3.41933 14.2168 4.26445C16.0714 4.98918 17.837 5.94892 19.6233 6.84152C21.067 7.56277 22.4284 8.48313 23.9254 9.05504C26.1308 9.89901 28.3501 9.71725 30.3043 8.2759C31.7295 7.2247 33.0701 6.05774 34.435 4.92666C39.0636 1.09464 42.8701 0.831836 47.9501 4.07921C49.1819 4.86645 50.3118 5.81232 51.4927 6.67945C52.4872 7.4088 53.462 8.16941 54.4923 8.84436C56.0668 9.87588 57.7328 9.90366 59.2748 8.84667C60.6051 7.93556 61.8843 6.92022 63.0559 5.81345C65.7707 3.25029 68.8236 2.5684 72.1856 4.19382C74.1085 5.12346 75.9817 6.24183 77.6755 7.53962C81.3199 10.3309 82.0736 10.3911 85.6775 7.45858C87.2323 6.19321 88.7594 4.88615 90.386 3.71918C93.895 1.20116 97.1296 2.13312 98.9403 5.5171C99.5851 6.72228 100.548 7.76883 101.441 8.82466C102.263 9.79829 103.278 9.88976 104.309 9.12104C105.792 8.01427 107.229 6.84614 108.732 5.76716C110.484 4.50989 112.199 3.16693 114.082 2.13657C117.186 0.438212 119.317 0.882791 121.741 3.45869C122.533 4.30035 123.223 5.23694 123.993 6.09943C124.66 6.84616 125.314 7.62181 126.079 8.25739C127.68 9.5876 128.543 9.60844 130.222 8.40558C131.287 7.64265 132.241 6.72226 133.323 5.98827C134.977 4.86645 136.643 3.73653 138.408 2.80805C140.796 1.55078 143.181 1.78233 145.388 3.36723C146.514 4.17647 147.587 5.06328 148.721 5.8621C149.727 6.57062 150.747 7.27334 151.826 7.85799C153.36 8.68806 154.917 8.68459 156.434 7.71211C157.473 7.04643 158.518 6.38422 159.605 5.80421C161.507 4.79006 163.404 3.75276 165.375 2.88795C167.884 1.78813 170.336 2.05785 172.64 3.59066C174.695 4.95791 176.851 6.1874 178.813 7.6739C180.693 9.09788 182.45 9.10599 184.346 7.87766C185.77 6.95496 187.18 6.01028 188.634 5.13737C190.351 4.10701 192.054 3.03033 193.86 2.17826C196.405 0.977716 198.999 1.09811 201.347 2.71542C203.119 3.93681 204.761 5.3504 206.459 6.67829C207.732 7.67508 208.962 8.73437 210.29 9.65359C211.804 10.7013 213.353 10.6018 214.746 9.36185C216.301 7.97723 217.779 6.50461 219.363 5.15473C220.765 3.95881 222.188 2.75481 223.744 1.78117C225.698 0.557476 227.742 0.764708 229.593 2.1308C230.52 2.81501 231.346 3.63581 232.208 4.40453C233.243 5.32838 234.202 6.35064 235.309 7.17724C237.922 9.12914 240.797 9.56098 243.812 8.20646C245.357 7.51299 246.821 6.64239 248.337 5.88293C249.577 5.26124 250.805 4.5967 252.097 4.10815C254.263 3.29081 256.357 3.5432 258.232 4.95329C259.217 5.69306 260.099 6.56946 261.084 7.30808C262.19 8.13699 263.294 9.00526 264.513 9.63621C266.984 10.9143 269.525 11.0231 272.046 9.66168C273.334 8.96589 274.624 8.26433 275.947 7.63916C277.408 6.94917 278.878 6.25919 280.398 5.71854C283.058 4.7727 285.522 5.18482 287.827 6.89013C288.927 7.704 290.142 8.50167 291.43 8.89529C295.648 10.185 299.355 9.21598 302.346 5.89336C303.026 5.13853 303.606 4.17183 304.803 4.92087C305.577 5.40595 305.389 6.41317 304.234 7.72023C301.648 10.6492 298.419 12.2225 295.849 12.2086L295.843 12.2121Z"/>
</mask>
<path d="M295.843 12.2121C291.603 12.1612 288.917 11.5129 286.708 9.63505C284.607 7.84987 282.409 7.75031 280.045 8.88718C278.1 9.82145 276.131 10.7187 274.258 11.7826C269.04 14.7452 264.341 13.6384 259.917 10.0993C258.954 9.32826 258.048 8.48893 257.115 7.6797C255.676 6.43169 254.082 6.2175 252.39 7.06495C250.46 8.03047 248.595 9.13378 246.633 10.0252C245.102 10.7198 243.506 11.4202 241.867 11.6958C238.758 12.2191 235.88 11.3462 233.424 9.36069C232.049 8.24813 230.804 6.97233 229.51 5.76136C226.93 3.34638 225.939 3.29314 223.167 5.57499C222.097 6.456 221.131 7.46203 220.1 8.39052C218.783 9.57717 217.494 10.8044 216.107 11.9042C214.015 13.562 211.665 13.7264 209.398 12.4112C207.745 11.4527 206.275 10.1722 204.753 8.99831C203.166 7.77461 201.649 6.46178 200.041 5.2705C198.404 4.05838 196.579 3.94723 194.799 4.89076C192.962 5.86324 191.202 6.97811 189.416 8.04436C187.829 8.99253 186.282 10.0136 184.665 10.9062C182.352 12.182 180.097 11.9806 177.91 10.4906C175.808 9.05737 173.629 7.73296 171.546 6.27309C169.72 4.99382 167.831 4.79933 165.872 5.75328C164.004 6.66324 162.191 7.68896 160.368 8.69153C159.221 9.32248 158.125 10.053 156.962 10.6527C155.3 11.5105 153.53 11.6287 151.812 10.9039C150.473 10.339 149.178 9.63506 147.95 8.85592C146.847 8.15666 145.811 7.32774 144.836 6.45599C142.648 4.49946 140.407 4.56546 138.094 6.15153C136.759 7.06612 135.446 8.01542 134.144 8.97516C133.274 9.61538 132.472 10.3494 131.583 10.9572C129.147 12.622 127.141 12.6254 124.763 10.8449C123.724 10.0681 122.841 9.07242 121.947 8.11963C121.157 7.27682 120.486 6.32286 119.698 5.47773C118.084 3.75043 117.369 3.58836 115.249 4.76575C113.774 5.58541 112.4 6.59956 111.034 7.59866C109.354 8.82699 107.786 10.2162 106.065 11.382C103.35 13.2193 101.525 13.0376 99.2899 10.6979C98.2341 9.59224 97.3473 8.30832 96.4929 7.03253C95.0133 4.82593 94.2122 4.57125 91.9755 6.12026C90.3315 7.25945 88.8254 8.59776 87.2636 9.85388C82.7347 13.4995 80.8927 13.4439 76.2816 9.85735C74.6562 8.59313 72.8397 7.52689 70.9885 6.61693C68.929 5.60393 66.969 6.00449 65.2428 7.62065C64.0075 8.7772 62.7097 9.88746 61.3379 10.8738C58.4471 12.9519 55.4729 12.9913 52.5289 10.9329C51.5819 10.2707 50.6684 9.5575 49.7399 8.86866C48.6876 8.08837 47.6723 7.24786 46.5736 6.53818C42.4429 3.87198 39.8774 4.04796 36.1079 7.18999C34.9826 8.12773 33.8307 9.03885 32.7506 10.0275C29.0031 13.4532 23.1809 12.6833 20.032 10.5531C18.63 9.60497 17.1782 8.72164 15.7021 7.89388C11.9338 5.77991 8.43869 6.51042 5.14964 9.02033C4.47586 9.53435 3.84257 10.1109 3.13058 10.5647C2.4209 11.0162 1.64409 11.0648 1.05945 10.3251C0.448177 9.55288 0.757271 8.86519 1.42064 8.31412C3.32275 6.73384 5.27582 5.23694 7.65143 4.39181C9.83719 3.61499 12.0554 3.41933 14.2168 4.26445C16.0714 4.98918 17.837 5.94892 19.6233 6.84152C21.067 7.56277 22.4284 8.48313 23.9254 9.05504C26.1308 9.89901 28.3501 9.71725 30.3043 8.2759C31.7295 7.2247 33.0701 6.05774 34.435 4.92666C39.0636 1.09464 42.8701 0.831836 47.9501 4.07921C49.1819 4.86645 50.3118 5.81232 51.4927 6.67945C52.4872 7.4088 53.462 8.16941 54.4923 8.84436C56.0668 9.87588 57.7328 9.90366 59.2748 8.84667C60.6051 7.93556 61.8843 6.92022 63.0559 5.81345C65.7707 3.25029 68.8236 2.5684 72.1856 4.19382C74.1085 5.12346 75.9817 6.24183 77.6755 7.53962C81.3199 10.3309 82.0736 10.3911 85.6775 7.45858C87.2323 6.19321 88.7594 4.88615 90.386 3.71918C93.895 1.20116 97.1296 2.13312 98.9403 5.5171C99.5851 6.72228 100.548 7.76883 101.441 8.82466C102.263 9.79829 103.278 9.88976 104.309 9.12104C105.792 8.01427 107.229 6.84614 108.732 5.76716C110.484 4.50989 112.199 3.16693 114.082 2.13657C117.186 0.438212 119.317 0.882791 121.741 3.45869C122.533 4.30035 123.223 5.23694 123.993 6.09943C124.66 6.84616 125.314 7.62181 126.079 8.25739C127.68 9.5876 128.543 9.60844 130.222 8.40558C131.287 7.64265 132.241 6.72226 133.323 5.98827C134.977 4.86645 136.643 3.73653 138.408 2.80805C140.796 1.55078 143.181 1.78233 145.388 3.36723C146.514 4.17647 147.587 5.06328 148.721 5.8621C149.727 6.57062 150.747 7.27334 151.826 7.85799C153.36 8.68806 154.917 8.68459 156.434 7.71211C157.473 7.04643 158.518 6.38422 159.605 5.80421C161.507 4.79006 163.404 3.75276 165.375 2.88795C167.884 1.78813 170.336 2.05785 172.64 3.59066C174.695 4.95791 176.851 6.1874 178.813 7.6739C180.693 9.09788 182.45 9.10599 184.346 7.87766C185.77 6.95496 187.18 6.01028 188.634 5.13737C190.351 4.10701 192.054 3.03033 193.86 2.17826C196.405 0.977716 198.999 1.09811 201.347 2.71542C203.119 3.93681 204.761 5.3504 206.459 6.67829C207.732 7.67508 208.962 8.73437 210.29 9.65359C211.804 10.7013 213.353 10.6018 214.746 9.36185C216.301 7.97723 217.779 6.50461 219.363 5.15473C220.765 3.95881 222.188 2.75481 223.744 1.78117C225.698 0.557476 227.742 0.764708 229.593 2.1308C230.52 2.81501 231.346 3.63581 232.208 4.40453C233.243 5.32838 234.202 6.35064 235.309 7.17724C237.922 9.12914 240.797 9.56098 243.812 8.20646C245.357 7.51299 246.821 6.64239 248.337 5.88293C249.577 5.26124 250.805 4.5967 252.097 4.10815C254.263 3.29081 256.357 3.5432 258.232 4.95329C259.217 5.69306 260.099 6.56946 261.084 7.30808C262.19 8.13699 263.294 9.00526 264.513 9.63621C266.984 10.9143 269.525 11.0231 272.046 9.66168C273.334 8.96589 274.624 8.26433 275.947 7.63916C277.408 6.94917 278.878 6.25919 280.398 5.71854C283.058 4.7727 285.522 5.18482 287.827 6.89013C288.927 7.704 290.142 8.50167 291.43 8.89529C295.648 10.185 299.355 9.21598 302.346 5.89336C303.026 5.13853 303.606 4.17183 304.803 4.92087C305.577 5.40595 305.389 6.41317 304.234 7.72023C301.648 10.6492 298.419 12.2225 295.849 12.2086L295.843 12.2121Z" fill="#ECE9E1" stroke="#ECE9E1" stroke-width="0.4" mask="url(#path-1-inside-1_117_2)"/>
</svg>
