<svg width="214" height="160" viewBox="0 0 214 160" fill="none" xmlns="http://www.w3.org/2000/svg">
<path d="M163.12 147.176C163.111 147.187 163.116 147.196 163.102 147.193C162.625 147.076 104.881 132.969 61.557 147.74C61.3511 147.811 61.1238 147.728 61.0129 147.541C54.5612 136.65 56.7631 122.366 56.9469 121.256C56.9553 121.205 56.9544 121.161 56.9463 121.11L53.1712 97.4011C53.1293 97.1381 52.891 96.9596 52.6293 97.0084C49.0941 97.6669 26.314 101.21 16.1537 85.3637C5.18767 68.261 19.8897 50.1811 39.5317 49.5894C39.7392 49.5831 39.9141 49.4682 39.973 49.2691C41.0984 45.4603 53.4108 8.28959 100.991 24.7748C101.159 24.8329 101.333 24.8148 101.462 24.6929C104.212 22.094 136.72 -7.11327 166.353 34.9698C166.448 35.1035 166.586 35.1873 166.749 35.1792C169.915 35.0219 203.465 34.2013 202.254 70.1958C201.415 95.1582 173.608 101.429 170.298 102.088C170.102 102.126 169.957 102.281 169.927 102.479L167.041 121.45C167.033 121.499 167.033 121.542 167.04 121.59C167.228 122.768 169.705 139.159 163.12 147.176Z" fill="#ECE9E1"/>
<path fill-rule="evenodd" clip-rule="evenodd" d="M127.414 153.427C146.451 155.047 160.343 158.445 160.343 158.445C160.978 158.601 163.808 159.295 167.15 158.051C169.598 157.14 171.214 155.639 172.238 154.324C177.945 147.224 179.003 137.896 179.198 132.217C179.351 127.762 179.004 123.851 178.735 121.61L180.302 111.305C184.1 109.99 188.79 107.988 193.438 105.02C202.923 98.9631 213.243 88.1134 213.833 70.5853C214.197 59.741 211.953 50.7331 207.566 43.5054C203.188 36.2942 197.168 31.6622 191.284 28.7486C184.354 25.317 177.322 24.1198 172.407 23.7321C165.004 14.4434 157.033 8.21651 148.698 4.61156C138.999 0.416519 129.655 0.140736 121.616 1.70322C111.711 3.62833 103.721 8.34745 98.7719 11.9489C74.7421 5.27366 57.3118 10.7005 45.6051 20.5449C38.47 26.5449 34.1218 33.6411 31.6278 38.895C21.4945 40.9878 12.5596 46.5997 6.90522 54.5963C-0.446551 64.9934 -1.74954 78.9055 6.40096 91.617C14.0418 103.534 26.1597 107.603 35.3064 108.854C38.1466 109.242 40.8716 109.387 43.3488 109.39L45.2482 121.319C45.0012 123.456 44.7233 127.016 44.9185 131.263C45.1956 137.293 46.4667 145.717 51.0453 153.446C53.9851 158.408 59.9622 160.524 65.2956 158.706C84.7101 152.086 108.091 151.782 127.414 153.427ZM163.12 147.176C163.117 147.18 163.115 147.184 163.114 147.187C163.112 147.192 163.111 147.195 163.102 147.193C162.625 147.076 104.881 132.969 61.557 147.74C61.3511 147.811 61.1238 147.728 61.0129 147.541C54.5612 136.65 56.7631 122.366 56.9469 121.256C56.9553 121.205 56.9544 121.161 56.9463 121.11L53.1712 97.4011C53.1293 97.1381 52.891 96.9596 52.6293 97.0084C49.0941 97.6669 26.314 101.21 16.1537 85.3637C5.18767 68.261 19.8897 50.1811 39.5317 49.5894C39.7392 49.5831 39.9141 49.4682 39.973 49.2691C41.0984 45.4603 53.4108 8.28959 100.991 24.7748C101.159 24.8329 101.333 24.8148 101.462 24.6929C104.212 22.094 136.72 -7.11327 166.353 34.9698C166.448 35.1035 166.586 35.1873 166.749 35.1792C169.915 35.0219 203.465 34.2013 202.254 70.1958C201.415 95.1582 173.608 101.429 170.298 102.088C170.102 102.126 169.957 102.281 169.927 102.479L167.041 121.45C167.033 121.499 167.033 121.542 167.04 121.59C167.228 122.768 169.705 139.159 163.12 147.176ZM173.937 151.319C173.97 151.233 173.986 151.19 173.972 151.227C173.97 151.233 173.957 151.268 173.937 151.319Z" fill="#D3413B"/>
<path d="M163.105 147.193C163.105 147.193 104.747 132.83 61.2056 147.861C54.2458 136.488 56.9586 121.187 56.9586 121.187L53.0941 96.9165C53.0941 96.9165 27.1854 102.569 16.1537 85.3637C5.12208 68.1587 20.0665 49.9647 39.8847 49.5805C39.8847 49.5805 50.9128 7.25122 101.274 24.8731C101.274 24.8731 135.499 -9.12565 166.51 35.193C166.51 35.193 203.525 32.4206 202.254 70.1958C201.362 96.7397 169.977 102.148 169.977 102.148L167.029 121.523C167.029 121.523 169.952 138.858 163.12 147.176L163.105 147.193Z" fill="#ECE9E1"/>
<path d="M50.8291 100.865C52.4591 100.559 53.8944 100.092 55.3492 99.4938C56.0686 99.1954 56.7847 98.8647 57.464 98.4889C58.1609 98.1276 58.8369 97.7195 59.476 97.2663C60.1327 96.8275 60.7509 96.3275 61.3514 95.813C61.6693 95.5702 61.9326 95.2678 62.2135 94.9799C62.4945 94.6919 62.7932 94.4185 63.0387 94.1015L63.8092 93.1635L64.4912 92.1529C64.9646 91.5044 65.2641 90.7428 65.6506 90.0377L63.6698 90.9156C64.6427 91.2105 65.5433 91.4313 66.4761 91.6488C67.4073 91.8502 68.3385 92.0516 69.2811 92.2031C71.1533 92.5399 73.0466 92.7608 74.9305 92.8849C75.8828 92.9704 76.8304 93.0075 77.791 93.0108C78.737 93.0318 79.6992 93.0512 80.6518 92.9739C81.6045 92.8966 82.5682 92.9322 83.513 92.7743C84.4609 92.6487 85.4265 92.5376 86.3728 92.3958L89.2074 91.7595C90.1489 91.5694 91.0538 91.1714 91.9859 90.8846C92.4423 90.7259 92.9003 90.5833 93.3551 90.4085L94.6763 89.7744C95.5426 89.315 96.4731 89.0122 97.2784 88.4287L99.7407 86.8201C100.531 86.2543 101.227 85.5515 101.978 84.9083L103.071 83.9386L104.019 82.8204L105.897 80.5696L103.797 81.0525C104.481 81.3921 105.075 81.6428 105.702 81.8905C106.328 82.1381 106.952 82.3535 107.591 82.5673C108.852 82.9804 110.155 83.3242 111.452 83.6036L113.408 83.9648L115.387 84.226C116.046 84.3077 116.715 84.3234 117.371 84.3729C118.028 84.4385 118.692 84.4058 119.36 84.4054C120.681 84.4383 122.014 84.2586 123.339 84.161L125.308 83.8212C125.966 83.7241 126.599 83.548 127.249 83.3703C127.883 83.1941 128.537 83.0648 129.165 82.8242L131.018 82.1378C132.26 81.6905 133.415 81.0238 134.597 80.4684C135.049 80.2613 135.242 79.738 135.036 79.3026C134.847 78.8656 134.339 78.6714 133.901 78.8446L133.775 78.8895C132.615 79.3451 131.518 79.9409 130.331 80.2853L128.564 80.8493C127.98 81.0368 127.355 81.1308 126.766 81.27C126.16 81.3946 125.573 81.5498 124.943 81.5955L123.11 81.8243C121.877 81.864 120.65 81.9682 119.421 81.8774C118.8 81.857 118.197 81.8511 117.587 81.7646C116.978 81.6943 116.354 81.6416 115.758 81.5375L113.935 81.212L112.136 80.7867C110.949 80.464 109.773 80.0914 108.639 79.6495C108.064 79.4294 107.505 79.2077 106.943 78.9537C106.399 78.7143 105.818 78.4297 105.37 78.1808C104.666 77.8106 103.823 78.0073 103.327 78.5929L103.269 78.6637L101.592 80.6507L100.746 81.6449L99.7727 82.5052C99.1109 83.0584 98.5054 83.6873 97.8066 84.1952L95.6347 85.6125C94.9359 86.1205 94.0844 86.3993 93.3101 86.8008L92.1293 87.3723C91.7212 87.5263 91.2939 87.6496 90.8859 87.8036C90.0489 88.0648 89.2537 88.4195 88.375 88.5871L85.7952 89.1659L83.1611 89.5222C82.2969 89.6721 81.3831 89.6479 80.5111 89.7173C79.6229 89.7883 78.7268 89.7786 77.8453 89.7513C76.9492 89.7417 76.0676 89.7144 75.1652 89.6403C73.3796 89.5228 71.6007 89.307 69.8284 88.9929C68.9358 88.8527 68.0706 88.6611 67.1894 88.471C66.3226 88.2633 65.4382 88.041 64.6505 87.8092C63.9128 87.5888 63.1305 87.9097 62.7538 88.5487L62.6697 88.6871C62.3512 89.2553 62.118 89.8639 61.7303 90.3901L61.1921 91.2077L60.5654 91.9526C60.3635 92.2165 60.1245 92.4352 59.9033 92.6685C59.6644 92.8872 59.4624 93.1511 59.1897 93.3569C58.6941 93.7797 58.1825 94.2042 57.6161 94.569C57.0674 94.9483 56.4995 95.2969 55.8961 95.6165C55.3089 95.9345 54.6862 96.2234 54.0604 96.4801C52.8249 96.992 51.4671 97.4182 50.237 97.6529L50.1886 97.6576C49.3099 97.8253 48.7266 98.6798 48.8942 99.5583C49.0618 100.437 49.9005 101.021 50.7792 100.854L50.8291 100.865Z" fill="#D3413B"/>
<path d="M171.787 120.584C171.787 120.584 171.543 120.413 170.973 120.079C170.404 119.76 169.646 119.33 168.638 118.844C167.628 118.341 166.388 117.812 164.965 117.236C163.513 116.711 161.903 116.056 160.095 115.55C158.296 114.962 156.326 114.456 154.225 113.946C152.126 113.452 149.904 113.036 147.6 112.611C145.275 112.303 142.902 111.836 140.459 111.653C138.01 111.406 135.543 111.143 133.046 111.079C131.804 111.023 130.56 110.949 129.317 110.892C128.078 110.868 126.842 110.875 125.62 110.865C123.177 110.845 120.765 110.821 118.436 110.968C116.104 111.084 113.862 111.125 111.731 111.302C109.602 111.494 107.6 111.658 105.744 111.824C103.886 111.958 102.198 112.173 100.705 112.384C99.2106 112.58 97.9096 112.756 96.8328 112.895C94.679 113.171 93.4587 113.34 93.4587 113.34C92.9751 113.388 92.6293 113.844 92.6929 114.326C92.7404 114.81 93.1798 115.141 93.6618 115.077L93.6941 115.074C93.6941 115.074 94.9176 114.938 97.0584 114.695C98.1223 114.59 99.4248 114.43 100.906 114.268C102.386 114.09 104.077 113.908 105.907 113.81C107.749 113.678 109.738 113.547 111.84 113.406C113.942 113.265 116.173 113.273 118.461 113.211C120.763 113.116 123.129 113.176 125.545 113.248C126.752 113.276 127.973 113.286 129.184 113.346C130.396 113.422 131.625 113.513 132.839 113.606C135.291 113.723 137.713 114.022 140.101 114.308C142.499 114.528 144.811 115.033 147.073 115.364C149.314 115.811 151.475 116.266 153.495 116.784C155.517 117.317 157.406 117.831 159.125 118.427C160.869 118.956 162.382 119.604 163.752 120.137C165.095 120.721 166.252 121.226 167.179 121.72C168.103 122.183 168.828 122.6 169.245 122.868C169.66 123.12 169.939 123.304 169.939 123.304C170.673 123.818 171.68 123.638 172.194 122.904C172.708 122.17 172.528 121.163 171.794 120.649L171.758 120.62L171.787 120.584Z" fill="#D3413B"/>
<path d="M55.276 123.11C55.276 123.11 56.7178 122.545 58.845 121.832C59.9174 121.483 61.1399 121.005 62.5186 120.625C63.878 120.215 65.3326 119.779 66.7871 119.344C68.2401 118.892 69.6978 118.488 71.0974 118.156C72.4792 117.808 73.7659 117.487 74.8769 117.199C77.1005 116.639 78.5775 116.266 78.5775 116.266L78.6258 116.261C79.1644 116.111 79.4861 115.575 79.3517 115.035C79.2189 114.511 78.7005 114.204 78.1894 114.303C78.1894 114.303 76.6722 114.598 74.4215 115.047C73.288 115.272 71.9628 115.532 70.5584 115.817C69.1364 116.087 67.6386 116.413 66.147 116.803C64.6539 117.178 63.1592 117.536 61.7451 117.886C60.3456 118.219 59.0361 118.64 57.9106 118.946C55.645 119.575 54.2113 120.058 54.2113 120.058L54.163 120.063C53.313 120.358 52.8666 121.28 53.1455 122.131C53.4243 122.983 54.347 123.429 55.1985 123.15C55.2308 123.147 55.2469 123.145 55.2775 123.126L55.276 123.11Z" fill="#D3413B"/>
<path d="M53.3322 52.767C53.3322 52.767 53.3985 52.6141 53.5183 52.342C53.6605 52.1328 53.8011 51.9075 54.0356 51.4777C54.3153 51.0109 54.6 50.4297 55.0282 49.8182C55.4902 49.2196 55.8558 48.4678 56.4534 47.7583C57.0349 47.0504 57.5877 46.2151 58.348 45.5059C59.0892 44.766 59.787 43.9165 60.6956 43.2252C61.5672 42.4888 62.4164 41.6895 63.4474 41.0838C63.9364 40.7592 64.4398 40.4169 64.9449 40.0907L65.3273 39.8416C65.3273 39.8416 65.5741 39.7035 65.6822 39.6441L66.5324 39.1863C67.102 38.8538 67.6472 38.605 68.1778 38.3739C68.7085 38.1428 69.236 37.8795 69.8037 37.6936C70.3697 37.4916 70.9181 37.275 71.4681 37.0746C72.0373 36.9048 72.592 36.7527 73.1451 36.5845C74.2514 36.248 75.3557 36.0582 76.3877 35.7942C77.4453 35.6252 78.44 35.4788 79.3702 35.3386C80.3083 35.279 81.1595 35.1629 81.9171 35.0885C82.6748 35.0141 83.342 35.0136 83.9078 34.9743C85.0087 34.915 85.6551 34.8678 85.6551 34.8678L85.7195 34.8615C86.303 34.8368 86.7407 34.3219 86.716 33.7386C86.6815 33.2213 86.2825 32.8049 85.7733 32.7573C85.7733 32.7573 85.1158 32.6917 83.9637 32.5608C83.39 32.5195 82.681 32.4264 81.8817 32.4073C81.0662 32.3897 80.1508 32.3495 79.1596 32.3655C78.157 32.4314 77.0754 32.5213 75.9277 32.6015C74.7911 32.7945 73.5628 32.8825 72.3244 33.1994C71.7053 33.3578 71.0845 33.5001 70.4492 33.6602C69.8186 33.8685 69.1881 34.0769 68.5575 34.2852C67.9254 34.4775 67.2882 34.7841 66.6479 35.0585C65.9914 35.3345 65.3526 35.625 64.8122 35.9222L63.9604 36.3638C63.791 36.4617 63.7265 36.4681 63.4667 36.64L63.0391 36.9261C62.4743 37.307 61.9111 37.704 61.3625 38.0832C60.817 38.4948 60.2136 38.8144 59.7373 39.2679C59.2449 39.723 58.7671 40.1604 58.3053 40.5963C57.3126 41.426 56.5469 42.4123 55.8232 43.3295C55.048 44.2191 54.5079 45.1833 53.9407 46.0363C53.3557 46.8747 53.0028 47.7555 52.6195 48.4928C52.2523 49.2285 52.0286 49.9338 51.8052 50.4764C51.5704 51.0689 51.421 51.7019 51.3398 52.0353C51.2716 52.3348 51.2391 52.5007 51.2391 52.5007C51.1155 53.0661 51.4627 53.6177 52.0282 53.7412C52.5115 53.8564 53.0067 53.5963 53.2074 53.1535L53.3951 52.7446L53.3322 52.767Z" fill="#D3413B"/>
<path d="M166.497 46.9908C166.497 46.9908 167.016 46.9724 167.864 46.9868C168.291 47.0262 168.794 47.0093 169.388 47.0974C169.968 47.2031 170.636 47.2027 171.336 47.3779C172.036 47.5371 172.809 47.6238 173.6 47.8878C174.388 48.1196 175.22 48.3144 176.039 48.6897C176.87 49.0311 177.728 49.321 178.525 49.8123L179.763 50.4879L180.072 50.6528C180.072 50.6528 180.246 50.7659 180.333 50.8225L180.977 51.2473C181.428 51.5285 181.798 51.8176 182.15 52.0921C182.504 52.3827 182.871 52.6396 183.213 52.964C183.568 53.2708 183.924 53.5775 184.263 53.8859C184.588 54.2119 184.913 54.538 185.222 54.8656C185.871 55.5016 186.411 56.197 186.977 56.8247C187.498 57.4895 187.984 58.1252 188.432 58.7157C188.834 59.327 189.247 59.8885 189.588 60.3757C189.946 60.8774 190.187 61.3419 190.419 61.7096C190.899 62.4597 191.168 62.8727 191.168 62.8727L191.206 62.934C191.515 63.4243 192.18 63.5705 192.671 63.262C193.1 62.9921 193.259 62.4558 193.084 62.0011C193.084 62.0011 192.888 61.4997 192.559 60.6371C192.229 59.7584 191.688 58.5586 190.928 57.1201C190.519 56.4281 190.07 55.6749 189.57 54.8942C189.009 54.152 188.471 53.31 187.778 52.5483C187.43 52.1593 187.083 51.7704 186.735 51.3815C186.357 51.0119 185.979 50.6422 185.583 50.258C185.204 49.8723 184.747 49.5267 184.306 49.1795C183.863 48.8162 183.406 48.4706 182.989 48.2024L182.36 47.7598C182.221 47.6758 182.218 47.6435 181.977 47.5045L181.616 47.3122C181.118 47.0519 180.639 46.8061 180.141 46.5458C179.191 45.9883 178.165 45.6498 177.173 45.3242C176.192 44.9486 175.198 44.7696 174.27 44.6005C173.337 44.3829 172.439 44.3572 171.605 44.309C170.783 44.227 170.011 44.3191 169.345 44.3356C168.681 44.3683 168.091 44.4913 167.623 44.5372C166.679 44.6951 166.175 44.8747 166.175 44.8747L166.05 44.9196C165.483 45.1216 165.186 45.7366 165.388 46.3025C165.547 46.7588 165.981 47.0415 166.452 47.0278L166.497 46.9908Z" fill="#D3413B"/>
<path d="M172.279 101.564C172.279 101.564 172.183 101.574 172.025 101.622C171.881 101.652 171.641 101.692 171.322 101.756C170.68 101.852 169.748 101.976 168.61 101.99C167.474 102.02 166.133 101.956 164.714 101.754C163.294 101.552 161.794 101.195 160.345 100.686C159.607 100.466 158.921 100.11 158.209 99.8222C157.512 99.5165 156.871 99.1238 156.221 98.7972C155.583 98.4368 155.021 98.0201 154.45 97.6694C153.878 97.3188 153.412 96.8765 152.955 96.5309C152.51 96.1515 152.058 95.8542 151.73 95.4959C151.387 95.1553 151.083 94.8761 150.848 94.6388C150.362 94.1659 150.074 93.885 150.074 93.885L150.02 93.8253C149.659 93.4702 149.074 93.4788 148.719 93.8391C148.378 94.1817 148.384 94.7344 148.696 95.0942C148.696 95.0942 148.987 95.4073 149.479 95.9447C149.733 96.2127 150.026 96.5419 150.372 96.9147C150.703 97.3052 151.162 97.6669 151.627 98.0931C152.106 98.5016 152.579 99.0083 153.172 99.4057C153.766 99.8193 154.352 100.315 155.028 100.737C155.718 101.141 156.398 101.595 157.135 101.978C157.902 102.326 158.628 102.759 159.438 103.053C161.015 103.696 162.659 104.201 164.235 104.502C165.812 104.819 167.309 104.981 168.599 105.017C169.889 105.07 170.973 104.996 171.746 104.92C172.133 104.882 172.44 104.852 172.678 104.796C172.888 104.775 172.999 104.748 172.999 104.748C173.879 104.596 174.48 103.756 174.329 102.876C174.177 101.996 173.337 101.396 172.457 101.547C172.425 101.55 172.408 101.552 172.376 101.555L172.279 101.564Z" fill="#D3413B"/>
</svg>
