<svg width="490" height="151" viewBox="0 0 490 151" fill="none" xmlns="http://www.w3.org/2000/svg">
<path d="M98.481 38.086L112.272 97.752C112.406 98.3344 112.317 98.8765 112.003 99.3784C111.69 99.8803 111.242 100.199 110.66 100.333L97.4684 103.382C96.886 103.517 96.3439 103.427 95.842 103.114C95.3401 102.8 95.0218 102.352 94.8872 101.77L88.3857 73.6405C88.251 73.0582 87.9149 72.7984 87.3773 72.8613C86.8397 72.9242 86.45 73.229 86.2083 73.7757L77.0038 100.842C76.8203 101.375 76.4082 101.716 75.7676 101.864C75.127 102.012 74.5781 101.893 74.121 101.508L53.9729 81.2262C53.574 80.8276 53.1193 80.718 52.6086 80.8974C52.0979 81.0768 51.9098 81.4577 52.0444 82.0401L58.546 110.17C58.6806 110.752 58.5912 111.294 58.2777 111.796C57.9643 112.298 57.5164 112.616 56.934 112.751L43.7428 115.8C43.1604 115.934 42.6183 115.845 42.1164 115.531C41.6145 115.218 41.2962 114.77 41.1616 114.188L27.3711 54.5216C27.2364 53.9392 27.3259 53.3971 27.6393 52.8952C27.9528 52.3933 28.4007 52.075 28.9831 51.9404L41.2133 49.1137C41.7957 48.9791 42.4476 49.0124 43.169 49.2138C43.8904 49.4152 44.4505 49.7152 44.8494 50.1138L67.3162 70.8722C67.7733 71.2574 68.2348 71.3961 68.7007 71.2884C69.1666 71.1807 69.4913 70.8603 69.6748 70.3271L80.7538 41.8152C80.9955 41.2685 81.3964 40.7464 81.9562 40.2489C82.5161 39.7514 83.0872 39.4354 83.6696 39.3008L95.8998 36.474C96.4822 36.3394 97.0244 36.4288 97.5263 36.7423C98.0282 37.0557 98.3464 37.5036 98.481 38.086Z" fill="#ECE9E1"/>
<path d="M139.96 31.9804C140.134 31.4181 140.467 30.9274 140.96 30.5081C141.504 30.0225 142.103 29.7412 142.756 29.6641L155.222 28.1926C155.816 28.1226 156.404 28.2638 156.987 28.6162C157.623 28.9023 158.091 29.2985 158.392 29.8047L191.54 87.2852C191.84 87.7915 191.847 88.3624 191.561 88.9981C191.334 89.6267 190.746 89.9971 189.796 90.1092L174.57 91.9066C173.917 91.9836 173.273 91.8791 172.637 91.593C172.054 91.2405 171.582 90.8147 171.222 90.3155L168.187 85.2566C167.827 84.7574 167.33 84.3648 166.694 84.0787C166.111 83.7262 165.522 83.585 164.929 83.655L146.14 85.8728C145.487 85.9499 144.889 86.2312 144.344 86.7168C143.852 87.1361 143.519 87.6268 143.344 88.1891L141.482 93.826C141.307 94.3883 140.948 94.9123 140.403 95.3979C139.911 95.8171 139.368 96.0618 138.774 96.1318L123.459 97.9397C123.162 97.9747 122.858 97.9504 122.547 97.8667C122.177 97.79 121.889 97.6434 121.683 97.427C121.418 97.2176 121.234 96.9383 121.133 96.5891C121.031 96.24 121.071 95.8139 121.253 95.311L139.96 31.9804ZM149.785 70.0942L157.71 69.1588C158.304 69.0887 158.698 68.8616 158.894 68.4774C159.141 68.0268 159.085 67.5519 158.726 67.0527C157.957 65.6387 157.041 64.0013 155.979 62.1404C154.91 60.2202 153.917 58.4414 153.002 56.8039C152.701 56.2977 152.402 56.0621 152.106 56.0972C151.809 56.1322 151.573 56.4309 151.399 56.9931L148.218 68.2929C148.044 68.8552 148.1 69.3301 148.387 69.7176C148.666 70.0458 149.132 70.1713 149.785 70.0942Z" fill="#ECE9E1"/>
<path d="M215.444 89.2311L202.088 89.5423C201.491 89.5562 200.978 89.3589 200.55 88.9504C200.122 88.5418 199.901 88.0387 199.887 87.4411L198.458 26.1292C198.444 25.5316 198.642 25.0188 199.05 24.5907C199.459 24.1626 199.962 23.9417 200.56 23.9277L228.437 23.2782C231.903 23.1974 235.114 23.7205 238.07 24.8474C241.024 25.9146 243.542 27.4703 245.622 29.5145C247.763 31.5573 249.434 33.9997 250.636 36.8416C251.898 39.6822 252.57 42.8354 252.65 46.3014C252.695 48.2137 252.5 50.1315 252.067 52.0549C251.692 53.9172 251.105 55.6947 250.308 57.3874C249.51 59.0801 248.56 60.6269 247.456 62.0278C246.351 63.369 245.092 64.5044 243.679 65.4342C243.209 65.8039 242.891 66.2597 242.724 66.8017C242.616 67.2826 242.747 67.7579 243.116 68.2276C245.457 71.1626 247.919 74.1844 250.502 77.2932C253.086 80.4019 255.395 83.2479 257.428 85.8313C257.798 86.301 257.9 86.8368 257.734 87.4385C257.568 87.9805 257.186 88.2585 256.588 88.2724L239.915 88.6609C239.318 88.6748 238.657 88.5408 237.933 88.2587C237.267 87.9154 236.75 87.509 236.38 87.0393C234.409 84.574 232.438 82.0788 230.465 79.5538C228.553 77.0273 226.64 74.471 224.726 71.8848C224.357 71.4151 223.84 71.0385 223.175 70.755C222.51 70.4118 221.878 70.2471 221.28 70.261L219.308 70.307C218.711 70.3209 218.208 70.5419 217.799 70.97C217.391 71.398 217.193 71.9108 217.207 72.5084L217.546 87.0297C217.559 87.6273 217.362 88.1401 216.954 88.5681C216.545 88.9962 216.042 89.2172 215.444 89.2311ZM218.924 53.8137L228.426 53.5923C229.143 53.5756 229.887 53.4387 230.658 53.1816C231.428 52.8647 232.135 52.4296 232.78 51.8765C233.424 51.2636 233.945 50.534 234.344 49.6876C234.742 48.8413 234.929 47.8504 234.902 46.715C234.888 46.1174 234.753 45.4329 234.496 44.6617C234.297 43.8292 233.92 43.0607 233.366 42.3561C232.869 41.5904 232.168 40.979 231.26 40.5218C230.411 40.0035 229.359 39.7589 228.104 39.7882L218.602 40.0096C218.005 40.0235 217.502 40.2445 217.093 40.6725C216.685 41.1006 216.487 41.6134 216.501 42.211L216.723 51.7125C216.737 52.3101 216.958 52.8132 217.386 53.2218C217.814 53.6303 218.326 53.8276 218.924 53.8137Z" fill="#ECE9E1"/>
<path d="M282.439 89.7189L268.913 89.126C268.256 89.0972 267.728 88.8646 267.328 88.4283C266.988 87.9945 266.831 87.4791 266.857 86.8819L269.539 25.7017C269.565 25.1045 269.767 24.6048 270.143 24.2025C270.58 23.8028 271.126 23.6173 271.783 23.6461L285.309 24.239C285.906 24.2652 286.405 24.4965 286.804 24.9328C287.204 25.3692 287.391 25.8859 287.365 26.4831L284.683 87.6633C284.657 88.2605 284.425 88.7589 283.989 89.1586C283.553 89.5583 283.036 89.7451 282.439 89.7189Z" fill="#ECE9E1"/>
<path d="M299.252 57.0955C299.799 52.4652 301.204 48.2072 303.468 44.3214C305.733 40.4356 308.557 37.1576 311.942 34.4875C315.334 31.758 319.183 29.7446 323.489 28.4472C327.796 27.1498 332.264 26.7744 336.894 27.321C341.524 27.8675 345.782 29.273 349.668 31.5373C353.554 33.8017 356.828 36.656 359.491 40.1002C362.221 43.492 364.234 47.3411 365.532 51.6473C366.829 55.9535 367.205 60.4217 366.658 65.052C366.111 69.6823 364.706 73.9403 362.442 77.8261C360.177 81.7119 357.319 85.016 353.868 87.7385C350.483 90.4086 346.638 92.3924 342.332 93.6897C338.026 94.9871 333.557 95.3625 328.927 94.816C324.297 94.2694 320.039 92.864 316.153 90.5996C312.267 88.3353 308.989 85.5107 306.319 82.1258C303.656 78.6816 301.676 74.8064 300.378 70.5002C299.081 66.194 298.706 61.7257 299.252 57.0955ZM316.883 59.1766C316.616 61.4323 316.78 63.6184 317.373 65.7349C317.965 67.8513 318.883 69.7653 320.126 71.4769C321.427 73.1955 323.002 74.6453 324.849 75.8263C326.702 76.948 328.728 77.6385 330.924 77.8977C333.12 78.157 335.251 77.957 337.315 77.2978C339.386 76.5792 341.254 75.5358 342.921 74.1676C344.587 72.7993 345.955 71.1551 347.024 69.2349C348.093 67.3147 348.761 65.2267 349.027 62.9709C349.287 60.7745 349.12 58.6181 348.527 56.5017C347.941 54.3259 346.994 52.4084 345.685 50.7491C344.383 49.0305 342.805 47.6104 340.951 46.4887C339.105 45.3077 337.083 44.5876 334.887 44.3283C332.69 44.069 330.556 44.2987 328.485 45.0172C326.421 45.6765 324.556 46.6902 322.89 48.0584C321.29 49.3743 319.952 51.022 318.876 53.0016C317.806 54.9219 317.142 56.9802 316.883 59.1766Z" fill="#ECE9E1"/>
<path d="M383.329 61.7951C382.756 61.9308 382.163 61.8499 381.55 61.5523C380.948 61.196 380.515 60.7497 380.25 60.2136L379.094 57.6245C378.889 57.0994 378.871 56.5486 379.04 55.9722C379.209 55.3957 379.567 54.946 380.114 54.623C380.871 54.1569 381.539 53.6742 382.119 53.175C382.758 52.6868 383.368 52.1931 383.948 51.6938C384.389 51.29 384.536 50.8311 384.389 50.317C384.243 49.8029 383.967 49.3255 383.564 48.8847C382.686 48.051 382.093 46.997 381.785 45.7227C381.477 44.4485 381.391 43.1248 381.528 41.7515C381.884 39.2033 383.075 37.2373 385.098 35.8535C387.133 34.411 389.395 33.8626 391.884 34.2084C393.364 34.4255 394.666 34.9436 395.789 35.7627C396.923 36.5231 397.808 37.4798 398.443 38.633C399.148 39.7384 399.614 40.9815 399.841 42.3622C400.068 43.7429 400.044 45.1676 399.768 46.6363C399.04 50.5136 397.303 53.7757 394.555 56.4224C391.819 59.0104 388.077 60.8013 383.329 61.7951Z" fill="#ECE9E1"/>
<path d="M409.83 84.3487C412.454 87.1609 415.158 89.531 417.942 91.4588C420.726 93.3867 423.451 94.6839 426.119 95.3505C428.67 95.9881 430.7 96.1256 432.208 95.763C433.73 95.3424 434.672 94.4072 435.034 92.9574C435.223 92.2035 435.078 91.5511 434.599 91.0003C434.135 90.3914 433.447 89.8189 432.533 89.2826C431.678 88.7608 430.634 88.2535 429.402 87.7607C428.169 87.2679 426.922 86.7099 425.661 86.0867C424.443 85.5359 423.001 84.8982 421.333 84.1735C419.739 83.4053 418.115 82.5066 416.462 81.4775C414.824 80.3904 413.222 79.1583 411.656 77.7812C410.148 76.4186 408.879 74.8385 407.85 73.041C406.82 71.2434 406.117 69.2501 405.739 67.061C405.435 64.8284 405.623 62.3493 406.304 59.6237C407.304 55.6223 408.913 52.5125 411.131 50.2941C413.349 48.0757 415.835 46.5097 418.589 45.5961C421.416 44.6389 424.381 44.2399 427.483 44.3991C430.6 44.5002 433.55 44.8985 436.334 45.5941C441.205 46.8113 445.373 48.623 448.839 51.0292C452.376 53.3919 455.573 56.378 458.43 59.9876C458.792 60.5094 458.93 61.0676 458.843 61.662C458.756 62.2564 458.481 62.7421 458.017 63.1191L448.819 71.0792C448.355 71.4562 447.819 71.6302 447.21 71.6013C446.601 71.5724 446.108 71.326 445.731 70.8621C443.237 68.2673 440.809 66.2742 438.445 64.8827C436.097 63.4332 433.849 62.4404 431.704 61.9042C431.066 61.7448 430.305 61.5855 429.42 61.4261C428.609 61.2232 427.797 61.1436 426.985 61.1871C426.187 61.1727 425.47 61.3323 424.832 61.6658C424.252 62.0138 423.861 62.5937 423.658 63.4056C423.455 64.2175 423.883 65.0945 424.941 66.0368C426 66.979 427.254 67.8777 428.704 68.7329C430.153 69.5881 431.567 70.3418 432.944 70.994C434.336 71.5882 435.228 71.9651 435.619 72.1245C437.605 73.0521 439.744 74.2334 442.035 75.6684C444.34 77.0454 446.37 78.7849 448.124 80.8868C449.951 82.9452 451.278 85.4024 452.105 88.2583C453.004 91.0707 452.99 94.3326 452.062 98.0441C451.193 101.524 449.83 104.387 447.975 106.634C446.134 108.824 443.909 110.455 441.299 111.528C438.748 112.616 435.834 113.181 432.558 113.225C429.354 113.225 425.896 112.762 422.185 111.834C419.169 111.081 416.422 110.117 413.942 108.943C411.449 107.827 409.18 106.552 407.135 105.117C405.091 103.682 403.228 102.138 401.546 100.485C399.937 98.7893 398.487 97.0715 397.196 95.332C396.819 94.8681 396.674 94.3389 396.761 93.7445C396.863 93.0921 397.145 92.5775 397.609 92.2005L406.72 84.2186C407.184 83.8416 407.72 83.6676 408.329 83.6965C408.938 83.7254 409.438 83.9428 409.83 84.3487Z" fill="#ECE9E1"/>
<path d="M309.47 137.126C309.232 137.21 308.998 137.247 308.768 137.235C308.537 137.224 308.305 137.193 308.07 137.144C308.216 136.917 308.38 136.774 308.564 136.715C308.765 136.635 308.976 136.563 309.198 136.499C309.273 136.49 309.348 136.482 309.423 136.473C309.536 136.46 309.631 136.449 309.706 136.44C309.861 136.46 309.94 136.489 309.945 136.527C309.995 136.636 309.996 136.722 309.946 136.784C309.796 136.973 309.637 137.087 309.47 137.126ZM315.691 136.98C315.816 136.736 315.763 136.523 315.532 136.34C315.49 136.307 315.41 136.278 315.293 136.253C315.196 136.245 315.1 136.237 315.004 136.229C314.924 136.2 314.847 136.19 314.771 136.199C314.105 136.047 313.441 135.914 312.779 135.799C312.155 135.681 311.51 135.545 310.844 135.393L310.624 135.218C310.434 134.897 310.255 134.584 310.086 134.279C309.934 133.953 309.763 133.629 309.573 133.308C309.43 133.057 309.379 132.863 309.42 132.725C309.482 132.603 309.618 132.454 309.826 132.277C309.951 132.206 310.087 132.142 310.233 132.087C310.396 132.011 310.628 131.956 310.93 131.921C311.248 131.865 311.559 131.839 311.865 131.842C312.187 131.823 312.495 131.845 312.788 131.907C313.081 131.968 313.301 132.057 313.448 132.174C313.553 132.257 313.606 132.385 313.607 132.556C313.62 132.669 313.71 132.792 313.878 132.925C314.067 132.904 314.227 132.809 314.361 132.641C314.444 132.536 314.475 132.389 314.453 132.201C314.438 131.745 314.339 131.375 314.153 131.091C313.989 130.824 313.749 130.565 313.434 130.316C312.93 129.916 312.393 129.644 311.823 129.5C311.27 129.335 310.663 129.281 310.002 129.338C308.772 129.423 308.107 130.11 308.008 131.4C307.919 132.116 308.016 132.791 308.299 133.426C308.582 134.061 308.893 134.684 309.23 135.293C309.009 135.357 308.806 135.419 308.622 135.478C308.438 135.537 308.254 135.597 308.07 135.656C307.468 135.897 307.196 136.348 307.253 137.009C307.336 137.725 307.65 138.299 308.196 138.732C308.658 139.098 309.203 139.274 309.831 139.259C310.785 139.263 311.275 138.796 311.3 137.859C311.312 137.628 311.286 137.402 311.222 137.181C311.196 136.955 311.178 136.719 311.169 136.472C311.596 136.537 312.034 136.61 312.482 136.692C312.968 136.77 313.443 136.839 313.908 136.899C314.159 136.928 314.41 136.956 314.662 136.984C314.934 137.029 315.206 137.074 315.479 137.119C315.591 137.106 315.662 137.059 315.691 136.98Z" fill="#ECE9E1"/>
<path d="M189.247 137.332C189.009 137.431 188.947 137.641 189.061 137.962C189.205 138.448 189.439 138.72 189.762 138.776C190.084 138.832 190.453 138.823 190.866 138.749C191.453 138.53 192.026 138.314 192.585 138.1C193.149 137.914 193.724 137.712 194.311 137.493C194.522 137.398 194.732 137.304 194.943 137.209C195.159 137.142 195.374 137.075 195.59 137.008C195.783 136.974 195.862 136.86 195.828 136.667C195.746 136.369 195.586 136.113 195.349 135.899C195.112 135.686 194.853 135.59 194.572 135.612C194.287 135.606 194.02 135.625 193.772 135.669C193.524 135.714 193.262 135.76 192.986 135.81C192.738 135.854 192.581 135.768 192.514 135.553C192.031 134.444 191.587 133.315 191.182 132.164C190.805 131.008 190.483 129.843 190.216 128.667C189.706 126.454 189.238 124.234 188.812 122.006C188.412 119.773 188.11 117.523 187.903 115.256C187.845 114.612 187.806 113.993 187.785 113.4C187.787 112.773 187.786 112.134 187.783 111.48C187.799 111.249 187.901 111.103 188.089 111.041C188.299 110.947 188.51 110.852 188.721 110.758C188.959 110.658 189.197 110.559 189.435 110.459C189.729 110.35 189.994 110.245 190.233 110.146C190.498 110.041 190.783 109.962 191.086 109.908C191.224 109.883 191.348 109.861 191.458 109.841C191.596 109.817 191.739 109.82 191.887 109.85C191.914 109.845 191.93 109.857 191.935 109.884C191.963 109.879 191.99 109.874 192.018 109.869C192.156 109.845 192.177 109.727 192.083 109.516C191.926 109.118 191.622 108.845 191.169 108.698C190.678 108.502 190.158 108.453 189.606 108.551C188.945 108.669 188.24 108.866 187.493 109.142C186.769 109.386 186.04 109.686 185.308 110.045C184.603 110.399 183.919 110.791 183.257 111.222C182.622 111.649 182.063 112.104 181.581 112.589C181.418 112.789 181.411 112.989 181.56 113.19C181.71 113.391 181.885 113.573 182.085 113.736C182.307 113.867 182.57 113.905 182.873 113.851C182.956 113.836 183.075 113.786 183.231 113.702C183.519 113.565 183.791 113.417 184.047 113.257C184.331 113.093 184.614 112.928 184.898 112.764C184.975 112.721 185.042 112.695 185.097 112.685C185.175 112.643 185.253 112.601 185.33 112.558L185.353 112.682C185.316 113.912 185.349 115.129 185.451 116.334C185.58 117.534 185.723 118.732 185.88 119.927C186.106 121.508 186.356 123.071 186.632 124.614C186.931 126.125 187.29 127.654 187.708 129.201C188.055 130.504 188.455 131.784 188.907 133.04C189.354 134.269 189.975 135.438 190.771 136.547L189.247 137.332Z" fill="#ECE9E1"/>
<path d="M200.098 116.359C199.721 115.935 199.321 115.728 198.897 115.737C198.497 115.714 198.061 115.738 197.591 115.811L196.138 116.036C195.976 116.089 195.812 116.128 195.646 116.154C195.48 116.18 195.316 116.219 195.155 116.272C195.17 116.185 195.171 116.1 195.158 116.017C195.236 115.608 195.301 115.201 195.352 114.797C195.398 114.365 195.447 113.946 195.498 113.542C195.509 113.427 195.473 113.291 195.392 113.133C195.088 112.812 194.714 112.685 194.271 112.754C194.101 112.752 193.985 112.826 193.923 112.978C193.885 113.097 193.849 113.23 193.815 113.377C193.67 113.909 193.542 114.453 193.429 115.009C193.34 115.533 193.224 116.061 193.079 116.593C193.054 116.795 192.986 116.905 192.875 116.922C192.445 117.073 192.029 117.223 191.627 117.37C191.197 117.521 190.751 117.661 190.289 117.789L189.998 117.834C189.86 117.855 189.733 117.861 189.618 117.85C189.476 117.844 189.34 117.794 189.213 117.7C189.144 117.626 189.069 117.595 188.986 117.608C188.898 117.593 188.813 117.592 188.73 117.605C188.62 117.622 188.553 117.646 188.529 117.678C188.495 117.825 188.51 117.922 188.574 117.969C189.034 118.379 189.459 118.654 189.849 118.792C190.238 118.93 190.779 118.946 191.471 118.839C191.941 118.766 192.392 118.654 192.822 118.503C192.858 118.554 192.876 118.579 192.876 118.579C192.783 119.444 192.745 120.3 192.763 121.147C192.808 121.99 192.853 122.833 192.898 123.676C192.98 124.939 193.101 126.181 193.261 127.403C193.449 128.62 193.709 129.841 194.039 131.065C194.15 131.416 194.277 131.779 194.42 132.154C194.591 132.524 194.796 132.847 195.037 133.121C195.278 133.396 195.567 133.62 195.906 133.794C196.24 133.941 196.629 133.98 197.072 133.912C197.57 133.835 198.008 133.555 198.387 133.071C198.793 132.583 199.131 132.021 199.401 131.384C199.671 130.748 199.884 130.106 200.039 129.458C200.217 128.779 200.318 128.239 200.341 127.839C200.358 127.582 200.319 127.418 200.223 127.347C200.123 127.25 199.958 127.19 199.728 127.169C199.447 127.184 199.29 127.364 199.259 127.709C199.208 128.113 199.108 128.568 198.959 129.073C198.811 129.577 198.632 130.072 198.424 130.558C198.211 131.016 197.969 131.464 197.696 131.903C197.42 132.314 197.105 132.66 196.752 132.941C196.671 132.784 196.592 132.64 196.515 132.51C196.462 132.348 196.411 132.201 196.362 132.066C196.229 131.577 196.097 131.087 195.965 130.598C195.86 130.104 195.753 129.596 195.645 129.075C195.249 126.699 195.008 124.314 194.922 121.919C194.906 121.269 194.905 120.618 194.917 119.964C194.93 119.311 194.956 118.655 194.996 117.997C194.966 117.803 195.034 117.694 195.2 117.668C195.792 117.463 196.386 117.272 196.982 117.095C197.574 116.89 198.167 116.7 198.763 116.523L198.971 116.49C199.165 116.461 199.33 116.52 199.466 116.669C199.511 116.775 199.607 116.846 199.754 116.88C199.869 116.89 199.968 116.889 200.051 116.876C200.134 116.863 200.233 116.862 200.348 116.873C200.307 116.794 200.264 116.702 200.22 116.595C200.203 116.484 200.162 116.406 200.098 116.359Z" fill="#ECE9E1"/>
<path d="M206.069 126.329C205.632 127.344 205.184 128.275 204.727 129.123C204.265 129.943 203.599 130.704 202.728 131.406C202.578 131.566 202.412 131.7 202.228 131.807C202.068 131.884 201.884 131.992 201.676 132.131C201.488 131.759 201.373 131.407 201.331 131.073C201.317 130.736 201.332 130.41 201.377 130.094C201.408 129.667 201.502 129.175 201.658 128.619C201.838 128.032 202.063 127.468 202.334 126.926C202.632 126.38 202.983 125.913 203.385 125.523C203.788 125.134 204.239 124.908 204.739 124.845C205.045 124.807 205.319 124.857 205.563 124.996C205.834 125.131 206.016 125.348 206.11 125.647C206.197 125.89 206.183 126.117 206.069 126.329ZM212.633 125.335C212.452 125.245 212.334 125.203 212.278 125.21C212.195 125.221 212.092 125.304 211.971 125.46C211.523 126.166 211.045 126.847 210.534 127.504C210.049 128.129 209.502 128.72 208.895 129.276C208.79 129.346 208.726 129.396 208.702 129.427C208.674 129.431 208.646 129.434 208.619 129.438C208.615 129.41 208.599 129.398 208.572 129.401C208.613 128.832 208.639 128.25 208.649 127.656C208.659 127.062 208.684 126.48 208.726 125.911C208.777 125.424 208.605 125.065 208.209 124.833C208.087 124.763 207.895 124.689 207.631 124.609C207.391 124.498 207.202 124.451 207.063 124.469C206.896 124.49 206.766 124.576 206.672 124.729C206.231 124.361 205.697 124.048 205.072 123.787C204.447 123.527 203.828 123.436 203.217 123.513C202.745 123.572 202.288 123.756 201.847 124.066C201.434 124.372 201.082 124.712 200.79 125.088C200.159 125.901 199.691 126.778 199.386 127.72C199.077 128.633 199.017 129.614 199.205 130.663C199.261 131.108 199.425 131.511 199.696 131.872C199.939 132.236 200.233 132.552 200.577 132.819C200.949 133.083 201.355 133.286 201.796 133.428C202.234 133.542 202.675 133.571 203.12 133.516C203.536 133.463 203.941 133.314 204.333 133.067C204.726 132.82 205.083 132.521 205.406 132.17C205.757 131.815 206.062 131.438 206.322 131.039C206.61 130.636 206.846 130.267 207.03 129.934C207.565 130.826 208.208 131.225 208.958 131.131C209.375 131.078 209.785 130.857 210.187 130.468C210.618 130.075 211.012 129.617 211.369 129.092C211.751 128.536 212.091 127.985 212.389 127.44C212.684 126.867 212.906 126.387 213.055 126.001C213.159 125.706 213.018 125.484 212.633 125.335Z" fill="#ECE9E1"/>
<path d="M218.856 124.761C218.714 124.747 218.619 124.784 218.571 124.873C218.549 124.932 218.516 125.034 218.474 125.178C218.24 126.242 217.843 127.223 217.283 128.121C216.748 128.989 216.111 129.811 215.37 130.586C215.342 130.589 215.313 130.578 215.283 130.552C215.189 130.168 215.081 129.784 214.96 129.402C214.866 129.017 214.787 128.631 214.721 128.244C214.606 127.355 214.506 126.464 214.419 125.572C214.36 124.678 214.302 123.783 214.243 122.888C214.159 120.871 214.175 118.858 214.289 116.849C214.404 114.841 214.56 112.828 214.758 110.811C214.781 110.471 214.729 110.223 214.601 110.067C214.471 109.882 214.259 109.734 213.967 109.622C213.85 109.577 213.778 109.556 213.75 109.559C213.638 109.569 213.549 109.663 213.482 109.838C213.079 111.199 212.761 112.553 212.526 113.898C212.29 115.243 212.129 116.623 212.041 118.038C211.945 119.651 211.906 121.273 211.923 122.903C211.966 124.502 212.108 126.106 212.348 127.715C212.45 128.183 212.57 128.692 212.708 129.241C212.845 129.79 213.049 130.291 213.318 130.743C213.584 131.167 213.913 131.515 214.305 131.787C214.725 132.055 215.242 132.16 215.855 132.1C216.301 132.057 216.75 131.76 217.203 131.21C217.656 130.659 218.059 130.029 218.412 129.32C218.791 128.58 219.084 127.834 219.292 127.082C219.498 126.303 219.578 125.676 219.532 125.202C219.546 125.06 219.479 124.954 219.332 124.884C219.212 124.811 219.054 124.77 218.856 124.761Z" fill="#ECE9E1"/>
<path d="M224.322 124.361C224.143 124.234 223.956 124.179 223.761 124.194C223.565 124.21 223.378 124.323 223.198 124.534C223.02 124.772 222.857 125.024 222.71 125.288C222.56 125.525 222.396 125.763 222.218 126.001C222.017 126.298 221.83 126.594 221.656 126.889C221.481 127.155 221.291 127.423 221.088 127.692C221.06 127.694 221.031 127.682 221.001 127.657C220.969 127.603 220.948 127.52 220.939 127.409C220.927 126.904 220.902 126.401 220.862 125.898C220.822 125.396 220.797 124.906 220.788 124.429C220.808 123.978 220.815 123.528 220.808 123.079C220.828 122.628 220.849 122.177 220.869 121.726C220.879 121.136 220.581 120.752 219.978 120.575C219.806 120.532 219.706 120.512 219.678 120.514C219.566 120.523 219.45 120.659 219.331 120.921C219.132 121.611 218.964 122.326 218.826 123.067C218.714 123.779 218.659 124.499 218.66 125.229C218.665 125.65 218.684 126.07 218.718 126.489C218.723 126.91 218.77 127.327 218.859 127.742C219.098 128.987 219.824 129.646 221.037 129.718C221.123 129.74 221.236 129.745 221.376 129.734C221.822 129.698 222.156 129.475 222.376 129.065C222.496 128.803 222.63 128.539 222.777 128.275C222.925 128.01 223.071 127.732 223.217 127.439C223.409 127.031 223.616 126.621 223.836 126.211C224.054 125.772 224.273 125.347 224.494 124.937C224.616 124.702 224.558 124.51 224.322 124.361ZM219.71 118.784C219.798 118.833 220.002 118.93 220.322 119.073C220.643 119.216 220.859 119.283 220.97 119.274C221.11 119.263 221.2 119.158 221.24 118.958C221.257 118.816 221.275 118.689 221.294 118.575C221.313 118.461 221.331 118.333 221.348 118.191C221.377 117.852 221.287 117.592 221.076 117.412C220.863 117.204 220.575 117.115 220.212 117.143C219.849 117.172 219.614 117.401 219.508 117.831C219.318 118.267 219.385 118.585 219.71 118.784Z" fill="#ECE9E1"/>
<path d="M229.945 123.966C229.436 124.947 228.923 125.843 228.405 126.656C227.886 127.44 227.166 128.151 226.246 128.789C226.086 128.937 225.91 129.059 225.719 129.153C225.554 129.218 225.363 129.312 225.145 129.436C224.984 129.052 224.895 128.692 224.878 128.356C224.888 128.019 224.927 127.695 224.994 127.383C225.056 126.959 225.185 126.475 225.38 125.932C225.602 125.36 225.868 124.813 226.177 124.292C226.514 123.769 226.897 123.328 227.327 122.969C227.756 122.61 228.223 122.417 228.726 122.39C229.034 122.374 229.304 122.444 229.536 122.6C229.797 122.754 229.963 122.984 230.036 123.288C230.105 123.537 230.075 123.763 229.945 123.966ZM236.564 123.448C236.39 123.345 236.275 123.295 236.219 123.298C236.135 123.302 236.027 123.378 235.895 123.525C235.397 124.197 234.871 124.841 234.315 125.46C233.785 126.049 233.197 126.598 232.551 127.109C232.442 127.171 232.374 127.217 232.348 127.246C232.32 127.248 232.292 127.249 232.264 127.251C232.263 127.223 232.248 127.209 232.22 127.211C232.302 126.646 232.37 126.067 232.423 125.476C232.475 124.884 232.543 124.306 232.625 123.74C232.712 123.259 232.566 122.888 232.188 122.628C232.072 122.55 231.885 122.462 231.627 122.363C231.396 122.235 231.211 122.175 231.071 122.182C230.903 122.191 230.767 122.268 230.662 122.414C230.249 122.015 229.739 121.664 229.134 121.359C228.529 121.055 227.919 120.919 227.304 120.951C226.829 120.976 226.36 121.127 225.898 121.404C225.464 121.68 225.088 121.994 224.77 122.347C224.082 123.113 223.551 123.954 223.179 124.871C222.805 125.76 222.675 126.734 222.787 127.794C222.81 128.241 222.945 128.655 223.189 129.034C223.405 129.416 223.676 129.752 223.999 130.043C224.351 130.333 224.742 130.565 225.172 130.738C225.6 130.884 226.038 130.945 226.485 130.921C226.905 130.899 227.319 130.779 227.728 130.561C228.137 130.343 228.516 130.071 228.863 129.744C229.238 129.416 229.57 129.062 229.858 128.682C230.174 128.301 230.436 127.95 230.644 127.631C231.114 128.559 231.726 129.004 232.481 128.964C232.9 128.942 233.325 128.751 233.755 128.392C234.212 128.031 234.638 127.602 235.032 127.104C235.453 126.577 235.832 126.052 236.169 125.53C236.504 124.979 236.76 124.517 236.937 124.143C237.062 123.856 236.937 123.625 236.564 123.448Z" fill="#ECE9E1"/>
<path d="M246.184 123.174C246.128 123.175 246.086 123.176 246.058 123.176C246.03 123.149 246.002 123.135 245.974 123.136C245.806 123.139 245.682 123.282 245.604 123.563C245.551 123.733 245.512 123.845 245.485 123.902C245.168 124.861 244.625 125.726 243.856 126.497C243.855 126.413 243.839 126.344 243.81 126.288C243.809 126.232 243.808 126.176 243.807 126.12C243.772 125.785 243.738 125.463 243.703 125.156C243.697 124.82 243.676 124.498 243.642 124.191C243.577 123.744 243.498 123.312 243.406 122.893C243.341 122.447 243.207 122.029 243.003 121.641C242.509 120.783 241.759 120.364 240.751 120.384C240.051 120.398 239.413 120.705 238.837 121.305C238.755 121.418 238.673 121.518 238.591 121.604C238.508 121.689 238.413 121.803 238.304 121.946C238.328 121.777 238.339 121.623 238.336 121.483C238.333 121.315 238.344 121.161 238.369 121.02C238.361 120.628 238.174 120.366 237.807 120.233C237.722 120.207 237.624 120.181 237.511 120.155C237.427 120.129 237.343 120.116 237.259 120.118C237.035 120.123 236.881 120.154 236.798 120.211C236.743 120.24 236.675 120.368 236.596 120.594C236.467 121.128 236.351 121.649 236.249 122.155C236.147 122.661 236.045 123.167 235.944 123.673C235.817 124.348 235.705 125.023 235.606 125.697C235.508 126.371 235.479 127.058 235.521 127.757C235.552 127.896 235.597 128.05 235.657 128.216C235.716 128.355 235.815 128.451 235.957 128.505C236.38 128.664 236.802 128.782 237.224 128.857C237.588 128.85 237.809 128.677 237.886 128.34C238.174 127.354 238.49 126.367 238.835 125.38C239.178 124.365 239.65 123.431 240.249 122.579C240.357 122.408 240.48 122.252 240.617 122.109C240.782 121.938 240.933 121.767 241.069 121.596C241.098 121.623 241.112 121.637 241.112 121.637C241.14 121.637 241.168 121.65 241.197 121.677C241.261 122.068 241.31 122.445 241.346 122.809C241.381 123.172 241.417 123.55 241.452 123.941C241.518 124.416 241.57 124.891 241.607 125.366C241.672 125.813 241.751 126.274 241.845 126.748C241.938 127.222 242.184 127.595 242.582 127.867C243.007 128.111 243.457 128.228 243.933 128.218C244.325 128.21 244.686 128.035 245.015 127.692C245.343 127.322 245.629 126.91 245.872 126.457C246.143 125.975 246.357 125.481 246.515 124.974C246.672 124.466 246.763 124.072 246.785 123.792C246.806 123.455 246.606 123.249 246.184 123.174Z" fill="#ECE9E1"/>
<path d="M270.46 121.813C270.458 121.84 270.442 121.867 270.412 121.894C270.412 121.894 270.411 121.907 270.409 121.935C269.983 123.254 269.451 124.495 268.811 125.658C268.173 126.794 267.358 127.848 266.366 128.819C266.275 128.925 266.109 129.097 265.868 129.333C265.658 129.543 265.419 129.752 265.152 129.958C264.886 130.165 264.62 130.357 264.356 130.536C264.121 130.688 263.92 130.759 263.752 130.748C263.668 130.742 263.54 130.565 263.367 130.216C262.997 129.462 262.753 128.702 262.637 127.936C262.522 127.142 262.562 126.345 262.756 125.544C262.907 124.965 263.113 124.418 263.372 123.902C263.659 123.388 264.054 122.952 264.555 122.593C264.617 122.513 264.704 122.462 264.818 122.442C264.932 122.422 265.046 122.387 265.162 122.339C265.21 122.454 265.258 122.57 265.307 122.685C265.357 122.773 265.377 122.887 265.368 123.026C265.341 123.418 265.261 123.777 265.127 124.105C265.02 124.434 264.845 124.745 264.601 125.037C264.505 125.199 264.525 125.327 264.659 125.42C264.845 125.573 265.008 125.654 265.148 125.664C265.427 125.683 265.631 125.57 265.76 125.326C266.041 124.896 266.301 124.38 266.538 123.779C266.734 123.371 266.68 122.919 266.377 122.421C266.146 122.097 265.854 121.852 265.5 121.688C265.148 121.496 264.777 121.387 264.386 121.36C263.659 121.311 263.013 121.534 262.446 122.029C261.909 122.498 261.507 123.046 261.241 123.674C260.694 124.703 260.442 125.739 260.484 126.78C260.555 127.795 260.81 128.809 261.247 129.821C261.587 130.601 262.068 131.167 262.69 131.518C263.31 131.897 264.024 132.127 264.832 132.21C265.558 132.259 266.29 132.028 267.026 131.516C267.788 131.034 268.502 130.437 269.168 129.724C269.835 128.983 270.42 128.223 270.921 127.443C271.453 126.637 271.835 125.961 272.069 125.415C272.332 124.844 272.554 124.255 272.735 123.65C272.916 123.045 273.097 122.454 273.276 121.876C273.309 121.794 273.328 121.726 273.332 121.67C273.366 121.588 273.439 121.537 273.553 121.516C274.346 121.401 275.126 121.286 275.892 121.169C276.657 121.052 277.423 120.936 278.189 120.819C278.556 120.787 278.869 120.724 279.128 120.63C279.588 120.464 279.663 120.189 279.352 119.803C278.961 119.355 278.514 119.115 278.011 119.081C276.581 119.068 275.2 119.158 273.868 119.348C273.948 118.568 274.028 117.802 274.107 117.049C274.188 116.269 274.256 115.473 274.31 114.663C274.335 113.879 274.317 113.106 274.256 112.344C274.225 111.556 274.095 110.79 273.864 110.044C273.922 110.02 273.981 109.982 274.04 109.93C275.162 109.528 276.435 109.179 277.858 108.883C279.311 108.56 280.638 108.439 281.84 108.52C282.063 108.535 282.411 108.587 282.882 108.674C283.381 108.764 283.877 108.896 284.371 109.07C284.866 109.215 285.303 109.399 285.681 109.621C286.06 109.815 286.283 110.055 286.348 110.34C286.394 110.483 286.507 110.687 286.685 110.952C286.866 111.189 287.026 111.312 287.166 111.321C287.333 111.333 287.397 111.225 287.356 110.997C287.38 110.634 287.317 110.321 287.167 110.058C286.953 109.483 286.538 108.977 285.922 108.543C285.333 108.11 284.671 107.743 283.933 107.44C283.196 107.138 282.44 106.905 281.665 106.74C280.92 106.549 280.282 106.436 279.752 106.4C278.969 106.347 278.153 106.377 277.304 106.488C276.456 106.571 275.605 106.71 274.75 106.905C273.923 107.101 273.093 107.34 272.26 107.62C271.457 107.875 270.695 108.146 269.974 108.434C269.31 108.698 268.675 108.964 268.067 109.232C267.462 109.472 266.841 109.724 266.206 109.99C266.061 110.065 265.902 110.124 265.731 110.169C265.559 110.213 265.388 110.258 265.217 110.302C265.234 110.051 265.293 109.788 265.396 109.515C265.499 109.241 265.628 108.983 265.785 108.741C265.942 108.499 266.111 108.286 266.291 108.102C266.472 107.917 266.649 107.789 266.823 107.716C266.817 107.8 266.798 107.869 266.767 107.923C266.696 108.143 266.67 108.31 266.691 108.423C266.739 108.539 266.856 108.673 267.042 108.826C267.176 108.919 267.271 108.968 267.327 108.971C267.467 108.981 267.585 108.891 267.682 108.701C268.031 108.107 267.973 107.513 267.508 106.921C267.143 106.503 266.765 106.281 266.374 106.255C266.011 106.23 265.668 106.319 265.346 106.522C265.023 106.725 264.725 106.985 264.451 107.304C264.205 107.624 263.985 107.974 263.791 108.354C263.626 108.707 263.506 109.036 263.429 109.34C263.349 109.699 263.38 110.066 263.523 110.441C263.668 110.787 263.87 111.124 264.129 111.45C264.417 111.75 264.75 112.011 265.128 112.233C265.508 112.427 265.88 112.536 266.243 112.561C266.55 112.582 266.932 112.537 267.389 112.428C267.845 112.318 268.232 112.204 268.548 112.085C269.094 111.897 269.613 111.694 270.105 111.474C270.625 111.257 271.145 111.039 271.665 110.822C271.723 110.798 271.779 110.788 271.835 110.791C271.893 110.767 271.951 110.743 272.009 110.719C272.005 110.775 272.002 110.817 272 110.845C272.026 110.874 272.038 110.903 272.036 110.931C272.104 112.423 272.033 113.892 271.823 115.337C271.641 116.784 271.375 118.226 271.026 119.662C271.02 119.745 270.945 119.825 270.799 119.899C270.514 119.964 270.229 120.029 269.944 120.094C269.689 120.133 269.419 120.185 269.134 120.25C268.849 120.315 268.768 120.463 268.893 120.696C269.021 120.873 269.165 121.037 269.323 121.189C269.511 121.313 269.686 121.424 269.848 121.519C270.04 121.588 270.245 121.672 270.462 121.771C270.462 121.771 270.461 121.785 270.46 121.813Z" fill="#ECE9E1"/>
<path d="M280.191 129.433C280.055 129.643 279.82 129.857 279.486 130.074C279.183 130.266 278.906 130.348 278.656 130.32C278.517 130.305 278.387 130.206 278.266 130.023C277.87 129.275 277.79 128.464 278.028 127.588C278.188 126.902 278.413 126.265 278.704 125.677C279.022 125.092 279.473 124.579 280.057 124.136C280.119 124.086 280.27 123.991 280.511 123.848C280.753 123.706 280.929 123.641 281.04 123.653C281.151 123.665 281.212 123.756 281.221 123.926C281.24 124.013 281.292 124.174 281.379 124.409C281.15 124.44 281.017 124.496 280.98 124.576C280.946 124.629 280.947 124.755 280.981 124.956C281.201 125.77 281.242 126.549 281.103 127.294C280.964 128.039 280.66 128.752 280.191 129.433ZM287.309 126.585C287.268 126.44 287.168 126.33 287.007 126.256C286.877 126.157 286.729 126.098 286.562 126.08C286.45 126.067 286.365 126.072 286.306 126.094C285.926 126.221 285.549 126.32 285.175 126.391C284.832 126.438 284.465 126.44 284.076 126.397C283.936 126.381 283.797 126.366 283.658 126.351C283.55 126.311 283.428 126.269 283.292 126.226C283.152 126.21 283.008 126.11 282.86 125.925L282.219 124.84C282.466 124.642 282.585 124.457 282.576 124.287C282.597 124.093 282.512 123.844 282.32 123.541C282.048 123.201 281.703 122.881 281.285 122.581C280.871 122.254 280.441 122.065 279.995 122.016C279.466 121.958 278.973 122.087 278.516 122.402C278.086 122.721 277.691 123.114 277.329 123.581C276.996 124.052 276.727 124.571 276.523 125.14C276.295 125.679 276.158 126.156 276.111 126.574C275.868 128.519 276.571 130.062 278.22 131.202C278.641 131.474 279.032 131.629 279.394 131.669C280.007 131.737 280.512 131.624 280.911 131.33C281.337 131.039 281.676 130.654 281.926 130.174C282.204 129.698 282.415 129.186 282.56 128.638C282.736 128.066 282.863 127.559 282.94 127.117L283.107 127.135C283.564 127.326 283.974 127.442 284.336 127.482C284.754 127.528 285.163 127.517 285.565 127.449C285.995 127.384 286.415 127.275 286.827 127.123C286.913 127.105 287.049 127.021 287.235 126.872C287.327 126.798 287.352 126.702 287.309 126.585Z" fill="#ECE9E1"/>
<path d="M289.881 130.734C289.739 130.94 289.498 131.146 289.158 131.353C288.849 131.536 288.57 131.61 288.321 131.575C288.182 131.556 288.055 131.453 287.94 131.268C287.566 130.508 287.51 129.695 287.773 128.827C287.953 128.145 288.197 127.515 288.504 126.936C288.839 126.36 289.305 125.86 289.902 125.435C289.965 125.387 290.119 125.296 290.364 125.16C290.61 125.025 290.788 124.965 290.899 124.981C291.009 124.996 291.067 125.089 291.072 125.259C291.088 125.346 291.136 125.509 291.216 125.746C290.986 125.77 290.851 125.822 290.812 125.902C290.777 125.953 290.773 126.08 290.801 126.282C290.997 127.101 291.015 127.881 290.855 128.622C290.695 129.363 290.37 130.067 289.881 130.734ZM297.079 128.094C297.043 127.948 296.946 127.835 296.787 127.756C296.66 127.654 296.513 127.591 296.347 127.567C296.236 127.552 296.151 127.554 296.091 127.574C295.708 127.69 295.328 127.778 294.952 127.839C294.607 127.875 294.241 127.866 293.853 127.812C293.714 127.792 293.575 127.773 293.437 127.754C293.33 127.71 293.209 127.665 293.074 127.618C292.935 127.599 292.794 127.494 292.651 127.304L292.042 126.201C292.295 126.01 292.42 125.83 292.415 125.66C292.442 125.465 292.364 125.214 292.181 124.906C291.919 124.558 291.584 124.228 291.175 123.917C290.77 123.577 290.346 123.376 289.902 123.314C289.375 123.24 288.878 123.355 288.412 123.657C287.973 123.963 287.566 124.344 287.191 124.801C286.844 125.261 286.56 125.773 286.34 126.336C286.096 126.867 285.945 127.341 285.887 127.757C285.587 129.694 286.245 131.256 287.86 132.444C288.273 132.728 288.659 132.895 289.02 132.946C289.63 133.031 290.138 132.933 290.545 132.65C290.98 132.372 291.33 131.997 291.594 131.525C291.886 131.057 292.112 130.551 292.273 130.008C292.465 129.441 292.606 128.938 292.696 128.498L292.863 128.521C293.315 128.726 293.721 128.854 294.081 128.904C294.497 128.962 294.907 128.963 295.311 128.907C295.743 128.854 296.166 128.758 296.581 128.618C296.669 128.602 296.807 128.522 296.997 128.379C297.091 128.308 297.119 128.213 297.079 128.094Z" fill="#ECE9E1"/>
<path d="M297.092 133.362C297.062 133.044 297.062 132.717 297.092 132.382C297.15 132.05 297.233 131.738 297.34 131.444C297.641 130.53 298.08 129.64 298.657 128.774C299.262 127.913 300.035 127.308 300.976 126.96C301.134 126.874 301.267 126.84 301.378 126.859C301.46 126.874 301.565 127.006 301.693 127.255C301.729 127.375 301.751 127.493 301.759 127.608C301.795 127.728 301.831 127.848 301.867 127.968C301.902 128.258 301.94 128.449 301.981 128.542C302.026 128.606 302.159 128.743 302.378 128.952C301.722 129.946 300.981 130.855 300.156 131.678C299.363 132.478 298.342 133.039 297.092 133.362ZM309.311 130.029C309.159 129.918 309.015 129.85 308.877 129.826C308.656 129.788 308.467 129.897 308.308 130.153C307.997 130.639 307.648 131.09 307.263 131.506C306.878 131.923 306.445 132.288 305.964 132.602C305.802 132.716 305.629 132.814 305.444 132.896C305.287 132.982 305.114 133.08 304.924 133.189C304.921 133.046 304.901 132.915 304.865 132.795C304.768 132.21 304.756 131.625 304.829 131.041C304.902 130.456 304.989 129.875 305.09 129.295C305.338 128.031 305.639 126.79 305.993 125.573C306.351 124.328 306.751 123.09 307.192 121.859C307.587 120.734 307.982 119.609 308.376 118.484C308.798 117.363 309.22 116.243 309.643 115.123C309.942 114.379 309.709 113.841 308.943 113.509L308.818 113.487C308.68 113.463 308.558 113.513 308.451 113.637C308.363 113.82 308.262 113.987 308.151 114.139C308.039 114.29 307.939 114.457 307.851 114.641C306.801 116.59 305.852 118.613 305.005 120.711C304.161 122.782 303.454 124.89 302.882 127.036C302.563 126.582 302.193 126.177 301.772 125.819C301.383 125.439 300.899 125.199 300.32 125.098C299.575 124.969 298.827 125.18 298.078 125.732C296.25 127.091 295.176 128.936 294.856 131.268C294.743 132.243 294.94 133.073 295.446 133.758C295.98 134.448 296.716 134.874 297.654 135.037C298.454 135.176 299.15 135.013 299.743 134.548C300.363 134.087 300.919 133.587 301.41 133.047C301.587 132.85 301.749 132.651 301.898 132.45C302.074 132.253 302.253 132.042 302.434 131.818C302.47 131.938 302.501 132.086 302.528 132.261C302.878 133.515 303.724 134.288 305.067 134.578C305.563 134.664 306.036 134.562 306.484 134.27C306.933 133.979 307.338 133.609 307.7 133.16C308.09 132.716 308.427 132.249 308.712 131.758C309.028 131.245 309.273 130.818 309.446 130.479C309.534 130.295 309.489 130.146 309.311 130.029Z" fill="#ECE9E1"/>
</svg>
