<svg width="490" height="151" viewBox="0 0 490 151" fill="none" xmlns="http://www.w3.org/2000/svg">
<path d="M474.672 28.2193C484.819 30.4889 491.016 40.5013 488.846 50.6703L472.365 127.92C469.848 139.717 457.225 146.641 445.675 143.161C412.194 133.072 341.748 116.221 244.72 116.221C147.691 116.221 77.2438 133.072 43.762 143.161C32.2124 146.641 19.5892 139.717 17.0725 127.92L0.592454 50.67C-1.57692 40.5011 4.61979 30.4889 14.7668 28.2193C53.7895 19.4911 150.121 0.357422 244.72 0.357422C339.318 0.357422 435.649 19.491 474.672 28.2193Z" fill="#D3413B"/>
<path d="M98.2694 38.086L112.06 97.752C112.195 98.3344 112.105 98.8765 111.792 99.3784C111.478 99.8803 111.03 100.199 110.448 100.333L97.2567 103.382C96.6743 103.517 96.1322 103.427 95.6303 103.114C95.1284 102.8 94.8101 102.352 94.6755 101.77L88.174 73.6405C88.0394 73.0582 87.7033 72.7984 87.1657 72.8613C86.628 72.9242 86.2384 73.229 85.9966 73.7757L76.7922 100.842C76.6087 101.375 76.1966 101.716 75.556 101.864C74.9153 102.012 74.3664 101.893 73.9093 101.508L53.7613 81.2262C53.3624 80.8276 52.9076 80.718 52.3969 80.8974C51.8862 81.0768 51.6982 81.4577 51.8328 82.0401L58.3343 110.17C58.4689 110.752 58.3795 111.294 58.0661 111.796C57.7526 112.298 57.3047 112.616 56.7223 112.751L43.5311 115.8C42.9488 115.934 42.4066 115.845 41.9047 115.531C41.4028 115.218 41.0846 114.77 40.95 114.188L27.1594 54.5216C27.0248 53.9392 27.1142 53.3971 27.4276 52.8952C27.7411 52.3933 28.189 52.075 28.7714 51.9404L41.0016 49.1137C41.584 48.9791 42.2359 49.0124 42.9573 49.2138C43.6787 49.4152 44.2388 49.7152 44.6377 50.1138L67.1045 70.8722C67.5616 71.2574 68.0231 71.3961 68.489 71.2884C68.955 71.1807 69.2797 70.8603 69.4632 70.3271L80.5421 41.8152C80.7839 41.2685 81.1847 40.7464 81.7446 40.2489C82.3044 39.7514 82.8755 39.4354 83.4579 39.3008L95.6882 36.474C96.2705 36.3394 96.8127 36.4288 97.3146 36.7423C97.8165 37.0557 98.1347 37.5036 98.2694 38.086Z" fill="#ECE9E1"/>
<path d="M139.748 31.9804C139.922 31.4181 140.256 30.9274 140.748 30.5081C141.292 30.0225 141.891 29.7412 142.544 29.6641L155.01 28.1926C155.604 28.1226 156.192 28.2637 156.776 28.6162C157.411 28.9023 157.879 29.2985 158.18 29.8047L191.328 87.2852C191.628 87.7915 191.636 88.3624 191.35 88.9981C191.123 89.6267 190.534 89.9971 189.585 90.1092L174.358 91.9066C173.705 91.9836 173.061 91.8791 172.425 91.593C171.842 91.2405 171.37 90.8147 171.01 90.3155L167.976 85.2566C167.616 84.7574 167.118 84.3648 166.482 84.0787C165.899 83.7262 165.311 83.585 164.717 83.655L145.929 85.8728C145.276 85.9499 144.677 86.2312 144.132 86.7168C143.64 87.1361 143.307 87.6268 143.133 88.1891L141.27 93.826C141.096 94.3883 140.736 94.9123 140.192 95.3979C139.699 95.8171 139.156 96.0618 138.563 96.1318L123.247 97.9397C122.95 97.9747 122.647 97.9504 122.336 97.8667C121.966 97.79 121.677 97.6434 121.471 97.427C121.206 97.2176 121.022 96.9383 120.921 96.5891C120.82 96.24 120.86 95.8139 121.041 95.311L139.748 31.9804ZM149.574 70.0942L157.499 69.1588C158.092 69.0887 158.487 68.8616 158.682 68.4774C158.93 68.0268 158.874 67.5519 158.514 67.0527C157.745 65.6387 156.83 64.0013 155.767 62.1404C154.698 60.2202 153.705 58.4414 152.79 56.8039C152.489 56.2977 152.191 56.0621 151.894 56.0972C151.597 56.1322 151.362 56.4308 151.187 56.9931L148.007 68.2929C147.832 68.8552 147.888 69.3301 148.175 69.7176C148.454 70.0458 148.921 70.1713 149.574 70.0942Z" fill="#ECE9E1"/>
<path d="M215.233 89.2311L201.877 89.5423C201.279 89.5562 200.766 89.3589 200.338 88.9504C199.91 88.5418 199.689 88.0387 199.675 87.4411L198.247 26.1292C198.233 25.5316 198.43 25.0188 198.839 24.5907C199.247 24.1626 199.75 23.9417 200.348 23.9277L228.225 23.2782C231.691 23.1974 234.902 23.7205 237.858 24.8474C240.813 25.9146 243.33 27.4703 245.411 29.5145C247.551 31.5573 249.222 33.9997 250.425 36.8416C251.687 39.6822 252.358 42.8354 252.439 46.3014C252.483 48.2137 252.289 50.1315 251.855 52.0549C251.48 53.9172 250.894 55.6947 250.096 57.3874C249.298 59.0801 248.348 60.6269 247.245 62.0278C246.14 63.369 244.881 64.5044 243.467 65.4342C242.998 65.8039 242.679 66.2597 242.513 66.8017C242.404 67.2826 242.535 67.7579 242.905 68.2276C245.245 71.1626 247.707 74.1844 250.291 77.2932C252.874 80.4019 255.183 83.2479 257.216 85.8313C257.586 86.301 257.688 86.8368 257.523 87.4385C257.356 87.9805 256.974 88.2585 256.376 88.2724L239.704 88.6609C239.106 88.6748 238.445 88.5408 237.721 88.2587C237.056 87.9154 236.538 87.509 236.168 87.0393C234.197 84.574 232.226 82.0788 230.254 79.5538C228.341 77.0273 226.428 74.471 224.515 71.8848C224.145 71.4151 223.628 71.0385 222.964 70.755C222.298 70.4118 221.666 70.2471 221.069 70.261L219.097 70.307C218.499 70.3209 217.996 70.5419 217.587 70.97C217.179 71.398 216.982 71.9108 216.996 72.5084L217.334 87.0297C217.348 87.6273 217.15 88.1401 216.742 88.5681C216.333 88.9962 215.83 89.2172 215.233 89.2311ZM218.712 53.8137L228.214 53.5923C228.931 53.5756 229.675 53.4387 230.447 53.1816C231.216 52.8647 231.924 52.4296 232.569 51.8765C233.212 51.2636 233.733 50.534 234.132 49.6876C234.531 48.8413 234.717 47.8504 234.69 46.715C234.677 46.1174 234.541 45.4329 234.284 44.6617C234.085 43.8292 233.708 43.0607 233.154 42.3561C232.658 41.5904 231.956 40.979 231.048 40.5218C230.199 40.0035 229.147 39.7589 227.892 39.7882L218.391 40.0096C217.793 40.0235 217.29 40.2445 216.881 40.6725C216.473 41.1006 216.276 41.6134 216.29 42.211L216.511 51.7125C216.525 52.3101 216.746 52.8132 217.174 53.2218C217.602 53.6303 218.115 53.8276 218.712 53.8137Z" fill="#ECE9E1"/>
<path d="M282.227 89.7189L268.701 89.126C268.044 89.0972 267.516 88.8646 267.116 88.4283C266.776 87.9945 266.619 87.4791 266.646 86.8819L269.328 25.7017C269.354 25.1045 269.555 24.6048 269.932 24.2025C270.368 23.8028 270.915 23.6173 271.572 23.6461L285.098 24.239C285.695 24.2652 286.193 24.4965 286.593 24.9328C286.993 25.3692 287.179 25.8859 287.153 26.4831L284.471 87.6633C284.445 88.2605 284.214 88.7589 283.777 89.1586C283.341 89.5583 282.824 89.7451 282.227 89.7189Z" fill="#ECE9E1"/>
<path d="M299.04 57.0955C299.587 52.4652 300.992 48.2072 303.257 44.3214C305.521 40.4356 308.346 37.1576 311.731 34.4875C315.122 31.758 318.971 29.7446 323.278 28.4472C327.584 27.1498 332.052 26.7744 336.682 27.321C341.313 27.8675 345.571 29.273 349.456 31.5373C353.342 33.8017 356.617 36.656 359.28 40.1002C362.009 43.492 364.023 47.3411 365.32 51.6473C366.617 55.9535 366.993 60.4217 366.446 65.052C365.9 69.6823 364.494 73.9403 362.23 77.8261C359.966 81.7119 357.108 85.016 353.657 87.7385C350.272 90.4086 346.426 92.3924 342.12 93.6897C337.814 94.9871 333.346 95.3625 328.715 94.816C324.085 94.2694 319.827 92.864 315.941 90.5996C312.055 88.3353 308.778 85.5107 306.107 82.1258C303.444 78.6816 301.464 74.8064 300.167 70.5002C298.869 66.194 298.494 61.7257 299.04 57.0955ZM316.671 59.1766C316.405 61.4323 316.568 63.6184 317.161 65.7349C317.754 67.8513 318.671 69.7653 319.914 71.4769C321.216 73.1955 322.79 74.6453 324.637 75.8263C326.491 76.948 328.516 77.6385 330.712 77.8977C332.909 78.157 335.039 77.957 337.103 77.2978C339.174 76.5792 341.043 75.5358 342.709 74.1676C344.375 72.7993 345.743 71.1551 346.812 69.2349C347.882 67.3147 348.549 65.2267 348.816 62.9709C349.075 60.7745 348.908 58.6181 348.315 56.5017C347.73 54.3259 346.782 52.4084 345.473 50.7491C344.171 49.0305 342.594 47.6104 340.74 46.4887C338.893 45.3077 336.871 44.5876 334.675 44.3283C332.478 44.069 330.345 44.2987 328.274 45.0172C326.21 45.6765 324.344 46.6902 322.678 48.0584C321.078 49.3743 319.74 51.022 318.664 53.0016C317.595 54.9219 316.93 56.9802 316.671 59.1766Z" fill="#ECE9E1"/>
<path d="M383.117 61.7951C382.544 61.9308 381.951 61.8499 381.338 61.5523C380.736 61.196 380.303 60.7497 380.039 60.2136L378.883 57.6245C378.677 57.0994 378.659 56.5486 378.828 55.9722C378.997 55.3957 379.355 54.946 379.902 54.623C380.659 54.1569 381.327 53.6742 381.908 53.175C382.547 52.6868 383.156 52.1931 383.737 51.6938C384.177 51.2901 384.324 50.8311 384.178 50.317C384.031 49.8029 383.756 49.3255 383.352 48.8847C382.475 48.051 381.882 46.997 381.574 45.7227C381.266 44.4485 381.18 43.1248 381.316 41.7515C381.673 39.2033 382.863 37.2373 384.887 35.8535C386.921 34.411 389.183 33.8626 391.673 34.2084C393.152 34.4255 394.454 34.9436 395.577 35.7627C396.712 36.5231 397.596 37.4798 398.231 38.633C398.936 39.7384 399.402 40.9815 399.629 42.3622C399.857 43.7429 399.832 45.1676 399.557 46.6363C398.829 50.5136 397.091 53.7757 394.344 56.4224C391.607 59.0104 387.865 60.8013 383.117 61.7951Z" fill="#ECE9E1"/>
<path d="M409.618 84.3487C412.242 87.1609 414.946 89.531 417.73 91.4588C420.514 93.3867 423.239 94.6839 425.907 95.3505C428.459 95.9881 430.488 96.1256 431.996 95.763C433.518 95.3424 434.461 94.4072 434.823 92.9574C435.011 92.2035 434.866 91.5511 434.388 91.0003C433.924 90.3914 433.235 89.8189 432.322 89.2826C431.466 88.7608 430.422 88.2535 429.19 87.7607C427.958 87.2679 426.711 86.7099 425.449 86.0867C424.232 85.5359 422.789 84.8982 421.122 84.1735C419.527 83.4053 417.903 82.5066 416.25 81.4775C414.612 80.3904 413.01 79.1583 411.444 77.7812C409.936 76.4186 408.667 74.8385 407.638 73.041C406.608 71.2434 405.905 69.2501 405.528 67.061C405.223 64.8284 405.411 62.3493 406.092 59.6237C407.092 55.6223 408.701 52.5125 410.919 50.2941C413.137 48.0757 415.623 46.5097 418.377 45.5961C421.204 44.6389 424.169 44.2399 427.271 44.3991C430.388 44.5002 433.339 44.8985 436.122 45.5941C440.994 46.8113 445.162 48.623 448.627 51.0292C452.165 53.3919 455.362 56.378 458.218 59.9876C458.58 60.5094 458.718 61.0676 458.631 61.662C458.544 62.2564 458.269 62.7421 457.805 63.1191L448.607 71.0792C448.143 71.4562 447.607 71.6302 446.998 71.6013C446.389 71.5724 445.896 71.326 445.519 70.8621C443.026 68.2673 440.597 66.2742 438.234 64.8827C435.885 63.4332 433.638 62.4404 431.492 61.9042C430.854 61.7448 430.093 61.5855 429.209 61.4261C428.397 61.2232 427.585 61.1436 426.773 61.1871C425.976 61.1727 425.258 61.3323 424.62 61.6658C424.04 62.0138 423.649 62.5937 423.446 63.4056C423.243 64.2175 423.671 65.0946 424.73 66.0368C425.788 66.979 427.042 67.8777 428.492 68.7329C429.942 69.5881 431.355 70.3418 432.733 70.994C434.125 71.5882 435.016 71.9651 435.408 72.1245C437.394 73.0521 439.532 74.2334 441.823 75.6684C444.128 77.0454 446.158 78.7849 447.913 80.8868C449.739 82.9452 451.066 85.4024 451.893 88.2583C452.792 91.0707 452.778 94.3326 451.851 98.0441C450.981 101.524 449.619 104.387 447.763 106.634C445.922 108.824 443.697 110.455 441.088 111.528C438.536 112.616 435.622 113.181 432.346 113.225C429.142 113.225 425.684 112.762 421.973 111.834C418.957 111.081 416.21 110.117 413.731 108.943C411.237 107.827 408.968 106.552 406.924 105.117C404.879 103.682 403.016 102.138 401.335 100.485C399.725 98.7893 398.275 97.0715 396.985 95.332C396.608 94.8681 396.463 94.3389 396.55 93.7445C396.651 93.0921 396.934 92.5775 397.398 92.2005L406.508 84.2186C406.972 83.8416 407.509 83.6676 408.117 83.6965C408.726 83.7254 409.227 83.9428 409.618 84.3487Z" fill="#ECE9E1"/>
<path d="M317.187 106.121C321.801 107.396 324.574 111.962 323.787 116.684L319.554 142.079C318.471 148.575 311.221 152.386 304.972 150.307C293.284 146.417 273.778 141.648 248.393 141.648C223.008 141.648 203.502 146.417 191.814 150.307C185.565 152.386 178.315 148.575 177.233 142.079L172.999 116.683C172.212 111.962 174.985 107.396 179.599 106.121C192.899 102.445 220.883 95.754 248.393 95.754C275.903 95.754 303.887 102.445 317.187 106.121Z" fill="#D3413B"/>
<path d="M309.259 137.126C309.02 137.21 308.786 137.247 308.556 137.235C308.326 137.224 308.093 137.193 307.859 137.144C308.004 136.917 308.169 136.774 308.353 136.715C308.553 136.635 308.764 136.563 308.986 136.499C309.061 136.49 309.136 136.482 309.212 136.473C309.325 136.46 309.419 136.449 309.494 136.44C309.649 136.46 309.729 136.489 309.733 136.527C309.784 136.636 309.784 136.722 309.734 136.784C309.584 136.973 309.426 137.087 309.259 137.126ZM315.48 136.98C315.604 136.736 315.551 136.523 315.32 136.34C315.278 136.307 315.198 136.278 315.081 136.253C314.985 136.245 314.888 136.237 314.792 136.229C314.713 136.2 314.635 136.19 314.56 136.199C313.894 136.047 313.23 135.914 312.568 135.799C311.944 135.681 311.299 135.545 310.632 135.393L310.412 135.218C310.222 134.897 310.043 134.584 309.874 134.279C309.722 133.953 309.551 133.629 309.362 133.308C309.218 133.057 309.167 132.863 309.208 132.725C309.271 132.603 309.406 132.454 309.615 132.277C309.74 132.206 309.876 132.142 310.022 132.087C310.185 132.011 310.417 131.956 310.718 131.921C311.036 131.865 311.348 131.839 311.653 131.842C311.975 131.823 312.283 131.845 312.576 131.907C312.87 131.968 313.09 132.057 313.237 132.174C313.342 132.257 313.395 132.385 313.395 132.556C313.408 132.669 313.499 132.792 313.667 132.925C313.855 132.904 314.016 132.809 314.149 132.641C314.232 132.536 314.263 132.389 314.241 132.201C314.227 131.745 314.127 131.375 313.941 131.091C313.777 130.824 313.537 130.565 313.222 130.316C312.718 129.916 312.182 129.644 311.612 129.5C311.059 129.335 310.451 129.281 309.79 129.338C308.56 129.423 307.895 130.11 307.796 131.4C307.707 132.116 307.804 132.791 308.088 133.426C308.371 134.061 308.681 134.684 309.018 135.293C308.797 135.357 308.594 135.419 308.41 135.478C308.226 135.537 308.042 135.597 307.858 135.656C307.257 135.897 306.985 136.348 307.042 137.009C307.124 137.725 307.439 138.299 307.985 138.732C308.447 139.098 308.991 139.274 309.619 139.259C310.574 139.263 311.063 138.796 311.089 137.859C311.1 137.628 311.074 137.402 311.01 137.181C310.984 136.955 310.967 136.719 310.957 136.472C311.384 136.537 311.822 136.61 312.27 136.692C312.756 136.77 313.231 136.839 313.696 136.899C313.948 136.928 314.199 136.956 314.45 136.984C314.722 137.029 314.995 137.074 315.267 137.119C315.38 137.106 315.451 137.059 315.48 136.98Z" fill="#ECE9E1"/>
<path d="M189.036 137.332C188.797 137.431 188.735 137.641 188.85 137.962C188.994 138.448 189.227 138.72 189.55 138.776C189.873 138.832 190.241 138.823 190.654 138.749C191.241 138.53 191.814 138.314 192.373 138.1C192.937 137.914 193.513 137.712 194.099 137.493C194.31 137.398 194.521 137.304 194.731 137.209C194.947 137.142 195.163 137.075 195.378 137.008C195.571 136.974 195.65 136.86 195.616 136.667C195.534 136.369 195.375 136.113 195.137 135.899C194.9 135.686 194.641 135.59 194.36 135.612C194.075 135.606 193.808 135.625 193.56 135.669C193.312 135.714 193.05 135.76 192.774 135.81C192.526 135.854 192.369 135.768 192.302 135.553C191.819 134.444 191.375 133.315 190.971 132.164C190.593 131.008 190.271 129.843 190.004 128.667C189.495 126.454 189.027 124.234 188.6 122.006C188.201 119.773 187.898 117.523 187.692 115.256C187.634 114.612 187.594 113.993 187.573 113.4C187.575 112.773 187.574 112.134 187.571 111.48C187.587 111.249 187.689 111.103 187.877 111.041C188.088 110.947 188.298 110.852 188.509 110.758C188.747 110.658 188.985 110.559 189.224 110.459C189.517 110.35 189.783 110.245 190.021 110.146C190.287 110.041 190.571 109.962 190.875 109.908C191.012 109.883 191.136 109.861 191.247 109.841C191.384 109.817 191.527 109.82 191.675 109.85C191.702 109.845 191.719 109.857 191.724 109.884C191.751 109.879 191.779 109.874 191.806 109.869C191.944 109.845 191.966 109.727 191.871 109.516C191.715 109.118 191.41 108.845 190.957 108.698C190.467 108.502 189.946 108.453 189.395 108.551C188.733 108.669 188.029 108.866 187.281 109.142C186.557 109.386 185.828 109.686 185.096 110.045C184.391 110.399 183.708 110.791 183.045 111.222C182.41 111.649 181.852 112.104 181.369 112.589C181.206 112.789 181.199 112.989 181.349 113.19C181.498 113.391 181.673 113.573 181.873 113.736C182.096 113.867 182.358 113.905 182.662 113.851C182.744 113.836 182.863 113.786 183.019 113.702C183.307 113.565 183.58 113.417 183.836 113.257C184.119 113.093 184.403 112.928 184.686 112.764C184.764 112.721 184.83 112.695 184.885 112.685C184.963 112.643 185.041 112.601 185.119 112.558L185.141 112.682C185.105 113.912 185.137 115.129 185.239 116.334C185.368 117.534 185.511 118.732 185.668 119.927C185.894 121.508 186.145 123.071 186.421 124.614C186.719 126.125 187.078 127.654 187.497 129.201C187.844 130.504 188.243 131.784 188.695 133.04C189.142 134.269 189.764 135.438 190.56 136.547L189.036 137.332Z" fill="#ECE9E1"/>
<path d="M199.887 116.359C199.509 115.935 199.109 115.728 198.685 115.737C198.285 115.714 197.85 115.738 197.379 115.811L195.926 116.036C195.765 116.089 195.601 116.128 195.435 116.154C195.269 116.18 195.105 116.219 194.943 116.272C194.958 116.185 194.959 116.1 194.946 116.017C195.025 115.608 195.089 115.201 195.14 114.797C195.187 114.365 195.235 113.946 195.286 113.542C195.297 113.427 195.262 113.291 195.181 113.133C194.876 112.812 194.502 112.685 194.06 112.754C193.889 112.752 193.773 112.826 193.712 112.978C193.673 113.097 193.637 113.23 193.603 113.377C193.459 113.909 193.33 114.453 193.218 115.009C193.129 115.533 193.012 116.061 192.867 116.593C192.842 116.795 192.774 116.905 192.663 116.922C192.233 117.073 191.817 117.223 191.415 117.37C190.985 117.521 190.539 117.661 190.077 117.789L189.787 117.834C189.648 117.855 189.522 117.861 189.407 117.85C189.264 117.844 189.129 117.794 189.001 117.7C188.933 117.626 188.857 117.595 188.774 117.608C188.687 117.593 188.602 117.592 188.519 117.605C188.408 117.622 188.341 117.646 188.317 117.678C188.283 117.825 188.298 117.922 188.362 117.969C188.822 118.379 189.247 118.654 189.637 118.792C190.027 118.93 190.567 118.946 191.259 118.839C191.73 118.766 192.18 118.654 192.61 118.503C192.646 118.554 192.664 118.579 192.664 118.579C192.571 119.444 192.533 120.3 192.551 121.147C192.596 121.99 192.641 122.833 192.686 123.676C192.768 124.939 192.889 126.181 193.05 127.403C193.238 128.62 193.497 129.841 193.828 131.065C193.939 131.416 194.066 131.779 194.208 132.154C194.379 132.524 194.585 132.847 194.825 133.121C195.066 133.396 195.356 133.62 195.694 133.794C196.029 133.941 196.417 133.98 196.86 133.912C197.358 133.835 197.797 133.555 198.175 133.071C198.582 132.583 198.92 132.021 199.19 131.384C199.46 130.748 199.672 130.106 199.827 129.458C200.006 128.779 200.106 128.239 200.13 127.839C200.147 127.582 200.107 127.418 200.011 127.347C199.911 127.25 199.746 127.19 199.516 127.169C199.235 127.184 199.079 127.364 199.047 127.709C198.996 128.113 198.896 128.568 198.748 129.073C198.599 129.577 198.42 130.072 198.212 130.558C197.999 131.016 197.757 131.464 197.485 131.903C197.208 132.314 196.893 132.66 196.54 132.941C196.459 132.784 196.38 132.64 196.304 132.51C196.25 132.348 196.199 132.201 196.15 132.066C196.018 131.577 195.885 131.087 195.753 130.598C195.648 130.104 195.542 129.596 195.433 129.075C195.038 126.699 194.797 124.314 194.71 121.919C194.695 121.269 194.693 120.618 194.706 119.964C194.718 119.311 194.744 118.655 194.784 117.997C194.754 117.803 194.823 117.694 194.989 117.668C195.58 117.463 196.174 117.272 196.77 117.095C197.362 116.89 197.956 116.7 198.552 116.523L198.759 116.49C198.953 116.461 199.118 116.52 199.254 116.669C199.299 116.775 199.395 116.846 199.542 116.88C199.657 116.89 199.756 116.889 199.839 116.876C199.922 116.863 200.021 116.862 200.136 116.873C200.095 116.794 200.053 116.702 200.008 116.595C199.991 116.484 199.95 116.406 199.887 116.359Z" fill="#ECE9E1"/>
<path d="M205.857 126.329C205.42 127.344 204.973 128.275 204.515 129.123C204.054 129.943 203.387 130.704 202.516 131.406C202.367 131.566 202.2 131.7 202.016 131.807C201.856 131.884 201.672 131.992 201.464 132.131C201.276 131.759 201.161 131.407 201.119 131.073C201.105 130.736 201.121 130.41 201.166 130.094C201.197 129.667 201.29 129.175 201.446 128.619C201.626 128.032 201.852 127.468 202.122 126.926C202.42 126.38 202.771 125.913 203.174 125.523C203.576 125.134 204.028 124.908 204.528 124.845C204.833 124.807 205.108 124.857 205.351 124.996C205.622 125.131 205.804 125.348 205.898 125.647C205.985 125.89 205.972 126.117 205.857 126.329ZM212.421 125.335C212.24 125.245 212.122 125.203 212.067 125.21C211.983 125.221 211.881 125.304 211.759 125.46C211.312 126.166 210.833 126.847 210.323 127.504C209.837 128.129 209.29 128.72 208.683 129.276C208.579 129.346 208.515 129.396 208.49 129.427C208.462 129.431 208.435 129.434 208.407 129.438C208.403 129.41 208.388 129.398 208.36 129.401C208.401 128.832 208.427 128.25 208.437 127.656C208.447 127.062 208.473 126.48 208.514 125.911C208.566 125.424 208.394 125.065 207.997 124.833C207.876 124.763 207.683 124.689 207.419 124.609C207.179 124.498 206.99 124.451 206.851 124.469C206.684 124.49 206.554 124.576 206.46 124.729C206.019 124.361 205.486 124.048 204.86 123.787C204.235 123.527 203.617 123.436 203.005 123.513C202.533 123.572 202.077 123.756 201.636 124.066C201.223 124.372 200.87 124.712 200.579 125.088C199.947 125.901 199.479 126.778 199.174 127.72C198.865 128.633 198.805 129.614 198.994 130.663C199.049 131.108 199.213 131.511 199.484 131.872C199.727 132.236 200.021 132.552 200.365 132.819C200.737 133.083 201.144 133.286 201.585 133.428C202.022 133.542 202.464 133.571 202.908 133.516C203.325 133.463 203.729 133.314 204.122 133.067C204.514 132.82 204.872 132.521 205.194 132.17C205.545 131.815 205.85 131.438 206.11 131.039C206.398 130.636 206.634 130.267 206.818 129.934C207.354 130.826 207.997 131.225 208.747 131.131C209.163 131.078 209.573 130.858 209.976 130.468C210.406 130.075 210.8 129.617 211.157 129.092C211.539 128.536 211.879 127.985 212.177 127.44C212.472 126.867 212.694 126.387 212.843 126.001C212.947 125.706 212.807 125.484 212.421 125.335Z" fill="#ECE9E1"/>
<path d="M218.644 124.761C218.502 124.747 218.407 124.784 218.36 124.873C218.337 124.932 218.305 125.034 218.263 125.178C218.028 126.242 217.631 127.223 217.071 128.121C216.537 128.989 215.899 129.811 215.159 130.586C215.131 130.589 215.102 130.578 215.071 130.552C214.977 130.168 214.87 129.784 214.748 129.402C214.655 129.017 214.575 128.631 214.509 128.244C214.395 127.355 214.294 126.464 214.207 125.572C214.149 124.678 214.09 123.783 214.031 122.888C213.948 120.871 213.963 118.858 214.078 116.849C214.192 114.841 214.348 112.828 214.546 110.811C214.569 110.471 214.517 110.223 214.389 110.067C214.259 109.883 214.048 109.734 213.755 109.622C213.639 109.577 213.566 109.556 213.538 109.559C213.427 109.569 213.337 109.663 213.27 109.838C212.868 111.199 212.549 112.553 212.314 113.898C212.079 115.243 211.917 116.623 211.83 118.038C211.733 119.651 211.694 121.273 211.711 122.903C211.754 124.502 211.896 126.106 212.137 127.715C212.238 128.183 212.358 128.692 212.496 129.241C212.634 129.79 212.837 130.291 213.106 130.743C213.372 131.167 213.701 131.515 214.094 131.787C214.514 132.055 215.03 132.16 215.643 132.1C216.089 132.057 216.539 131.76 216.992 131.21C217.445 130.659 217.848 130.029 218.201 129.32C218.579 128.58 218.872 127.834 219.081 127.082C219.286 126.303 219.366 125.676 219.32 125.202C219.334 125.06 219.268 124.954 219.12 124.884C219.001 124.811 218.842 124.77 218.644 124.761Z" fill="#ECE9E1"/>
<path d="M224.11 124.361C223.931 124.234 223.745 124.179 223.549 124.194C223.354 124.21 223.166 124.323 222.986 124.534C222.808 124.772 222.646 125.024 222.498 125.288C222.348 125.525 222.184 125.763 222.007 126.001C221.805 126.298 221.618 126.594 221.445 126.889C221.269 127.155 221.08 127.423 220.876 127.692C220.848 127.694 220.819 127.682 220.789 127.657C220.757 127.603 220.736 127.52 220.727 127.409C220.716 126.904 220.69 126.401 220.65 125.898C220.61 125.396 220.586 124.906 220.576 124.429C220.597 123.978 220.603 123.528 220.596 123.079C220.616 122.628 220.637 122.177 220.657 121.726C220.667 121.136 220.37 120.752 219.766 120.575C219.594 120.532 219.494 120.512 219.466 120.514C219.354 120.523 219.239 120.659 219.119 120.921C218.921 121.611 218.753 122.326 218.615 123.067C218.502 123.779 218.447 124.499 218.448 125.229C218.454 125.65 218.473 126.07 218.506 126.489C218.511 126.91 218.558 127.327 218.647 127.742C218.886 128.987 219.612 129.646 220.826 129.718C220.912 129.74 221.025 129.745 221.164 129.734C221.611 129.698 221.944 129.475 222.165 129.065C222.284 128.803 222.418 128.539 222.566 128.275C222.713 128.01 222.86 127.732 223.005 127.439C223.198 127.031 223.404 126.621 223.624 126.211C223.842 125.772 224.062 125.347 224.282 124.937C224.404 124.702 224.347 124.51 224.11 124.361ZM219.498 118.784C219.586 118.833 219.79 118.93 220.111 119.073C220.431 119.216 220.647 119.283 220.759 119.274C220.898 119.263 220.988 119.158 221.028 118.958C221.045 118.816 221.063 118.689 221.082 118.575C221.102 118.461 221.119 118.333 221.136 118.191C221.166 117.852 221.075 117.592 220.864 117.412C220.651 117.204 220.363 117.115 220 117.143C219.637 117.172 219.403 117.401 219.296 117.831C219.106 118.267 219.173 118.585 219.498 118.784Z" fill="#ECE9E1"/>
<path d="M229.734 123.966C229.225 124.947 228.711 125.843 228.193 126.656C227.674 127.44 226.954 128.151 226.035 128.789C225.874 128.937 225.699 129.059 225.507 129.153C225.342 129.218 225.151 129.312 224.933 129.436C224.773 129.052 224.684 128.692 224.666 128.356C224.676 128.019 224.715 127.695 224.783 127.383C224.844 126.959 224.973 126.475 225.169 125.932C225.391 125.36 225.656 124.813 225.965 124.292C226.302 123.769 226.685 123.328 227.115 122.969C227.545 122.61 228.011 122.417 228.515 122.39C228.822 122.374 229.092 122.444 229.325 122.6C229.585 122.754 229.752 122.984 229.824 123.288C229.893 123.537 229.863 123.763 229.734 123.966ZM236.352 123.448C236.178 123.345 236.063 123.295 236.008 123.298C235.924 123.302 235.815 123.378 235.683 123.525C235.186 124.197 234.659 124.841 234.103 125.46C233.573 126.049 232.985 126.598 232.339 127.109C232.23 127.171 232.163 127.217 232.136 127.246C232.108 127.248 232.08 127.249 232.052 127.251C232.051 127.223 232.036 127.209 232.008 127.211C232.091 126.646 232.158 126.067 232.211 125.476C232.264 124.884 232.331 124.306 232.414 123.74C232.5 123.259 232.355 122.888 231.976 122.628C231.86 122.55 231.673 122.462 231.415 122.363C231.184 122.235 230.999 122.175 230.859 122.182C230.691 122.191 230.555 122.268 230.451 122.414C230.037 122.015 229.528 121.664 228.923 121.359C228.318 121.055 227.708 120.919 227.092 120.951C226.617 120.976 226.148 121.127 225.686 121.404C225.252 121.68 224.876 121.994 224.558 122.347C223.87 123.113 223.34 123.954 222.967 124.871C222.594 125.76 222.463 126.734 222.575 127.794C222.599 128.241 222.733 128.655 222.977 129.034C223.194 129.416 223.464 129.752 223.788 130.043C224.14 130.333 224.53 130.565 224.96 130.738C225.388 130.884 225.826 130.945 226.274 130.921C226.693 130.899 227.107 130.779 227.517 130.561C227.926 130.343 228.304 130.071 228.651 129.744C229.026 129.416 229.358 129.062 229.646 128.682C229.963 128.301 230.225 127.95 230.432 127.631C230.902 128.559 231.514 129.004 232.269 128.964C232.689 128.942 233.113 128.751 233.543 128.392C234 128.031 234.426 127.602 234.821 127.104C235.242 126.577 235.62 126.052 235.957 125.53C236.293 124.979 236.549 124.517 236.725 124.143C236.85 123.856 236.726 123.625 236.352 123.448Z" fill="#ECE9E1"/>
<path d="M245.973 123.174C245.917 123.175 245.875 123.176 245.847 123.176C245.818 123.149 245.79 123.135 245.762 123.136C245.594 123.139 245.471 123.282 245.392 123.563C245.34 123.733 245.3 123.845 245.273 123.902C244.956 124.861 244.413 125.726 243.645 126.497C243.643 126.413 243.628 126.344 243.599 126.288C243.597 126.232 243.596 126.176 243.595 126.12C243.56 125.785 243.526 125.463 243.492 125.156C243.485 124.82 243.465 124.498 243.43 124.191C243.365 123.744 243.287 123.312 243.194 122.893C243.129 122.447 242.995 122.029 242.791 121.641C242.298 120.783 241.547 120.364 240.539 120.384C239.839 120.398 239.201 120.705 238.625 121.305C238.543 121.418 238.461 121.518 238.379 121.604C238.297 121.689 238.201 121.803 238.092 121.946C238.116 121.777 238.127 121.623 238.125 121.483C238.121 121.315 238.132 121.161 238.157 121.02C238.149 120.628 237.962 120.366 237.595 120.233C237.511 120.207 237.412 120.181 237.3 120.155C237.215 120.129 237.131 120.116 237.047 120.118C236.823 120.123 236.669 120.154 236.587 120.211C236.531 120.24 236.464 120.368 236.384 120.594C236.255 121.128 236.139 121.649 236.037 122.155C235.936 122.661 235.834 123.167 235.732 123.673C235.605 124.348 235.493 125.023 235.394 125.697C235.296 126.371 235.268 127.058 235.31 127.757C235.341 127.896 235.386 128.05 235.445 128.216C235.504 128.355 235.604 128.451 235.745 128.505C236.168 128.664 236.591 128.782 237.012 128.857C237.376 128.85 237.597 128.677 237.674 128.34C237.962 127.354 238.279 126.367 238.623 125.38C238.967 124.365 239.438 123.431 240.037 122.579C240.146 122.408 240.269 122.252 240.406 122.109C240.57 121.938 240.721 121.767 240.858 121.596C240.886 121.623 240.9 121.637 240.9 121.637C240.928 121.637 240.957 121.65 240.985 121.677C241.049 122.068 241.099 122.445 241.134 122.809C241.169 123.172 241.205 123.55 241.241 123.941C241.306 124.416 241.358 124.891 241.395 125.366C241.46 125.813 241.54 126.274 241.633 126.748C241.727 127.222 241.972 127.595 242.37 127.867C242.795 128.111 243.245 128.228 243.721 128.218C244.113 128.21 244.474 128.035 244.803 127.692C245.132 127.322 245.418 126.91 245.661 126.457C245.931 125.975 246.145 125.481 246.303 124.974C246.461 124.466 246.551 124.072 246.573 123.792C246.595 123.455 246.394 123.249 245.973 123.174Z" fill="#ECE9E1"/>
<path d="M270.248 121.813C270.246 121.84 270.23 121.867 270.2 121.894C270.2 121.894 270.199 121.907 270.198 121.935C269.772 123.254 269.239 124.495 268.599 125.658C267.961 126.794 267.146 127.848 266.154 128.819C266.063 128.925 265.897 129.097 265.657 129.333C265.446 129.543 265.207 129.752 264.941 129.958C264.674 130.165 264.409 130.357 264.144 130.536C263.909 130.688 263.708 130.759 263.54 130.748C263.456 130.742 263.328 130.565 263.155 130.216C262.785 129.462 262.542 128.702 262.425 127.936C262.31 127.142 262.35 126.345 262.544 125.544C262.696 124.965 262.901 124.418 263.161 123.902C263.448 123.388 263.842 122.952 264.344 122.593C264.405 122.513 264.493 122.462 264.606 122.442C264.72 122.422 264.835 122.387 264.95 122.339C264.998 122.454 265.047 122.57 265.095 122.685C265.145 122.773 265.166 122.887 265.156 123.026C265.13 123.418 265.049 123.777 264.915 124.105C264.809 124.434 264.633 124.745 264.389 125.037C264.294 125.199 264.313 125.327 264.447 125.42C264.633 125.573 264.796 125.654 264.936 125.664C265.215 125.683 265.419 125.57 265.548 125.326C265.83 124.896 266.089 124.38 266.326 123.779C266.522 123.371 266.469 122.919 266.165 122.421C265.935 122.097 265.642 121.852 265.289 121.688C264.937 121.496 264.565 121.387 264.174 121.36C263.448 121.311 262.801 121.534 262.235 122.029C261.698 122.498 261.296 123.046 261.029 123.674C260.482 124.703 260.23 125.739 260.272 126.78C260.344 127.795 260.598 128.809 261.035 129.821C261.375 130.601 261.856 131.167 262.478 131.518C263.098 131.897 263.812 132.127 264.62 132.21C265.347 132.259 266.078 132.028 266.814 131.516C267.576 131.034 268.29 130.437 268.956 129.724C269.623 128.983 270.208 128.223 270.71 127.443C271.241 126.637 271.624 125.961 271.857 125.415C272.12 124.844 272.342 124.255 272.523 123.65C272.705 123.045 272.885 122.454 273.064 121.876C273.098 121.794 273.116 121.726 273.12 121.67C273.154 121.588 273.227 121.537 273.341 121.516C274.135 121.401 274.914 121.286 275.68 121.169C276.446 121.052 277.211 120.936 277.977 120.819C278.344 120.787 278.657 120.724 278.916 120.63C279.376 120.464 279.451 120.189 279.14 119.803C278.749 119.355 278.303 119.115 277.8 119.081C276.369 119.068 274.988 119.158 273.656 119.348C273.737 118.568 273.816 117.802 273.895 117.049C273.976 116.269 274.044 115.473 274.099 114.663C274.123 113.879 274.105 113.106 274.045 112.344C274.014 111.556 273.883 110.79 273.653 110.044C273.71 110.02 273.769 109.982 273.829 109.93C274.95 109.528 276.223 109.179 277.646 108.883C279.099 108.56 280.427 108.439 281.628 108.52C281.852 108.535 282.199 108.587 282.67 108.674C283.169 108.764 283.665 108.896 284.159 109.07C284.654 109.215 285.091 109.399 285.469 109.621C285.849 109.815 286.071 110.055 286.136 110.34C286.182 110.483 286.295 110.687 286.474 110.952C286.654 111.189 286.814 111.312 286.954 111.321C287.121 111.333 287.185 111.225 287.144 110.997C287.169 110.634 287.106 110.321 286.955 110.058C286.741 109.483 286.326 108.977 285.71 108.543C285.122 108.11 284.459 107.743 283.722 107.44C282.984 107.138 282.228 106.905 281.454 106.74C280.709 106.549 280.071 106.436 279.54 106.4C278.758 106.347 277.942 106.377 277.092 106.488C276.245 106.571 275.393 106.71 274.538 106.905C273.711 107.101 272.881 107.34 272.048 107.62C271.245 107.875 270.483 108.146 269.762 108.434C269.099 108.698 268.463 108.964 267.856 109.232C267.25 109.472 266.63 109.724 265.994 109.99C265.849 110.065 265.691 110.124 265.519 110.169C265.348 110.213 265.176 110.258 265.005 110.302C265.022 110.051 265.082 109.788 265.184 109.515C265.287 109.241 265.417 108.983 265.573 108.741C265.73 108.499 265.899 108.286 266.08 108.102C266.261 107.917 266.438 107.789 266.611 107.716C266.605 107.8 266.587 107.869 266.555 107.923C266.484 108.143 266.459 108.31 266.479 108.423C266.527 108.539 266.645 108.673 266.831 108.826C266.965 108.919 267.06 108.968 267.116 108.971C267.255 108.981 267.374 108.891 267.471 108.701C267.819 108.107 267.761 107.513 267.296 106.921C266.931 106.503 266.553 106.281 266.162 106.255C265.799 106.23 265.456 106.319 265.134 106.522C264.811 106.725 264.513 106.985 264.239 107.304C263.993 107.624 263.773 107.974 263.579 108.354C263.415 108.707 263.294 109.036 263.218 109.34C263.137 109.699 263.169 110.066 263.312 110.441C263.457 110.787 263.658 111.124 263.917 111.45C264.206 111.75 264.539 112.011 264.917 112.233C265.297 112.427 265.668 112.536 266.031 112.561C266.339 112.582 266.72 112.537 267.177 112.428C267.633 112.318 268.02 112.204 268.337 112.085C268.883 111.897 269.402 111.694 269.893 111.474C270.413 111.257 270.933 111.039 271.453 110.822C271.511 110.798 271.568 110.788 271.624 110.791C271.681 110.767 271.739 110.743 271.797 110.719C271.793 110.775 271.79 110.817 271.788 110.845C271.814 110.874 271.826 110.903 271.825 110.931C271.892 112.423 271.821 113.892 271.611 115.337C271.429 116.784 271.164 118.226 270.814 119.662C270.808 119.745 270.733 119.825 270.588 119.899C270.303 119.964 270.018 120.029 269.732 120.094C269.477 120.133 269.207 120.185 268.922 120.25C268.637 120.315 268.557 120.463 268.681 120.696C268.81 120.873 268.953 121.037 269.111 121.189C269.299 121.313 269.474 121.424 269.636 121.519C269.828 121.588 270.033 121.672 270.251 121.771C270.251 121.771 270.25 121.785 270.248 121.813Z" fill="#ECE9E1"/>
<path d="M279.979 129.433C279.843 129.643 279.608 129.857 279.274 130.074C278.971 130.266 278.695 130.348 278.444 130.32C278.305 130.305 278.175 130.206 278.054 130.023C277.658 129.275 277.579 128.464 277.816 127.588C277.976 126.902 278.202 126.265 278.492 125.677C278.81 125.092 279.261 124.579 279.845 124.136C279.907 124.087 280.059 123.991 280.3 123.848C280.541 123.706 280.717 123.641 280.828 123.653C280.94 123.665 281 123.756 281.01 123.926C281.028 124.013 281.081 124.174 281.168 124.409C280.939 124.44 280.806 124.496 280.769 124.576C280.735 124.629 280.735 124.755 280.769 124.956C280.989 125.77 281.03 126.549 280.891 127.294C280.753 128.039 280.448 128.752 279.979 129.433ZM287.097 126.585C287.057 126.44 286.956 126.33 286.795 126.256C286.665 126.157 286.517 126.098 286.35 126.08C286.239 126.067 286.154 126.072 286.095 126.094C285.714 126.221 285.337 126.32 284.963 126.391C284.62 126.438 284.254 126.44 283.864 126.397C283.725 126.381 283.586 126.366 283.446 126.351C283.338 126.311 283.216 126.269 283.08 126.226C282.941 126.21 282.797 126.11 282.648 125.925L282.007 124.84C282.255 124.642 282.374 124.457 282.364 124.287C282.386 124.093 282.301 123.844 282.109 123.541C281.836 123.201 281.491 122.881 281.074 122.581C280.659 122.254 280.229 122.065 279.784 122.016C279.255 121.958 278.762 122.087 278.304 122.402C277.875 122.721 277.479 123.114 277.118 123.581C276.784 124.052 276.515 124.571 276.312 125.14C276.083 125.679 275.946 126.156 275.9 126.574C275.657 128.519 276.36 130.062 278.009 131.202C278.43 131.474 278.821 131.629 279.183 131.669C279.795 131.737 280.3 131.624 280.699 131.33C281.126 131.039 281.464 130.654 281.714 130.174C281.992 129.698 282.204 129.186 282.349 128.638C282.524 128.066 282.651 127.559 282.728 127.117L282.895 127.135C283.353 127.326 283.763 127.442 284.124 127.482C284.542 127.528 284.952 127.517 285.354 127.449C285.783 127.384 286.204 127.275 286.615 127.123C286.702 127.105 286.838 127.021 287.023 126.872C287.116 126.798 287.14 126.702 287.097 126.585Z" fill="#ECE9E1"/>
<path d="M289.669 130.734C289.527 130.94 289.286 131.146 288.946 131.353C288.638 131.536 288.359 131.61 288.109 131.575C287.971 131.556 287.844 131.453 287.728 131.268C287.354 130.508 287.298 129.695 287.561 128.827C287.741 128.145 287.985 127.515 288.292 126.936C288.627 126.36 289.093 125.86 289.69 125.435C289.753 125.387 289.908 125.296 290.153 125.16C290.398 125.025 290.576 124.965 290.687 124.981C290.798 124.996 290.856 125.089 290.86 125.259C290.876 125.346 290.924 125.509 291.004 125.746C290.774 125.77 290.64 125.822 290.6 125.902C290.565 125.953 290.561 126.08 290.59 126.282C290.786 127.101 290.804 127.881 290.643 128.622C290.483 129.363 290.158 130.067 289.669 130.734ZM296.867 128.094C296.831 127.948 296.734 127.835 296.575 127.756C296.448 127.654 296.302 127.591 296.135 127.567C296.024 127.552 295.939 127.554 295.88 127.574C295.496 127.69 295.116 127.778 294.74 127.839C294.396 127.875 294.029 127.866 293.641 127.812C293.502 127.792 293.364 127.773 293.225 127.754C293.118 127.71 292.997 127.665 292.862 127.618C292.724 127.599 292.583 127.494 292.44 127.304L291.831 126.201C292.084 126.01 292.208 125.83 292.204 125.66C292.231 125.465 292.153 125.214 291.97 124.906C291.707 124.558 291.372 124.228 290.963 123.917C290.558 123.577 290.134 123.376 289.69 123.314C289.163 123.24 288.667 123.355 288.2 123.657C287.762 123.963 287.355 124.344 286.98 124.801C286.633 125.261 286.349 125.773 286.129 126.336C285.885 126.867 285.733 127.341 285.675 127.757C285.376 129.694 286.033 131.256 287.648 132.444C288.061 132.728 288.447 132.895 288.808 132.946C289.418 133.031 289.927 132.933 290.334 132.65C290.769 132.372 291.118 131.997 291.382 131.525C291.674 131.057 291.9 130.551 292.061 130.008C292.254 129.441 292.395 128.938 292.485 128.498L292.651 128.521C293.103 128.726 293.509 128.854 293.87 128.904C294.286 128.962 294.696 128.963 295.099 128.907C295.531 128.854 295.954 128.758 296.37 128.618C296.457 128.602 296.595 128.522 296.785 128.379C296.88 128.308 296.907 128.213 296.867 128.094Z" fill="#ECE9E1"/>
<path d="M296.881 133.362C296.851 133.044 296.851 132.717 296.881 132.382C296.938 132.05 297.021 131.738 297.129 131.444C297.43 130.53 297.869 129.64 298.446 128.774C299.05 127.913 299.823 127.308 300.765 126.96C300.922 126.874 301.056 126.84 301.166 126.859C301.249 126.874 301.354 127.006 301.481 127.255C301.517 127.375 301.539 127.493 301.547 127.608C301.583 127.728 301.619 127.848 301.655 127.968C301.69 128.258 301.728 128.449 301.769 128.542C301.814 128.606 301.947 128.743 302.166 128.952C301.51 129.946 300.77 130.855 299.945 131.678C299.152 132.478 298.13 133.039 296.881 133.362ZM309.099 130.029C308.948 129.918 308.803 129.85 308.665 129.826C308.445 129.788 308.255 129.897 308.097 130.153C307.785 130.639 307.436 131.09 307.051 131.506C306.666 131.923 306.234 132.288 305.753 132.602C305.591 132.716 305.417 132.814 305.233 132.896C305.075 132.982 304.902 133.08 304.713 133.189C304.709 133.046 304.689 132.915 304.653 132.795C304.556 132.21 304.544 131.625 304.617 131.041C304.69 130.456 304.777 129.875 304.878 129.295C305.126 128.031 305.427 126.79 305.781 125.573C306.139 124.328 306.539 123.09 306.981 121.859C307.375 120.734 307.77 119.609 308.164 118.484C308.587 117.363 309.009 116.243 309.431 115.123C309.731 114.379 309.497 113.841 308.731 113.509L308.607 113.487C308.469 113.463 308.346 113.513 308.24 113.637C308.151 113.82 308.051 113.987 307.939 114.139C307.828 114.29 307.728 114.457 307.639 114.641C306.589 116.59 305.641 118.613 304.793 120.711C303.95 122.782 303.242 124.89 302.67 127.036C302.351 126.582 301.981 126.177 301.56 125.819C301.171 125.439 300.687 125.199 300.108 125.098C299.363 124.969 298.616 125.18 297.866 125.732C296.038 127.091 294.964 128.936 294.644 131.268C294.531 132.243 294.728 133.073 295.234 133.758C295.768 134.448 296.504 134.874 297.442 135.037C298.242 135.176 298.938 135.013 299.531 134.548C300.151 134.087 300.707 133.587 301.199 133.047C301.375 132.85 301.538 132.651 301.686 132.45C301.863 132.253 302.041 132.042 302.222 131.818C302.258 131.938 302.29 132.086 302.316 132.261C302.666 133.515 303.513 134.288 304.855 134.578C305.351 134.664 305.824 134.562 306.273 134.27C306.721 133.979 307.127 133.609 307.489 133.16C307.879 132.716 308.216 132.249 308.5 131.758C308.817 131.245 309.061 130.818 309.234 130.479C309.323 130.295 309.278 130.146 309.099 130.029Z" fill="#ECE9E1"/>
</svg>
