<svg width="490" height="266" viewBox="0 0 490 266" fill="none" xmlns="http://www.w3.org/2000/svg">
<path d="M474.672 143.221C484.819 145.491 491.016 155.503 488.846 165.672L472.365 242.922C469.848 254.719 457.225 261.643 445.675 258.163C412.194 248.074 341.748 231.223 244.72 231.223C147.691 231.223 77.2438 248.074 43.762 258.163C32.2124 261.643 19.5891 254.719 17.0724 242.922L0.592455 165.672C-1.57692 155.503 4.61979 145.491 14.7668 143.221C53.7895 134.493 150.121 115.36 244.72 115.36C339.318 115.36 435.649 134.493 474.672 143.221Z" fill="#D3413B"/>
<path d="M98.2694 153.088L112.06 212.754C112.195 213.337 112.105 213.879 111.792 214.381C111.478 214.882 111.03 215.201 110.448 215.335L97.2567 218.384C96.6744 218.519 96.1322 218.429 95.6303 218.116C95.1284 217.802 94.8102 217.355 94.6756 216.772L88.174 188.643C88.0394 188.06 87.7033 187.801 87.1657 187.863C86.6281 187.926 86.2384 188.231 85.9966 188.778L76.7922 215.844C76.6087 216.377 76.1966 216.718 75.556 216.866C74.9153 217.014 74.3665 216.896 73.9093 216.51L53.7613 196.228C53.3624 195.83 52.9076 195.72 52.3969 195.9C51.8862 196.079 51.6982 196.46 51.8328 197.042L58.3343 225.172C58.4689 225.754 58.3795 226.296 58.0661 226.798C57.7526 227.3 57.3047 227.618 56.7223 227.753L43.5312 230.802C42.9488 230.936 42.4066 230.847 41.9047 230.533C41.4028 230.22 41.0846 229.772 40.95 229.19L27.1594 169.524C27.0248 168.941 27.1142 168.399 27.4276 167.897C27.7411 167.395 28.189 167.077 28.7714 166.943L41.0016 164.116C41.584 163.981 42.2359 164.015 42.9573 164.216C43.6787 164.417 44.2388 164.717 44.6377 165.116L67.1045 185.874C67.5616 186.259 68.0231 186.398 68.489 186.291C68.955 186.183 69.2797 185.862 69.4632 185.329L80.5421 156.817C80.7839 156.271 81.1847 155.749 81.7446 155.251C82.3044 154.754 82.8756 154.437 83.458 154.303L95.6882 151.476C96.2706 151.341 96.8127 151.431 97.3146 151.744C97.8165 152.058 98.1348 152.506 98.2694 153.088Z" fill="#ECE9E1"/>
<path d="M139.748 146.983C139.922 146.42 140.256 145.929 140.748 145.51C141.292 145.025 141.891 144.743 142.544 144.666L155.01 143.195C155.604 143.125 156.192 143.266 156.776 143.618C157.411 143.904 157.879 144.301 158.18 144.807L191.328 202.287C191.628 202.794 191.636 203.365 191.35 204C191.123 204.629 190.535 204.999 189.585 205.111L174.358 206.909C173.705 206.986 173.061 206.881 172.425 206.595C171.842 206.243 171.37 205.817 171.011 205.318L167.976 200.259C167.616 199.76 167.118 199.367 166.482 199.081C165.899 198.728 165.311 198.587 164.717 198.657L145.929 200.875C145.276 200.952 144.677 201.233 144.132 201.719C143.64 202.138 143.307 202.629 143.133 203.191L141.27 208.828C141.096 209.39 140.736 209.914 140.192 210.4C139.699 210.819 139.156 211.064 138.563 211.134L123.247 212.942C122.95 212.977 122.647 212.952 122.336 212.869C121.966 212.792 121.677 212.646 121.471 212.429C121.206 212.22 121.022 211.94 120.921 211.591C120.82 211.242 120.86 210.816 121.041 210.313L139.748 146.983ZM149.574 185.096L157.499 184.161C158.092 184.091 158.487 183.864 158.682 183.479C158.93 183.029 158.874 182.554 158.514 182.055C157.745 180.641 156.83 179.003 155.767 177.143C154.698 175.222 153.705 173.443 152.79 171.806C152.489 171.3 152.191 171.064 151.894 171.099C151.597 171.134 151.362 171.433 151.187 171.995L148.007 183.295C147.832 183.857 147.888 184.332 148.175 184.72C148.454 185.048 148.921 185.173 149.574 185.096Z" fill="#ECE9E1"/>
<path d="M215.233 204.233L201.877 204.544C201.279 204.558 200.766 204.361 200.338 203.952C199.91 203.544 199.689 203.041 199.675 202.443L198.247 141.131C198.233 140.534 198.43 140.021 198.839 139.593C199.247 139.165 199.75 138.944 200.348 138.93L228.225 138.28C231.691 138.2 234.902 138.723 237.858 139.85C240.813 140.917 243.33 142.472 245.411 144.517C247.551 146.559 249.222 149.002 250.425 151.844C251.687 154.684 252.358 157.838 252.439 161.304C252.483 163.216 252.289 165.134 251.855 167.057C251.48 168.919 250.894 170.697 250.096 172.389C249.298 174.082 248.348 175.629 247.245 177.03C246.14 178.371 244.881 179.507 243.467 180.436C242.998 180.806 242.68 181.262 242.513 181.804C242.404 182.285 242.535 182.76 242.905 183.23C245.245 186.165 247.707 189.187 250.291 192.295C252.874 195.404 255.183 198.25 257.216 200.833C257.586 201.303 257.688 201.839 257.523 202.441C257.356 202.983 256.974 203.261 256.376 203.275L239.704 203.663C239.106 203.677 238.445 203.543 237.721 203.261C237.056 202.918 236.538 202.511 236.168 202.041C234.197 199.576 232.226 197.081 230.254 194.556C228.341 192.029 226.428 189.473 224.515 186.887C224.145 186.417 223.628 186.041 222.964 185.757C222.298 185.414 221.666 185.249 221.069 185.263L219.097 185.309C218.499 185.323 217.996 185.544 217.587 185.972C217.179 186.4 216.982 186.913 216.996 187.511L217.334 202.032C217.348 202.629 217.15 203.142 216.742 203.57C216.333 203.998 215.83 204.219 215.233 204.233ZM218.712 168.816L228.214 168.594C228.931 168.578 229.675 168.441 230.447 168.184C231.216 167.867 231.924 167.432 232.569 166.879C233.212 166.266 233.733 165.536 234.132 164.69C234.531 163.843 234.717 162.852 234.69 161.717C234.677 161.119 234.541 160.435 234.284 159.664C234.085 158.831 233.708 158.063 233.154 157.358C232.658 156.593 231.956 155.981 231.048 155.524C230.199 155.006 229.147 154.761 227.892 154.79L218.391 155.012C217.793 155.026 217.29 155.247 216.882 155.675C216.473 156.103 216.276 156.616 216.29 157.213L216.511 166.715C216.525 167.312 216.746 167.815 217.174 168.224C217.602 168.632 218.115 168.83 218.712 168.816Z" fill="#ECE9E1"/>
<path d="M282.227 204.721L268.701 204.128C268.044 204.099 267.516 203.867 267.116 203.43C266.776 202.997 266.619 202.481 266.646 201.884L269.328 140.704C269.354 140.107 269.555 139.607 269.932 139.205C270.368 138.805 270.915 138.619 271.572 138.648L285.098 139.241C285.695 139.267 286.193 139.499 286.593 139.935C286.993 140.371 287.179 140.888 287.153 141.485L284.471 202.665C284.445 203.263 284.214 203.761 283.777 204.161C283.341 204.56 282.824 204.747 282.227 204.721Z" fill="#ECE9E1"/>
<path d="M299.04 172.098C299.587 167.467 300.992 163.209 303.257 159.324C305.521 155.438 308.346 152.16 311.731 149.49C315.122 146.76 318.971 144.747 323.278 143.449C327.584 142.152 332.052 141.777 336.682 142.323C341.313 142.87 345.571 144.275 349.456 146.539C353.342 148.804 356.617 151.658 359.28 155.102C362.009 158.494 364.023 162.343 365.32 166.649C366.618 170.956 366.993 175.424 366.446 180.054C365.9 184.684 364.494 188.942 362.23 192.828C359.966 196.714 357.108 200.018 353.657 202.741C350.272 205.411 346.426 207.394 342.12 208.692C337.814 209.989 333.346 210.365 328.715 209.818C324.085 209.272 319.827 207.866 315.941 205.602C312.055 203.337 308.778 200.513 306.107 197.128C303.444 193.684 301.464 189.809 300.167 185.502C298.869 181.196 298.494 176.728 299.04 172.098ZM316.671 174.179C316.405 176.434 316.568 178.621 317.161 180.737C317.754 182.853 318.671 184.767 319.914 186.479C321.216 188.198 322.79 189.647 324.637 190.828C326.491 191.95 328.516 192.641 330.712 192.9C332.909 193.159 335.039 192.959 337.103 192.3C339.174 191.581 341.043 190.538 342.709 189.17C344.375 187.801 345.743 186.157 346.812 184.237C347.882 182.317 348.549 180.229 348.816 177.973C349.075 175.777 348.908 173.62 348.315 171.504C347.73 169.328 346.782 167.41 345.473 165.751C344.171 164.033 342.594 162.613 340.74 161.491C338.893 160.31 336.871 159.59 334.675 159.33C332.478 159.071 330.345 159.301 328.274 160.019C326.21 160.679 324.344 161.692 322.678 163.061C321.078 164.376 319.74 166.024 318.664 168.004C317.595 169.924 316.93 171.982 316.671 174.179Z" fill="#ECE9E1"/>
<path d="M383.117 176.797C382.544 176.933 381.951 176.852 381.338 176.554C380.736 176.198 380.303 175.752 380.039 175.216L378.883 172.627C378.677 172.102 378.659 171.551 378.828 170.974C378.997 170.398 379.355 169.948 379.902 169.625C380.659 169.159 381.327 168.676 381.908 168.177C382.547 167.689 383.156 167.195 383.737 166.696C384.178 166.292 384.324 165.833 384.178 165.319C384.031 164.805 383.756 164.328 383.352 163.887C382.475 163.053 381.882 161.999 381.574 160.725C381.266 159.451 381.18 158.127 381.316 156.754C381.673 154.205 382.863 152.239 384.887 150.856C386.921 149.413 389.183 148.865 391.673 149.211C393.152 149.428 394.454 149.946 395.577 150.765C396.712 151.525 397.596 152.482 398.231 153.635C398.936 154.741 399.402 155.984 399.629 157.364C399.857 158.745 399.832 160.17 399.557 161.638C398.829 165.516 397.091 168.778 394.344 171.425C391.607 174.013 387.865 175.803 383.117 176.797Z" fill="#ECE9E1"/>
<path d="M409.618 199.351C412.242 202.163 414.946 204.533 417.73 206.461C420.514 208.389 423.24 209.686 425.907 210.353C428.459 210.99 430.488 211.128 431.996 210.765C433.518 210.344 434.461 209.409 434.823 207.959C435.011 207.206 434.866 206.553 434.388 206.002C433.924 205.394 433.235 204.821 432.322 204.285C431.466 203.763 430.422 203.256 429.19 202.763C427.958 202.27 426.711 201.712 425.449 201.089C424.232 200.538 422.789 199.9 421.122 199.176C419.527 198.407 417.903 197.509 416.25 196.48C414.612 195.392 413.01 194.16 411.444 192.783C409.936 191.421 408.667 189.841 407.638 188.043C406.608 186.246 405.905 184.252 405.528 182.063C405.223 179.831 405.411 177.351 406.092 174.626C407.092 170.624 408.701 167.515 410.919 165.296C413.137 163.078 415.623 161.512 418.377 160.598C421.204 159.641 424.169 159.242 427.271 159.401C430.388 159.502 433.339 159.901 436.122 160.596C440.994 161.813 445.162 163.625 448.627 166.031C452.165 168.394 455.362 171.38 458.218 174.99C458.58 175.512 458.718 176.07 458.631 176.664C458.544 177.259 458.269 177.744 457.805 178.121L448.607 186.081C448.144 186.458 447.607 186.632 446.998 186.603C446.389 186.574 445.896 186.328 445.519 185.864C443.026 183.269 440.597 181.276 438.234 179.885C435.885 178.435 433.638 177.443 431.492 176.906C430.854 176.747 430.093 176.588 429.209 176.428C428.397 176.225 427.585 176.146 426.773 176.189C425.976 176.175 425.258 176.334 424.62 176.668C424.04 177.016 423.649 177.596 423.446 178.408C423.243 179.22 423.671 180.097 424.73 181.039C425.788 181.981 427.042 182.88 428.492 183.735C429.942 184.59 431.355 185.344 432.733 185.996C434.125 186.59 435.016 186.967 435.408 187.127C437.394 188.054 439.532 189.236 441.823 190.671C444.128 192.048 446.158 193.787 447.913 195.889C449.74 197.947 451.066 200.405 451.893 203.26C452.792 206.073 452.778 209.335 451.851 213.046C450.981 216.526 449.619 219.389 447.763 221.636C445.922 223.826 443.697 225.457 441.088 226.53C438.536 227.618 435.622 228.183 432.346 228.227C429.142 228.228 425.684 227.764 421.973 226.837C418.957 226.083 416.21 225.119 413.731 223.945C411.237 222.829 408.968 221.554 406.924 220.119C404.88 218.684 403.016 217.14 401.335 215.487C399.725 213.791 398.275 212.074 396.985 210.334C396.608 209.87 396.463 209.341 396.55 208.747C396.651 208.094 396.934 207.58 397.398 207.203L406.508 199.221C406.972 198.844 407.509 198.67 408.117 198.699C408.726 198.728 409.227 198.945 409.618 199.351Z" fill="#ECE9E1"/>
<path d="M317.187 221.123C321.801 222.398 324.574 226.964 323.787 231.686L319.554 257.081C318.471 263.577 311.221 267.388 304.972 265.309C293.284 261.419 273.778 256.65 248.393 256.65C223.008 256.65 203.502 261.419 191.814 265.309C185.565 267.388 178.315 263.577 177.233 257.081L172.999 231.685C172.212 226.964 174.985 222.398 179.599 221.123C192.899 217.447 220.883 210.756 248.393 210.756C275.903 210.756 303.887 217.447 317.187 221.123Z" fill="#D3413B"/>
<path d="M309.259 252.128C309.02 252.212 308.786 252.249 308.556 252.237C308.326 252.226 308.093 252.195 307.859 252.146C308.004 251.92 308.169 251.777 308.353 251.717C308.553 251.637 308.764 251.565 308.986 251.501C309.061 251.492 309.137 251.484 309.212 251.475C309.325 251.462 309.419 251.451 309.494 251.442C309.649 251.463 309.729 251.492 309.733 251.529C309.784 251.638 309.784 251.724 309.734 251.787C309.584 251.976 309.426 252.089 309.259 252.128ZM315.48 251.982C315.604 251.738 315.551 251.525 315.32 251.342C315.278 251.309 315.198 251.28 315.081 251.255C314.985 251.247 314.888 251.239 314.792 251.231C314.713 251.202 314.635 251.192 314.56 251.201C313.894 251.049 313.23 250.916 312.568 250.801C311.944 250.683 311.299 250.547 310.632 250.395L310.412 250.22C310.222 249.899 310.043 249.586 309.874 249.281C309.722 248.955 309.551 248.631 309.362 248.31C309.218 248.059 309.167 247.865 309.208 247.727C309.271 247.605 309.406 247.456 309.615 247.279C309.74 247.208 309.876 247.144 310.022 247.089C310.185 247.013 310.417 246.958 310.718 246.923C311.036 246.867 311.348 246.841 311.653 246.844C311.975 246.826 312.283 246.847 312.576 246.909C312.87 246.97 313.09 247.059 313.237 247.176C313.342 247.259 313.395 247.387 313.395 247.558C313.408 247.671 313.499 247.794 313.667 247.927C313.855 247.906 314.016 247.811 314.149 247.643C314.232 247.538 314.263 247.391 314.241 247.203C314.227 246.747 314.127 246.377 313.942 246.093C313.777 245.826 313.537 245.567 313.222 245.318C312.719 244.918 312.182 244.646 311.612 244.502C311.059 244.337 310.451 244.283 309.79 244.34C308.56 244.425 307.896 245.112 307.796 246.402C307.707 247.118 307.804 247.793 308.088 248.428C308.371 249.063 308.681 249.686 309.018 250.295C308.797 250.359 308.594 250.421 308.41 250.48C308.226 250.539 308.042 250.599 307.858 250.658C307.257 250.899 306.985 251.35 307.042 252.012C307.124 252.727 307.439 253.301 307.985 253.734C308.447 254.1 308.991 254.276 309.619 254.261C310.574 254.265 311.063 253.798 311.089 252.861C311.1 252.63 311.074 252.405 311.01 252.183C310.984 251.957 310.967 251.721 310.957 251.474C311.384 251.539 311.822 251.612 312.27 251.694C312.756 251.772 313.231 251.841 313.696 251.901C313.948 251.93 314.199 251.958 314.45 251.986C314.722 252.031 314.995 252.076 315.267 252.121C315.38 252.108 315.451 252.061 315.48 251.982Z" fill="#ECE9E1"/>
<path d="M189.036 252.334C188.797 252.433 188.735 252.643 188.85 252.964C188.994 253.451 189.227 253.722 189.55 253.778C189.873 253.834 190.241 253.825 190.654 253.751C191.241 253.532 191.814 253.316 192.373 253.102C192.937 252.916 193.513 252.714 194.099 252.495C194.31 252.4 194.521 252.306 194.731 252.211C194.947 252.144 195.163 252.077 195.378 252.01C195.571 251.976 195.65 251.862 195.616 251.669C195.534 251.371 195.375 251.115 195.137 250.901C194.9 250.688 194.641 250.592 194.36 250.614C194.075 250.608 193.808 250.627 193.56 250.671C193.312 250.716 193.05 250.763 192.774 250.812C192.526 250.856 192.369 250.771 192.302 250.555C191.819 249.447 191.375 248.317 190.971 247.166C190.593 246.01 190.271 244.845 190.004 243.669C189.495 241.456 189.027 239.236 188.6 237.008C188.201 234.775 187.898 232.525 187.692 230.258C187.634 229.614 187.594 228.995 187.573 228.402C187.575 227.776 187.574 227.136 187.571 226.482C187.587 226.252 187.689 226.105 187.877 226.043C188.088 225.949 188.298 225.854 188.509 225.76C188.747 225.66 188.985 225.561 189.224 225.461C189.517 225.352 189.783 225.247 190.021 225.148C190.287 225.043 190.571 224.964 190.875 224.91C191.012 224.885 191.136 224.863 191.247 224.843C191.384 224.819 191.527 224.822 191.675 224.852C191.702 224.847 191.719 224.859 191.724 224.886C191.751 224.881 191.779 224.876 191.806 224.871C191.944 224.847 191.966 224.729 191.871 224.518C191.715 224.12 191.41 223.847 190.957 223.701C190.467 223.504 189.946 223.455 189.395 223.553C188.733 223.671 188.029 223.868 187.281 224.144C186.557 224.388 185.828 224.688 185.096 225.047C184.391 225.401 183.708 225.793 183.045 226.224C182.41 226.651 181.852 227.106 181.369 227.591C181.206 227.791 181.199 227.991 181.349 228.192C181.498 228.393 181.673 228.575 181.873 228.738C182.096 228.869 182.358 228.907 182.662 228.853C182.744 228.838 182.863 228.789 183.019 228.704C183.307 228.567 183.58 228.419 183.836 228.259C184.119 228.095 184.403 227.93 184.686 227.766C184.764 227.723 184.83 227.697 184.885 227.687C184.963 227.645 185.041 227.603 185.119 227.56L185.141 227.684C185.105 228.914 185.137 230.131 185.239 231.336C185.368 232.537 185.511 233.734 185.668 234.929C185.894 236.51 186.145 238.073 186.421 239.616C186.719 241.128 187.078 242.656 187.497 244.203C187.844 245.506 188.243 246.786 188.695 248.042C189.142 249.271 189.764 250.44 190.56 251.549L189.036 252.334Z" fill="#ECE9E1"/>
<path d="M199.887 231.361C199.509 230.938 199.109 230.73 198.685 230.739C198.285 230.716 197.85 230.741 197.379 230.813L195.926 231.038C195.765 231.091 195.601 231.13 195.435 231.156C195.269 231.182 195.105 231.221 194.943 231.274C194.958 231.187 194.959 231.102 194.946 231.019C195.025 230.61 195.089 230.204 195.14 229.799C195.187 229.367 195.235 228.948 195.286 228.544C195.297 228.429 195.262 228.293 195.181 228.135C194.876 227.814 194.502 227.687 194.06 227.756C193.889 227.754 193.773 227.828 193.712 227.98C193.673 228.099 193.637 228.232 193.603 228.379C193.459 228.911 193.33 229.455 193.218 230.011C193.129 230.535 193.012 231.063 192.867 231.595C192.842 231.797 192.774 231.907 192.663 231.924C192.233 232.076 191.817 232.225 191.415 232.372C190.985 232.523 190.539 232.663 190.077 232.791L189.787 232.836C189.648 232.857 189.522 232.863 189.407 232.852C189.264 232.846 189.129 232.796 189.001 232.702C188.933 232.628 188.857 232.597 188.774 232.61C188.687 232.595 188.602 232.594 188.519 232.607C188.408 232.624 188.341 232.648 188.317 232.68C188.284 232.827 188.298 232.924 188.362 232.971C188.822 233.382 189.247 233.656 189.637 233.794C190.027 233.932 190.567 233.948 191.259 233.841C191.73 233.768 192.18 233.656 192.61 233.505C192.646 233.556 192.664 233.581 192.664 233.581C192.571 234.446 192.533 235.302 192.551 236.149C192.596 236.992 192.641 237.835 192.686 238.678C192.768 239.941 192.889 241.183 193.05 242.405C193.238 243.622 193.497 244.843 193.828 246.067C193.939 246.418 194.066 246.781 194.208 247.156C194.379 247.526 194.585 247.849 194.825 248.123C195.066 248.398 195.356 248.622 195.694 248.796C196.029 248.943 196.417 248.982 196.86 248.914C197.358 248.837 197.797 248.557 198.175 248.073C198.582 247.585 198.92 247.023 199.19 246.387C199.46 245.75 199.672 245.108 199.827 244.46C200.006 243.781 200.106 243.241 200.13 242.841C200.147 242.584 200.107 242.42 200.011 242.35C199.911 242.252 199.746 242.192 199.516 242.171C199.235 242.186 199.079 242.366 199.047 242.711C198.996 243.115 198.896 243.57 198.748 244.075C198.599 244.579 198.42 245.074 198.212 245.56C197.999 246.018 197.757 246.466 197.485 246.905C197.208 247.316 196.893 247.662 196.54 247.943C196.459 247.786 196.38 247.642 196.304 247.512C196.25 247.351 196.199 247.203 196.15 247.069C196.018 246.579 195.885 246.089 195.753 245.6C195.649 245.106 195.542 244.598 195.433 244.077C195.038 241.701 194.797 239.316 194.71 236.921C194.695 236.271 194.693 235.62 194.706 234.966C194.718 234.313 194.744 233.657 194.784 232.999C194.754 232.805 194.823 232.696 194.989 232.67C195.58 232.465 196.174 232.274 196.77 232.097C197.362 231.893 197.956 231.702 198.552 231.525L198.759 231.493C198.953 231.463 199.118 231.522 199.254 231.671C199.299 231.778 199.395 231.848 199.542 231.882C199.657 231.892 199.756 231.891 199.839 231.878C199.922 231.866 200.021 231.864 200.136 231.875C200.095 231.796 200.053 231.704 200.008 231.597C199.991 231.486 199.95 231.408 199.887 231.361Z" fill="#ECE9E1"/>
<path d="M205.857 241.331C205.42 242.346 204.973 243.277 204.515 244.125C204.054 244.945 203.387 245.706 202.516 246.408C202.367 246.568 202.2 246.702 202.016 246.809C201.856 246.886 201.672 246.994 201.464 247.133C201.276 246.761 201.161 246.409 201.119 246.075C201.105 245.739 201.121 245.412 201.166 245.096C201.197 244.669 201.29 244.177 201.446 243.621C201.626 243.034 201.852 242.47 202.122 241.928C202.42 241.382 202.771 240.915 203.174 240.526C203.576 240.136 204.028 239.91 204.528 239.847C204.833 239.809 205.108 239.859 205.351 239.998C205.622 240.133 205.804 240.35 205.898 240.649C205.985 240.892 205.972 241.119 205.857 241.331ZM212.421 240.337C212.24 240.247 212.122 240.205 212.067 240.212C211.983 240.223 211.881 240.306 211.759 240.462C211.312 241.168 210.833 241.849 210.323 242.506C209.837 243.131 209.29 243.722 208.683 244.278C208.579 244.348 208.515 244.398 208.49 244.429C208.462 244.433 208.435 244.436 208.407 244.44C208.403 244.412 208.388 244.4 208.36 244.403C208.401 243.834 208.427 243.252 208.437 242.658C208.447 242.064 208.473 241.482 208.514 240.913C208.566 240.426 208.394 240.067 207.997 239.835C207.876 239.765 207.683 239.691 207.419 239.611C207.179 239.5 206.99 239.453 206.851 239.471C206.684 239.492 206.554 239.579 206.46 239.731C206.019 239.364 205.486 239.05 204.86 238.79C204.235 238.529 203.617 238.438 203.005 238.515C202.533 238.574 202.077 238.758 201.636 239.068C201.223 239.374 200.87 239.714 200.579 240.09C199.947 240.903 199.479 241.78 199.174 242.722C198.865 243.635 198.805 244.617 198.994 245.665C199.049 246.11 199.213 246.513 199.484 246.874C199.727 247.238 200.021 247.554 200.365 247.821C200.737 248.085 201.144 248.288 201.585 248.43C202.022 248.544 202.464 248.574 202.908 248.518C203.325 248.465 203.729 248.316 204.122 248.069C204.514 247.822 204.872 247.523 205.194 247.172C205.545 246.817 205.85 246.44 206.11 246.041C206.398 245.638 206.634 245.269 206.818 244.936C207.354 245.828 207.997 246.227 208.747 246.133C209.163 246.08 209.573 245.86 209.976 245.47C210.406 245.078 210.8 244.619 211.157 244.094C211.539 243.538 211.879 242.987 212.177 242.442C212.472 241.869 212.694 241.389 212.843 241.004C212.947 240.708 212.807 240.486 212.421 240.337Z" fill="#ECE9E1"/>
<path d="M218.644 239.763C218.502 239.749 218.407 239.786 218.36 239.876C218.337 239.934 218.305 240.036 218.263 240.18C218.028 241.244 217.631 242.225 217.071 243.123C216.537 243.991 215.899 244.813 215.159 245.588C215.131 245.591 215.102 245.58 215.071 245.554C214.977 245.17 214.87 244.786 214.748 244.404C214.655 244.019 214.575 243.633 214.509 243.246C214.395 242.357 214.294 241.466 214.207 240.574C214.149 239.68 214.09 238.785 214.031 237.89C213.948 235.873 213.963 233.86 214.078 231.851C214.192 229.843 214.348 227.83 214.546 225.813C214.569 225.473 214.517 225.225 214.389 225.069C214.259 224.885 214.048 224.736 213.755 224.624C213.639 224.579 213.566 224.558 213.538 224.561C213.427 224.572 213.337 224.665 213.27 224.84C212.868 226.201 212.549 227.555 212.314 228.9C212.079 230.245 211.917 231.625 211.83 233.04C211.733 234.653 211.694 236.275 211.711 237.905C211.754 239.504 211.896 241.108 212.137 242.717C212.238 243.185 212.358 243.694 212.496 244.243C212.634 244.792 212.837 245.293 213.106 245.745C213.372 246.17 213.702 246.517 214.094 246.789C214.514 247.057 215.03 247.162 215.643 247.102C216.089 247.059 216.539 246.762 216.992 246.212C217.445 245.662 217.848 245.032 218.201 244.322C218.579 243.582 218.872 242.836 219.081 242.084C219.286 241.305 219.366 240.678 219.32 240.204C219.334 240.062 219.268 239.956 219.12 239.886C219.001 239.813 218.842 239.772 218.644 239.763Z" fill="#ECE9E1"/>
<path d="M224.11 239.363C223.931 239.236 223.745 239.181 223.549 239.196C223.354 239.212 223.166 239.325 222.986 239.536C222.808 239.774 222.646 240.026 222.498 240.291C222.348 240.527 222.184 240.765 222.007 241.004C221.805 241.3 221.618 241.596 221.445 241.891C221.269 242.157 221.08 242.425 220.876 242.694C220.848 242.696 220.819 242.684 220.789 242.659C220.757 242.605 220.736 242.523 220.727 242.411C220.716 241.906 220.69 241.403 220.65 240.9C220.61 240.398 220.586 239.908 220.576 239.431C220.597 238.98 220.603 238.53 220.596 238.081C220.616 237.63 220.637 237.179 220.657 236.728C220.667 236.138 220.37 235.754 219.766 235.577C219.594 235.534 219.494 235.514 219.466 235.516C219.354 235.525 219.239 235.661 219.119 235.923C218.921 236.613 218.753 237.328 218.615 238.07C218.502 238.781 218.447 239.501 218.448 240.232C218.454 240.652 218.473 241.072 218.506 241.491C218.511 241.912 218.558 242.33 218.647 242.744C218.886 243.989 219.612 244.648 220.826 244.72C220.912 244.742 221.025 244.747 221.164 244.736C221.611 244.701 221.944 244.478 222.165 244.067C222.284 243.805 222.418 243.541 222.566 243.277C222.713 243.012 222.86 242.734 223.005 242.441C223.198 242.033 223.404 241.623 223.624 241.213C223.842 240.774 224.062 240.35 224.282 239.939C224.404 239.705 224.347 239.512 224.11 239.363ZM219.498 233.786C219.586 233.836 219.79 233.932 220.111 234.075C220.431 234.218 220.647 234.285 220.759 234.276C220.898 234.265 220.988 234.16 221.028 233.96C221.045 233.818 221.063 233.691 221.082 233.577C221.102 233.463 221.119 233.335 221.136 233.193C221.166 232.854 221.075 232.594 220.864 232.414C220.651 232.206 220.363 232.117 220 232.145C219.637 232.174 219.403 232.403 219.296 232.833C219.106 233.27 219.173 233.587 219.498 233.786Z" fill="#ECE9E1"/>
<path d="M229.734 238.968C229.225 239.949 228.711 240.845 228.193 241.658C227.674 242.442 226.954 243.153 226.035 243.791C225.874 243.939 225.699 244.061 225.507 244.155C225.342 244.22 225.151 244.314 224.933 244.438C224.773 244.054 224.684 243.694 224.666 243.358C224.676 243.021 224.715 242.697 224.783 242.385C224.844 241.961 224.973 241.477 225.169 240.934C225.391 240.362 225.656 239.815 225.965 239.294C226.302 238.771 226.685 238.33 227.115 237.971C227.545 237.612 228.011 237.419 228.515 237.392C228.822 237.376 229.092 237.446 229.325 237.602C229.585 237.756 229.752 237.986 229.824 238.291C229.893 238.539 229.863 238.765 229.734 238.968ZM236.352 238.45C236.178 238.347 236.063 238.297 236.008 238.3C235.924 238.304 235.815 238.38 235.683 238.528C235.186 239.199 234.659 239.844 234.103 240.462C233.573 241.051 232.985 241.6 232.339 242.111C232.23 242.173 232.163 242.219 232.136 242.248C232.108 242.25 232.08 242.251 232.052 242.253C232.051 242.225 232.036 242.212 232.008 242.213C232.091 241.648 232.158 241.069 232.211 240.478C232.264 239.886 232.331 239.308 232.414 238.742C232.5 238.261 232.355 237.89 231.976 237.63C231.86 237.552 231.673 237.464 231.415 237.365C231.184 237.237 230.999 237.177 230.859 237.184C230.691 237.193 230.555 237.27 230.451 237.416C230.037 237.017 229.528 236.666 228.923 236.361C228.318 236.057 227.708 235.921 227.092 235.953C226.617 235.979 226.148 236.129 225.686 236.406C225.252 236.682 224.876 236.996 224.558 237.349C223.87 238.115 223.34 238.956 222.967 239.873C222.594 240.762 222.463 241.736 222.575 242.796C222.599 243.243 222.733 243.657 222.977 244.037C223.194 244.418 223.464 244.754 223.788 245.045C224.14 245.335 224.53 245.567 224.96 245.74C225.388 245.886 225.826 245.947 226.274 245.923C226.693 245.901 227.107 245.781 227.517 245.563C227.926 245.345 228.304 245.073 228.651 244.746C229.026 244.418 229.358 244.064 229.646 243.684C229.963 243.303 230.225 242.952 230.432 242.633C230.902 243.561 231.514 244.006 232.269 243.966C232.689 243.944 233.113 243.753 233.543 243.394C234 243.033 234.426 242.604 234.821 242.106C235.242 241.579 235.62 241.055 235.957 240.532C236.293 239.981 236.549 239.519 236.725 239.145C236.85 238.858 236.726 238.627 236.352 238.45Z" fill="#ECE9E1"/>
<path d="M245.973 238.176C245.917 238.177 245.875 238.178 245.847 238.178C245.818 238.151 245.79 238.137 245.762 238.138C245.594 238.141 245.471 238.284 245.392 238.566C245.34 238.735 245.3 238.847 245.273 238.904C244.956 239.863 244.414 240.728 243.645 241.499C243.643 241.415 243.628 241.346 243.599 241.29C243.597 241.234 243.596 241.178 243.595 241.122C243.56 240.787 243.526 240.466 243.492 240.158C243.485 239.822 243.465 239.5 243.43 239.193C243.365 238.746 243.287 238.314 243.194 237.895C243.129 237.449 242.995 237.031 242.791 236.643C242.298 235.785 241.547 235.366 240.539 235.386C239.839 235.4 239.201 235.707 238.625 236.307C238.543 236.42 238.461 236.52 238.379 236.606C238.297 236.691 238.201 236.805 238.092 236.948C238.116 236.779 238.127 236.625 238.125 236.485C238.121 236.317 238.132 236.163 238.157 236.022C238.149 235.63 237.962 235.368 237.595 235.235C237.511 235.209 237.412 235.183 237.3 235.157C237.215 235.131 237.131 235.118 237.047 235.12C236.823 235.125 236.669 235.156 236.587 235.213C236.531 235.243 236.464 235.37 236.384 235.596C236.255 236.13 236.139 236.651 236.037 237.157C235.936 237.663 235.834 238.169 235.732 238.676C235.605 239.35 235.493 240.025 235.394 240.699C235.296 241.373 235.268 242.06 235.31 242.759C235.341 242.899 235.386 243.052 235.445 243.219C235.504 243.357 235.604 243.453 235.745 243.507C236.168 243.666 236.591 243.784 237.012 243.859C237.376 243.852 237.597 243.679 237.674 243.342C237.962 242.356 238.279 241.369 238.623 240.382C238.967 239.367 239.438 238.433 240.037 237.581C240.146 237.411 240.269 237.254 240.406 237.111C240.57 236.94 240.721 236.769 240.858 236.598C240.886 236.625 240.9 236.639 240.9 236.639C240.928 236.639 240.957 236.652 240.985 236.679C241.049 237.07 241.099 237.447 241.134 237.811C241.169 238.174 241.205 238.552 241.241 238.943C241.306 239.418 241.358 239.893 241.395 240.368C241.46 240.815 241.54 241.276 241.633 241.75C241.727 242.224 241.972 242.597 242.37 242.869C242.795 243.113 243.245 243.23 243.721 243.22C244.113 243.213 244.474 243.037 244.803 242.695C245.132 242.324 245.418 241.912 245.661 241.459C245.931 240.977 246.145 240.483 246.303 239.976C246.461 239.468 246.551 239.074 246.573 238.794C246.595 238.457 246.394 238.251 245.973 238.176Z" fill="#ECE9E1"/>
<path d="M270.248 236.815C270.246 236.843 270.23 236.87 270.2 236.896C270.2 236.896 270.199 236.91 270.198 236.937C269.772 238.256 269.239 239.497 268.599 240.661C267.961 241.796 267.146 242.85 266.154 243.821C266.063 243.927 265.897 244.099 265.657 244.335C265.446 244.545 265.207 244.754 264.941 244.96C264.674 245.167 264.409 245.359 264.144 245.538C263.909 245.69 263.708 245.761 263.54 245.75C263.456 245.744 263.328 245.567 263.155 245.219C262.785 244.464 262.542 243.704 262.425 242.938C262.31 242.144 262.35 241.347 262.544 240.546C262.696 239.967 262.901 239.42 263.161 238.904C263.448 238.39 263.842 237.954 264.344 237.595C264.405 237.515 264.493 237.464 264.606 237.444C264.72 237.424 264.835 237.389 264.95 237.341C264.998 237.456 265.047 237.572 265.095 237.688C265.145 237.775 265.166 237.889 265.156 238.028C265.13 238.42 265.049 238.779 264.915 239.107C264.809 239.436 264.633 239.747 264.389 240.04C264.294 240.201 264.313 240.329 264.447 240.422C264.633 240.575 264.796 240.656 264.936 240.666C265.215 240.685 265.419 240.572 265.548 240.328C265.83 239.898 266.089 239.382 266.326 238.781C266.522 238.373 266.469 237.921 266.165 237.423C265.935 237.099 265.642 236.854 265.289 236.69C264.937 236.498 264.565 236.389 264.174 236.362C263.448 236.313 262.801 236.536 262.235 237.031C261.698 237.5 261.296 238.048 261.029 238.676C260.482 239.706 260.23 240.741 260.272 241.782C260.344 242.797 260.598 243.811 261.035 244.823C261.375 245.604 261.856 246.169 262.478 246.52C263.098 246.899 263.812 247.129 264.62 247.212C265.347 247.261 266.078 247.03 266.814 246.518C267.576 246.036 268.29 245.439 268.956 244.726C269.623 243.985 270.208 243.225 270.71 242.445C271.241 241.639 271.624 240.963 271.857 240.417C272.12 239.846 272.342 239.257 272.523 238.652C272.705 238.047 272.885 237.456 273.064 236.878C273.098 236.797 273.116 236.728 273.12 236.672C273.154 236.59 273.227 236.539 273.341 236.518C274.135 236.403 274.914 236.288 275.68 236.171C276.446 236.054 277.211 235.938 277.977 235.821C278.344 235.79 278.657 235.726 278.916 235.632C279.376 235.466 279.451 235.191 279.14 234.805C278.749 234.358 278.303 234.117 277.8 234.083C276.369 234.071 274.988 234.16 273.656 234.35C273.737 233.57 273.816 232.804 273.895 232.051C273.976 231.271 274.044 230.475 274.099 229.665C274.123 228.881 274.105 228.108 274.045 227.346C274.014 226.558 273.883 225.792 273.653 225.046C273.71 225.022 273.769 224.984 273.829 224.932C274.95 224.531 276.223 224.181 277.646 223.885C279.099 223.562 280.427 223.441 281.628 223.522C281.852 223.537 282.199 223.589 282.67 223.677C283.169 223.766 283.665 223.898 284.159 224.072C284.654 224.217 285.091 224.401 285.469 224.623C285.849 224.817 286.071 225.057 286.136 225.342C286.182 225.485 286.295 225.689 286.474 225.954C286.654 226.191 286.814 226.314 286.954 226.323C287.121 226.335 287.185 226.227 287.144 225.999C287.169 225.636 287.106 225.323 286.955 225.06C286.741 224.485 286.326 223.98 285.71 223.545C285.122 223.112 284.459 222.745 283.722 222.443C282.984 222.14 282.228 221.907 281.454 221.742C280.709 221.551 280.071 221.438 279.54 221.402C278.758 221.35 277.942 221.379 277.092 221.49C276.245 221.573 275.393 221.712 274.538 221.907C273.711 222.103 272.881 222.342 272.048 222.623C271.245 222.877 270.483 223.148 269.762 223.436C269.099 223.7 268.463 223.966 267.856 224.234C267.25 224.474 266.63 224.727 265.994 224.992C265.849 225.067 265.691 225.126 265.519 225.171C265.348 225.215 265.176 225.26 265.005 225.304C265.022 225.053 265.082 224.79 265.184 224.517C265.287 224.243 265.417 223.985 265.573 223.743C265.73 223.501 265.899 223.288 266.08 223.104C266.261 222.919 266.438 222.791 266.611 222.719C266.605 222.802 266.587 222.871 266.555 222.925C266.484 223.145 266.459 223.312 266.479 223.425C266.527 223.541 266.645 223.675 266.831 223.828C266.965 223.921 267.06 223.97 267.116 223.973C267.255 223.983 267.374 223.893 267.471 223.703C267.819 223.109 267.761 222.516 267.296 221.923C266.931 221.505 266.553 221.283 266.162 221.257C265.799 221.232 265.456 221.321 265.134 221.524C264.811 221.727 264.513 221.988 264.239 222.306C263.993 222.626 263.773 222.976 263.579 223.356C263.415 223.71 263.294 224.038 263.218 224.342C263.137 224.701 263.169 225.068 263.312 225.443C263.457 225.789 263.658 226.126 263.917 226.452C264.206 226.752 264.539 227.013 264.917 227.235C265.297 227.429 265.668 227.538 266.031 227.563C266.339 227.584 266.72 227.539 267.177 227.43C267.633 227.32 268.02 227.206 268.337 227.087C268.883 226.899 269.402 226.696 269.893 226.476C270.413 226.259 270.933 226.041 271.453 225.824C271.511 225.8 271.568 225.79 271.624 225.793C271.681 225.769 271.739 225.745 271.797 225.721C271.793 225.777 271.79 225.819 271.788 225.847C271.814 225.876 271.826 225.905 271.825 225.933C271.892 227.425 271.821 228.894 271.611 230.339C271.429 231.786 271.164 233.228 270.814 234.664C270.808 234.748 270.733 234.827 270.588 234.901C270.303 234.966 270.018 235.031 269.732 235.096C269.477 235.135 269.207 235.187 268.922 235.252C268.637 235.317 268.557 235.466 268.681 235.698C268.81 235.876 268.953 236.04 269.111 236.191C269.299 236.316 269.474 236.426 269.636 236.521C269.828 236.59 270.033 236.674 270.251 236.773C270.251 236.773 270.25 236.787 270.248 236.815Z" fill="#ECE9E1"/>
<path d="M279.979 244.435C279.843 244.646 279.608 244.859 279.274 245.076C278.971 245.268 278.695 245.35 278.444 245.322C278.305 245.307 278.175 245.208 278.054 245.026C277.658 244.277 277.579 243.466 277.816 242.59C277.976 241.904 278.202 241.267 278.492 240.679C278.81 240.094 279.261 239.581 279.845 239.138C279.907 239.089 280.059 238.993 280.3 238.85C280.541 238.708 280.717 238.643 280.828 238.655C280.94 238.667 281 238.758 281.01 238.929C281.028 239.015 281.081 239.176 281.168 239.411C280.939 239.442 280.806 239.498 280.769 239.578C280.735 239.631 280.735 239.757 280.769 239.958C280.989 240.772 281.03 241.551 280.891 242.296C280.753 243.042 280.448 243.755 279.979 244.435ZM287.097 241.587C287.057 241.442 286.956 241.332 286.795 241.258C286.665 241.159 286.517 241.1 286.35 241.082C286.239 241.07 286.154 241.074 286.095 241.096C285.714 241.223 285.337 241.322 284.963 241.394C284.62 241.44 284.254 241.442 283.864 241.399C283.725 241.384 283.586 241.368 283.446 241.353C283.338 241.313 283.216 241.271 283.08 241.228C282.941 241.212 282.797 241.112 282.648 240.927L282.007 239.842C282.255 239.644 282.374 239.46 282.364 239.289C282.386 239.095 282.301 238.846 282.109 238.543C281.836 238.203 281.491 237.883 281.074 237.583C280.659 237.256 280.229 237.068 279.784 237.018C279.255 236.96 278.762 237.089 278.304 237.404C277.875 237.723 277.479 238.116 277.118 238.583C276.784 239.054 276.515 239.573 276.312 240.142C276.083 240.681 275.946 241.158 275.9 241.576C275.657 243.521 276.36 245.064 278.009 246.204C278.43 246.476 278.821 246.631 279.183 246.671C279.795 246.739 280.3 246.626 280.699 246.332C281.126 246.041 281.464 245.656 281.714 245.176C281.992 244.7 282.204 244.188 282.349 243.64C282.524 243.068 282.651 242.561 282.728 242.119L282.895 242.137C283.353 242.329 283.763 242.444 284.124 242.484C284.542 242.53 284.952 242.519 285.354 242.451C285.783 242.386 286.204 242.277 286.615 242.125C286.702 242.107 286.838 242.023 287.023 241.875C287.116 241.8 287.14 241.704 287.097 241.587Z" fill="#ECE9E1"/>
<path d="M289.669 245.736C289.527 245.942 289.286 246.148 288.946 246.355C288.638 246.538 288.359 246.612 288.109 246.577C287.971 246.558 287.844 246.455 287.728 246.27C287.354 245.51 287.298 244.697 287.561 243.829C287.741 243.147 287.985 242.517 288.292 241.938C288.627 241.363 289.093 240.862 289.69 240.437C289.753 240.389 289.908 240.298 290.153 240.162C290.398 240.027 290.576 239.967 290.687 239.983C290.798 239.998 290.856 240.091 290.86 240.261C290.876 240.348 290.924 240.511 291.004 240.748C290.774 240.772 290.64 240.824 290.6 240.904C290.565 240.955 290.561 241.082 290.59 241.284C290.786 242.103 290.804 242.883 290.643 243.624C290.483 244.365 290.158 245.069 289.669 245.736ZM296.867 243.096C296.831 242.95 296.734 242.837 296.575 242.758C296.448 242.656 296.302 242.593 296.135 242.569C296.024 242.554 295.939 242.556 295.88 242.576C295.496 242.692 295.116 242.78 294.74 242.841C294.396 242.877 294.029 242.868 293.641 242.814C293.502 242.795 293.364 242.775 293.225 242.756C293.118 242.712 292.997 242.667 292.862 242.62C292.724 242.601 292.583 242.496 292.44 242.306L291.831 241.203C292.084 241.012 292.208 240.832 292.204 240.662C292.231 240.468 292.153 240.216 291.97 239.908C291.707 239.56 291.372 239.23 290.963 238.919C290.558 238.579 290.134 238.378 289.69 238.316C289.163 238.242 288.667 238.357 288.2 238.659C287.762 238.965 287.355 239.346 286.98 239.803C286.633 240.263 286.349 240.775 286.129 241.338C285.885 241.869 285.733 242.343 285.675 242.759C285.376 244.696 286.033 246.258 287.648 247.446C288.061 247.73 288.447 247.897 288.808 247.948C289.418 248.033 289.927 247.935 290.334 247.652C290.769 247.374 291.118 246.999 291.382 246.527C291.674 246.059 291.9 245.553 292.061 245.01C292.254 244.443 292.395 243.94 292.485 243.5L292.651 243.524C293.103 243.728 293.509 243.856 293.87 243.906C294.286 243.965 294.696 243.965 295.099 243.909C295.531 243.856 295.954 243.76 296.37 243.62C296.457 243.604 296.595 243.525 296.785 243.381C296.88 243.31 296.907 243.215 296.867 243.096Z" fill="#ECE9E1"/>
<path d="M296.881 248.364C296.851 248.046 296.851 247.719 296.881 247.384C296.938 247.053 297.021 246.74 297.129 246.446C297.43 245.532 297.869 244.642 298.446 243.776C299.05 242.915 299.823 242.31 300.765 241.962C300.922 241.876 301.056 241.842 301.166 241.862C301.249 241.876 301.354 242.008 301.481 242.257C301.517 242.377 301.539 242.495 301.547 242.61C301.583 242.73 301.619 242.85 301.655 242.97C301.69 243.26 301.728 243.451 301.769 243.544C301.814 243.609 301.947 243.745 302.166 243.954C301.51 244.948 300.77 245.857 299.945 246.68C299.152 247.48 298.131 248.041 296.881 248.364ZM309.099 245.031C308.948 244.92 308.803 244.852 308.665 244.828C308.445 244.79 308.255 244.899 308.097 245.155C307.785 245.641 307.437 246.092 307.052 246.509C306.667 246.925 306.234 247.29 305.753 247.604C305.591 247.718 305.417 247.816 305.233 247.898C305.075 247.984 304.902 248.082 304.713 248.191C304.709 248.048 304.689 247.917 304.653 247.797C304.556 247.212 304.544 246.627 304.617 246.043C304.69 245.459 304.777 244.877 304.878 244.297C305.126 243.033 305.427 241.792 305.781 240.575C306.139 239.33 306.539 238.092 306.981 236.861C307.375 235.736 307.77 234.611 308.164 233.486C308.587 232.365 309.009 231.245 309.431 230.125C309.731 229.381 309.497 228.843 308.731 228.511L308.607 228.489C308.469 228.465 308.346 228.515 308.24 228.639C308.151 228.822 308.051 228.99 307.939 229.141C307.828 229.292 307.728 229.459 307.639 229.643C306.589 231.592 305.641 233.615 304.793 235.713C303.95 237.784 303.242 239.892 302.67 242.038C302.351 241.584 301.981 241.179 301.56 240.822C301.171 240.441 300.687 240.201 300.108 240.1C299.363 239.971 298.616 240.182 297.866 240.734C296.038 242.093 294.964 243.938 294.644 246.27C294.531 247.245 294.728 248.075 295.234 248.76C295.768 249.45 296.504 249.876 297.442 250.039C298.242 250.178 298.938 250.015 299.531 249.55C300.151 249.089 300.707 248.589 301.199 248.049C301.375 247.852 301.538 247.653 301.686 247.452C301.863 247.255 302.041 247.044 302.222 246.82C302.258 246.94 302.29 247.088 302.316 247.263C302.666 248.517 303.513 249.29 304.855 249.58C305.351 249.666 305.824 249.564 306.273 249.272C306.721 248.981 307.127 248.611 307.489 248.162C307.879 247.718 308.216 247.251 308.5 246.76C308.817 246.247 309.061 245.821 309.234 245.481C309.323 245.298 309.278 245.148 309.099 245.031Z" fill="#ECE9E1"/>
<path d="M286.097 123.103C286.09 123.112 286.094 123.12 286.082 123.117C285.684 123.019 237.39 111.221 201.158 123.575C200.986 123.633 200.796 123.564 200.703 123.408C195.307 114.3 197.149 102.354 197.302 101.425C197.31 101.383 197.309 101.346 197.302 101.303L194.145 81.4749C194.11 81.2549 193.91 81.1057 193.692 81.1464C190.735 81.6972 171.684 84.6601 163.186 71.4077C154.015 57.1044 166.311 41.9838 182.738 41.4889C182.911 41.4837 183.058 41.3876 183.107 41.2211C184.048 38.0357 194.345 6.94906 234.138 20.736C234.278 20.7846 234.423 20.7694 234.531 20.6675C236.831 18.4939 264.018 -5.93269 288.801 29.2623C288.88 29.3741 288.996 29.4442 289.132 29.4374C291.78 29.3058 319.839 28.6196 318.826 58.7225C318.124 79.5991 294.869 84.8434 292.1 85.3943C291.937 85.4268 291.815 85.5565 291.79 85.7214L289.376 101.588C289.37 101.628 289.369 101.664 289.376 101.705C289.533 102.69 291.604 116.398 286.097 123.103Z" fill="#ECE9E1"/>
<path fill-rule="evenodd" clip-rule="evenodd" d="M256.236 128.33C272.157 129.686 283.775 132.527 283.775 132.527L283.776 132.527C284.307 132.657 286.673 133.238 289.468 132.197C291.515 131.435 292.866 130.18 293.723 129.081C298.496 123.143 299.381 115.341 299.544 110.592C299.672 106.867 299.382 103.595 299.156 101.721L300.467 93.1026C303.643 92.0036 307.566 90.3286 311.453 87.8466C319.385 82.7812 328.017 73.7074 328.51 59.0483C328.815 49.9789 326.938 42.4454 323.268 36.4008C319.607 30.3699 314.572 26.496 309.651 24.0593C303.856 21.1894 297.974 20.1881 293.864 19.864C287.673 12.0956 281.007 6.88791 274.036 3.87301C265.925 0.364609 258.11 0.133967 251.387 1.4407C243.103 3.05072 236.421 6.99742 232.282 10.0094C212.185 4.42674 197.608 8.96532 187.817 17.1984C181.85 22.2163 178.213 28.151 176.128 32.545C167.653 34.2953 160.181 38.9886 155.452 45.6763C149.303 54.3717 148.214 66.0066 155.03 76.6375C161.42 86.6037 171.555 90.007 179.204 91.0529C181.58 91.3777 183.858 91.4991 185.93 91.5014L187.519 101.478C187.312 103.265 187.08 106.242 187.243 109.794C187.475 114.837 188.538 121.882 192.367 128.346C194.826 132.497 199.824 134.266 204.285 132.745C220.522 127.209 240.076 126.955 256.236 128.33ZM286.097 123.103C286.094 123.106 286.093 123.109 286.092 123.112C286.091 123.116 286.09 123.119 286.082 123.117C285.684 123.019 237.39 111.221 201.158 123.575C200.986 123.633 200.796 123.564 200.703 123.408C195.307 114.3 197.149 102.354 197.302 101.425C197.31 101.383 197.309 101.346 197.302 101.303L194.145 81.4749C194.11 81.2549 193.91 81.1057 193.692 81.1464C190.735 81.6972 171.684 84.6601 163.186 71.4077C154.015 57.1044 166.311 41.9838 182.738 41.4889C182.911 41.4837 183.058 41.3876 183.107 41.2211C184.048 38.0357 194.345 6.94906 234.138 20.736C234.278 20.7846 234.423 20.7694 234.531 20.6675C236.831 18.4939 264.018 -5.93269 288.801 29.2623C288.88 29.3741 288.996 29.4442 289.132 29.4374C291.78 29.3058 319.839 28.6196 318.826 58.7225C318.124 79.5991 294.869 84.8434 292.1 85.3943C291.937 85.4268 291.815 85.5565 291.79 85.7214L289.376 101.588C289.37 101.628 289.369 101.664 289.376 101.705C289.533 102.69 291.604 116.398 286.097 123.103ZM295.144 126.568C295.172 126.495 295.185 126.459 295.173 126.491L295.173 126.491C295.171 126.496 295.16 126.525 295.144 126.568Z" fill="#D3413B"/>
<path d="M286.085 123.117C286.085 123.117 237.279 111.105 200.864 123.675C195.044 114.164 197.312 101.368 197.312 101.368L194.08 81.0696C194.08 81.0696 172.412 85.7966 163.186 71.4077C153.96 57.0189 166.459 41.8028 183.033 41.4815C183.033 41.4815 192.256 6.0806 234.374 20.8182C234.374 20.8182 262.997 -7.61573 288.933 29.4489C288.933 29.4489 319.889 27.1303 318.826 58.7225C318.08 80.9217 291.832 85.4451 291.832 85.4451L289.367 101.649C289.367 101.649 291.811 116.146 286.097 123.103L286.085 123.117Z" fill="#ECE9E1"/>
<path d="M192.186 84.3719C193.549 84.1156 194.749 83.7255 195.966 83.225C196.568 82.9754 197.167 82.6989 197.735 82.3846C198.318 82.0824 198.883 81.7411 199.417 81.3621C199.967 80.9951 200.484 80.577 200.986 80.1466C201.252 79.9436 201.472 79.6907 201.707 79.4499C201.942 79.2091 202.192 78.9804 202.397 78.7153L203.041 77.9309L203.612 77.0856C204.008 76.5433 204.258 75.9063 204.581 75.3167L202.925 76.0509C203.738 76.2975 204.492 76.4821 205.272 76.6641C206.051 76.8325 206.829 77.001 207.618 77.1277C209.183 77.4093 210.767 77.594 212.342 77.6979C213.139 77.7693 213.931 77.8004 214.735 77.8031C215.526 77.8207 216.331 77.8369 217.127 77.7723C217.924 77.7076 218.73 77.7374 219.52 77.6053C220.313 77.5003 221.12 77.4073 221.912 77.2888L224.282 76.7566C225.07 76.5977 225.827 76.2648 226.606 76.025C226.988 75.8922 227.371 75.773 227.751 75.6268L228.856 75.0964C229.581 74.7123 230.359 74.459 231.032 73.971L233.092 72.6257C233.753 72.1526 234.335 71.5647 234.963 71.0268L235.877 70.2158L236.67 69.2807L238.241 67.3983L236.484 67.8021C237.056 68.0861 237.553 68.2959 238.077 68.503C238.601 68.71 239.122 68.8902 239.657 69.069C240.712 69.4145 241.802 69.702 242.886 69.9357L244.522 70.2377L246.177 70.4562C246.728 70.5246 247.288 70.5377 247.836 70.5791C248.386 70.6339 248.941 70.6066 249.499 70.6062C250.605 70.6338 251.72 70.4834 252.828 70.4018L254.474 70.1177C255.024 70.0365 255.554 69.8892 256.098 69.7405C256.628 69.5932 257.175 69.4851 257.7 69.2839L259.249 68.7098C260.288 68.3357 261.254 67.7781 262.243 67.3136C262.621 67.1405 262.782 66.7028 262.61 66.3387C262.452 65.9732 262.027 65.8108 261.66 65.9557L261.555 65.9932C260.585 66.3742 259.668 66.8725 258.675 67.1605L257.197 67.6323C256.709 67.7891 256.186 67.8676 255.694 67.984C255.187 68.0882 254.696 68.2181 254.169 68.2562L252.636 68.4476C251.605 68.4808 250.579 68.568 249.55 68.4921C249.031 68.475 248.527 68.47 248.017 68.3977C247.507 68.3389 246.986 68.2949 246.487 68.2077L244.963 67.9356L243.458 67.5799C242.465 67.31 241.482 66.9983 240.534 66.6288C240.053 66.4447 239.585 66.2593 239.115 66.0469C238.66 65.8466 238.174 65.6086 237.799 65.4005C237.211 65.0908 236.506 65.2554 236.091 65.7451L236.042 65.8043L234.64 67.4661L233.933 68.2976L233.118 69.0171C232.565 69.4797 232.059 70.0057 231.474 70.4305L229.658 71.6158C229.073 72.0406 228.361 72.2738 227.714 72.6096L226.726 73.0876C226.385 73.2163 226.027 73.3195 225.686 73.4482C224.986 73.6666 224.321 73.9633 223.586 74.1035L221.429 74.5875L219.226 74.8855C218.503 75.0109 217.739 74.9907 217.01 75.0487C216.267 75.1081 215.517 75.1 214.78 75.0772C214.031 75.0691 213.293 75.0463 212.539 74.9843C211.045 74.886 209.558 74.7055 208.075 74.4428C207.329 74.3257 206.605 74.1654 205.868 74.0064C205.143 73.8327 204.404 73.6468 203.745 73.4529C203.128 73.2686 202.474 73.5369 202.159 74.0714L202.088 74.1871C201.822 74.6623 201.627 75.1713 201.303 75.6114L200.853 76.2952L200.329 76.9182C200.16 77.1389 199.96 77.3218 199.775 77.5168C199.575 77.6998 199.406 77.9205 199.178 78.0925C198.764 78.4462 198.336 78.8012 197.862 79.1063C197.403 79.4235 196.928 79.7151 196.424 79.9823C195.932 80.2483 195.412 80.4899 194.888 80.7046C193.855 81.1327 192.719 81.4891 191.691 81.6854L191.65 81.6894C190.915 81.8296 190.427 82.5443 190.568 83.2789C190.708 84.0136 191.409 84.5026 192.144 84.3624L192.186 84.3719Z" fill="#D3413B"/>
<path d="M293.346 100.864C293.346 100.864 293.141 100.72 292.665 100.441C292.189 100.174 291.555 99.8147 290.712 99.4077C289.868 98.9871 288.831 98.5446 287.64 98.0628C286.426 97.6241 285.079 97.076 283.568 96.6529C282.063 96.1611 280.415 95.7378 278.658 95.3116C276.903 94.8989 275.045 94.5507 273.118 94.1956C271.173 93.9375 269.189 93.5473 267.145 93.3941C265.097 93.1871 263.034 92.9679 260.946 92.9143C259.907 92.8667 258.866 92.8056 257.827 92.758C256.791 92.7373 255.757 92.7436 254.735 92.735C252.692 92.718 250.675 92.6983 248.727 92.8215C246.777 92.9178 244.902 92.9523 243.12 93.1001C241.339 93.2614 239.664 93.3986 238.113 93.5373C236.558 93.6492 235.147 93.8286 233.898 94.0056C232.648 94.1692 231.56 94.3169 230.66 94.4325C228.859 94.6638 227.838 94.8049 227.838 94.8049C227.434 94.8446 227.144 95.2268 227.198 95.6298C227.237 96.0341 227.605 96.311 228.008 96.2578L228.035 96.2552C228.035 96.2552 229.058 96.1411 230.848 95.938C231.738 95.8507 232.828 95.7165 234.067 95.5812C235.304 95.4324 236.718 95.2799 238.248 95.1977C239.789 95.0872 241.453 94.9783 243.211 94.8601C244.969 94.7419 246.834 94.7492 248.748 94.6973C250.673 94.6172 252.652 94.6678 254.672 94.7279C255.682 94.7512 256.703 94.7598 257.716 94.8101C258.729 94.8738 259.757 94.9497 260.772 95.027C262.824 95.1249 264.849 95.375 266.846 95.6143C268.851 95.7984 270.785 96.2209 272.677 96.4978C274.551 96.8716 276.358 97.2521 278.048 97.6849C279.738 98.1312 281.319 98.5611 282.756 99.0595C284.215 99.5014 285.48 100.044 286.626 100.489C287.749 100.978 288.716 101.4 289.492 101.814C290.265 102.2 290.871 102.549 291.219 102.773C291.567 102.984 291.8 103.138 291.8 103.138C292.414 103.568 293.256 103.417 293.686 102.803C294.116 102.19 293.965 101.347 293.351 100.917L293.322 100.893L293.346 100.864Z" fill="#D3413B"/>
<path d="M195.905 102.976C195.905 102.976 197.111 102.503 198.89 101.907C199.787 101.615 200.809 101.215 201.962 100.898C203.099 100.555 204.315 100.19 205.532 99.8258C206.747 99.4479 207.966 99.1105 209.137 98.8323C210.292 98.5419 211.368 98.2729 212.298 98.032C214.157 97.5636 215.392 97.2518 215.392 97.2518L215.433 97.2478C215.883 97.1219 216.152 96.6737 216.04 96.2221C215.929 95.7839 215.495 95.5271 215.068 95.6099C215.068 95.6099 213.799 95.857 211.917 96.2324C210.969 96.4207 209.86 96.6384 208.686 96.8762C207.497 97.1018 206.244 97.3746 204.997 97.7012C203.748 98.0143 202.498 98.314 201.315 98.607C200.145 98.8852 199.05 99.2377 198.108 99.4934C196.213 100.02 195.014 100.423 195.014 100.423L194.974 100.427C194.263 100.674 193.89 101.445 194.123 102.157C194.356 102.869 195.128 103.242 195.84 103.009C195.867 103.007 195.881 103.005 195.906 102.989L195.905 102.976Z" fill="#D3413B"/>
<path d="M194.279 44.1464C194.279 44.1464 194.335 44.0185 194.435 43.7909C194.554 43.616 194.671 43.4275 194.867 43.0681C195.101 42.6777 195.339 42.1917 195.698 41.6802C196.084 41.1796 196.39 40.5509 196.89 39.9575C197.376 39.3654 197.838 38.6669 198.474 38.0737C199.094 37.455 199.677 36.7445 200.437 36.1664C201.166 35.5505 201.877 34.882 202.739 34.3755C203.148 34.104 203.569 33.8177 203.991 33.5449L204.311 33.3366C204.311 33.3366 204.517 33.2211 204.608 33.1714L205.319 32.7886C205.795 32.5105 206.251 32.3024 206.695 32.1092C207.139 31.9159 207.58 31.6957 208.055 31.5402C208.528 31.3712 208.987 31.1901 209.447 31.0225C209.923 30.8805 210.387 30.7533 210.849 30.6126C211.774 30.3312 212.698 30.1725 213.561 29.9517C214.445 29.8104 215.277 29.6879 216.055 29.5706C216.84 29.5208 217.552 29.4237 218.185 29.3615C218.819 29.2992 219.377 29.2989 219.85 29.266C220.771 29.2164 221.311 29.1769 221.311 29.1769L221.365 29.1716C221.853 29.1509 222.219 28.7204 222.199 28.2325C222.17 27.7999 221.836 27.4517 221.41 27.4119C221.41 27.4119 220.861 27.357 219.897 27.2475C219.417 27.213 218.824 27.1351 218.156 27.1191C217.474 27.1045 216.708 27.0708 215.879 27.0841C215.041 27.1393 214.136 27.2145 213.176 27.2815C212.226 27.4429 211.198 27.5166 210.163 27.7816C209.645 27.9141 209.126 28.0331 208.595 28.1669C208.067 28.3412 207.54 28.5154 207.012 28.6897C206.484 28.8505 205.951 29.1069 205.415 29.3364C204.866 29.5672 204.332 29.8102 203.88 30.0587L203.168 30.428C203.026 30.51 202.972 30.5153 202.755 30.6591L202.397 30.8983C201.925 31.2168 201.454 31.5488 200.995 31.8661C200.539 32.2102 200.034 32.4775 199.636 32.8568C199.224 33.2374 198.825 33.6033 198.438 33.9678C197.608 34.6616 196.968 35.4865 196.362 36.2536C195.714 36.9976 195.262 37.804 194.788 38.5173C194.299 39.2186 194.004 39.9551 193.683 40.5717C193.376 41.187 193.189 41.7769 193.002 42.2307C192.806 42.7262 192.681 43.2556 192.613 43.5344C192.556 43.785 192.529 43.9237 192.529 43.9237C192.425 44.3965 192.716 44.8579 193.189 44.9611C193.593 45.0575 194.007 44.8399 194.175 44.4696L194.332 44.1277L194.279 44.1464Z" fill="#D3413B"/>
<path d="M288.921 39.3157C288.921 39.3157 289.355 39.3003 290.064 39.3123C290.422 39.3452 290.842 39.3312 291.339 39.4048C291.824 39.4932 292.383 39.4929 292.969 39.6394C293.553 39.7725 294.2 39.845 294.862 40.0659C295.52 40.2597 296.217 40.4226 296.901 40.7365C297.596 41.022 298.314 41.2645 298.981 41.6753L300.016 42.2404L300.275 42.3783C300.275 42.3783 300.42 42.4728 300.493 42.5201L301.031 42.8755C301.408 43.1106 301.718 43.3524 302.013 43.5819C302.309 43.825 302.616 44.0398 302.901 44.3112C303.198 44.5677 303.496 44.8243 303.78 45.0821C304.052 45.3548 304.323 45.6275 304.582 45.9015C305.124 46.4334 305.576 47.0149 306.049 47.54C306.485 48.0959 306.891 48.6275 307.266 49.1214C307.602 49.6327 307.948 50.1022 308.233 50.5097C308.533 50.9293 308.734 51.3177 308.928 51.6253C309.33 52.2526 309.554 52.598 309.554 52.598L309.586 52.6492C309.844 53.0593 310.401 53.1816 310.811 52.9236C311.17 52.6978 311.303 52.2493 311.157 51.8691C311.157 51.8691 310.993 51.4497 310.718 50.7283C310.442 49.9934 309.989 48.9901 309.354 47.787C309.011 47.2083 308.636 46.5783 308.218 45.9254C307.749 45.3047 307.299 44.6005 306.719 43.9635C306.428 43.6382 306.138 43.3129 305.847 42.9877C305.531 42.6785 305.215 42.3694 304.884 42.0481C304.566 41.7255 304.184 41.4364 303.815 41.1461C303.445 40.8422 303.063 40.5532 302.714 40.3289L302.188 39.9588C302.072 39.8885 302.069 39.8615 301.867 39.7453L301.566 39.5844C301.15 39.3667 300.748 39.1612 300.332 38.9435C299.538 38.4772 298.68 38.1941 297.85 37.9218C297.029 37.6077 296.198 37.458 295.422 37.3165C294.642 37.1346 293.891 37.1131 293.193 37.0728C292.506 37.0042 291.86 37.0812 291.303 37.0951C290.748 37.1224 290.254 37.2253 289.863 37.2637C289.073 37.3957 288.652 37.5459 288.652 37.5459L288.547 37.5834C288.074 37.7524 287.825 38.2667 287.994 38.74C288.127 39.1216 288.49 39.358 288.884 39.3466L288.921 39.3157Z" fill="#D3413B"/>
<path d="M293.757 84.9567C293.757 84.9567 293.677 84.9647 293.544 85.0049C293.424 85.0303 293.223 85.0636 292.957 85.117C292.42 85.1969 291.641 85.3007 290.689 85.3125C289.739 85.3378 288.617 85.2846 287.43 85.1154C286.243 84.9463 284.989 84.6476 283.776 84.2224C283.159 84.038 282.586 83.7406 281.99 83.4997C281.407 83.2439 280.871 82.9156 280.327 82.6424C279.794 82.341 279.324 81.9925 278.846 81.6992C278.368 81.406 277.978 81.0361 277.596 80.747C277.224 80.4297 276.846 80.1811 276.571 79.8815C276.285 79.5967 276.03 79.3631 275.834 79.1647C275.428 78.7691 275.187 78.5342 275.187 78.5342L275.141 78.4843C274.84 78.1873 274.35 78.1945 274.053 78.4959C273.768 78.7824 273.773 79.2446 274.034 79.5455C274.034 79.5455 274.277 79.8074 274.689 80.2568C274.902 80.4809 275.146 80.7562 275.436 81.068C275.713 81.3946 276.096 81.6971 276.485 82.0535C276.886 82.3952 277.282 82.819 277.777 83.1514C278.274 83.4972 278.764 83.9117 279.329 84.2644C279.907 84.6023 280.475 84.982 281.092 85.3024C281.733 85.5933 282.34 85.9555 283.018 86.2019C284.336 86.7392 285.712 87.162 287.03 87.4136C288.349 87.6787 289.601 87.8143 290.679 87.8445C291.759 87.8881 292.665 87.8264 293.312 87.7628C293.635 87.7311 293.891 87.7059 294.091 87.6591C294.266 87.6419 294.359 87.6191 294.359 87.6191C295.095 87.4924 295.598 86.7899 295.471 86.0539C295.345 85.318 294.642 84.8154 293.906 84.9422C293.879 84.9448 293.865 84.9461 293.838 84.9488L293.757 84.9567Z" fill="#D3413B"/>
</svg>
