<svg width="490" height="256" viewBox="0 0 490 256" fill="none" xmlns="http://www.w3.org/2000/svg">
<path d="M98.481 143.081L112.272 202.747C112.406 203.329 112.317 203.872 112.003 204.374C111.69 204.875 111.242 205.194 110.66 205.328L97.4684 208.377C96.886 208.512 96.3439 208.422 95.842 208.109C95.3401 207.795 95.0218 207.348 94.8872 206.765L88.3857 178.636C88.251 178.053 87.9149 177.793 87.3773 177.856C86.8397 177.919 86.45 178.224 86.2083 178.771L77.0038 205.837C76.8203 206.37 76.4083 206.711 75.7676 206.859C75.127 207.007 74.5781 206.889 74.121 206.503L53.9729 186.221C53.574 185.823 53.1193 185.713 52.6086 185.892C52.0979 186.072 51.9098 186.453 52.0444 187.035L58.546 215.165C58.6806 215.747 58.5912 216.289 58.2777 216.791C57.9643 217.293 57.5164 217.611 56.934 217.746L43.7428 220.795C43.1604 220.929 42.6183 220.84 42.1164 220.526C41.6145 220.213 41.2962 219.765 41.1616 219.183L27.3711 159.517C27.2364 158.934 27.3259 158.392 27.6393 157.89C27.9528 157.388 28.4007 157.07 28.9831 156.936L41.2133 154.109C41.7957 153.974 42.4476 154.008 43.169 154.209C43.8904 154.41 44.4505 154.71 44.8494 155.109L67.3162 175.867C67.7733 176.252 68.2348 176.391 68.7007 176.283C69.1666 176.176 69.4913 175.855 69.6748 175.322L80.7538 146.81C80.9955 146.264 81.3964 145.742 81.9562 145.244C82.5161 144.747 83.0872 144.43 83.6696 144.296L95.8998 141.469C96.4822 141.334 97.0244 141.424 97.5263 141.737C98.0282 142.051 98.3464 142.499 98.481 143.081Z" fill="#ECE9E1"/>
<path d="M139.96 136.975C140.134 136.413 140.467 135.922 140.96 135.503C141.504 135.018 142.103 134.736 142.756 134.659L155.222 133.188C155.816 133.118 156.404 133.259 156.987 133.611C157.623 133.897 158.091 134.294 158.392 134.8L191.54 192.28C191.84 192.787 191.847 193.357 191.561 193.993C191.334 194.622 190.746 194.992 189.796 195.104L174.57 196.902C173.917 196.979 173.273 196.874 172.637 196.588C172.054 196.236 171.582 195.81 171.222 195.311L168.187 190.252C167.827 189.752 167.33 189.36 166.694 189.074C166.111 188.721 165.522 188.58 164.929 188.65L146.14 190.868C145.487 190.945 144.889 191.226 144.344 191.712C143.852 192.131 143.519 192.622 143.344 193.184L141.482 198.821C141.307 199.383 140.948 199.907 140.403 200.393C139.911 200.812 139.368 201.057 138.774 201.127L123.459 202.935C123.162 202.97 122.858 202.945 122.547 202.862C122.177 202.785 121.889 202.638 121.683 202.422C121.418 202.213 121.234 201.933 121.133 201.584C121.031 201.235 121.071 200.809 121.253 200.306L139.96 136.975ZM149.785 175.089L157.71 174.154C158.304 174.084 158.698 173.857 158.894 173.472C159.141 173.022 159.085 172.547 158.726 172.048C157.957 170.634 157.041 168.996 155.979 167.135C154.91 165.215 153.917 163.436 153.002 161.799C152.701 161.293 152.402 161.057 152.106 161.092C151.809 161.127 151.573 161.426 151.399 161.988L148.218 173.288C148.044 173.85 148.1 174.325 148.387 174.713C148.666 175.041 149.132 175.166 149.785 175.089Z" fill="#ECE9E1"/>
<path d="M215.444 194.226L202.088 194.537C201.491 194.551 200.978 194.354 200.55 193.945C200.122 193.537 199.901 193.034 199.887 192.436L198.458 131.124C198.444 130.527 198.642 130.014 199.05 129.586C199.459 129.158 199.962 128.937 200.56 128.923L228.437 128.273C231.903 128.192 235.114 128.716 238.07 129.843C241.024 130.91 243.542 132.465 245.622 134.51C247.763 136.552 249.434 138.995 250.636 141.837C251.898 144.677 252.57 147.831 252.65 151.296C252.695 153.209 252.5 155.127 252.067 157.05C251.692 158.912 251.105 160.69 250.308 162.382C249.51 164.075 248.56 165.622 247.456 167.023C246.351 168.364 245.092 169.499 243.679 170.429C243.209 170.799 242.891 171.255 242.724 171.797C242.616 172.278 242.747 172.753 243.116 173.223C245.457 176.158 247.919 179.18 250.502 182.288C253.086 185.397 255.395 188.243 257.428 190.826C257.798 191.296 257.9 191.832 257.734 192.434C257.568 192.976 257.186 193.254 256.588 193.268L239.915 193.656C239.318 193.67 238.657 193.536 237.933 193.254C237.267 192.911 236.75 192.504 236.38 192.034C234.409 189.569 232.438 187.074 230.465 184.549C228.553 182.022 226.64 179.466 224.726 176.88C224.357 176.41 223.84 176.034 223.175 175.75C222.51 175.407 221.878 175.242 221.28 175.256L219.308 175.302C218.711 175.316 218.208 175.537 217.799 175.965C217.391 176.393 217.193 176.906 217.207 177.504L217.546 192.025C217.559 192.622 217.362 193.135 216.954 193.563C216.545 193.991 216.042 194.212 215.444 194.226ZM218.924 158.809L228.426 158.587C229.143 158.571 229.887 158.434 230.658 158.177C231.428 157.86 232.135 157.425 232.78 156.872C233.424 156.259 233.945 155.529 234.344 154.683C234.742 153.836 234.929 152.845 234.902 151.71C234.888 151.112 234.753 150.428 234.496 149.657C234.297 148.824 233.92 148.056 233.366 147.351C232.869 146.586 232.168 145.974 231.26 145.517C230.411 144.999 229.359 144.754 228.104 144.783L218.602 145.005C218.005 145.019 217.502 145.24 217.093 145.668C216.685 146.096 216.487 146.608 216.501 147.206L216.723 156.708C216.737 157.305 216.958 157.808 217.386 158.217C217.814 158.625 218.326 158.823 218.924 158.809Z" fill="#ECE9E1"/>
<path d="M282.439 194.714L268.913 194.121C268.256 194.092 267.728 193.86 267.328 193.423C266.988 192.99 266.831 192.474 266.857 191.877L269.539 130.697C269.565 130.1 269.767 129.6 270.143 129.198C270.58 128.798 271.126 128.612 271.783 128.641L285.309 129.234C285.906 129.26 286.405 129.492 286.804 129.928C287.204 130.364 287.391 130.881 287.365 131.478L284.683 192.658C284.657 193.256 284.425 193.754 283.989 194.154C283.553 194.553 283.036 194.74 282.439 194.714Z" fill="#ECE9E1"/>
<path d="M299.252 162.091C299.799 157.46 301.204 153.202 303.468 149.316C305.733 145.431 308.557 142.153 311.942 139.483C315.334 136.753 319.183 134.74 323.489 133.442C327.796 132.145 332.264 131.77 336.894 132.316C341.524 132.863 345.782 134.268 349.668 136.532C353.554 138.797 356.828 141.651 359.491 145.095C362.221 148.487 364.234 152.336 365.532 156.642C366.829 160.949 367.205 165.417 366.658 170.047C366.111 174.677 364.706 178.935 362.442 182.821C360.177 186.707 357.319 190.011 353.868 192.734C350.483 195.404 346.638 197.387 342.332 198.685C338.026 199.982 333.557 200.358 328.927 199.811C324.297 199.265 320.039 197.859 316.153 195.595C312.267 193.33 308.989 190.506 306.319 187.121C303.656 183.677 301.676 179.801 300.378 175.495C299.081 171.189 298.706 166.721 299.252 162.091ZM316.883 164.172C316.616 166.427 316.78 168.614 317.373 170.73C317.965 172.846 318.883 174.76 320.126 176.472C321.427 178.191 323.002 179.64 324.849 180.821C326.702 181.943 328.728 182.634 330.924 182.893C333.12 183.152 335.251 182.952 337.315 182.293C339.386 181.574 341.254 180.531 342.921 179.163C344.587 177.794 345.955 176.15 347.024 174.23C348.093 172.31 348.761 170.222 349.027 167.966C349.287 165.77 349.12 163.613 348.527 161.497C347.941 159.321 346.994 157.403 345.685 155.744C344.383 154.026 342.805 152.605 340.951 151.484C339.105 150.303 337.083 149.583 334.887 149.323C332.69 149.064 330.556 149.294 328.485 150.012C326.421 150.672 324.556 151.685 322.89 153.053C321.29 154.369 319.952 156.017 318.876 157.997C317.806 159.917 317.142 161.975 316.883 164.172Z" fill="#ECE9E1"/>
<path d="M383.329 166.79C382.756 166.926 382.163 166.845 381.55 166.547C380.948 166.191 380.515 165.745 380.25 165.209L379.094 162.62C378.889 162.094 378.871 161.544 379.04 160.967C379.209 160.391 379.567 159.941 380.114 159.618C380.871 159.152 381.539 158.669 382.119 158.17C382.758 157.682 383.368 157.188 383.948 156.689C384.389 156.285 384.536 155.826 384.389 155.312C384.243 154.798 383.967 154.321 383.564 153.88C382.686 153.046 382.094 151.992 381.785 150.718C381.477 149.444 381.391 148.12 381.528 146.747C381.884 144.198 383.075 142.232 385.098 140.849C387.133 139.406 389.395 138.858 391.884 139.204C393.364 139.421 394.666 139.939 395.789 140.758C396.923 141.518 397.808 142.475 398.443 143.628C399.148 144.734 399.614 145.977 399.841 147.357C400.068 148.738 400.044 150.163 399.768 151.631C399.04 155.509 397.303 158.771 394.555 161.417C391.819 164.005 388.077 165.796 383.329 166.79Z" fill="#ECE9E1"/>
<path d="M409.83 189.344C412.454 192.156 415.158 194.526 417.942 196.454C420.725 198.382 423.451 199.679 426.119 200.346C428.67 200.983 430.7 201.121 432.208 200.758C433.73 200.337 434.672 199.402 435.034 197.952C435.223 197.199 435.078 196.546 434.599 195.995C434.135 195.387 433.447 194.814 432.533 194.278C431.678 193.756 430.634 193.249 429.402 192.756C428.169 192.263 426.922 191.705 425.661 191.082C424.443 190.531 423.001 189.893 421.333 189.169C419.739 188.4 418.115 187.502 416.462 186.473C414.824 185.385 413.222 184.153 411.656 182.776C410.148 181.414 408.879 179.834 407.85 178.036C406.82 176.238 406.117 174.245 405.739 172.056C405.435 169.823 405.623 167.344 406.304 164.619C407.304 160.617 408.913 157.508 411.131 155.289C413.349 153.071 415.835 151.505 418.589 150.591C421.416 149.634 424.381 149.235 427.483 149.394C430.6 149.495 433.55 149.894 436.334 150.589C441.205 151.806 445.373 153.618 448.839 156.024C452.376 158.387 455.573 161.373 458.43 164.983C458.792 165.505 458.93 166.063 458.843 166.657C458.756 167.251 458.481 167.737 458.017 168.114L448.819 176.074C448.355 176.451 447.819 176.625 447.21 176.596C446.601 176.567 446.108 176.321 445.731 175.857C443.237 173.262 440.809 171.269 438.445 169.878C436.097 168.428 433.849 167.435 431.704 166.899C431.066 166.74 430.305 166.581 429.42 166.421C428.609 166.218 427.797 166.139 426.985 166.182C426.187 166.168 425.47 166.327 424.832 166.661C424.252 167.009 423.861 167.589 423.658 168.401C423.455 169.213 423.883 170.09 424.941 171.032C426 171.974 427.254 172.873 428.704 173.728C430.153 174.583 431.567 175.337 432.944 175.989C434.336 176.583 435.228 176.96 435.619 177.12C437.606 178.047 439.744 179.228 442.035 180.663C444.34 182.04 446.37 183.78 448.124 185.882C449.951 187.94 451.278 190.397 452.105 193.253C453.004 196.066 452.99 199.328 452.062 203.039C451.193 206.519 449.83 209.382 447.975 211.629C446.134 213.819 443.909 215.45 441.299 216.523C438.748 217.611 435.834 218.176 432.558 218.22C429.354 218.221 425.896 217.757 422.185 216.83C419.169 216.076 416.422 215.112 413.942 213.938C411.449 212.822 409.18 211.547 407.135 210.112C405.091 208.677 403.228 207.133 401.546 205.48C399.937 203.784 398.487 202.067 397.196 200.327C396.819 199.863 396.674 199.334 396.761 198.74C396.863 198.087 397.145 197.573 397.609 197.196L406.72 189.214C407.184 188.837 407.72 188.663 408.329 188.692C408.938 188.721 409.438 188.938 409.83 189.344Z" fill="#ECE9E1"/>
<path d="M309.47 242.121C309.232 242.205 308.998 242.242 308.768 242.23C308.537 242.219 308.305 242.188 308.07 242.139C308.216 241.913 308.38 241.77 308.564 241.71C308.765 241.63 308.976 241.558 309.198 241.494C309.273 241.485 309.348 241.477 309.423 241.468C309.536 241.455 309.631 241.444 309.706 241.435C309.861 241.456 309.94 241.485 309.945 241.522C309.995 241.631 309.996 241.717 309.946 241.78C309.796 241.969 309.637 242.082 309.47 242.121ZM315.691 241.975C315.816 241.732 315.763 241.518 315.532 241.335C315.49 241.302 315.41 241.273 315.293 241.248C315.196 241.24 315.1 241.232 315.004 241.224C314.924 241.195 314.847 241.185 314.771 241.194C314.105 241.042 313.441 240.909 312.779 240.794C312.155 240.676 311.51 240.54 310.844 240.388L310.624 240.213C310.434 239.892 310.255 239.579 310.086 239.274C309.934 238.948 309.763 238.624 309.573 238.303C309.43 238.052 309.379 237.858 309.42 237.72C309.482 237.598 309.618 237.449 309.826 237.272C309.951 237.201 310.087 237.137 310.233 237.082C310.396 237.006 310.628 236.951 310.93 236.916C311.248 236.86 311.559 236.834 311.865 236.837C312.187 236.819 312.495 236.84 312.788 236.902C313.081 236.963 313.301 237.052 313.448 237.169C313.553 237.252 313.606 237.38 313.607 237.551C313.62 237.664 313.71 237.787 313.878 237.92C314.067 237.899 314.227 237.804 314.361 237.636C314.444 237.531 314.475 237.384 314.453 237.196C314.438 236.74 314.339 236.37 314.153 236.086C313.989 235.819 313.749 235.56 313.434 235.311C312.93 234.911 312.393 234.639 311.823 234.495C311.27 234.33 310.663 234.276 310.002 234.333C308.772 234.418 308.107 235.105 308.008 236.395C307.919 237.111 308.016 237.786 308.299 238.421C308.582 239.056 308.893 239.679 309.23 240.288C309.009 240.352 308.806 240.414 308.622 240.473C308.438 240.532 308.254 240.592 308.07 240.651C307.468 240.892 307.196 241.343 307.253 242.005C307.336 242.72 307.65 243.294 308.196 243.727C308.658 244.093 309.203 244.269 309.831 244.254C310.785 244.258 311.275 243.791 311.3 242.854C311.312 242.623 311.286 242.398 311.222 242.176C311.196 241.95 311.178 241.714 311.169 241.467C311.596 241.532 312.034 241.605 312.482 241.687C312.968 241.765 313.443 241.834 313.908 241.895C314.159 241.923 314.41 241.951 314.662 241.979C314.934 242.024 315.206 242.069 315.479 242.114C315.591 242.101 315.662 242.054 315.691 241.975Z" fill="#ECE9E1"/>
<path d="M189.247 242.327C189.009 242.426 188.947 242.636 189.061 242.957C189.205 243.444 189.439 243.715 189.762 243.771C190.084 243.827 190.453 243.818 190.866 243.744C191.453 243.525 192.026 243.309 192.585 243.095C193.149 242.909 193.724 242.707 194.311 242.488C194.522 242.393 194.732 242.299 194.943 242.204C195.159 242.137 195.374 242.07 195.59 242.003C195.783 241.969 195.862 241.855 195.828 241.662C195.746 241.364 195.586 241.108 195.349 240.894C195.112 240.681 194.853 240.585 194.572 240.607C194.287 240.601 194.02 240.62 193.772 240.664C193.524 240.709 193.262 240.756 192.986 240.805C192.738 240.849 192.581 240.764 192.514 240.548C192.031 239.44 191.587 238.31 191.182 237.159C190.805 236.003 190.483 234.838 190.216 233.662C189.706 231.449 189.238 229.229 188.812 227.001C188.412 224.768 188.11 222.518 187.903 220.251C187.845 219.607 187.806 218.988 187.785 218.395C187.787 217.769 187.786 217.129 187.783 216.475C187.799 216.245 187.901 216.098 188.089 216.036C188.299 215.942 188.51 215.847 188.721 215.753C188.959 215.653 189.197 215.554 189.435 215.454C189.729 215.345 189.994 215.24 190.233 215.141C190.498 215.037 190.783 214.957 191.086 214.903C191.224 214.878 191.348 214.856 191.458 214.836C191.596 214.812 191.739 214.815 191.887 214.845C191.914 214.84 191.93 214.852 191.935 214.879C191.963 214.874 191.99 214.869 192.018 214.864C192.156 214.84 192.177 214.722 192.083 214.511C191.926 214.113 191.622 213.84 191.169 213.694C190.678 213.497 190.158 213.448 189.606 213.546C188.945 213.664 188.24 213.861 187.493 214.137C186.769 214.381 186.04 214.682 185.308 215.04C184.603 215.394 183.919 215.786 183.257 216.217C182.622 216.644 182.063 217.099 181.581 217.584C181.418 217.784 181.411 217.984 181.56 218.185C181.71 218.386 181.885 218.568 182.085 218.731C182.307 218.862 182.57 218.9 182.873 218.846C182.956 218.831 183.075 218.782 183.231 218.697C183.519 218.56 183.791 218.412 184.047 218.252C184.331 218.088 184.614 217.923 184.898 217.759C184.975 217.716 185.042 217.69 185.097 217.681C185.175 217.638 185.253 217.596 185.33 217.553L185.353 217.677C185.316 218.907 185.349 220.124 185.451 221.329C185.58 222.53 185.723 223.727 185.88 224.922C186.106 226.503 186.356 228.066 186.632 229.609C186.931 231.121 187.29 232.649 187.708 234.196C188.055 235.499 188.455 236.779 188.907 238.035C189.354 239.264 189.975 240.433 190.771 241.542L189.247 242.327Z" fill="#ECE9E1"/>
<path d="M200.098 221.354C199.721 220.931 199.321 220.723 198.897 220.732C198.497 220.709 198.061 220.734 197.591 220.806L196.138 221.031C195.976 221.084 195.812 221.123 195.646 221.149C195.48 221.175 195.316 221.214 195.155 221.267C195.17 221.18 195.171 221.095 195.158 221.012C195.236 220.603 195.301 220.197 195.352 219.792C195.398 219.36 195.447 218.941 195.498 218.537C195.509 218.422 195.473 218.286 195.392 218.128C195.088 217.807 194.714 217.68 194.271 217.749C194.101 217.747 193.985 217.821 193.923 217.973C193.885 218.092 193.849 218.225 193.815 218.372C193.67 218.904 193.542 219.448 193.429 220.004C193.34 220.528 193.224 221.056 193.079 221.588C193.054 221.79 192.986 221.9 192.875 221.917C192.445 222.069 192.029 222.218 191.627 222.365C191.197 222.516 190.751 222.656 190.289 222.784L189.998 222.829C189.86 222.85 189.733 222.856 189.618 222.845C189.476 222.839 189.34 222.789 189.213 222.695C189.144 222.621 189.069 222.59 188.986 222.603C188.898 222.588 188.813 222.587 188.73 222.6C188.62 222.617 188.553 222.641 188.529 222.673C188.495 222.82 188.51 222.917 188.574 222.964C189.034 223.375 189.459 223.649 189.849 223.787C190.238 223.925 190.779 223.941 191.471 223.834C191.941 223.761 192.392 223.649 192.822 223.498C192.858 223.549 192.876 223.575 192.876 223.575C192.783 224.439 192.745 225.295 192.763 226.142C192.808 226.985 192.853 227.828 192.898 228.671C192.98 229.934 193.101 231.176 193.261 232.398C193.449 233.615 193.709 234.836 194.039 236.06C194.15 236.411 194.277 236.774 194.42 237.149C194.591 237.519 194.796 237.842 195.037 238.116C195.278 238.391 195.567 238.615 195.906 238.789C196.24 238.936 196.629 238.975 197.072 238.907C197.57 238.83 198.008 238.55 198.387 238.066C198.793 237.578 199.131 237.016 199.401 236.38C199.671 235.743 199.884 235.101 200.039 234.453C200.217 233.774 200.318 233.234 200.341 232.834C200.358 232.577 200.319 232.413 200.223 232.343C200.123 232.245 199.958 232.185 199.728 232.164C199.447 232.179 199.29 232.359 199.259 232.704C199.208 233.108 199.108 233.563 198.959 234.068C198.811 234.572 198.632 235.067 198.424 235.553C198.211 236.011 197.969 236.459 197.696 236.898C197.42 237.309 197.105 237.655 196.752 237.936C196.671 237.779 196.592 237.635 196.515 237.505C196.462 237.344 196.411 237.196 196.362 237.062C196.229 236.572 196.097 236.082 195.965 235.593C195.86 235.099 195.753 234.591 195.645 234.07C195.249 231.694 195.008 229.309 194.922 226.914C194.906 226.264 194.905 225.613 194.917 224.959C194.93 224.306 194.956 223.65 194.996 222.992C194.966 222.798 195.034 222.689 195.2 222.663C195.792 222.458 196.386 222.267 196.982 222.09C197.574 221.886 198.167 221.695 198.763 221.518L198.971 221.486C199.165 221.456 199.33 221.515 199.466 221.664C199.511 221.771 199.607 221.841 199.754 221.875C199.869 221.885 199.968 221.884 200.051 221.871C200.134 221.859 200.233 221.857 200.348 221.868C200.307 221.789 200.264 221.697 200.22 221.59C200.203 221.48 200.162 221.401 200.098 221.354Z" fill="#ECE9E1"/>
<path d="M206.069 231.324C205.632 232.339 205.185 233.27 204.727 234.118C204.265 234.938 203.599 235.699 202.728 236.401C202.578 236.561 202.412 236.695 202.228 236.802C202.068 236.879 201.884 236.987 201.676 237.126C201.488 236.754 201.373 236.402 201.331 236.068C201.317 235.732 201.332 235.405 201.377 235.089C201.408 234.662 201.502 234.17 201.658 233.614C201.838 233.027 202.063 232.463 202.334 231.921C202.632 231.375 202.983 230.908 203.385 230.519C203.788 230.129 204.239 229.903 204.739 229.84C205.045 229.802 205.319 229.852 205.563 229.991C205.834 230.126 206.016 230.343 206.11 230.642C206.197 230.885 206.183 231.112 206.069 231.324ZM212.633 230.33C212.452 230.24 212.334 230.198 212.278 230.205C212.195 230.216 212.092 230.299 211.971 230.455C211.523 231.161 211.045 231.842 210.534 232.499C210.049 233.124 209.502 233.715 208.895 234.271C208.79 234.341 208.726 234.391 208.702 234.422C208.674 234.426 208.646 234.429 208.619 234.433C208.615 234.405 208.599 234.393 208.572 234.396C208.613 233.827 208.639 233.245 208.649 232.651C208.659 232.057 208.684 231.475 208.726 230.906C208.777 230.419 208.605 230.06 208.209 229.828C208.087 229.758 207.895 229.684 207.631 229.604C207.391 229.493 207.202 229.446 207.063 229.464C206.896 229.485 206.766 229.572 206.672 229.724C206.231 229.357 205.697 229.043 205.072 228.783C204.447 228.522 203.828 228.431 203.217 228.508C202.745 228.567 202.288 228.751 201.847 229.061C201.434 229.367 201.082 229.707 200.79 230.083C200.159 230.896 199.691 231.773 199.386 232.715C199.077 233.628 199.017 234.61 199.205 235.658C199.261 236.103 199.425 236.506 199.696 236.867C199.939 237.231 200.233 237.547 200.577 237.814C200.949 238.078 201.355 238.281 201.796 238.423C202.234 238.537 202.675 238.567 203.12 238.511C203.537 238.458 203.941 238.309 204.333 238.062C204.726 237.815 205.083 237.516 205.406 237.165C205.757 236.81 206.062 236.433 206.322 236.034C206.61 235.631 206.846 235.262 207.03 234.929C207.565 235.821 208.208 236.22 208.958 236.126C209.375 236.073 209.785 235.853 210.187 235.463C210.618 235.071 211.012 234.612 211.369 234.087C211.751 233.531 212.091 232.98 212.389 232.435C212.684 231.862 212.906 231.382 213.055 230.997C213.159 230.701 213.018 230.479 212.633 230.33Z" fill="#ECE9E1"/>
<path d="M218.856 229.757C218.714 229.742 218.619 229.78 218.571 229.869C218.549 229.927 218.516 230.029 218.474 230.173C218.24 231.237 217.843 232.218 217.283 233.117C216.748 233.984 216.111 234.806 215.37 235.581C215.342 235.584 215.313 235.573 215.283 235.547C215.189 235.163 215.081 234.779 214.96 234.397C214.866 234.012 214.787 233.626 214.721 233.239C214.606 232.35 214.506 231.459 214.419 230.567C214.36 229.673 214.302 228.778 214.243 227.884C214.159 225.866 214.175 223.853 214.289 221.844C214.404 219.836 214.56 217.823 214.758 215.806C214.781 215.466 214.729 215.218 214.601 215.062C214.471 214.878 214.259 214.729 213.967 214.617C213.85 214.572 213.778 214.551 213.75 214.554C213.638 214.565 213.549 214.658 213.482 214.833C213.079 216.194 212.761 217.548 212.526 218.893C212.29 220.238 212.129 221.618 212.041 223.033C211.945 224.646 211.905 226.268 211.923 227.898C211.966 229.497 212.108 231.101 212.348 232.71C212.45 233.178 212.57 233.687 212.708 234.236C212.845 234.785 213.049 235.286 213.318 235.738C213.584 236.163 213.913 236.51 214.305 236.782C214.725 237.05 215.242 237.155 215.855 237.095C216.301 237.052 216.75 236.755 217.203 236.205C217.656 235.655 218.059 235.025 218.412 234.315C218.791 233.575 219.084 232.829 219.292 232.077C219.498 231.298 219.578 230.671 219.532 230.197C219.546 230.055 219.479 229.949 219.332 229.879C219.212 229.806 219.054 229.765 218.856 229.757Z" fill="#ECE9E1"/>
<path d="M224.322 229.356C224.143 229.229 223.956 229.174 223.761 229.189C223.565 229.205 223.378 229.318 223.198 229.529C223.02 229.767 222.857 230.019 222.71 230.284C222.56 230.52 222.396 230.758 222.218 230.997C222.017 231.293 221.83 231.589 221.656 231.884C221.481 232.15 221.291 232.418 221.088 232.687C221.06 232.689 221.031 232.677 221.001 232.652C220.969 232.598 220.948 232.516 220.939 232.404C220.927 231.899 220.902 231.396 220.862 230.893C220.822 230.391 220.797 229.901 220.788 229.424C220.808 228.973 220.815 228.523 220.808 228.074C220.828 227.623 220.849 227.172 220.869 226.721C220.879 226.131 220.581 225.747 219.978 225.57C219.806 225.527 219.706 225.507 219.678 225.509C219.566 225.518 219.45 225.654 219.331 225.916C219.132 226.606 218.964 227.321 218.826 228.063C218.714 228.774 218.659 229.494 218.66 230.225C218.665 230.645 218.684 231.065 218.718 231.484C218.723 231.905 218.77 232.323 218.859 232.737C219.098 233.982 219.824 234.641 221.037 234.713C221.123 234.735 221.236 234.74 221.376 234.729C221.822 234.694 222.156 234.471 222.376 234.06C222.496 233.798 222.63 233.534 222.777 233.27C222.925 233.005 223.071 232.727 223.217 232.434C223.409 232.026 223.616 231.616 223.836 231.206C224.054 230.767 224.273 230.343 224.494 229.932C224.616 229.698 224.558 229.505 224.322 229.356ZM219.71 223.779C219.798 223.829 220.002 223.925 220.322 224.068C220.643 224.211 220.859 224.278 220.97 224.27C221.11 224.258 221.2 224.153 221.24 223.953C221.257 223.811 221.275 223.684 221.294 223.57C221.313 223.456 221.331 223.328 221.348 223.186C221.377 222.847 221.287 222.587 221.076 222.407C220.863 222.199 220.575 222.11 220.212 222.138C219.849 222.167 219.614 222.396 219.508 222.826C219.318 223.263 219.385 223.58 219.71 223.779Z" fill="#ECE9E1"/>
<path d="M229.945 228.961C229.436 229.942 228.923 230.838 228.405 231.651C227.886 232.435 227.166 233.146 226.246 233.784C226.086 233.932 225.91 234.054 225.719 234.148C225.554 234.213 225.363 234.307 225.145 234.431C224.984 234.047 224.895 233.687 224.878 233.351C224.888 233.014 224.927 232.69 224.994 232.378C225.056 231.954 225.185 231.47 225.38 230.927C225.602 230.355 225.868 229.808 226.177 229.287C226.514 228.764 226.897 228.323 227.327 227.964C227.756 227.605 228.223 227.412 228.726 227.385C229.034 227.369 229.304 227.439 229.536 227.595C229.797 227.749 229.963 227.979 230.036 228.284C230.105 228.532 230.075 228.758 229.945 228.961ZM236.564 228.443C236.39 228.34 236.275 228.29 236.219 228.293C236.135 228.297 236.027 228.373 235.895 228.521C235.397 229.192 234.871 229.837 234.315 230.455C233.785 231.044 233.197 231.594 232.551 232.104C232.442 232.166 232.374 232.212 232.348 232.241C232.32 232.243 232.292 232.244 232.264 232.246C232.263 232.218 232.248 232.205 232.22 232.206C232.302 231.641 232.37 231.062 232.423 230.471C232.475 229.879 232.543 229.301 232.625 228.735C232.712 228.254 232.566 227.883 232.188 227.623C232.072 227.545 231.885 227.457 231.627 227.358C231.396 227.23 231.211 227.17 231.071 227.177C230.903 227.186 230.767 227.263 230.662 227.409C230.249 227.01 229.739 226.659 229.134 226.354C228.529 226.05 227.919 225.914 227.304 225.946C226.829 225.972 226.36 226.123 225.898 226.399C225.464 226.675 225.088 226.989 224.77 227.342C224.082 228.108 223.551 228.949 223.179 229.866C222.805 230.755 222.675 231.729 222.787 232.789C222.811 233.236 222.945 233.65 223.189 234.03C223.405 234.411 223.676 234.747 223.999 235.038C224.351 235.328 224.742 235.56 225.172 235.733C225.6 235.879 226.038 235.94 226.485 235.916C226.905 235.894 227.319 235.774 227.728 235.556C228.137 235.338 228.516 235.066 228.863 234.739C229.238 234.411 229.57 234.057 229.858 233.677C230.174 233.296 230.436 232.945 230.644 232.626C231.114 233.554 231.726 233.999 232.481 233.959C232.9 233.937 233.325 233.746 233.755 233.387C234.212 233.026 234.638 232.597 235.032 232.099C235.453 231.572 235.832 231.048 236.169 230.525C236.504 229.974 236.76 229.512 236.937 229.138C237.062 228.851 236.937 228.62 236.564 228.443Z" fill="#ECE9E1"/>
<path d="M246.184 228.169C246.128 228.17 246.086 228.171 246.058 228.171C246.03 228.144 246.002 228.13 245.974 228.131C245.806 228.134 245.682 228.277 245.604 228.559C245.551 228.728 245.512 228.84 245.485 228.897C245.168 229.856 244.625 230.721 243.856 231.492C243.855 231.408 243.839 231.339 243.81 231.283C243.809 231.227 243.808 231.171 243.807 231.115C243.772 230.78 243.738 230.459 243.703 230.151C243.697 229.815 243.676 229.494 243.642 229.186C243.577 228.739 243.498 228.307 243.406 227.888C243.341 227.442 243.207 227.024 243.003 226.636C242.509 225.778 241.759 225.359 240.751 225.379C240.051 225.393 239.413 225.7 238.837 226.3C238.755 226.413 238.673 226.513 238.591 226.599C238.508 226.684 238.413 226.798 238.304 226.941C238.328 226.772 238.339 226.618 238.336 226.478C238.333 226.31 238.344 226.156 238.369 226.015C238.361 225.623 238.174 225.361 237.807 225.228C237.722 225.202 237.624 225.176 237.511 225.15C237.427 225.124 237.343 225.111 237.259 225.113C237.035 225.118 236.881 225.149 236.798 225.206C236.743 225.236 236.675 225.363 236.596 225.589C236.467 226.123 236.351 226.644 236.249 227.15C236.147 227.656 236.045 228.162 235.944 228.669C235.817 229.343 235.705 230.018 235.606 230.692C235.508 231.366 235.479 232.053 235.521 232.752C235.552 232.892 235.597 233.045 235.657 233.212C235.715 233.35 235.815 233.446 235.957 233.5C236.38 233.659 236.802 233.777 237.224 233.852C237.588 233.845 237.809 233.672 237.886 233.335C238.174 232.349 238.49 231.362 238.835 230.375C239.178 229.36 239.65 228.426 240.249 227.574C240.357 227.404 240.48 227.247 240.617 227.104C240.782 226.933 240.933 226.762 241.069 226.591C241.098 226.618 241.112 226.632 241.112 226.632C241.14 226.632 241.168 226.645 241.197 226.673C241.261 227.063 241.31 227.44 241.346 227.804C241.381 228.167 241.417 228.545 241.452 228.936C241.518 229.411 241.57 229.886 241.607 230.361C241.672 230.808 241.751 231.269 241.845 231.743C241.938 232.217 242.184 232.59 242.582 232.862C243.007 233.106 243.457 233.223 243.933 233.213C244.325 233.206 244.686 233.03 245.015 232.688C245.343 232.317 245.629 231.905 245.872 231.452C246.143 230.97 246.357 230.476 246.515 229.969C246.672 229.461 246.763 229.067 246.785 228.787C246.806 228.45 246.606 228.244 246.184 228.169Z" fill="#ECE9E1"/>
<path d="M270.46 226.808C270.458 226.836 270.442 226.863 270.412 226.889C270.412 226.889 270.411 226.903 270.409 226.931C269.983 228.249 269.451 229.49 268.811 230.654C268.173 231.789 267.358 232.843 266.366 233.814C266.275 233.92 266.109 234.092 265.868 234.328C265.658 234.538 265.419 234.747 265.152 234.953C264.886 235.16 264.62 235.352 264.356 235.531C264.121 235.683 263.92 235.754 263.752 235.743C263.668 235.737 263.54 235.56 263.367 235.212C262.997 234.457 262.753 233.697 262.637 232.931C262.522 232.137 262.562 231.34 262.756 230.539C262.907 229.96 263.113 229.413 263.372 228.897C263.659 228.383 264.054 227.947 264.555 227.588C264.617 227.508 264.704 227.457 264.818 227.437C264.932 227.417 265.046 227.382 265.162 227.334C265.21 227.45 265.258 227.565 265.307 227.681C265.357 227.768 265.377 227.882 265.368 228.021C265.341 228.413 265.261 228.772 265.127 229.1C265.02 229.429 264.845 229.74 264.601 230.033C264.505 230.194 264.525 230.322 264.659 230.415C264.845 230.568 265.008 230.649 265.148 230.659C265.427 230.678 265.631 230.565 265.76 230.321C266.041 229.891 266.301 229.375 266.538 228.774C266.734 228.366 266.68 227.914 266.377 227.416C266.146 227.092 265.854 226.847 265.5 226.683C265.148 226.491 264.777 226.382 264.386 226.355C263.659 226.306 263.013 226.529 262.446 227.024C261.909 227.493 261.507 228.041 261.241 228.669C260.694 229.699 260.442 230.734 260.484 231.775C260.555 232.79 260.81 233.804 261.247 234.816C261.587 235.597 262.068 236.162 262.69 236.513C263.31 236.892 264.024 237.122 264.832 237.205C265.558 237.254 266.29 237.023 267.026 236.511C267.788 236.029 268.502 235.432 269.168 234.719C269.835 233.978 270.42 233.218 270.921 232.438C271.453 231.632 271.835 230.956 272.069 230.41C272.332 229.839 272.554 229.25 272.735 228.645C272.916 228.04 273.097 227.449 273.276 226.871C273.309 226.79 273.328 226.721 273.332 226.665C273.366 226.583 273.439 226.532 273.553 226.511C274.346 226.396 275.126 226.281 275.892 226.164C276.657 226.047 277.423 225.931 278.189 225.814C278.556 225.783 278.869 225.72 279.128 225.625C279.588 225.459 279.663 225.184 279.352 224.798C278.961 224.351 278.514 224.11 278.011 224.076C276.581 224.064 275.2 224.153 273.868 224.343C273.948 223.563 274.028 222.797 274.107 222.044C274.188 221.264 274.256 220.468 274.31 219.658C274.335 218.874 274.317 218.101 274.256 217.339C274.225 216.551 274.095 215.785 273.864 215.039C273.922 215.015 273.981 214.977 274.04 214.925C275.162 214.524 276.435 214.174 277.858 213.878C279.311 213.555 280.638 213.434 281.84 213.515C282.063 213.53 282.411 213.582 282.882 213.67C283.381 213.759 283.877 213.891 284.371 214.065C284.866 214.21 285.303 214.394 285.681 214.616C286.06 214.81 286.283 215.05 286.348 215.335C286.394 215.478 286.507 215.682 286.685 215.947C286.866 216.184 287.026 216.307 287.166 216.316C287.333 216.328 287.397 216.22 287.356 215.992C287.38 215.629 287.317 215.316 287.167 215.053C286.953 214.478 286.538 213.973 285.922 213.538C285.334 213.105 284.671 212.738 283.933 212.436C283.196 212.133 282.44 211.9 281.665 211.735C280.92 211.544 280.282 211.431 279.752 211.395C278.969 211.343 278.153 211.372 277.304 211.483C276.456 211.566 275.605 211.705 274.75 211.9C273.923 212.096 273.093 212.335 272.26 212.616C271.457 212.87 270.695 213.141 269.974 213.429C269.31 213.693 268.675 213.959 268.067 214.227C267.462 214.467 266.841 214.72 266.206 214.985C266.061 215.06 265.902 215.119 265.731 215.164C265.559 215.208 265.388 215.253 265.217 215.297C265.234 215.046 265.293 214.783 265.396 214.51C265.499 214.236 265.628 213.978 265.785 213.736C265.942 213.494 266.111 213.281 266.291 213.097C266.472 212.912 266.649 212.784 266.823 212.712C266.817 212.795 266.798 212.864 266.767 212.918C266.696 213.138 266.67 213.305 266.691 213.418C266.739 213.534 266.856 213.668 267.042 213.821C267.176 213.914 267.271 213.963 267.327 213.966C267.467 213.976 267.585 213.886 267.682 213.696C268.031 213.102 267.973 212.509 267.508 211.916C267.143 211.498 266.765 211.276 266.374 211.25C266.011 211.225 265.668 211.314 265.346 211.517C265.023 211.72 264.725 211.981 264.451 212.299C264.205 212.619 263.985 212.969 263.791 213.349C263.626 213.703 263.506 214.031 263.429 214.335C263.349 214.694 263.38 215.061 263.523 215.436C263.668 215.782 263.87 216.119 264.129 216.445C264.417 216.745 264.75 217.006 265.128 217.228C265.508 217.422 265.88 217.531 266.243 217.556C266.55 217.577 266.932 217.532 267.389 217.423C267.845 217.313 268.232 217.199 268.548 217.08C269.094 216.892 269.613 216.689 270.105 216.469C270.625 216.252 271.145 216.035 271.665 215.817C271.723 215.793 271.779 215.783 271.835 215.786C271.893 215.762 271.951 215.738 272.009 215.714C272.005 215.77 272.002 215.812 272 215.84C272.026 215.869 272.038 215.898 272.036 215.926C272.104 217.418 272.033 218.887 271.823 220.332C271.641 221.779 271.375 223.221 271.026 224.657C271.02 224.741 270.945 224.82 270.799 224.894C270.514 224.959 270.229 225.024 269.944 225.089C269.689 225.128 269.419 225.18 269.134 225.245C268.849 225.31 268.768 225.459 268.893 225.691C269.021 225.869 269.165 226.033 269.323 226.184C269.511 226.309 269.686 226.419 269.848 226.514C270.04 226.583 270.245 226.667 270.462 226.766C270.462 226.766 270.461 226.78 270.46 226.808Z" fill="#ECE9E1"/>
<path d="M280.191 234.428C280.055 234.639 279.82 234.852 279.486 235.069C279.183 235.261 278.906 235.343 278.656 235.315C278.517 235.3 278.387 235.201 278.266 235.019C277.87 234.27 277.79 233.459 278.028 232.584C278.188 231.897 278.413 231.26 278.704 230.672C279.022 230.087 279.473 229.574 280.057 229.131C280.119 229.082 280.27 228.986 280.511 228.843C280.753 228.701 280.929 228.636 281.04 228.648C281.151 228.66 281.212 228.752 281.221 228.922C281.24 229.008 281.292 229.169 281.379 229.404C281.15 229.435 281.017 229.491 280.98 229.571C280.946 229.624 280.947 229.751 280.981 229.951C281.201 230.765 281.242 231.544 281.103 232.289C280.964 233.035 280.66 233.748 280.191 234.428ZM287.309 231.58C287.268 231.435 287.168 231.325 287.007 231.251C286.877 231.152 286.729 231.093 286.562 231.075C286.45 231.063 286.365 231.067 286.306 231.089C285.926 231.216 285.549 231.315 285.175 231.387C284.832 231.433 284.465 231.435 284.076 231.392C283.936 231.377 283.797 231.361 283.658 231.346C283.55 231.306 283.428 231.264 283.292 231.221C283.152 231.205 283.008 231.105 282.86 230.92L282.219 229.835C282.466 229.637 282.585 229.453 282.576 229.282C282.597 229.088 282.512 228.839 282.32 228.536C282.048 228.196 281.703 227.876 281.285 227.576C280.871 227.249 280.441 227.061 279.995 227.011C279.466 226.953 278.973 227.082 278.516 227.397C278.086 227.716 277.691 228.109 277.329 228.576C276.996 229.047 276.727 229.566 276.523 230.135C276.295 230.674 276.158 231.152 276.111 231.569C275.868 233.514 276.571 235.057 278.22 236.197C278.641 236.469 279.032 236.624 279.394 236.664C280.007 236.732 280.512 236.619 280.911 236.325C281.337 236.034 281.676 235.649 281.926 235.169C282.204 234.693 282.415 234.181 282.56 233.633C282.736 233.061 282.863 232.554 282.94 232.112L283.107 232.13C283.564 232.322 283.974 232.437 284.336 232.477C284.754 232.523 285.163 232.512 285.565 232.444C285.995 232.379 286.415 232.27 286.827 232.118C286.913 232.1 287.049 232.016 287.235 231.868C287.327 231.793 287.352 231.697 287.309 231.58Z" fill="#ECE9E1"/>
<path d="M289.881 235.729C289.739 235.935 289.498 236.141 289.158 236.348C288.849 236.531 288.57 236.605 288.321 236.57C288.182 236.551 288.055 236.448 287.94 236.263C287.566 235.503 287.51 234.69 287.773 233.822C287.953 233.14 288.197 232.51 288.504 231.931C288.839 231.356 289.305 230.855 289.902 230.43C289.965 230.382 290.119 230.291 290.364 230.155C290.61 230.02 290.788 229.96 290.899 229.976C291.009 229.991 291.067 230.084 291.072 230.254C291.088 230.341 291.136 230.504 291.216 230.741C290.986 230.765 290.851 230.817 290.812 230.897C290.777 230.948 290.773 231.075 290.801 231.277C290.997 232.096 291.015 232.876 290.855 233.617C290.695 234.358 290.37 235.062 289.881 235.729ZM297.079 233.089C297.043 232.943 296.946 232.83 296.787 232.751C296.66 232.649 296.513 232.586 296.347 232.562C296.236 232.547 296.151 232.549 296.091 232.569C295.708 232.685 295.328 232.773 294.952 232.834C294.607 232.87 294.241 232.861 293.853 232.807C293.714 232.788 293.575 232.768 293.437 232.749C293.33 232.705 293.209 232.66 293.074 232.613C292.935 232.594 292.794 232.489 292.651 232.299L292.042 231.196C292.295 231.005 292.42 230.825 292.415 230.655C292.442 230.461 292.364 230.209 292.181 229.901C291.919 229.553 291.584 229.223 291.175 228.912C290.77 228.572 290.346 228.371 289.902 228.309C289.375 228.235 288.878 228.35 288.412 228.652C287.973 228.958 287.566 229.339 287.191 229.796C286.844 230.256 286.56 230.768 286.34 231.331C286.096 231.862 285.945 232.336 285.887 232.752C285.587 234.689 286.245 236.251 287.86 237.439C288.273 237.723 288.659 237.89 289.02 237.941C289.63 238.026 290.138 237.928 290.545 237.645C290.98 237.367 291.33 236.992 291.594 236.52C291.886 236.052 292.112 235.546 292.273 235.003C292.465 234.436 292.606 233.933 292.696 233.493L292.863 233.517C293.315 233.721 293.721 233.849 294.081 233.899C294.497 233.958 294.907 233.958 295.311 233.902C295.743 233.849 296.166 233.753 296.581 233.613C296.669 233.597 296.807 233.518 296.997 233.374C297.091 233.303 297.119 233.208 297.079 233.089Z" fill="#ECE9E1"/>
<path d="M297.092 238.357C297.062 238.039 297.062 237.712 297.092 237.377C297.15 237.046 297.233 236.733 297.34 236.439C297.641 235.525 298.08 234.635 298.657 233.769C299.262 232.908 300.035 232.303 300.976 231.955C301.134 231.869 301.267 231.835 301.378 231.855C301.46 231.869 301.565 232.001 301.693 232.25C301.729 232.37 301.751 232.488 301.759 232.603C301.795 232.723 301.831 232.843 301.867 232.963C301.902 233.253 301.94 233.444 301.981 233.537C302.026 233.602 302.159 233.738 302.378 233.947C301.722 234.941 300.981 235.85 300.156 236.673C299.363 237.473 298.342 238.034 297.092 238.357ZM309.311 235.024C309.159 234.913 309.015 234.845 308.877 234.821C308.656 234.783 308.467 234.892 308.308 235.148C307.997 235.634 307.648 236.085 307.263 236.502C306.878 236.918 306.445 237.283 305.964 237.597C305.802 237.711 305.629 237.809 305.444 237.891C305.287 237.977 305.114 238.075 304.924 238.184C304.921 238.041 304.901 237.91 304.865 237.79C304.768 237.205 304.756 236.62 304.829 236.036C304.902 235.452 304.989 234.87 305.09 234.29C305.338 233.026 305.639 231.785 305.993 230.568C306.351 229.323 306.751 228.085 307.192 226.854C307.587 225.729 307.982 224.604 308.376 223.479C308.798 222.358 309.22 221.238 309.643 220.118C309.942 219.374 309.709 218.836 308.943 218.504L308.818 218.482C308.68 218.458 308.558 218.508 308.451 218.632C308.363 218.815 308.262 218.983 308.151 219.134C308.039 219.285 307.939 219.452 307.851 219.636C306.801 221.585 305.852 223.608 305.005 225.706C304.161 227.777 303.454 229.885 302.882 232.031C302.563 231.577 302.193 231.172 301.772 230.815C301.383 230.434 300.899 230.194 300.32 230.093C299.575 229.964 298.827 230.175 298.078 230.727C296.25 232.086 295.176 233.931 294.856 236.263C294.743 237.238 294.94 238.068 295.446 238.753C295.98 239.443 296.716 239.869 297.654 240.032C298.454 240.171 299.15 240.008 299.743 239.543C300.363 239.082 300.919 238.582 301.41 238.042C301.587 237.845 301.749 237.646 301.898 237.445C302.074 237.248 302.253 237.037 302.434 236.813C302.47 236.933 302.501 237.081 302.528 237.256C302.878 238.51 303.724 239.283 305.067 239.573C305.563 239.659 306.036 239.557 306.484 239.265C306.933 238.974 307.338 238.604 307.7 238.155C308.09 237.711 308.427 237.244 308.712 236.753C309.028 236.24 309.273 235.814 309.446 235.474C309.534 235.291 309.489 235.141 309.311 235.024Z" fill="#ECE9E1"/>
<path fill-rule="evenodd" clip-rule="evenodd" d="M286.304 113.436C286.304 113.436 237.498 101.423 201.083 113.994C196.307 106.189 196.978 96.1733 197.372 92.8296C197.846 92.6585 198.437 92.4509 199.109 92.2255C199.407 92.1285 199.718 92.0196 200.044 91.9058L200.045 91.9056C200.7 91.6768 201.411 91.4281 202.181 91.2162C203.318 90.8732 204.535 90.5088 205.751 90.1444C206.966 89.7665 208.185 89.4291 209.356 89.1509L209.842 89.0288C210.813 88.7848 211.719 88.5574 212.517 88.3506C214.376 87.8822 215.612 87.5704 215.612 87.5704L215.652 87.5664C216.102 87.4405 216.372 86.9923 216.259 86.5407C216.148 86.1025 215.714 85.8457 215.287 85.9285C215.287 85.9285 214.018 86.1756 212.136 86.551L211.378 86.7012C210.616 86.8521 209.779 87.0179 208.905 87.1948C207.716 87.4205 206.463 87.6932 205.216 88.0198C204.487 88.2025 203.758 88.3807 203.042 88.5557C202.531 88.6805 202.027 88.8036 201.534 88.9256C200.775 89.1062 200.046 89.3181 199.372 89.5145C199.007 89.6207 198.658 89.7224 198.327 89.8121C197.949 89.917 197.599 90.0171 197.28 90.1101L194.729 74.0872C195.22 73.9245 195.701 73.7428 196.185 73.5436C196.787 73.294 197.386 73.0175 197.954 72.7032C198.537 72.401 199.102 72.0597 199.637 71.6806C200.186 71.3137 200.703 70.8956 201.205 70.4652C201.412 70.307 201.592 70.1184 201.772 69.9289C201.823 69.8753 201.874 69.8216 201.926 69.7685C201.985 69.7083 202.045 69.6488 202.104 69.5894C202.283 69.4111 202.462 69.2328 202.616 69.0339L203.261 68.2494L203.831 67.4042C203.997 67.1773 204.137 66.9338 204.267 66.6842C204.676 66.7902 205.08 66.8868 205.491 66.9826C206.27 67.1511 207.049 67.3196 207.837 67.4463C209.403 67.7279 210.986 67.9126 212.562 68.0164C213.358 68.0879 214.151 68.1189 214.954 68.1217C215.745 68.1393 216.55 68.1555 217.346 68.0909C217.64 68.067 217.935 68.056 218.23 68.045C218.735 68.0262 219.24 68.0073 219.739 67.9239C220.005 67.8887 220.273 67.8548 220.541 67.8208L220.543 67.8206L220.544 67.8205C221.074 67.7534 221.606 67.686 222.131 67.6074L224.502 67.0752C225.011 66.9725 225.507 66.797 226.005 66.6211C226.277 66.5248 226.55 66.4283 226.825 66.3435C226.953 66.2993 227.08 66.2565 227.207 66.2138C227.462 66.1283 227.717 66.0428 227.97 65.9453L229.075 65.415C229.332 65.2787 229.596 65.1589 229.86 65.0392C230.339 64.8216 230.817 64.6044 231.252 64.2896L233.311 62.9443C233.755 62.6267 234.163 62.2575 234.573 61.8863C234.774 61.7046 234.976 61.5222 235.182 61.3454L236.096 60.5344L236.889 59.5993L237.73 58.5911C237.919 58.6706 238.106 58.7462 238.296 58.8215C238.82 59.0286 239.341 59.2088 239.876 59.3876C240.931 59.733 242.021 60.0206 243.106 60.2543L244.741 60.5563L246.396 60.7748C246.759 60.8198 247.126 60.8409 247.49 60.8618L247.491 60.8618C247.68 60.8727 247.868 60.8835 248.055 60.8976C248.469 60.9389 248.886 60.9337 249.305 60.9284C249.443 60.9266 249.58 60.9249 249.719 60.9248C250.517 60.9447 251.32 60.8718 252.122 60.7991L252.123 60.799C252.431 60.771 252.739 60.7431 253.047 60.7204L254.693 60.4363C255.226 60.3577 255.739 60.2171 256.265 60.0734L256.317 60.0591C256.478 60.0142 256.641 59.973 256.805 59.9316L256.806 59.9313C257.179 59.837 257.555 59.7421 257.919 59.6024L259.469 59.0284C260.173 58.7748 260.843 58.437 261.51 58.1009L261.511 58.1008L261.511 58.1003C261.828 57.9408 262.144 57.7816 262.462 57.6322C262.84 57.4591 263.001 57.0214 262.829 56.6572C262.671 56.2918 262.247 56.1294 261.88 56.2742L261.774 56.3118C261.42 56.4511 261.072 56.6061 260.725 56.7608L260.725 56.761C260.123 57.0292 259.524 57.2965 258.895 57.4791L257.416 57.9508C257.095 58.0542 256.758 58.1235 256.424 58.1921L256.424 58.1923C256.251 58.2278 256.08 58.263 255.913 58.3026C255.798 58.3262 255.684 58.3511 255.57 58.376C255.182 58.4609 254.796 58.5453 254.388 58.5748L252.855 58.7662C252.6 58.7744 252.345 58.786 252.09 58.7975L252.085 58.7977C251.312 58.8327 250.542 58.8676 249.77 58.8106C249.692 58.8081 249.616 58.8058 249.539 58.8036C249.101 58.7906 248.671 58.7779 248.236 58.7163C248.103 58.7009 247.969 58.6866 247.835 58.6722C247.456 58.6315 247.075 58.5907 246.706 58.5263L245.182 58.2542L243.677 57.8985C242.684 57.6286 241.701 57.3169 240.753 56.9474C240.272 56.7633 239.804 56.5778 239.334 56.3655C238.879 56.1652 238.393 55.9272 238.019 55.719C237.43 55.4094 236.725 55.5739 236.31 56.0637L236.262 56.1229L234.86 57.7847L234.152 58.6162L233.338 59.3357C233.126 59.5122 232.922 59.6979 232.718 59.8837C232.386 60.1849 232.055 60.4864 231.693 60.7491L229.877 61.9344C229.495 62.2124 229.057 62.4083 228.62 62.6046C228.388 62.7083 228.157 62.8121 227.933 62.9282L226.945 63.4061C226.775 63.4705 226.6 63.5285 226.425 63.5865C226.251 63.6445 226.076 63.7024 225.905 63.7668C225.672 63.8396 225.443 63.9211 225.213 64.0026C224.754 64.1656 224.295 64.3286 223.806 64.4221L221.648 64.9061L219.445 65.2041C218.976 65.2855 218.489 65.3055 218.006 65.3254C217.745 65.3362 217.485 65.3469 217.229 65.3673C216.486 65.4266 215.736 65.4186 214.999 65.3957C214.25 65.3877 213.513 65.3648 212.758 65.3029C211.265 65.2046 209.777 65.0241 208.295 64.7614C207.608 64.6537 206.942 64.5096 206.266 64.3636L206.087 64.325C205.363 64.1513 204.623 63.9654 203.964 63.7715C203.347 63.5872 202.693 63.8555 202.378 64.3899L202.308 64.5057C202.214 64.6722 202.13 64.8428 202.045 65.0132C201.889 65.3291 201.733 65.6441 201.522 65.93L201.072 66.6138L200.548 67.2367C200.426 67.3952 200.289 67.5342 200.153 67.6722C200.1 67.7264 200.046 67.7804 199.994 67.8354C199.916 67.9064 199.844 67.9831 199.77 68.0604C199.654 68.1823 199.537 68.3058 199.397 68.4111C198.983 68.7648 198.555 69.1198 198.081 69.4248C197.622 69.7421 197.147 70.0336 196.643 70.3009C196.152 70.5669 195.631 70.8085 195.107 71.0232C194.732 71.1789 194.342 71.3252 193.949 71.4577C191.124 71.9889 171.941 75.0376 163.405 61.7262C154.179 47.3373 166.678 32.1214 183.252 31.8001C183.252 31.8001 192.475 -3.60083 234.593 11.1367C234.593 11.1367 263.216 -17.2972 289.152 19.7675C289.152 19.7675 320.108 17.4487 319.045 49.041C318.434 67.2238 300.714 73.5482 294.322 75.2415C294.257 75.2431 294.191 75.2494 294.125 75.2607L293.977 75.2753C293.977 75.2753 293.896 75.2833 293.764 75.3235C293.707 75.3353 293.633 75.349 293.543 75.3656C293.441 75.3845 293.318 75.4072 293.176 75.4356C292.639 75.5155 291.86 75.6193 290.908 75.6311C289.958 75.6564 288.836 75.6032 287.649 75.434C286.462 75.2648 285.208 74.9662 283.995 74.5409C283.584 74.4181 283.192 74.2449 282.8 74.0717C282.604 73.9851 282.408 73.8985 282.209 73.8182C281.846 73.6591 281.502 73.4718 281.162 73.2871C280.956 73.1751 280.752 73.0641 280.546 72.961C280.229 72.7816 279.934 72.5855 279.646 72.3943C279.451 72.2643 279.259 72.1365 279.065 72.0178C278.747 71.8223 278.467 71.5928 278.203 71.3758C278.07 71.2673 277.942 71.162 277.815 71.0656C277.681 70.9517 277.547 70.8467 277.417 70.745C277.185 70.5633 276.966 70.3922 276.791 70.2001C276.647 70.0577 276.512 69.9281 276.388 69.8093C276.264 69.6905 276.151 69.5825 276.053 69.4832C275.647 69.0877 275.406 68.8528 275.406 68.8528L275.36 68.8029C275.059 68.5059 274.57 68.5131 274.272 68.8144C273.988 69.101 273.992 69.5632 274.253 69.8641C274.253 69.8641 274.497 70.126 274.908 70.5754C275.028 70.7021 275.159 70.8451 275.302 71.0018C275.412 71.1223 275.529 71.251 275.655 71.3866C275.85 71.6168 276.098 71.8351 276.364 72.0688C276.475 72.1665 276.59 72.267 276.704 72.3721C276.834 72.4822 276.962 72.6009 277.094 72.7223C277.371 72.9775 277.661 73.2447 277.996 73.4699C278.187 73.6026 278.376 73.7453 278.569 73.8907C278.88 74.1246 279.2 74.3656 279.549 74.583C279.75 74.7007 279.95 74.8235 280.151 74.947C280.528 75.1782 280.909 75.4122 281.311 75.621C281.548 75.7283 281.78 75.8453 282.012 75.9627C282.41 76.1634 282.809 76.365 283.237 76.5205C284.556 77.0578 285.931 77.4806 287.249 77.7322C288.568 77.9973 289.82 78.1329 290.898 78.1631C291.172 78.1741 291.434 78.1784 291.684 78.1776L289.994 89.2842C289.356 88.997 288.641 88.6977 287.859 88.3814C287.565 88.2751 287.263 88.1624 286.953 88.0466C285.983 87.6845 284.932 87.2921 283.787 86.9715C282.282 86.4797 280.634 86.0564 278.878 85.6302C277.122 85.2175 275.264 84.8693 273.337 84.5142C272.679 84.4268 272.016 84.3243 271.348 84.221C270.042 84.0191 268.716 83.814 267.365 83.7127L266.999 83.6756C265.07 83.4801 263.129 83.2833 261.165 83.2329C260.645 83.2091 260.126 83.1819 259.606 83.1547C259.086 83.1275 258.566 83.1004 258.046 83.0765C257.378 83.0632 256.711 83.0611 256.047 83.059H256.047L256.043 83.059L256.042 83.0589C255.678 83.0578 255.315 83.0566 254.954 83.0536L254.833 83.0526C252.831 83.0358 250.856 83.0193 248.946 83.1401C248.294 83.1723 247.65 83.1976 247.016 83.2225L247.014 83.2226L247.013 83.2226C245.751 83.2722 244.524 83.3203 243.339 83.4187C242.358 83.5075 241.409 83.5891 240.495 83.6676L240.493 83.6678L240.491 83.6679L240.485 83.6684C239.744 83.7321 239.026 83.7939 238.332 83.8559C236.777 83.9677 235.366 84.1472 234.117 84.3242C233.573 84.3954 233.059 84.4637 232.579 84.5275L232.566 84.5292L232.563 84.5296L232.562 84.5298L232.559 84.5302L232.551 84.5312C231.939 84.6126 231.38 84.6868 230.879 84.7511C229.078 84.9824 228.057 85.1235 228.057 85.1235C227.653 85.1632 227.364 85.5454 227.417 85.9484C227.456 86.3527 227.824 86.6296 228.227 86.5764L228.254 86.5737C228.254 86.5737 229.277 86.4597 231.068 86.2566C231.601 86.2042 232.206 86.135 232.872 86.0588C233.317 86.0079 233.79 85.9539 234.286 85.8998C235.523 85.751 236.938 85.5985 238.468 85.5163C239.65 85.4315 240.905 85.3476 242.219 85.2598C242.617 85.2332 243.021 85.2062 243.43 85.1787C244.636 85.0976 245.892 85.0756 247.18 85.053L247.183 85.053C247.771 85.0426 248.367 85.0322 248.967 85.0159C250.892 84.9357 252.871 84.9864 254.891 85.0465C255.157 85.0526 255.424 85.0578 255.692 85.0629L255.692 85.0629C256.439 85.0772 257.19 85.0916 257.935 85.1286C258.948 85.1924 259.977 85.2683 260.991 85.3455C262.949 85.439 264.883 85.671 266.791 85.9L266.792 85.9001L267.065 85.9329C268.357 86.0515 269.62 86.2691 270.86 86.4829C271.545 86.6009 272.223 86.7179 272.896 86.8163C274.77 87.1902 276.577 87.5707 278.267 88.0035C279.958 88.4498 281.538 88.8797 282.975 89.3781C284.114 89.723 285.134 90.1292 286.072 90.5027L286.074 90.5032L286.075 90.5037L286.076 90.5041C286.338 90.6086 286.595 90.7106 286.845 90.8079C287.917 91.2739 288.846 91.6796 289.603 92.0752C289.812 93.4108 291.742 106.815 286.316 113.421L286.304 113.436ZM194.654 34.1095C194.554 34.3371 194.498 34.465 194.498 34.465L194.551 34.4462L194.394 34.7882C194.226 35.1585 193.812 35.3761 193.408 35.2797C192.935 35.1765 192.645 34.7151 192.748 34.2423C192.748 34.2423 192.775 34.1035 192.832 33.853L192.842 33.8136C192.911 33.5263 193.034 33.0224 193.221 32.5493C193.28 32.406 193.339 32.2492 193.402 32.0822L193.402 32.0813C193.539 31.7197 193.692 31.311 193.902 30.8903C193.993 30.716 194.081 30.5321 194.173 30.3422C194.405 29.8602 194.656 29.3389 195.007 28.8359C195.129 28.6526 195.25 28.4631 195.372 28.2702L195.372 28.2698C195.727 27.712 196.1 27.1248 196.582 26.5721L196.645 26.4923C197.231 25.7482 197.856 24.9562 198.657 24.2863C198.949 24.0109 199.249 23.7347 199.556 23.4519L199.564 23.4439C199.66 23.3551 199.757 23.2657 199.855 23.1754C200.104 22.9379 200.396 22.7443 200.69 22.5483C200.866 22.4313 201.044 22.3133 201.214 22.1846C201.354 22.0877 201.496 21.9893 201.638 21.8904C201.961 21.6657 202.288 21.438 202.616 21.2169L202.974 20.9776C203.112 20.8864 203.184 20.8509 203.255 20.8162C203.295 20.7962 203.335 20.7765 203.387 20.7466L204.099 20.3773C204.551 20.1288 205.086 19.8858 205.635 19.655C205.758 19.6021 205.881 19.5477 206.005 19.4934C206.416 19.3123 206.825 19.132 207.232 19.0083L208.814 18.4855C209.059 18.4236 209.302 18.3649 209.544 18.3066C209.825 18.2388 210.104 18.1714 210.382 18.1002C211.065 17.9253 211.745 17.8338 212.401 17.7453C212.74 17.6998 213.072 17.655 213.395 17.6001C213.827 17.57 214.248 17.5381 214.656 17.5072L214.657 17.5072C215.156 17.4694 215.637 17.433 216.098 17.4027C216.716 17.3928 217.299 17.4089 217.838 17.4239C218.022 17.429 218.201 17.434 218.375 17.4377C218.828 17.4486 219.247 17.4879 219.619 17.5228L219.62 17.5229C219.796 17.5394 219.962 17.555 220.116 17.5661C221.08 17.6756 221.63 17.7304 221.63 17.7304C222.055 17.7703 222.389 18.1185 222.418 18.5511C222.439 19.039 222.073 19.4695 221.585 19.4902L221.531 19.4955C221.531 19.4955 220.99 19.535 220.069 19.5846C219.89 19.5971 219.698 19.6048 219.495 19.6131C219.162 19.6266 218.798 19.6414 218.405 19.68C218.201 19.7 217.99 19.7236 217.771 19.748C217.307 19.7997 216.807 19.8554 216.274 19.8892C216.116 19.9131 215.955 19.9372 215.793 19.9616L215.792 19.9618C215.155 20.0572 214.484 20.1578 213.78 20.2702C213.451 20.3546 213.112 20.4299 212.768 20.5064C212.211 20.6302 211.64 20.7573 211.068 20.9312C210.814 21.0086 210.558 21.082 210.301 21.156C210.091 21.2164 209.88 21.2773 209.666 21.3411C209.463 21.4149 209.261 21.4914 209.057 21.5683C208.799 21.6659 208.539 21.7643 208.274 21.8588C207.923 21.9738 207.59 22.1241 207.261 22.2729C207.145 22.3252 207.03 22.3774 206.914 22.4277C206.47 22.621 206.014 22.8291 205.538 23.1072L204.827 23.49C204.737 23.5397 204.53 23.6552 204.53 23.6552L204.21 23.8635C203.922 24.0499 203.634 24.2425 203.35 24.4324L203.349 24.4334C203.217 24.5212 203.087 24.6084 202.958 24.6941C202.26 25.1043 201.661 25.6208 201.071 26.1296C200.933 26.2489 200.795 26.3679 200.657 26.485C200.117 26.8957 199.666 27.3732 199.228 27.8372L199.227 27.8376L199.227 27.8379C199.049 28.0268 198.872 28.2134 198.693 28.3923C198.244 28.8112 197.882 29.2826 197.536 29.732C197.392 29.9189 197.252 30.1022 197.109 30.2761C196.823 30.6156 196.6 30.9667 196.39 31.2987C196.233 31.547 196.082 31.7846 195.917 31.9988C195.672 32.3478 195.484 32.6849 195.315 32.9879L195.314 32.9882C195.236 33.1292 195.161 33.2627 195.087 33.3867C194.891 33.7461 194.773 33.9346 194.654 34.1095ZM289.141 29.6342C289.141 29.6342 289.575 29.6188 290.284 29.6308C290.416 29.643 290.556 29.6488 290.707 29.6549C290.962 29.6654 291.245 29.677 291.559 29.7234C291.753 29.7588 291.959 29.78 292.174 29.8021C292.495 29.8351 292.837 29.8702 293.188 29.958C293.382 30.0021 293.582 30.0395 293.788 30.078C294.203 30.1554 294.639 30.2368 295.081 30.3844C295.221 30.4255 295.362 30.4652 295.505 30.5053C296.034 30.6542 296.581 30.8077 297.12 31.055C297.271 31.1169 297.422 31.1767 297.574 31.2366C298.124 31.4535 298.678 31.672 299.2 31.9939L300.235 32.5589L300.494 32.6968L300.712 32.8387L301.25 33.1941C301.624 33.4267 301.931 33.6659 302.223 33.8934L302.232 33.9005C302.331 33.9815 302.43 34.0594 302.53 34.1373C302.73 34.2931 302.93 34.4488 303.12 34.6297C303.417 34.8862 303.715 35.1429 303.999 35.4007C304.271 35.6734 304.543 35.9461 304.801 36.2201C305.156 36.5684 305.472 36.938 305.781 37.299C305.944 37.4893 306.105 37.6773 306.268 37.8585C306.704 38.4145 307.11 38.9461 307.485 39.44C307.722 39.8007 307.964 40.1406 308.186 40.4525C308.279 40.5828 308.368 40.7082 308.452 40.8283C308.653 41.1092 308.809 41.3762 308.949 41.6143C309.018 41.7318 309.083 41.8423 309.147 41.9439C309.549 42.5712 309.773 42.9166 309.773 42.9166L309.805 42.9678C310.064 43.3779 310.62 43.5002 311.03 43.2422C311.389 43.0164 311.522 42.5679 311.376 42.1877C311.376 42.1877 311.212 41.7683 310.937 41.0469C310.661 40.312 310.208 39.3086 309.573 38.1055C309.23 37.5268 308.855 36.8969 308.437 36.244C308.293 36.0531 308.151 35.8543 308.006 35.652C307.679 35.1965 307.34 34.7232 306.938 34.282L306.066 33.3062L306.066 33.3059L306.065 33.3054C305.75 32.9965 305.434 32.6877 305.103 32.3667C304.825 32.0839 304.497 31.827 304.172 31.5723C304.126 31.5364 304.08 31.5005 304.034 31.4647C303.664 31.1608 303.282 30.8718 302.933 30.6475L302.407 30.2773C302.36 30.2487 302.331 30.2273 302.301 30.204C302.256 30.1703 302.206 30.1327 302.086 30.0639L301.785 29.903C301.577 29.7942 301.373 29.6885 301.169 29.5828L301.167 29.5817C300.963 29.4762 300.759 29.3707 300.551 29.2621C299.757 28.7958 298.899 28.5127 298.069 28.2404C297.258 27.9298 296.436 27.78 295.667 27.6399L295.641 27.6351C294.954 27.475 294.291 27.4391 293.665 27.4053C293.58 27.4007 293.496 27.3962 293.412 27.3913C292.919 27.3422 292.448 27.3679 292.015 27.3914C291.844 27.4007 291.68 27.4097 291.522 27.4136C291.172 27.4309 290.847 27.4781 290.556 27.5203C290.386 27.545 290.227 27.5681 290.082 27.5823C289.292 27.7143 288.872 27.8645 288.872 27.8645L288.766 27.902C288.293 28.071 288.044 28.5853 288.213 29.0586C288.346 29.4401 288.709 29.6766 289.103 29.6652L289.141 29.6342Z" fill="#ECE9E1"/>
</svg>
