<svg width="490" height="151" viewBox="0 0 490 151" fill="none" xmlns="http://www.w3.org/2000/svg">
<path d="M98.8304 38.086L112.621 97.752C112.756 98.3344 112.666 98.8765 112.353 99.3784C112.039 99.8803 111.591 100.199 111.009 100.333L97.8178 103.382C97.2354 103.517 96.6932 103.427 96.1913 103.114C95.6894 102.8 95.3712 102.352 95.2366 101.77L88.735 73.6405C88.6004 73.0582 88.2643 72.7984 87.7267 72.8613C87.1891 72.9242 86.7994 73.229 86.5576 73.7757L77.3532 100.842C77.1697 101.375 76.7576 101.716 76.117 101.864C75.4764 102.012 74.9275 101.893 74.4704 101.508L54.3223 81.2262C53.9234 80.8276 53.4686 80.718 52.9579 80.8974C52.4472 81.0768 52.2592 81.4577 52.3938 82.0401L58.8954 110.17C59.03 110.752 58.9406 111.294 58.6271 111.796C58.3137 112.298 57.8657 112.616 57.2833 112.751L44.0922 115.8C43.5098 115.934 42.9676 115.845 42.4657 115.531C41.9638 115.218 41.6456 114.77 41.511 114.188L27.7204 54.5216C27.5858 53.9392 27.6752 53.3971 27.9887 52.8952C28.3021 52.3933 28.75 52.075 29.3324 51.9404L41.5627 49.1137C42.145 48.9791 42.7969 49.0124 43.5183 49.2138C44.2397 49.4152 44.7999 49.7152 45.1987 50.1138L67.6655 70.8722C68.1226 71.2574 68.5842 71.3961 69.0501 71.2884C69.516 71.1807 69.8407 70.8603 70.0242 70.3271L81.1032 41.8152C81.3449 41.2685 81.7457 40.7464 82.3056 40.2489C82.8655 39.7514 83.4366 39.4354 84.019 39.3008L96.2492 36.474C96.8316 36.3394 97.3737 36.4288 97.8756 36.7423C98.3775 37.0557 98.6958 37.5036 98.8304 38.086Z" fill="#D3413B"/>
<path d="M140.309 31.9804C140.483 31.4181 140.817 30.9274 141.309 30.5081C141.853 30.0225 142.452 29.7412 143.105 29.6641L155.571 28.1926C156.165 28.1226 156.753 28.2638 157.337 28.6162C157.972 28.9023 158.44 29.2985 158.741 29.8047L191.889 87.2852C192.189 87.7915 192.197 88.3624 191.911 88.9981C191.684 89.6267 191.096 89.9971 190.146 90.1092L174.919 91.9066C174.266 91.9836 173.622 91.8791 172.986 91.593C172.403 91.2405 171.931 90.8147 171.572 90.3155L168.537 85.2566C168.177 84.7574 167.679 84.3648 167.043 84.0787C166.46 83.7262 165.872 83.585 165.278 83.655L146.49 85.8728C145.837 85.9499 145.238 86.2312 144.693 86.7168C144.201 87.1361 143.868 87.6268 143.694 88.1891L141.831 93.826C141.657 94.3883 141.297 94.9123 140.753 95.3979C140.26 95.8171 139.717 96.0618 139.124 96.1318L123.808 97.9397C123.512 97.9747 123.208 97.9504 122.897 97.8667C122.527 97.79 122.239 97.6434 122.032 97.427C121.767 97.2176 121.583 96.9383 121.482 96.5891C121.381 96.24 121.421 95.8139 121.602 95.311L140.309 31.9804ZM150.135 70.0942L158.06 69.1588C158.653 69.0887 159.048 68.8616 159.243 68.4774C159.491 68.0268 159.435 67.5519 159.075 67.0527C158.306 65.6387 157.391 64.0013 156.328 62.1404C155.259 60.2202 154.267 58.4414 153.351 56.8039C153.05 56.2977 152.752 56.0621 152.455 56.0972C152.158 56.1322 151.923 56.4309 151.748 56.9931L148.568 68.2929C148.393 68.8552 148.449 69.3301 148.736 69.7176C149.015 70.0458 149.482 70.1713 150.135 70.0942Z" fill="#D3413B"/>
<path d="M215.794 89.2311L202.438 89.5423C201.84 89.5562 201.327 89.3589 200.899 88.9504C200.471 88.5418 200.25 88.0387 200.236 87.4411L198.808 26.1292C198.794 25.5316 198.991 25.0188 199.4 24.5907C199.808 24.1626 200.311 23.9417 200.909 23.9277L228.786 23.2782C232.252 23.1974 235.463 23.7205 238.419 24.8474C241.374 25.9146 243.891 27.4703 245.972 29.5145C248.112 31.5573 249.783 33.9997 250.986 36.8416C252.248 39.6822 252.919 42.8354 253 46.3014C253.044 48.2137 252.85 50.1315 252.416 52.0549C252.041 53.9172 251.455 55.6947 250.657 57.3874C249.859 59.0801 248.909 60.6269 247.806 62.0278C246.701 63.369 245.442 64.5044 244.028 65.4342C243.559 65.8039 243.241 66.2597 243.074 66.8017C242.965 67.2826 243.096 67.7579 243.466 68.2276C245.806 71.1626 248.268 74.1844 250.852 77.2932C253.435 80.4019 255.744 83.2479 257.777 85.8313C258.147 86.301 258.249 86.8368 258.084 87.4385C257.917 87.9805 257.535 88.2585 256.937 88.2724L240.265 88.6609C239.667 88.6748 239.006 88.5408 238.282 88.2587C237.617 87.9154 237.099 87.509 236.729 87.0393C234.758 84.574 232.787 82.0788 230.815 79.5538C228.902 77.0273 226.989 74.471 225.076 71.8848C224.706 71.4151 224.189 71.0385 223.525 70.755C222.859 70.4118 222.227 70.2471 221.63 70.261L219.658 70.307C219.06 70.3209 218.557 70.5419 218.149 70.97C217.74 71.398 217.543 71.9108 217.557 72.5084L217.895 87.0297C217.909 87.6273 217.712 88.1401 217.303 88.5681C216.894 88.9962 216.391 89.2172 215.794 89.2311ZM219.273 53.8137L228.775 53.5923C229.492 53.5756 230.236 53.4387 231.008 53.1816C231.777 52.8647 232.485 52.4296 233.13 51.8765C233.773 51.2636 234.294 50.534 234.693 49.6876C235.092 48.8413 235.278 47.8504 235.251 46.715C235.238 46.1174 235.102 45.4329 234.845 44.6617C234.646 43.8292 234.269 43.0607 233.715 42.3561C233.219 41.5904 232.517 40.979 231.609 40.5218C230.76 40.0035 229.708 39.7589 228.453 39.7882L218.952 40.0096C218.354 40.0235 217.851 40.2445 217.443 40.6725C217.034 41.1006 216.837 41.6134 216.851 42.211L217.072 51.7125C217.086 52.3101 217.307 52.8132 217.735 53.2218C218.163 53.6303 218.676 53.8276 219.273 53.8137Z" fill="#D3413B"/>
<path d="M282.788 89.7189L269.262 89.126C268.605 89.0972 268.077 88.8646 267.677 88.4283C267.337 87.9945 267.18 87.4791 267.207 86.8819L269.889 25.7017C269.915 25.1045 270.116 24.6048 270.493 24.2025C270.929 23.8028 271.476 23.6173 272.133 23.6461L285.659 24.239C286.256 24.2652 286.754 24.4965 287.154 24.9328C287.554 25.3692 287.74 25.8859 287.714 26.4831L285.032 87.6633C285.006 88.2605 284.775 88.7589 284.338 89.1586C283.902 89.5583 283.385 89.7451 282.788 89.7189Z" fill="#D3413B"/>
<path d="M299.601 57.0955C300.148 52.4652 301.553 48.2072 303.818 44.3214C306.082 40.4356 308.907 37.1576 312.292 34.4875C315.683 31.758 319.532 29.7446 323.839 28.4472C328.145 27.1498 332.613 26.7744 337.243 27.321C341.874 27.8675 346.132 29.273 350.017 31.5373C353.903 33.8017 357.178 36.656 359.841 40.1002C362.57 43.492 364.584 47.3411 365.881 51.6473C367.179 55.9535 367.554 60.4217 367.007 65.052C366.461 69.6823 365.055 73.9403 362.791 77.8261C360.527 81.7119 357.669 85.016 354.218 87.7385C350.833 90.4086 346.987 92.3924 342.681 93.6897C338.375 94.9871 333.907 95.3625 329.276 94.816C324.646 94.2694 320.388 92.864 316.502 90.5996C312.616 88.3353 309.339 85.5107 306.668 82.1258C304.005 78.6816 302.025 74.8064 300.728 70.5002C299.43 66.194 299.055 61.7257 299.601 57.0955ZM317.232 59.1766C316.966 61.4323 317.129 63.6184 317.722 65.7349C318.315 67.8513 319.232 69.7653 320.475 71.4769C321.777 73.1955 323.351 74.6453 325.198 75.8263C327.052 76.948 329.077 77.6385 331.273 77.8977C333.47 78.157 335.6 77.957 337.664 77.2978C339.735 76.5792 341.604 75.5358 343.27 74.1676C344.936 72.7993 346.304 71.1551 347.373 69.2349C348.443 67.3147 349.11 65.2267 349.377 62.9709C349.636 60.7745 349.469 58.6181 348.876 56.5017C348.291 54.3259 347.343 52.4084 346.034 50.7491C344.732 49.0305 343.155 47.6104 341.301 46.4887C339.454 45.3077 337.432 44.5876 335.236 44.3283C333.039 44.069 330.906 44.2987 328.835 45.0172C326.771 45.6765 324.905 46.6902 323.239 48.0584C321.639 49.3743 320.301 51.022 319.225 53.0016C318.156 54.9219 317.491 56.9802 317.232 59.1766Z" fill="#D3413B"/>
<path d="M383.678 61.7951C383.105 61.9308 382.512 61.8499 381.899 61.5523C381.297 61.196 380.864 60.7497 380.6 60.2136L379.444 57.6245C379.238 57.0994 379.22 56.5486 379.389 55.9722C379.558 55.3957 379.916 54.946 380.463 54.623C381.22 54.1569 381.888 53.6742 382.469 53.175C383.108 52.6868 383.717 52.1931 384.298 51.6938C384.739 51.29 384.885 50.8311 384.739 50.317C384.592 49.8029 384.317 49.3255 383.913 48.8847C383.036 48.051 382.443 46.997 382.135 45.7227C381.827 44.4485 381.741 43.1248 381.877 41.7515C382.234 39.2033 383.424 37.2373 385.448 35.8535C387.482 34.411 389.744 33.8626 392.234 34.2084C393.713 34.4255 395.015 34.9436 396.138 35.7627C397.273 36.5231 398.157 37.4798 398.792 38.633C399.497 39.7384 399.963 40.9815 400.19 42.3622C400.418 43.7429 400.393 45.1676 400.118 46.6363C399.39 50.5136 397.652 53.7757 394.905 56.4224C392.168 59.0104 388.426 60.8013 383.678 61.7951Z" fill="#D3413B"/>
<path d="M410.179 84.3487C412.803 87.1609 415.507 89.531 418.291 91.4588C421.075 93.3867 423.801 94.6839 426.468 95.3505C429.02 95.9881 431.049 96.1256 432.557 95.763C434.079 95.3424 435.022 94.4072 435.384 92.9574C435.572 92.2035 435.427 91.5511 434.949 91.0003C434.485 90.3914 433.796 89.8189 432.883 89.2826C432.027 88.7608 430.983 88.2535 429.751 87.7607C428.519 87.2679 427.272 86.7099 426.01 86.0867C424.793 85.5359 423.35 84.8982 421.683 84.1735C420.088 83.4053 418.464 82.5066 416.811 81.4775C415.173 80.3904 413.571 79.1583 412.005 77.7812C410.497 76.4186 409.228 74.8385 408.199 73.041C407.169 71.2434 406.466 69.2501 406.089 67.061C405.784 64.8284 405.972 62.3493 406.653 59.6237C407.653 55.6223 409.262 52.5125 411.48 50.2941C413.698 48.0757 416.184 46.5097 418.938 45.5961C421.765 44.6389 424.73 44.2399 427.832 44.3991C430.949 44.5002 433.9 44.8985 436.683 45.5941C441.555 46.8113 445.723 48.623 449.188 51.0292C452.726 53.3919 455.923 56.378 458.779 59.9876C459.141 60.5094 459.279 61.0676 459.192 61.662C459.105 62.2564 458.83 62.7421 458.366 63.1191L449.168 71.0792C448.705 71.4562 448.168 71.6302 447.559 71.6013C446.95 71.5724 446.457 71.326 446.08 70.8621C443.587 68.2673 441.158 66.2742 438.795 64.8827C436.446 63.4332 434.199 62.4404 432.053 61.9042C431.415 61.7448 430.654 61.5855 429.77 61.4261C428.958 61.2232 428.146 61.1436 427.334 61.1871C426.537 61.1727 425.819 61.3323 425.181 61.6658C424.601 62.0138 424.21 62.5937 424.007 63.4056C423.804 64.2175 424.232 65.0945 425.291 66.0368C426.349 66.979 427.603 67.8777 429.053 68.7329C430.503 69.5881 431.916 70.3418 433.294 70.994C434.686 71.5882 435.577 71.9651 435.969 72.1245C437.955 73.0521 440.093 74.2334 442.384 75.6684C444.689 77.0454 446.719 78.7849 448.474 80.8868C450.301 82.9452 451.627 85.4024 452.454 88.2583C453.353 91.0707 453.339 94.3326 452.412 98.0441C451.542 101.524 450.18 104.387 448.324 106.634C446.483 108.824 444.258 110.455 441.649 111.528C439.097 112.616 436.183 113.181 432.907 113.225C429.703 113.225 426.245 112.762 422.534 111.834C419.518 111.081 416.771 110.117 414.292 108.943C411.798 107.827 409.529 106.552 407.485 105.117C405.441 103.682 403.577 102.138 401.896 100.485C400.286 98.7893 398.836 97.0715 397.546 95.332C397.169 94.8681 397.024 94.3389 397.111 93.7445C397.212 93.0921 397.495 92.5775 397.959 92.2005L407.069 84.2186C407.533 83.8416 408.07 83.6676 408.678 83.6965C409.287 83.7254 409.788 83.9428 410.179 84.3487Z" fill="#D3413B"/>
<path d="M309.82 137.126C309.581 137.21 309.347 137.247 309.117 137.235C308.887 137.224 308.654 137.193 308.42 137.144C308.565 136.917 308.73 136.774 308.914 136.715C309.114 136.635 309.325 136.563 309.547 136.499C309.622 136.49 309.698 136.482 309.773 136.473C309.886 136.46 309.98 136.449 310.055 136.44C310.21 136.46 310.29 136.489 310.294 136.527C310.345 136.636 310.345 136.722 310.295 136.784C310.145 136.973 309.987 137.087 309.82 137.126ZM316.041 136.98C316.165 136.736 316.112 136.523 315.881 136.34C315.839 136.307 315.759 136.278 315.642 136.253C315.546 136.245 315.449 136.237 315.353 136.229C315.274 136.2 315.196 136.19 315.121 136.199C314.455 136.047 313.791 135.914 313.129 135.799C312.505 135.681 311.86 135.545 311.193 135.393L310.973 135.218C310.783 134.897 310.604 134.584 310.435 134.279C310.283 133.953 310.112 133.629 309.923 133.308C309.779 133.057 309.728 132.863 309.769 132.725C309.832 132.603 309.967 132.454 310.176 132.277C310.301 132.206 310.437 132.142 310.583 132.087C310.746 132.011 310.978 131.956 311.279 131.921C311.597 131.865 311.909 131.839 312.214 131.842C312.536 131.823 312.844 131.845 313.137 131.907C313.431 131.968 313.651 132.057 313.798 132.174C313.903 132.257 313.956 132.385 313.956 132.556C313.969 132.669 314.06 132.792 314.228 132.925C314.416 132.904 314.577 132.809 314.71 132.641C314.793 132.536 314.824 132.389 314.802 132.201C314.788 131.745 314.688 131.375 314.503 131.091C314.338 130.824 314.098 130.565 313.783 130.316C313.28 129.916 312.743 129.644 312.173 129.5C311.62 129.335 311.012 129.281 310.351 129.338C309.121 129.423 308.457 130.11 308.357 131.4C308.268 132.116 308.365 132.791 308.649 133.426C308.932 134.061 309.242 134.684 309.579 135.293C309.358 135.357 309.155 135.419 308.971 135.478C308.787 135.537 308.603 135.597 308.42 135.656C307.818 135.897 307.546 136.348 307.603 137.009C307.685 137.725 308 138.299 308.546 138.732C309.008 139.098 309.552 139.274 310.18 139.259C311.135 139.263 311.624 138.796 311.65 137.859C311.661 137.628 311.635 137.402 311.571 137.181C311.545 136.955 311.528 136.719 311.518 136.472C311.945 136.537 312.383 136.61 312.831 136.692C313.317 136.77 313.792 136.839 314.257 136.899C314.509 136.928 314.76 136.956 315.011 136.984C315.283 137.029 315.556 137.074 315.828 137.119C315.941 137.106 316.012 137.059 316.041 136.98Z" fill="#D3413B"/>
<path d="M189.597 137.332C189.358 137.431 189.296 137.641 189.411 137.962C189.555 138.448 189.788 138.72 190.111 138.776C190.434 138.832 190.802 138.823 191.216 138.749C191.802 138.53 192.375 138.314 192.934 138.1C193.498 137.914 194.074 137.712 194.661 137.493C194.871 137.398 195.082 137.304 195.292 137.209C195.508 137.142 195.724 137.075 195.939 137.008C196.132 136.974 196.211 136.86 196.177 136.667C196.095 136.369 195.936 136.113 195.698 135.899C195.461 135.686 195.202 135.59 194.922 135.612C194.636 135.606 194.369 135.625 194.121 135.669C193.873 135.714 193.611 135.76 193.336 135.81C193.087 135.854 192.93 135.768 192.863 135.553C192.38 134.444 191.937 133.315 191.532 132.164C191.154 131.008 190.832 129.843 190.565 128.667C190.056 126.454 189.588 124.234 189.161 122.006C188.762 119.773 188.459 117.523 188.253 115.256C188.195 114.612 188.155 113.993 188.134 113.4C188.136 112.773 188.135 112.134 188.132 111.48C188.148 111.249 188.25 111.103 188.438 111.041C188.649 110.947 188.859 110.852 189.07 110.758C189.308 110.658 189.546 110.559 189.785 110.459C190.078 110.35 190.344 110.245 190.582 110.146C190.848 110.041 191.132 109.962 191.436 109.908C191.573 109.883 191.697 109.861 191.808 109.841C191.946 109.817 192.088 109.82 192.236 109.85C192.264 109.845 192.28 109.857 192.285 109.884C192.312 109.879 192.34 109.874 192.367 109.869C192.505 109.845 192.527 109.727 192.432 109.516C192.276 109.118 191.971 108.845 191.518 108.698C191.028 108.502 190.507 108.453 189.956 108.551C189.294 108.669 188.59 108.866 187.842 109.142C187.118 109.386 186.389 109.686 185.657 110.045C184.952 110.399 184.269 110.791 183.606 111.222C182.971 111.649 182.413 112.104 181.93 112.589C181.767 112.789 181.76 112.989 181.91 113.19C182.059 113.391 182.234 113.573 182.434 113.736C182.657 113.867 182.919 113.905 183.223 113.851C183.305 113.836 183.424 113.786 183.58 113.702C183.868 113.565 184.141 113.417 184.397 113.257C184.68 113.093 184.964 112.928 185.247 112.764C185.325 112.721 185.391 112.695 185.446 112.685C185.524 112.643 185.602 112.601 185.68 112.558L185.702 112.682C185.666 113.912 185.698 115.129 185.8 116.334C185.929 117.534 186.072 118.732 186.229 119.927C186.455 121.508 186.706 123.071 186.982 124.614C187.28 126.125 187.639 127.654 188.058 129.201C188.405 130.504 188.804 131.784 189.256 133.04C189.703 134.269 190.325 135.438 191.121 136.547L189.597 137.332Z" fill="#D3413B"/>
<path d="M200.448 116.359C200.07 115.935 199.67 115.728 199.246 115.737C198.846 115.714 198.411 115.738 197.94 115.811L196.488 116.036C196.326 116.089 196.162 116.128 195.996 116.154C195.83 116.18 195.666 116.219 195.504 116.272C195.519 116.185 195.52 116.1 195.507 116.017C195.586 115.608 195.65 115.201 195.701 114.797C195.748 114.365 195.796 113.946 195.847 113.542C195.858 113.427 195.823 113.291 195.742 113.133C195.437 112.812 195.063 112.685 194.621 112.754C194.45 112.752 194.334 112.826 194.273 112.978C194.234 113.097 194.198 113.23 194.164 113.377C194.02 113.909 193.891 114.453 193.779 115.009C193.69 115.533 193.573 116.061 193.429 116.593C193.403 116.795 193.335 116.905 193.224 116.922C192.794 117.073 192.378 117.223 191.976 117.37C191.546 117.521 191.1 117.661 190.638 117.789L190.348 117.834C190.209 117.855 190.083 117.861 189.968 117.85C189.825 117.844 189.69 117.794 189.562 117.7C189.494 117.626 189.418 117.595 189.335 117.608C189.248 117.593 189.163 117.592 189.08 117.605C188.969 117.622 188.902 117.646 188.879 117.678C188.845 117.825 188.859 117.922 188.923 117.969C189.383 118.379 189.808 118.654 190.198 118.792C190.588 118.93 191.129 118.946 191.82 118.839C192.291 118.766 192.741 118.654 193.171 118.503C193.207 118.554 193.225 118.579 193.225 118.579C193.132 119.444 193.094 120.3 193.112 121.147C193.157 121.99 193.202 122.833 193.248 123.676C193.329 124.939 193.45 126.181 193.611 127.403C193.799 128.62 194.058 129.841 194.389 131.065C194.5 131.416 194.627 131.779 194.769 132.154C194.94 132.524 195.146 132.847 195.386 133.121C195.627 133.396 195.917 133.62 196.255 133.794C196.59 133.941 196.978 133.98 197.421 133.912C197.919 133.835 198.358 133.555 198.736 133.071C199.143 132.583 199.481 132.021 199.751 131.384C200.021 130.748 200.233 130.106 200.388 129.458C200.567 128.779 200.668 128.239 200.691 127.839C200.708 127.582 200.668 127.418 200.572 127.347C200.472 127.25 200.307 127.19 200.077 127.169C199.796 127.184 199.64 127.364 199.608 127.709C199.557 128.113 199.457 128.568 199.309 129.073C199.16 129.577 198.981 130.072 198.773 130.558C198.56 131.016 198.318 131.464 198.046 131.903C197.769 132.314 197.454 132.66 197.101 132.941C197.02 132.784 196.941 132.64 196.865 132.51C196.811 132.348 196.76 132.201 196.711 132.066C196.579 131.577 196.446 131.087 196.314 130.598C196.21 130.104 196.103 129.596 195.994 129.075C195.599 126.699 195.358 124.314 195.271 121.919C195.256 121.269 195.254 120.618 195.267 119.964C195.279 119.311 195.305 118.655 195.345 117.997C195.315 117.803 195.384 117.694 195.55 117.668C196.141 117.463 196.735 117.272 197.331 117.095C197.923 116.89 198.517 116.7 199.113 116.523L199.32 116.49C199.514 116.461 199.679 116.52 199.815 116.669C199.86 116.775 199.956 116.846 200.103 116.88C200.218 116.89 200.317 116.889 200.4 116.876C200.483 116.863 200.582 116.862 200.697 116.873C200.656 116.794 200.614 116.702 200.569 116.595C200.552 116.484 200.511 116.406 200.448 116.359Z" fill="#D3413B"/>
<path d="M206.418 126.329C205.981 127.344 205.534 128.275 205.076 129.123C204.615 129.943 203.948 130.704 203.077 131.406C202.928 131.566 202.761 131.7 202.577 131.807C202.417 131.884 202.233 131.992 202.025 132.131C201.837 131.759 201.722 131.407 201.68 131.073C201.666 130.736 201.682 130.41 201.727 130.094C201.758 129.667 201.851 129.175 202.007 128.619C202.187 128.032 202.413 127.468 202.683 126.926C202.981 126.38 203.332 125.913 203.735 125.523C204.137 125.134 204.589 124.908 205.089 124.845C205.394 124.807 205.669 124.857 205.912 124.996C206.183 125.131 206.365 125.348 206.459 125.647C206.546 125.89 206.533 126.117 206.418 126.329ZM212.982 125.335C212.801 125.245 212.683 125.203 212.628 125.21C212.544 125.221 212.442 125.304 212.32 125.46C211.873 126.166 211.394 126.847 210.884 127.504C210.398 128.129 209.851 128.72 209.244 129.276C209.14 129.346 209.076 129.396 209.051 129.427C209.023 129.431 208.996 129.434 208.968 129.438C208.964 129.41 208.949 129.398 208.921 129.401C208.962 128.832 208.988 128.25 208.998 127.656C209.008 127.062 209.034 126.48 209.075 125.911C209.127 125.424 208.955 125.065 208.558 124.833C208.437 124.763 208.244 124.689 207.98 124.609C207.74 124.498 207.551 124.451 207.412 124.469C207.245 124.49 207.115 124.576 207.021 124.729C206.58 124.361 206.047 124.048 205.421 123.787C204.796 123.527 204.178 123.436 203.567 123.513C203.094 123.572 202.638 123.756 202.197 124.066C201.784 124.372 201.431 124.712 201.14 125.088C200.508 125.901 200.04 126.778 199.735 127.72C199.426 128.633 199.366 129.614 199.555 130.663C199.61 131.108 199.774 131.511 200.045 131.872C200.289 132.236 200.582 132.552 200.926 132.819C201.298 133.083 201.705 133.286 202.146 133.428C202.583 133.542 203.025 133.571 203.469 133.516C203.886 133.463 204.29 133.314 204.683 133.067C205.075 132.82 205.433 132.521 205.755 132.17C206.106 131.815 206.411 131.438 206.671 131.039C206.959 130.636 207.195 130.267 207.379 129.934C207.915 130.826 208.558 131.225 209.308 131.131C209.724 131.078 210.134 130.857 210.537 130.468C210.967 130.075 211.361 129.617 211.719 129.092C212.1 128.536 212.44 127.985 212.739 127.44C213.033 126.867 213.255 126.387 213.404 126.001C213.508 125.706 213.368 125.484 212.982 125.335Z" fill="#D3413B"/>
<path d="M219.205 124.761C219.063 124.747 218.968 124.784 218.921 124.873C218.898 124.932 218.866 125.034 218.824 125.178C218.589 126.242 218.192 127.223 217.632 128.121C217.098 128.989 216.46 129.811 215.72 130.586C215.692 130.589 215.663 130.578 215.632 130.552C215.538 130.168 215.431 129.784 215.309 129.402C215.216 129.017 215.136 128.631 215.07 128.244C214.956 127.355 214.855 126.464 214.768 125.572C214.71 124.678 214.651 123.783 214.592 122.888C214.509 120.871 214.524 118.858 214.639 116.849C214.753 114.841 214.909 112.828 215.107 110.811C215.13 110.471 215.078 110.223 214.95 110.067C214.82 109.882 214.609 109.734 214.316 109.622C214.2 109.577 214.127 109.556 214.099 109.559C213.988 109.569 213.898 109.663 213.831 109.838C213.429 111.199 213.11 112.553 212.875 113.898C212.64 115.243 212.478 116.623 212.391 118.038C212.294 119.651 212.255 121.273 212.273 122.903C212.315 124.502 212.457 126.106 212.698 127.715C212.799 128.183 212.919 128.692 213.057 129.241C213.195 129.79 213.398 130.291 213.667 130.743C213.933 131.167 214.263 131.515 214.655 131.787C215.075 132.055 215.591 132.16 216.204 132.1C216.65 132.057 217.1 131.76 217.553 131.21C218.006 130.659 218.409 130.029 218.762 129.32C219.14 128.58 219.433 127.834 219.642 127.082C219.847 126.303 219.927 125.676 219.881 125.202C219.895 125.06 219.829 124.954 219.681 124.884C219.562 124.811 219.403 124.77 219.205 124.761Z" fill="#D3413B"/>
<path d="M224.671 124.361C224.493 124.234 224.306 124.179 224.11 124.194C223.915 124.21 223.727 124.323 223.547 124.534C223.369 124.772 223.207 125.024 223.059 125.288C222.909 125.525 222.745 125.763 222.568 126.001C222.366 126.298 222.179 126.594 222.006 126.889C221.83 127.155 221.641 127.423 221.437 127.692C221.409 127.694 221.38 127.682 221.35 127.657C221.318 127.603 221.297 127.52 221.288 127.409C221.277 126.904 221.251 126.401 221.211 125.898C221.171 125.396 221.147 124.906 221.137 124.429C221.158 123.978 221.164 123.528 221.157 123.079C221.177 122.628 221.198 122.177 221.218 121.726C221.228 121.136 220.931 120.752 220.327 120.575C220.155 120.532 220.055 120.512 220.027 120.514C219.916 120.523 219.8 120.659 219.68 120.921C219.482 121.611 219.314 122.326 219.176 123.067C219.063 123.779 219.008 124.499 219.009 125.229C219.015 125.65 219.034 126.07 219.067 126.489C219.072 126.91 219.119 127.327 219.208 127.742C219.447 128.987 220.173 129.646 221.387 129.718C221.473 129.74 221.586 129.745 221.725 129.734C222.172 129.698 222.505 129.475 222.726 129.065C222.845 128.803 222.979 128.539 223.127 128.275C223.274 128.01 223.421 127.732 223.566 127.439C223.759 127.031 223.965 126.621 224.185 126.211C224.403 125.772 224.623 125.347 224.843 124.937C224.965 124.702 224.908 124.51 224.671 124.361ZM220.059 118.784C220.147 118.833 220.351 118.93 220.672 119.073C220.992 119.216 221.208 119.283 221.32 119.274C221.459 119.263 221.549 119.158 221.59 118.958C221.606 118.816 221.624 118.689 221.643 118.575C221.663 118.461 221.681 118.333 221.697 118.191C221.727 117.852 221.636 117.592 221.425 117.412C221.212 117.204 220.924 117.115 220.561 117.143C220.198 117.172 219.964 117.401 219.857 117.831C219.667 118.267 219.734 118.585 220.059 118.784Z" fill="#D3413B"/>
<path d="M230.295 123.966C229.786 124.947 229.272 125.843 228.754 126.656C228.235 127.44 227.516 128.151 226.596 128.789C226.435 128.937 226.26 129.059 226.068 129.153C225.903 129.218 225.712 129.312 225.494 129.436C225.334 129.052 225.245 128.692 225.227 128.356C225.237 128.019 225.276 127.695 225.344 127.383C225.405 126.959 225.534 126.475 225.73 125.932C225.952 125.36 226.217 124.813 226.526 124.292C226.863 123.769 227.246 123.328 227.676 122.969C228.106 122.61 228.572 122.417 229.076 122.39C229.383 122.374 229.653 122.444 229.886 122.6C230.146 122.754 230.313 122.984 230.385 123.288C230.454 123.537 230.424 123.763 230.295 123.966ZM236.913 123.448C236.739 123.345 236.624 123.295 236.569 123.298C236.485 123.302 236.376 123.378 236.244 123.525C235.747 124.197 235.22 124.841 234.664 125.46C234.134 126.049 233.546 126.598 232.9 127.109C232.792 127.171 232.724 127.217 232.697 127.246C232.669 127.248 232.641 127.249 232.613 127.251C232.612 127.223 232.597 127.209 232.569 127.211C232.652 126.646 232.719 126.067 232.772 125.476C232.825 124.884 232.892 124.306 232.975 123.74C233.061 123.259 232.916 122.888 232.537 122.628C232.421 122.55 232.234 122.462 231.976 122.363C231.745 122.235 231.56 122.175 231.42 122.182C231.252 122.191 231.116 122.268 231.012 122.414C230.598 122.015 230.089 121.664 229.484 121.359C228.879 121.055 228.269 120.919 227.654 120.951C227.178 120.976 226.709 121.127 226.247 121.404C225.813 121.68 225.437 121.994 225.12 122.347C224.431 123.113 223.901 123.954 223.528 124.871C223.155 125.76 223.024 126.734 223.136 127.794C223.16 128.241 223.294 128.655 223.538 129.034C223.755 129.416 224.025 129.752 224.349 130.043C224.701 130.333 225.091 130.565 225.521 130.738C225.95 130.884 226.387 130.945 226.835 130.921C227.254 130.899 227.669 130.779 228.078 130.561C228.487 130.343 228.865 130.071 229.212 129.744C229.587 129.416 229.919 129.062 230.207 128.682C230.524 128.301 230.786 127.95 230.993 127.631C231.463 128.559 232.075 129.004 232.83 128.964C233.25 128.942 233.674 128.751 234.104 128.392C234.562 128.031 234.987 127.602 235.382 127.104C235.803 126.577 236.181 126.052 236.518 125.53C236.854 124.979 237.11 124.517 237.286 124.143C237.411 123.856 237.287 123.625 236.913 123.448Z" fill="#D3413B"/>
<path d="M246.534 123.174C246.478 123.175 246.436 123.176 246.408 123.176C246.379 123.149 246.351 123.135 246.323 123.136C246.155 123.139 246.032 123.282 245.953 123.563C245.901 123.733 245.861 123.845 245.834 123.902C245.517 124.861 244.975 125.726 244.206 126.497C244.204 126.413 244.189 126.344 244.16 126.288C244.158 126.232 244.157 126.176 244.156 126.12C244.121 125.785 244.087 125.463 244.053 125.156C244.046 124.82 244.026 124.498 243.991 124.191C243.926 123.744 243.848 123.312 243.755 122.893C243.69 122.447 243.556 122.029 243.352 121.641C242.859 120.783 242.108 120.364 241.1 120.384C240.4 120.398 239.762 120.705 239.186 121.305C239.104 121.418 239.022 121.518 238.94 121.604C238.858 121.689 238.762 121.803 238.653 121.946C238.678 121.777 238.688 121.623 238.686 121.483C238.682 121.315 238.693 121.161 238.718 121.02C238.71 120.628 238.523 120.366 238.156 120.233C238.072 120.207 237.973 120.181 237.861 120.155C237.776 120.129 237.692 120.116 237.608 120.118C237.384 120.123 237.23 120.154 237.148 120.211C237.092 120.24 237.025 120.368 236.945 120.594C236.816 121.128 236.7 121.649 236.599 122.155C236.497 122.661 236.395 123.167 236.293 123.673C236.166 124.348 236.054 125.023 235.955 125.697C235.857 126.371 235.829 127.058 235.871 127.757C235.902 127.896 235.947 128.05 236.006 128.216C236.065 128.355 236.165 128.451 236.306 128.505C236.729 128.664 237.152 128.782 237.573 128.857C237.937 128.85 238.158 128.677 238.235 128.34C238.523 127.354 238.84 126.367 239.184 125.38C239.528 124.365 239.999 123.431 240.598 122.579C240.707 122.408 240.83 122.252 240.967 122.109C241.131 121.938 241.282 121.767 241.419 121.596C241.447 121.623 241.461 121.637 241.461 121.637C241.489 121.637 241.518 121.65 241.546 121.677C241.61 122.068 241.66 122.445 241.695 122.809C241.73 123.172 241.766 123.55 241.802 123.941C241.867 124.416 241.919 124.891 241.956 125.366C242.021 125.813 242.101 126.274 242.194 126.748C242.288 127.222 242.533 127.595 242.931 127.867C243.356 128.111 243.806 128.228 244.282 128.218C244.674 128.21 245.035 128.035 245.364 127.692C245.693 127.322 245.979 126.91 246.222 126.457C246.492 125.975 246.706 125.481 246.864 124.974C247.022 124.466 247.112 124.072 247.134 123.792C247.156 123.455 246.955 123.249 246.534 123.174Z" fill="#D3413B"/>
<path d="M270.809 121.813C270.807 121.84 270.791 121.867 270.761 121.894C270.761 121.894 270.76 121.907 270.759 121.935C270.333 123.254 269.8 124.495 269.16 125.658C268.522 126.794 267.707 127.848 266.715 128.819C266.624 128.925 266.458 129.097 266.218 129.333C266.007 129.543 265.768 129.752 265.502 129.958C265.235 130.165 264.97 130.357 264.705 130.536C264.47 130.688 264.269 130.759 264.101 130.748C264.018 130.742 263.889 130.565 263.716 130.216C263.346 129.462 263.103 128.702 262.986 127.936C262.871 127.142 262.911 126.345 263.105 125.544C263.257 124.965 263.462 124.418 263.722 123.902C264.009 123.388 264.403 122.952 264.905 122.593C264.966 122.513 265.054 122.462 265.167 122.442C265.281 122.422 265.396 122.387 265.511 122.339C265.559 122.454 265.608 122.57 265.656 122.685C265.706 122.773 265.727 122.887 265.717 123.026C265.691 123.418 265.61 123.777 265.476 124.105C265.37 124.434 265.194 124.745 264.95 125.037C264.855 125.199 264.874 125.327 265.008 125.42C265.194 125.573 265.357 125.654 265.497 125.664C265.776 125.683 265.98 125.57 266.109 125.326C266.391 124.896 266.65 124.38 266.887 123.779C267.083 123.371 267.03 122.919 266.726 122.421C266.496 122.097 266.203 121.852 265.85 121.688C265.498 121.496 265.126 121.387 264.735 121.36C264.009 121.311 263.362 121.534 262.796 122.029C262.259 122.498 261.857 123.046 261.59 123.674C261.043 124.703 260.791 125.739 260.833 126.78C260.905 127.795 261.159 128.809 261.596 129.821C261.936 130.601 262.417 131.167 263.039 131.518C263.659 131.897 264.373 132.127 265.181 132.21C265.908 132.259 266.639 132.028 267.375 131.516C268.137 131.034 268.851 130.437 269.517 129.724C270.184 128.983 270.769 128.223 271.271 127.443C271.802 126.637 272.185 125.961 272.418 125.415C272.681 124.844 272.903 124.255 273.085 123.65C273.266 123.045 273.446 122.454 273.625 121.876C273.659 121.794 273.678 121.726 273.681 121.67C273.715 121.588 273.789 121.537 273.902 121.516C274.696 121.401 275.475 121.286 276.241 121.169C277.007 121.052 277.772 120.936 278.538 120.819C278.905 120.787 279.218 120.724 279.477 120.63C279.937 120.464 280.012 120.189 279.701 119.803C279.31 119.355 278.864 119.115 278.361 119.081C276.93 119.068 275.549 119.158 274.217 119.348C274.298 118.568 274.378 117.802 274.456 117.049C274.537 116.269 274.605 115.473 274.66 114.663C274.684 113.879 274.666 113.106 274.606 112.344C274.575 111.556 274.444 110.79 274.214 110.044C274.271 110.02 274.33 109.982 274.39 109.93C275.511 109.528 276.784 109.179 278.207 108.883C279.66 108.56 280.988 108.439 282.189 108.52C282.413 108.535 282.76 108.587 283.231 108.674C283.73 108.764 284.227 108.896 284.72 109.07C285.215 109.215 285.652 109.399 286.03 109.621C286.41 109.815 286.632 110.055 286.697 110.34C286.743 110.483 286.856 110.687 287.035 110.952C287.215 111.189 287.375 111.312 287.515 111.321C287.683 111.333 287.746 111.225 287.705 110.997C287.73 110.634 287.667 110.321 287.516 110.058C287.302 109.483 286.887 108.977 286.271 108.543C285.683 108.11 285.02 107.743 284.283 107.44C283.545 107.138 282.789 106.905 282.015 106.74C281.27 106.549 280.632 106.436 280.101 106.4C279.319 106.347 278.503 106.377 277.653 106.488C276.806 106.571 275.954 106.71 275.099 106.905C274.272 107.101 273.442 107.34 272.609 107.62C271.806 107.875 271.044 108.146 270.323 108.434C269.66 108.698 269.024 108.964 268.417 109.232C267.811 109.472 267.191 109.724 266.555 109.99C266.41 110.065 266.252 110.124 266.08 110.169C265.909 110.213 265.737 110.258 265.566 110.302C265.583 110.051 265.643 109.788 265.745 109.515C265.848 109.241 265.978 108.983 266.135 108.741C266.291 108.499 266.46 108.286 266.641 108.102C266.822 107.917 266.999 107.789 267.172 107.716C267.166 107.8 267.148 107.869 267.116 107.923C267.045 108.143 267.02 108.31 267.04 108.423C267.088 108.539 267.206 108.673 267.392 108.826C267.526 108.919 267.621 108.968 267.677 108.971C267.816 108.981 267.935 108.891 268.032 108.701C268.38 108.107 268.322 107.513 267.857 106.921C267.492 106.503 267.115 106.281 266.723 106.255C266.36 106.23 266.017 106.319 265.695 106.522C265.373 106.725 265.074 106.985 264.8 107.304C264.554 107.624 264.334 107.974 264.14 108.354C263.976 108.707 263.855 109.036 263.779 109.34C263.698 109.699 263.73 110.066 263.873 110.441C264.018 110.787 264.22 111.124 264.478 111.45C264.767 111.75 265.1 112.011 265.478 112.233C265.858 112.427 266.229 112.536 266.592 112.561C266.9 112.582 267.281 112.537 267.738 112.428C268.194 112.318 268.581 112.204 268.898 112.085C269.444 111.897 269.963 111.694 270.455 111.474C270.974 111.257 271.494 111.039 272.014 110.822C272.072 110.798 272.129 110.788 272.185 110.791C272.242 110.767 272.3 110.743 272.358 110.719C272.354 110.775 272.351 110.817 272.349 110.845C272.375 110.874 272.388 110.903 272.386 110.931C272.453 112.423 272.382 113.892 272.172 115.337C271.99 116.784 271.725 118.226 271.375 119.662C271.37 119.745 271.294 119.825 271.149 119.899C270.864 119.964 270.579 120.029 270.294 120.094C270.038 120.133 269.768 120.185 269.483 120.25C269.198 120.315 269.118 120.463 269.242 120.696C269.371 120.873 269.514 121.037 269.672 121.189C269.86 121.313 270.035 121.424 270.197 121.519C270.389 121.588 270.594 121.672 270.812 121.771C270.812 121.771 270.811 121.785 270.809 121.813Z" fill="#D3413B"/>
<path d="M280.54 129.433C280.404 129.643 280.169 129.857 279.835 130.074C279.532 130.266 279.256 130.348 279.005 130.32C278.866 130.305 278.736 130.206 278.615 130.023C278.219 129.275 278.14 128.464 278.377 127.588C278.537 126.902 278.763 126.265 279.053 125.677C279.371 125.092 279.822 124.579 280.406 124.136C280.468 124.086 280.62 123.991 280.861 123.848C281.102 123.706 281.278 123.641 281.389 123.653C281.501 123.665 281.561 123.756 281.571 123.926C281.589 124.013 281.642 124.174 281.729 124.409C281.5 124.44 281.367 124.496 281.33 124.576C281.296 124.629 281.296 124.755 281.33 124.956C281.55 125.77 281.591 126.549 281.452 127.294C281.314 128.039 281.01 128.752 280.54 129.433ZM287.658 126.585C287.618 126.44 287.517 126.33 287.356 126.256C287.226 126.157 287.078 126.098 286.911 126.08C286.8 126.067 286.715 126.072 286.656 126.094C286.276 126.221 285.898 126.32 285.524 126.391C285.181 126.438 284.815 126.44 284.425 126.397C284.286 126.381 284.147 126.366 284.007 126.351C283.899 126.311 283.777 126.269 283.641 126.226C283.502 126.21 283.358 126.11 283.209 125.925L282.568 124.84C282.816 124.642 282.935 124.457 282.925 124.287C282.947 124.093 282.862 123.844 282.67 123.541C282.397 123.201 282.052 122.881 281.635 122.581C281.22 122.254 280.79 122.065 280.345 122.016C279.816 121.958 279.323 122.087 278.865 122.402C278.436 122.721 278.04 123.114 277.679 123.581C277.345 124.052 277.076 124.571 276.873 125.14C276.644 125.679 276.507 126.156 276.461 126.574C276.218 128.519 276.921 130.062 278.57 131.202C278.991 131.474 279.382 131.629 279.744 131.669C280.356 131.737 280.862 131.624 281.26 131.33C281.687 131.039 282.025 130.654 282.275 130.174C282.553 129.698 282.765 129.186 282.91 128.638C283.086 128.066 283.212 127.559 283.289 127.117L283.456 127.135C283.914 127.326 284.324 127.442 284.685 127.482C285.103 127.528 285.513 127.517 285.915 127.449C286.344 127.384 286.765 127.275 287.176 127.123C287.263 127.105 287.399 127.021 287.584 126.872C287.677 126.798 287.701 126.702 287.658 126.585Z" fill="#D3413B"/>
<path d="M290.23 130.734C290.088 130.94 289.847 131.146 289.507 131.353C289.199 131.536 288.92 131.61 288.67 131.575C288.532 131.556 288.405 131.453 288.289 131.268C287.915 130.508 287.859 129.695 288.122 128.827C288.302 128.145 288.546 127.515 288.854 126.936C289.189 126.36 289.654 125.86 290.251 125.435C290.314 125.387 290.469 125.296 290.714 125.16C290.959 125.025 291.137 124.965 291.248 124.981C291.359 124.996 291.417 125.089 291.421 125.259C291.437 125.346 291.485 125.509 291.565 125.746C291.335 125.77 291.201 125.822 291.161 125.902C291.126 125.953 291.122 126.08 291.151 126.282C291.347 127.101 291.365 127.881 291.205 128.622C291.044 129.363 290.719 130.067 290.23 130.734ZM297.428 128.094C297.392 127.948 297.295 127.835 297.136 127.756C297.009 127.654 296.863 127.591 296.696 127.567C296.585 127.552 296.5 127.554 296.441 127.574C296.057 127.69 295.677 127.778 295.301 127.839C294.957 127.875 294.59 127.866 294.202 127.812C294.063 127.792 293.925 127.773 293.786 127.754C293.679 127.71 293.558 127.665 293.423 127.618C293.285 127.599 293.144 127.494 293.001 127.304L292.392 126.201C292.645 126.01 292.769 125.83 292.765 125.66C292.792 125.465 292.714 125.214 292.531 124.906C292.268 124.558 291.933 124.228 291.524 123.917C291.119 123.577 290.695 123.376 290.251 123.314C289.724 123.24 289.228 123.355 288.761 123.657C288.323 123.963 287.916 124.344 287.541 124.801C287.194 125.261 286.91 125.773 286.69 126.336C286.446 126.867 286.294 127.341 286.236 127.757C285.937 129.694 286.594 131.256 288.209 132.444C288.622 132.728 289.009 132.895 289.369 132.946C289.979 133.031 290.488 132.933 290.895 132.65C291.33 132.372 291.679 131.997 291.943 131.525C292.235 131.057 292.461 130.551 292.622 130.008C292.815 129.441 292.956 128.938 293.046 128.498L293.212 128.521C293.664 128.726 294.07 128.854 294.431 128.904C294.847 128.962 295.257 128.963 295.66 128.907C296.092 128.854 296.515 128.758 296.931 128.618C297.018 128.602 297.156 128.522 297.346 128.379C297.441 128.308 297.468 128.213 297.428 128.094Z" fill="#D3413B"/>
<path d="M297.442 133.362C297.412 133.044 297.412 132.717 297.442 132.382C297.499 132.05 297.582 131.738 297.69 131.444C297.991 130.53 298.43 129.64 299.007 128.774C299.611 127.913 300.384 127.308 301.326 126.96C301.483 126.874 301.617 126.84 301.727 126.859C301.81 126.874 301.915 127.006 302.042 127.255C302.078 127.375 302.1 127.493 302.109 127.608C302.145 127.728 302.18 127.848 302.216 127.968C302.251 128.258 302.289 128.449 302.33 128.542C302.375 128.606 302.508 128.743 302.728 128.952C302.071 129.946 301.331 130.855 300.506 131.678C299.713 132.478 298.692 133.039 297.442 133.362ZM309.66 130.029C309.509 129.918 309.364 129.85 309.226 129.826C309.006 129.788 308.816 129.897 308.658 130.153C308.346 130.639 307.998 131.09 307.613 131.506C307.228 131.923 306.795 132.288 306.314 132.602C306.152 132.716 305.978 132.814 305.794 132.896C305.636 132.982 305.463 133.08 305.274 133.189C305.27 133.046 305.25 132.915 305.214 132.795C305.117 132.21 305.105 131.625 305.178 131.041C305.251 130.456 305.338 129.875 305.439 129.295C305.687 128.031 305.988 126.79 306.342 125.573C306.7 124.328 307.1 123.09 307.542 121.859C307.936 120.734 308.331 119.609 308.725 118.484C309.148 117.363 309.57 116.243 309.992 115.123C310.292 114.379 310.058 113.841 309.292 113.509L309.168 113.487C309.03 113.463 308.908 113.513 308.801 113.637C308.712 113.82 308.612 113.987 308.5 114.139C308.389 114.29 308.289 114.457 308.2 114.641C307.15 116.59 306.202 118.613 305.354 120.711C304.511 122.782 303.803 124.89 303.231 127.036C302.912 126.582 302.542 126.177 302.121 125.819C301.732 125.439 301.248 125.199 300.669 125.098C299.924 124.969 299.177 125.18 298.427 125.732C296.599 127.091 295.525 128.936 295.205 131.268C295.092 132.243 295.289 133.073 295.795 133.758C296.329 134.448 297.065 134.874 298.003 135.037C298.803 135.176 299.499 135.013 300.092 134.548C300.712 134.087 301.268 133.587 301.76 133.047C301.936 132.85 302.099 132.651 302.247 132.45C302.424 132.253 302.602 132.042 302.783 131.818C302.819 131.938 302.851 132.086 302.877 132.261C303.227 133.515 304.074 134.288 305.416 134.578C305.912 134.664 306.385 134.562 306.834 134.27C307.282 133.979 307.688 133.609 308.05 133.16C308.44 132.716 308.777 132.249 309.061 131.758C309.378 131.245 309.622 130.818 309.795 130.479C309.884 130.295 309.839 130.146 309.66 130.029Z" fill="#D3413B"/>
</svg>
