<svg width="490" height="256" viewBox="0 0 490 256" fill="none" xmlns="http://www.w3.org/2000/svg">
<path d="M98.8304 143.081L112.621 202.747C112.756 203.33 112.666 203.872 112.353 204.374C112.039 204.876 111.591 205.194 111.009 205.328L97.8178 208.377C97.2354 208.512 96.6932 208.422 96.1913 208.109C95.6894 207.796 95.3712 207.348 95.2366 206.765L88.735 178.636C88.6004 178.053 88.2643 177.794 87.7267 177.856C87.1891 177.919 86.7994 178.224 86.5576 178.771L77.3532 205.837C77.1697 206.37 76.7576 206.711 76.117 206.859C75.4764 207.007 74.9275 206.889 74.4704 206.503L54.3223 186.221C53.9234 185.823 53.4686 185.713 52.9579 185.893C52.4472 186.072 52.2592 186.453 52.3938 187.035L58.8954 215.165C59.03 215.747 58.9406 216.289 58.6271 216.791C58.3137 217.293 57.8657 217.611 57.2833 217.746L44.0922 220.795C43.5098 220.929 42.9676 220.84 42.4657 220.527C41.9638 220.213 41.6456 219.765 41.511 219.183L27.7204 159.517C27.5858 158.934 27.6752 158.392 27.9887 157.89C28.3021 157.388 28.75 157.07 29.3324 156.936L41.5627 154.109C42.145 153.974 42.7969 154.008 43.5183 154.209C44.2397 154.41 44.7999 154.71 45.1987 155.109L67.6655 175.867C68.1226 176.253 68.5842 176.391 69.0501 176.284C69.516 176.176 69.8407 175.855 70.0242 175.322L81.1032 146.81C81.3449 146.264 81.7457 145.742 82.3056 145.244C82.8655 144.747 83.4366 144.431 84.019 144.296L96.2492 141.469C96.8316 141.335 97.3737 141.424 97.8756 141.737C98.3775 142.051 98.6958 142.499 98.8304 143.081Z" fill="#D3413B"/>
<path d="M140.309 136.976C140.483 136.413 140.817 135.923 141.309 135.503C141.853 135.018 142.452 134.736 143.105 134.659L155.571 133.188C156.165 133.118 156.753 133.259 157.337 133.611C157.972 133.897 158.44 134.294 158.741 134.8L191.889 192.28C192.189 192.787 192.197 193.358 191.911 193.993C191.684 194.622 191.096 194.992 190.146 195.104L174.919 196.902C174.266 196.979 173.622 196.874 172.986 196.588C172.403 196.236 171.931 195.81 171.572 195.311L168.537 190.252C168.177 189.753 167.679 189.36 167.043 189.074C166.46 188.721 165.872 188.58 165.278 188.65L146.49 190.868C145.837 190.945 145.238 191.226 144.693 191.712C144.201 192.131 143.868 192.622 143.694 193.184L141.831 198.821C141.657 199.383 141.297 199.907 140.753 200.393C140.26 200.812 139.717 201.057 139.124 201.127L123.808 202.935C123.511 202.97 123.208 202.946 122.897 202.862C122.527 202.785 122.239 202.639 122.032 202.422C121.767 202.213 121.583 201.933 121.482 201.584C121.381 201.235 121.421 200.809 121.602 200.306L140.309 136.976ZM150.135 175.089L158.06 174.154C158.653 174.084 159.048 173.857 159.243 173.473C159.491 173.022 159.435 172.547 159.075 172.048C158.306 170.634 157.391 168.996 156.328 167.136C155.259 165.215 154.267 163.437 153.351 161.799C153.05 161.293 152.752 161.057 152.455 161.092C152.158 161.127 151.923 161.426 151.748 161.988L148.568 173.288C148.393 173.85 148.449 174.325 148.736 174.713C149.015 175.041 149.482 175.166 150.135 175.089Z" fill="#D3413B"/>
<path d="M215.794 194.226L202.438 194.537C201.84 194.551 201.327 194.354 200.899 193.946C200.471 193.537 200.25 193.034 200.236 192.436L198.808 131.124C198.794 130.527 198.991 130.014 199.4 129.586C199.808 129.158 200.311 128.937 200.909 128.923L228.786 128.273C232.252 128.193 235.463 128.716 238.419 129.843C241.374 130.91 243.891 132.465 245.972 134.51C248.112 136.552 249.783 138.995 250.986 141.837C252.248 144.677 252.919 147.831 253 151.297C253.044 153.209 252.85 155.127 252.416 157.05C252.041 158.912 251.455 160.69 250.657 162.383C249.859 164.075 248.909 165.622 247.806 167.023C246.701 168.364 245.442 169.5 244.028 170.429C243.559 170.799 243.241 171.255 243.074 171.797C242.965 172.278 243.096 172.753 243.466 173.223C245.806 176.158 248.268 179.18 250.852 182.288C253.436 185.397 255.744 188.243 257.777 190.827C258.147 191.296 258.249 191.832 258.084 192.434C257.917 192.976 257.535 193.254 256.937 193.268L240.265 193.656C239.667 193.67 239.006 193.536 238.282 193.254C237.617 192.911 237.099 192.504 236.729 192.034C234.758 189.569 232.787 187.074 230.815 184.549C228.902 182.022 226.989 179.466 225.076 176.88C224.706 176.41 224.189 176.034 223.525 175.75C222.859 175.407 222.227 175.242 221.63 175.256L219.658 175.302C219.06 175.316 218.557 175.537 218.149 175.965C217.74 176.393 217.543 176.906 217.557 177.504L217.895 192.025C217.909 192.622 217.712 193.135 217.303 193.563C216.894 193.991 216.391 194.212 215.794 194.226ZM219.273 158.809L228.775 158.587C229.492 158.571 230.236 158.434 231.008 158.177C231.777 157.86 232.485 157.425 233.13 156.872C233.773 156.259 234.294 155.529 234.693 154.683C235.092 153.836 235.278 152.846 235.251 151.71C235.238 151.113 235.102 150.428 234.845 149.657C234.646 148.824 234.269 148.056 233.715 147.351C233.219 146.586 232.517 145.974 231.609 145.517C230.76 144.999 229.708 144.754 228.453 144.783L218.952 145.005C218.354 145.019 217.851 145.24 217.443 145.668C217.034 146.096 216.837 146.609 216.851 147.206L217.072 156.708C217.086 157.305 217.307 157.808 217.735 158.217C218.163 158.625 218.676 158.823 219.273 158.809Z" fill="#D3413B"/>
<path d="M282.788 194.714L269.262 194.121C268.605 194.092 268.077 193.86 267.677 193.423C267.337 192.99 267.181 192.474 267.207 191.877L269.889 130.697C269.915 130.1 270.116 129.6 270.493 129.198C270.929 128.798 271.476 128.613 272.133 128.641L285.659 129.234C286.256 129.26 286.754 129.492 287.154 129.928C287.554 130.364 287.74 130.881 287.714 131.478L285.032 192.658C285.006 193.256 284.775 193.754 284.338 194.154C283.902 194.553 283.385 194.74 282.788 194.714Z" fill="#D3413B"/>
<path d="M299.601 162.091C300.148 157.46 301.553 153.202 303.818 149.317C306.082 145.431 308.907 142.153 312.292 139.483C315.683 136.753 319.532 134.74 323.839 133.442C328.145 132.145 332.613 131.77 337.243 132.316C341.874 132.863 346.132 134.268 350.017 136.533C353.903 138.797 357.178 141.651 359.841 145.095C362.57 148.487 364.584 152.336 365.881 156.642C367.179 160.949 367.554 165.417 367.007 170.047C366.461 174.677 365.055 178.935 362.791 182.821C360.527 186.707 357.669 190.011 354.218 192.734C350.833 195.404 346.987 197.388 342.681 198.685C338.375 199.982 333.907 200.358 329.276 199.811C324.646 199.265 320.388 197.859 316.502 195.595C312.616 193.33 309.339 190.506 306.668 187.121C304.005 183.677 302.025 179.802 300.728 175.495C299.43 171.189 299.055 166.721 299.601 162.091ZM317.232 164.172C316.966 166.428 317.129 168.614 317.722 170.73C318.315 172.846 319.232 174.76 320.475 176.472C321.777 178.191 323.351 179.64 325.198 180.821C327.052 181.943 329.077 182.634 331.273 182.893C333.47 183.152 335.6 182.952 337.664 182.293C339.735 181.574 341.604 180.531 343.27 179.163C344.936 177.795 346.304 176.15 347.373 174.23C348.443 172.31 349.11 170.222 349.377 167.966C349.636 165.77 349.469 163.613 348.876 161.497C348.291 159.321 347.343 157.404 346.034 155.744C344.732 154.026 343.155 152.606 341.301 151.484C339.454 150.303 337.432 149.583 335.236 149.323C333.039 149.064 330.906 149.294 328.835 150.012C326.771 150.672 324.905 151.685 323.239 153.054C321.639 154.369 320.301 156.017 319.225 157.997C318.156 159.917 317.491 161.975 317.232 164.172Z" fill="#D3413B"/>
<path d="M383.678 166.79C383.105 166.926 382.512 166.845 381.899 166.547C381.297 166.191 380.864 165.745 380.6 165.209L379.444 162.62C379.238 162.095 379.22 161.544 379.389 160.967C379.558 160.391 379.916 159.941 380.463 159.618C381.22 159.152 381.888 158.669 382.469 158.17C383.108 157.682 383.717 157.188 384.298 156.689C384.739 156.285 384.886 155.826 384.739 155.312C384.592 154.798 384.317 154.321 383.913 153.88C383.036 153.046 382.443 151.992 382.135 150.718C381.827 149.444 381.741 148.12 381.877 146.747C382.234 144.198 383.424 142.232 385.448 140.849C387.482 139.406 389.744 138.858 392.234 139.204C393.713 139.421 395.015 139.939 396.138 140.758C397.273 141.518 398.158 142.475 398.792 143.628C399.497 144.734 399.963 145.977 400.19 147.357C400.418 148.738 400.393 150.163 400.118 151.631C399.39 155.509 397.652 158.771 394.905 161.418C392.168 164.006 388.426 165.796 383.678 166.79Z" fill="#D3413B"/>
<path d="M410.179 189.344C412.803 192.156 415.507 194.526 418.291 196.454C421.075 198.382 423.801 199.679 426.468 200.346C429.02 200.983 431.049 201.121 432.557 200.758C434.079 200.338 435.022 199.402 435.384 197.953C435.572 197.199 435.427 196.546 434.949 195.995C434.485 195.387 433.796 194.814 432.883 194.278C432.027 193.756 430.983 193.249 429.751 192.756C428.519 192.263 427.272 191.705 426.01 191.082C424.793 190.531 423.35 189.893 421.683 189.169C420.088 188.4 418.464 187.502 416.811 186.473C415.173 185.386 413.571 184.153 412.005 182.776C410.497 181.414 409.228 179.834 408.199 178.036C407.169 176.239 406.466 174.245 406.089 172.056C405.784 169.824 405.972 167.345 406.653 164.619C407.653 160.618 409.262 157.508 411.48 155.289C413.698 153.071 416.184 151.505 418.938 150.591C421.765 149.634 424.73 149.235 427.832 149.394C430.949 149.495 433.9 149.894 436.683 150.589C441.555 151.807 445.723 153.618 449.188 156.024C452.726 158.387 455.923 161.373 458.779 164.983C459.141 165.505 459.279 166.063 459.192 166.657C459.105 167.252 458.83 167.737 458.366 168.114L449.168 176.074C448.705 176.451 448.168 176.625 447.559 176.596C446.95 176.568 446.457 176.321 446.08 175.857C443.587 173.262 441.158 171.269 438.795 169.878C436.446 168.428 434.199 167.436 432.053 166.899C431.415 166.74 430.654 166.581 429.77 166.421C428.958 166.218 428.146 166.139 427.334 166.182C426.537 166.168 425.819 166.327 425.181 166.661C424.602 167.009 424.21 167.589 424.007 168.401C423.804 169.213 424.232 170.09 425.291 171.032C426.349 171.974 427.603 172.873 429.053 173.728C430.503 174.583 431.916 175.337 433.294 175.989C434.686 176.583 435.577 176.96 435.969 177.12C437.955 178.047 440.093 179.229 442.384 180.664C444.689 182.041 446.719 183.78 448.474 185.882C450.301 187.94 451.627 190.398 452.454 193.253C453.353 196.066 453.339 199.328 452.412 203.039C451.542 206.519 450.18 209.382 448.324 211.629C446.483 213.819 444.258 215.45 441.649 216.523C439.097 217.611 436.183 218.176 432.907 218.22C429.703 218.221 426.245 217.757 422.534 216.83C419.518 216.076 416.771 215.112 414.292 213.938C411.798 212.822 409.529 211.547 407.485 210.112C405.441 208.677 403.577 207.133 401.896 205.48C400.286 203.784 398.836 202.067 397.546 200.327C397.169 199.863 397.024 199.334 397.111 198.74C397.212 198.087 397.495 197.573 397.959 197.196L407.069 189.214C407.533 188.837 408.07 188.663 408.678 188.692C409.287 188.721 409.788 188.938 410.179 189.344Z" fill="#D3413B"/>
<path d="M309.82 242.121C309.581 242.205 309.347 242.242 309.117 242.23C308.887 242.219 308.654 242.188 308.42 242.139C308.565 241.913 308.73 241.77 308.914 241.71C309.114 241.63 309.325 241.558 309.547 241.494C309.622 241.485 309.698 241.477 309.773 241.468C309.886 241.455 309.98 241.444 310.055 241.435C310.21 241.456 310.29 241.485 310.294 241.522C310.345 241.631 310.345 241.717 310.295 241.78C310.145 241.969 309.987 242.082 309.82 242.121ZM316.041 241.975C316.165 241.732 316.112 241.518 315.881 241.335C315.839 241.302 315.759 241.273 315.642 241.248C315.546 241.24 315.449 241.232 315.353 241.224C315.274 241.195 315.196 241.185 315.121 241.194C314.455 241.042 313.791 240.909 313.129 240.794C312.505 240.676 311.86 240.54 311.193 240.388L310.973 240.213C310.783 239.892 310.604 239.579 310.435 239.274C310.283 238.948 310.112 238.625 309.923 238.303C309.779 238.053 309.728 237.858 309.769 237.72C309.832 237.598 309.967 237.449 310.176 237.272C310.301 237.201 310.437 237.137 310.583 237.082C310.746 237.006 310.978 236.951 311.279 236.916C311.597 236.86 311.909 236.834 312.214 236.837C312.536 236.819 312.844 236.84 313.137 236.902C313.431 236.963 313.651 237.052 313.798 237.169C313.903 237.252 313.956 237.38 313.956 237.551C313.969 237.664 314.06 237.787 314.228 237.921C314.416 237.899 314.577 237.804 314.71 237.636C314.793 237.531 314.824 237.384 314.802 237.196C314.788 236.74 314.688 236.37 314.503 236.086C314.338 235.819 314.098 235.561 313.783 235.311C313.28 234.911 312.743 234.639 312.173 234.495C311.62 234.33 311.012 234.276 310.351 234.333C309.121 234.418 308.457 235.105 308.357 236.395C308.268 237.111 308.365 237.787 308.649 238.422C308.932 239.057 309.242 239.679 309.579 240.288C309.358 240.352 309.155 240.414 308.971 240.473C308.787 240.533 308.603 240.592 308.42 240.651C307.818 240.892 307.546 241.344 307.603 242.005C307.685 242.72 308 243.294 308.546 243.727C309.008 244.093 309.552 244.269 310.18 244.254C311.135 244.258 311.624 243.791 311.65 242.854C311.661 242.624 311.635 242.398 311.571 242.176C311.545 241.95 311.528 241.714 311.518 241.467C311.945 241.532 312.383 241.605 312.831 241.687C313.317 241.765 313.792 241.834 314.257 241.895C314.509 241.923 314.76 241.951 315.011 241.979C315.283 242.024 315.556 242.069 315.828 242.114C315.941 242.101 316.012 242.055 316.041 241.975Z" fill="#D3413B"/>
<path d="M189.597 242.327C189.358 242.426 189.296 242.636 189.411 242.957C189.555 243.444 189.788 243.715 190.111 243.771C190.434 243.827 190.802 243.818 191.216 243.744C191.802 243.525 192.375 243.309 192.934 243.095C193.498 242.909 194.074 242.707 194.661 242.488C194.871 242.394 195.082 242.299 195.292 242.204C195.508 242.137 195.724 242.07 195.939 242.003C196.132 241.969 196.211 241.855 196.177 241.662C196.095 241.364 195.936 241.108 195.698 240.895C195.461 240.681 195.202 240.585 194.922 240.607C194.636 240.601 194.369 240.62 194.121 240.664C193.873 240.709 193.611 240.756 193.336 240.805C193.087 240.849 192.93 240.764 192.863 240.548C192.38 239.44 191.937 238.31 191.532 237.159C191.154 236.003 190.832 234.838 190.565 233.662C190.056 231.449 189.588 229.229 189.161 227.001C188.762 224.768 188.459 222.518 188.253 220.251C188.195 219.607 188.155 218.988 188.134 218.395C188.136 217.769 188.135 217.129 188.132 216.475C188.148 216.245 188.25 216.098 188.438 216.036C188.649 215.942 188.859 215.847 189.07 215.753C189.308 215.653 189.546 215.554 189.785 215.454C190.078 215.345 190.344 215.24 190.582 215.141C190.848 215.037 191.132 214.957 191.436 214.903C191.573 214.878 191.697 214.856 191.808 214.837C191.946 214.812 192.088 214.815 192.236 214.845C192.264 214.84 192.28 214.852 192.285 214.879C192.312 214.874 192.34 214.869 192.367 214.864C192.505 214.84 192.527 214.722 192.432 214.512C192.276 214.113 191.971 213.84 191.518 213.694C191.028 213.497 190.507 213.448 189.956 213.546C189.294 213.665 188.59 213.862 187.842 214.137C187.118 214.381 186.389 214.682 185.657 215.04C184.952 215.394 184.269 215.786 183.606 216.218C182.971 216.644 182.413 217.099 181.93 217.584C181.767 217.784 181.76 217.984 181.91 218.185C182.059 218.386 182.234 218.568 182.434 218.731C182.657 218.862 182.919 218.9 183.223 218.846C183.305 218.831 183.424 218.782 183.58 218.697C183.868 218.56 184.141 218.412 184.397 218.252C184.68 218.088 184.964 217.923 185.247 217.759C185.325 217.717 185.391 217.69 185.446 217.681C185.524 217.638 185.602 217.596 185.68 217.554L185.702 217.678C185.666 218.907 185.698 220.125 185.8 221.33C185.929 222.53 186.072 223.727 186.229 224.922C186.455 226.503 186.706 228.066 186.982 229.609C187.28 231.121 187.639 232.649 188.058 234.196C188.405 235.499 188.804 236.779 189.256 238.035C189.703 239.264 190.325 240.433 191.121 241.542L189.597 242.327Z" fill="#D3413B"/>
<path d="M200.448 221.354C200.07 220.931 199.67 220.723 199.246 220.732C198.846 220.709 198.411 220.734 197.94 220.806L196.488 221.031C196.326 221.084 196.162 221.123 195.996 221.149C195.83 221.175 195.666 221.214 195.504 221.268C195.519 221.18 195.52 221.095 195.507 221.012C195.586 220.603 195.65 220.197 195.701 219.792C195.748 219.36 195.796 218.942 195.847 218.537C195.858 218.422 195.823 218.286 195.742 218.128C195.437 217.807 195.063 217.681 194.621 217.749C194.45 217.747 194.334 217.821 194.273 217.973C194.234 218.092 194.198 218.225 194.164 218.372C194.02 218.904 193.891 219.448 193.779 220.004C193.69 220.528 193.573 221.056 193.429 221.588C193.403 221.79 193.335 221.9 193.224 221.917C192.794 222.069 192.378 222.218 191.976 222.365C191.546 222.516 191.1 222.656 190.638 222.784L190.348 222.829C190.209 222.85 190.083 222.856 189.968 222.845C189.825 222.839 189.69 222.789 189.562 222.695C189.494 222.621 189.418 222.59 189.335 222.603C189.248 222.588 189.163 222.587 189.08 222.6C188.969 222.617 188.902 222.642 188.879 222.673C188.845 222.82 188.859 222.917 188.923 222.964C189.383 223.375 189.808 223.649 190.198 223.787C190.588 223.925 191.129 223.941 191.82 223.834C192.291 223.761 192.741 223.649 193.171 223.498C193.207 223.549 193.225 223.575 193.225 223.575C193.132 224.439 193.094 225.295 193.112 226.142C193.157 226.985 193.202 227.828 193.248 228.671C193.329 229.934 193.45 231.176 193.611 232.398C193.799 233.616 194.058 234.836 194.389 236.06C194.5 236.411 194.627 236.774 194.769 237.149C194.94 237.519 195.146 237.842 195.386 238.116C195.627 238.391 195.917 238.615 196.255 238.79C196.59 238.936 196.978 238.975 197.421 238.907C197.919 238.83 198.358 238.55 198.736 238.066C199.143 237.579 199.481 237.016 199.751 236.38C200.021 235.743 200.233 235.101 200.388 234.454C200.567 233.774 200.668 233.235 200.691 232.834C200.708 232.577 200.668 232.413 200.572 232.343C200.472 232.245 200.307 232.185 200.077 232.164C199.796 232.179 199.64 232.359 199.608 232.704C199.557 233.109 199.457 233.563 199.309 234.068C199.16 234.572 198.981 235.068 198.773 235.553C198.56 236.011 198.318 236.459 198.046 236.898C197.769 237.309 197.454 237.655 197.101 237.936C197.02 237.779 196.941 237.635 196.865 237.505C196.811 237.344 196.76 237.196 196.711 237.062C196.579 236.572 196.446 236.082 196.314 235.593C196.21 235.099 196.103 234.591 195.994 234.07C195.599 231.694 195.358 229.309 195.271 226.914C195.256 226.264 195.254 225.613 195.267 224.959C195.279 224.306 195.305 223.65 195.345 222.992C195.315 222.798 195.384 222.689 195.55 222.663C196.141 222.458 196.735 222.267 197.331 222.09C197.923 221.886 198.517 221.695 199.113 221.518L199.32 221.486C199.514 221.456 199.679 221.515 199.815 221.664C199.86 221.771 199.956 221.841 200.103 221.875C200.218 221.885 200.317 221.884 200.4 221.871C200.483 221.859 200.582 221.857 200.697 221.868C200.656 221.789 200.614 221.697 200.569 221.59C200.552 221.48 200.511 221.401 200.448 221.354Z" fill="#D3413B"/>
<path d="M206.418 231.324C205.981 232.339 205.534 233.27 205.076 234.118C204.615 234.938 203.948 235.699 203.077 236.401C202.928 236.561 202.761 236.695 202.577 236.803C202.417 236.879 202.233 236.987 202.025 237.126C201.837 236.754 201.722 236.402 201.68 236.069C201.666 235.732 201.682 235.405 201.727 235.089C201.758 234.662 201.851 234.17 202.007 233.614C202.187 233.027 202.413 232.463 202.683 231.921C202.981 231.375 203.332 230.908 203.735 230.519C204.137 230.129 204.589 229.903 205.089 229.84C205.394 229.802 205.669 229.852 205.912 229.991C206.183 230.126 206.365 230.343 206.459 230.642C206.546 230.885 206.533 231.112 206.418 231.324ZM212.982 230.33C212.801 230.24 212.683 230.198 212.628 230.205C212.544 230.216 212.442 230.299 212.32 230.456C211.873 231.161 211.394 231.842 210.884 232.499C210.398 233.124 209.851 233.715 209.244 234.271C209.14 234.341 209.076 234.391 209.051 234.422C209.024 234.426 208.996 234.429 208.968 234.433C208.964 234.405 208.949 234.393 208.921 234.396C208.962 233.827 208.988 233.245 208.998 232.651C209.008 232.057 209.034 231.475 209.075 230.906C209.127 230.419 208.955 230.06 208.558 229.828C208.437 229.758 208.244 229.684 207.98 229.604C207.74 229.493 207.551 229.446 207.412 229.464C207.245 229.485 207.115 229.572 207.021 229.725C206.58 229.357 206.047 229.043 205.421 228.783C204.796 228.523 204.178 228.431 203.567 228.508C203.094 228.567 202.638 228.752 202.197 229.061C201.784 229.367 201.431 229.707 201.14 230.083C200.508 230.896 200.04 231.773 199.735 232.715C199.426 233.628 199.366 234.61 199.555 235.658C199.61 236.103 199.774 236.506 200.045 236.867C200.288 237.231 200.582 237.547 200.926 237.814C201.298 238.078 201.705 238.281 202.146 238.423C202.583 238.537 203.025 238.567 203.469 238.511C203.886 238.458 204.29 238.309 204.683 238.062C205.075 237.815 205.433 237.516 205.755 237.165C206.106 236.811 206.411 236.433 206.671 236.034C206.959 235.631 207.195 235.262 207.379 234.929C207.915 235.821 208.558 236.22 209.308 236.126C209.724 236.073 210.134 235.853 210.537 235.463C210.967 235.071 211.361 234.612 211.719 234.087C212.1 233.531 212.44 232.98 212.739 232.435C213.033 231.862 213.255 231.382 213.404 230.997C213.508 230.701 213.368 230.479 212.982 230.33Z" fill="#D3413B"/>
<path d="M219.205 229.757C219.063 229.742 218.968 229.78 218.921 229.869C218.898 229.927 218.866 230.029 218.824 230.173C218.589 231.237 218.192 232.218 217.632 233.117C217.098 233.984 216.46 234.806 215.72 235.581C215.692 235.584 215.663 235.573 215.632 235.548C215.538 235.163 215.431 234.779 215.309 234.397C215.216 234.012 215.136 233.626 215.07 233.239C214.956 232.35 214.855 231.459 214.768 230.567C214.71 229.673 214.651 228.778 214.592 227.884C214.509 225.866 214.524 223.853 214.639 221.844C214.753 219.836 214.909 217.823 215.107 215.806C215.13 215.466 215.078 215.218 214.95 215.062C214.82 214.878 214.609 214.729 214.316 214.617C214.2 214.572 214.127 214.551 214.099 214.554C213.988 214.565 213.898 214.658 213.831 214.833C213.429 216.194 213.11 217.548 212.875 218.893C212.64 220.238 212.478 221.618 212.391 223.033C212.294 224.646 212.255 226.268 212.273 227.898C212.315 229.497 212.457 231.101 212.698 232.71C212.799 233.178 212.919 233.687 213.057 234.236C213.195 234.786 213.398 235.286 213.667 235.738C213.933 236.163 214.263 236.511 214.655 236.782C215.075 237.051 215.591 237.155 216.204 237.096C216.65 237.052 217.1 236.755 217.553 236.205C218.006 235.655 218.409 235.025 218.762 234.315C219.14 233.575 219.433 232.829 219.642 232.077C219.847 231.298 219.927 230.671 219.881 230.197C219.895 230.055 219.829 229.949 219.681 229.879C219.562 229.806 219.403 229.766 219.205 229.757Z" fill="#D3413B"/>
<path d="M224.671 229.356C224.493 229.229 224.306 229.174 224.11 229.189C223.915 229.205 223.727 229.318 223.547 229.529C223.369 229.768 223.207 230.019 223.059 230.284C222.909 230.52 222.745 230.758 222.568 230.997C222.366 231.293 222.179 231.589 222.006 231.884C221.83 232.15 221.641 232.418 221.437 232.687C221.409 232.689 221.38 232.678 221.35 232.652C221.318 232.598 221.297 232.516 221.288 232.404C221.277 231.899 221.251 231.396 221.211 230.893C221.171 230.391 221.147 229.901 221.137 229.424C221.158 228.973 221.164 228.523 221.157 228.075C221.177 227.623 221.198 227.172 221.218 226.721C221.228 226.131 220.931 225.747 220.327 225.57C220.155 225.527 220.055 225.507 220.027 225.509C219.915 225.518 219.8 225.654 219.68 225.916C219.482 226.606 219.314 227.321 219.176 228.063C219.063 228.774 219.008 229.494 219.009 230.225C219.015 230.646 219.034 231.065 219.067 231.484C219.072 231.905 219.119 232.323 219.208 232.737C219.447 233.982 220.173 234.641 221.387 234.714C221.473 234.735 221.586 234.74 221.725 234.729C222.172 234.694 222.505 234.471 222.726 234.06C222.845 233.798 222.979 233.534 223.127 233.27C223.274 233.005 223.421 232.727 223.566 232.435C223.759 232.026 223.965 231.617 224.185 231.206C224.403 230.767 224.623 230.343 224.843 229.932C224.965 229.698 224.908 229.506 224.671 229.356ZM220.059 223.779C220.147 223.829 220.351 223.925 220.672 224.068C220.992 224.211 221.208 224.278 221.32 224.27C221.459 224.259 221.549 224.153 221.59 223.953C221.606 223.812 221.624 223.684 221.643 223.57C221.663 223.456 221.681 223.328 221.697 223.186C221.727 222.847 221.636 222.587 221.425 222.407C221.212 222.199 220.924 222.11 220.561 222.139C220.198 222.167 219.964 222.396 219.857 222.826C219.667 223.263 219.734 223.58 220.059 223.779Z" fill="#D3413B"/>
<path d="M230.295 228.961C229.786 229.942 229.272 230.838 228.754 231.651C228.235 232.435 227.516 233.146 226.596 233.784C226.435 233.933 226.26 234.054 226.068 234.148C225.903 234.213 225.712 234.307 225.494 234.431C225.334 234.047 225.245 233.687 225.227 233.351C225.237 233.014 225.276 232.69 225.344 232.378C225.405 231.954 225.534 231.471 225.73 230.927C225.952 230.355 226.217 229.808 226.526 229.287C226.863 228.764 227.246 228.323 227.676 227.964C228.106 227.605 228.572 227.412 229.076 227.385C229.383 227.369 229.653 227.439 229.886 227.595C230.146 227.749 230.313 227.979 230.385 228.284C230.454 228.532 230.424 228.758 230.295 228.961ZM236.913 228.443C236.739 228.34 236.624 228.29 236.569 228.293C236.485 228.298 236.376 228.373 236.244 228.521C235.747 229.192 235.22 229.837 234.664 230.455C234.134 231.044 233.546 231.594 232.9 232.104C232.792 232.166 232.724 232.212 232.697 232.241C232.669 232.243 232.641 232.244 232.613 232.246C232.612 232.218 232.597 232.205 232.569 232.206C232.652 231.641 232.719 231.063 232.772 230.471C232.825 229.879 232.892 229.301 232.975 228.736C233.061 228.254 232.916 227.883 232.537 227.623C232.421 227.545 232.234 227.457 231.976 227.358C231.745 227.23 231.56 227.17 231.42 227.177C231.252 227.186 231.116 227.264 231.012 227.409C230.598 227.011 230.089 226.659 229.484 226.354C228.879 226.05 228.269 225.914 227.654 225.946C227.178 225.972 226.709 226.123 226.247 226.399C225.813 226.675 225.437 226.989 225.12 227.342C224.431 228.108 223.901 228.949 223.528 229.866C223.155 230.755 223.024 231.729 223.136 232.789C223.16 233.236 223.294 233.65 223.538 234.03C223.755 234.411 224.025 234.747 224.349 235.038C224.701 235.328 225.091 235.56 225.521 235.733C225.95 235.879 226.387 235.94 226.835 235.916C227.254 235.894 227.669 235.774 228.078 235.556C228.487 235.338 228.865 235.066 229.212 234.739C229.587 234.411 229.919 234.057 230.207 233.677C230.524 233.296 230.786 232.945 230.993 232.626C231.463 233.554 232.075 233.999 232.83 233.959C233.25 233.937 233.674 233.746 234.104 233.387C234.562 233.026 234.987 232.597 235.382 232.099C235.803 231.572 236.181 231.048 236.518 230.525C236.854 229.975 237.11 229.512 237.286 229.138C237.411 228.851 237.287 228.62 236.913 228.443Z" fill="#D3413B"/>
<path d="M246.534 228.169C246.478 228.17 246.436 228.171 246.408 228.171C246.379 228.144 246.351 228.131 246.323 228.131C246.155 228.134 246.032 228.277 245.953 228.559C245.901 228.728 245.861 228.841 245.834 228.897C245.517 229.856 244.975 230.721 244.206 231.493C244.204 231.409 244.189 231.339 244.16 231.283C244.158 231.227 244.157 231.171 244.156 231.115C244.121 230.78 244.087 230.459 244.053 230.151C244.046 229.815 244.026 229.494 243.991 229.186C243.926 228.739 243.848 228.307 243.755 227.889C243.69 227.442 243.556 227.024 243.352 226.636C242.859 225.778 242.108 225.359 241.1 225.379C240.4 225.393 239.762 225.7 239.186 226.3C239.104 226.414 239.022 226.513 238.94 226.599C238.858 226.685 238.762 226.799 238.653 226.941C238.678 226.772 238.688 226.618 238.686 226.478C238.682 226.31 238.693 226.156 238.718 226.015C238.71 225.623 238.523 225.361 238.156 225.228C238.072 225.202 237.973 225.176 237.861 225.15C237.776 225.124 237.692 225.112 237.608 225.113C237.384 225.118 237.231 225.149 237.148 225.207C237.092 225.236 237.025 225.363 236.945 225.589C236.816 226.123 236.7 226.644 236.599 227.15C236.497 227.656 236.395 228.162 236.293 228.669C236.166 229.343 236.054 230.018 235.955 230.692C235.857 231.366 235.829 232.053 235.871 232.752C235.902 232.892 235.947 233.045 236.006 233.212C236.065 233.351 236.165 233.447 236.306 233.5C236.729 233.659 237.152 233.777 237.573 233.852C237.937 233.845 238.158 233.673 238.235 233.335C238.523 232.349 238.84 231.362 239.184 230.375C239.528 229.36 239.999 228.426 240.598 227.574C240.707 227.404 240.83 227.247 240.967 227.104C241.131 226.933 241.282 226.762 241.419 226.591C241.447 226.619 241.461 226.632 241.461 226.632C241.489 226.632 241.518 226.645 241.546 226.673C241.61 227.063 241.66 227.441 241.695 227.804C241.73 228.167 241.766 228.545 241.802 228.936C241.867 229.411 241.919 229.886 241.956 230.361C242.021 230.808 242.101 231.269 242.194 231.743C242.288 232.217 242.533 232.59 242.931 232.863C243.356 233.106 243.806 233.223 244.282 233.213C244.674 233.206 245.035 233.03 245.364 232.688C245.693 232.317 245.979 231.905 246.222 231.452C246.492 230.97 246.706 230.476 246.864 229.969C247.022 229.461 247.112 229.068 247.134 228.787C247.156 228.45 246.955 228.244 246.534 228.169Z" fill="#D3413B"/>
<path d="M270.809 226.808C270.807 226.836 270.791 226.863 270.761 226.889C270.761 226.889 270.76 226.903 270.759 226.931C270.333 228.249 269.8 229.49 269.16 230.654C268.522 231.789 267.707 232.843 266.715 233.814C266.624 233.92 266.458 234.092 266.218 234.328C266.007 234.538 265.768 234.747 265.502 234.953C265.235 235.16 264.97 235.352 264.705 235.531C264.47 235.684 264.269 235.754 264.101 235.743C264.018 235.737 263.889 235.56 263.716 235.212C263.346 234.457 263.103 233.697 262.986 232.931C262.871 232.138 262.911 231.34 263.105 230.54C263.257 229.96 263.462 229.413 263.722 228.897C264.009 228.383 264.403 227.947 264.905 227.588C264.966 227.508 265.054 227.458 265.167 227.437C265.281 227.417 265.396 227.382 265.511 227.334C265.559 227.45 265.608 227.565 265.656 227.681C265.706 227.768 265.727 227.882 265.717 228.022C265.691 228.413 265.61 228.772 265.476 229.1C265.37 229.429 265.194 229.74 264.95 230.033C264.855 230.195 264.874 230.322 265.008 230.415C265.194 230.568 265.357 230.649 265.497 230.659C265.776 230.678 265.98 230.565 266.109 230.321C266.391 229.891 266.65 229.376 266.887 228.774C267.083 228.366 267.03 227.914 266.726 227.416C266.496 227.092 266.203 226.848 265.85 226.683C265.498 226.491 265.126 226.382 264.735 226.355C264.009 226.306 263.362 226.529 262.796 227.024C262.259 227.493 261.857 228.042 261.59 228.669C261.043 229.699 260.791 230.734 260.833 231.775C260.905 232.791 261.159 233.804 261.596 234.816C261.936 235.597 262.417 236.162 263.039 236.513C263.659 236.892 264.373 237.122 265.181 237.205C265.908 237.254 266.639 237.023 267.375 236.511C268.137 236.029 268.851 235.432 269.517 234.719C270.184 233.978 270.769 233.218 271.271 232.438C271.802 231.632 272.185 230.956 272.418 230.411C272.681 229.839 272.903 229.251 273.085 228.645C273.266 228.04 273.446 227.449 273.625 226.872C273.659 226.79 273.678 226.721 273.681 226.665C273.715 226.583 273.789 226.532 273.902 226.511C274.696 226.397 275.475 226.281 276.241 226.164C277.007 226.047 277.772 225.931 278.538 225.814C278.905 225.783 279.218 225.72 279.477 225.625C279.937 225.459 280.012 225.184 279.701 224.798C279.31 224.351 278.864 224.11 278.361 224.076C276.93 224.064 275.549 224.153 274.217 224.343C274.298 223.563 274.378 222.797 274.456 222.044C274.537 221.264 274.605 220.469 274.66 219.658C274.684 218.874 274.667 218.101 274.606 217.339C274.575 216.551 274.444 215.785 274.214 215.039C274.271 215.015 274.33 214.977 274.39 214.925C275.511 214.524 276.784 214.175 278.207 213.878C279.66 213.555 280.988 213.434 282.189 213.515C282.413 213.53 282.76 213.582 283.231 213.67C283.73 213.759 284.227 213.891 284.72 214.065C285.215 214.211 285.652 214.394 286.03 214.616C286.41 214.81 286.632 215.05 286.697 215.335C286.744 215.479 286.856 215.683 287.035 215.947C287.215 216.184 287.375 216.307 287.515 216.316C287.682 216.328 287.746 216.22 287.705 215.992C287.73 215.629 287.667 215.316 287.516 215.054C287.302 214.478 286.887 213.973 286.271 213.538C285.683 213.105 285.02 212.738 284.283 212.436C283.545 212.133 282.789 211.9 282.015 211.735C281.27 211.545 280.632 211.431 280.101 211.395C279.319 211.343 278.503 211.372 277.653 211.483C276.806 211.566 275.954 211.705 275.099 211.9C274.272 212.096 273.442 212.335 272.609 212.616C271.806 212.87 271.044 213.141 270.323 213.43C269.66 213.694 269.024 213.959 268.417 214.227C267.811 214.467 267.191 214.72 266.555 214.985C266.41 215.06 266.252 215.119 266.08 215.164C265.909 215.208 265.737 215.253 265.566 215.298C265.583 215.046 265.643 214.783 265.745 214.51C265.848 214.236 265.978 213.978 266.135 213.736C266.291 213.494 266.46 213.281 266.641 213.097C266.822 212.913 266.999 212.784 267.172 212.712C267.166 212.795 267.148 212.864 267.116 212.918C267.045 213.138 267.02 213.305 267.04 213.418C267.088 213.534 267.206 213.668 267.392 213.821C267.526 213.914 267.621 213.963 267.677 213.967C267.816 213.976 267.935 213.886 268.032 213.696C268.38 213.102 268.322 212.509 267.857 211.916C267.492 211.498 267.115 211.276 266.723 211.25C266.36 211.225 266.017 211.315 265.695 211.517C265.373 211.72 265.074 211.981 264.8 212.299C264.554 212.619 264.334 212.969 264.14 213.349C263.976 213.703 263.855 214.031 263.779 214.335C263.698 214.694 263.73 215.061 263.873 215.436C264.018 215.782 264.22 216.119 264.478 216.445C264.767 216.745 265.1 217.006 265.478 217.228C265.858 217.422 266.229 217.531 266.592 217.556C266.9 217.577 267.281 217.532 267.738 217.423C268.194 217.313 268.581 217.199 268.898 217.08C269.444 216.892 269.963 216.689 270.455 216.47C270.974 216.252 271.494 216.035 272.014 215.817C272.072 215.793 272.129 215.783 272.185 215.787C272.242 215.762 272.3 215.738 272.358 215.714C272.354 215.77 272.351 215.812 272.349 215.84C272.375 215.87 272.388 215.898 272.386 215.926C272.453 217.418 272.382 218.887 272.172 220.332C271.99 221.779 271.725 223.221 271.375 224.657C271.369 224.741 271.294 224.82 271.149 224.894C270.864 224.959 270.579 225.024 270.294 225.089C270.038 225.128 269.768 225.18 269.483 225.245C269.198 225.31 269.118 225.459 269.242 225.692C269.371 225.869 269.514 226.033 269.672 226.184C269.86 226.309 270.035 226.419 270.197 226.514C270.389 226.583 270.594 226.667 270.812 226.766C270.812 226.766 270.811 226.78 270.809 226.808Z" fill="#D3413B"/>
<path d="M280.54 234.428C280.404 234.639 280.169 234.852 279.835 235.069C279.532 235.261 279.256 235.343 279.005 235.315C278.866 235.3 278.736 235.201 278.615 235.019C278.219 234.271 278.14 233.459 278.377 232.584C278.537 231.897 278.763 231.26 279.053 230.672C279.371 230.087 279.822 229.574 280.406 229.131C280.468 229.082 280.62 228.986 280.861 228.843C281.102 228.701 281.278 228.636 281.389 228.648C281.501 228.66 281.561 228.752 281.571 228.922C281.589 229.008 281.642 229.169 281.729 229.404C281.5 229.435 281.367 229.491 281.33 229.571C281.296 229.624 281.296 229.751 281.33 229.952C281.55 230.765 281.591 231.544 281.452 232.289C281.314 233.035 281.01 233.748 280.54 234.428ZM287.658 231.58C287.618 231.435 287.517 231.325 287.356 231.251C287.226 231.152 287.078 231.093 286.911 231.075C286.8 231.063 286.715 231.067 286.656 231.089C286.276 231.216 285.898 231.315 285.524 231.387C285.181 231.433 284.815 231.435 284.425 231.392C284.286 231.377 284.147 231.361 284.007 231.346C283.899 231.306 283.777 231.264 283.641 231.221C283.502 231.206 283.358 231.105 283.209 230.92L282.568 229.835C282.816 229.637 282.935 229.453 282.925 229.283C282.947 229.088 282.862 228.839 282.67 228.536C282.397 228.196 282.052 227.876 281.635 227.576C281.22 227.249 280.79 227.061 280.345 227.011C279.816 226.953 279.323 227.082 278.865 227.397C278.436 227.716 278.04 228.109 277.679 228.576C277.345 229.047 277.076 229.566 276.873 230.136C276.644 230.674 276.507 231.152 276.461 231.569C276.218 233.514 276.921 235.057 278.57 236.197C278.991 236.469 279.382 236.625 279.744 236.665C280.356 236.732 280.862 236.619 281.26 236.325C281.687 236.034 282.025 235.649 282.275 235.169C282.553 234.693 282.765 234.181 282.91 233.633C283.086 233.061 283.212 232.554 283.289 232.112L283.456 232.13C283.914 232.322 284.324 232.437 284.685 232.477C285.103 232.523 285.513 232.512 285.915 232.444C286.344 232.379 286.765 232.27 287.176 232.118C287.263 232.1 287.399 232.016 287.584 231.868C287.677 231.793 287.701 231.697 287.658 231.58Z" fill="#D3413B"/>
<path d="M290.23 235.729C290.088 235.935 289.847 236.142 289.507 236.348C289.199 236.531 288.92 236.605 288.67 236.571C288.532 236.551 288.405 236.449 288.289 236.263C287.915 235.503 287.859 234.69 288.122 233.822C288.302 233.14 288.546 232.51 288.854 231.931C289.189 231.356 289.654 230.855 290.251 230.43C290.314 230.382 290.469 230.291 290.714 230.155C290.959 230.02 291.137 229.96 291.248 229.976C291.359 229.991 291.417 230.084 291.421 230.255C291.437 230.342 291.485 230.504 291.565 230.741C291.335 230.766 291.201 230.817 291.161 230.897C291.126 230.948 291.122 231.075 291.151 231.277C291.347 232.096 291.365 232.876 291.205 233.617C291.044 234.358 290.719 235.062 290.23 235.729ZM297.428 233.089C297.392 232.943 297.295 232.83 297.136 232.751C297.009 232.649 296.863 232.586 296.696 232.563C296.585 232.547 296.5 232.549 296.441 232.569C296.057 232.685 295.677 232.773 295.301 232.834C294.957 232.87 294.59 232.861 294.202 232.807C294.063 232.788 293.925 232.768 293.786 232.749C293.679 232.706 293.558 232.66 293.423 232.613C293.285 232.594 293.144 232.489 293.001 232.299L292.392 231.196C292.645 231.006 292.769 230.825 292.765 230.655C292.792 230.461 292.714 230.209 292.531 229.901C292.268 229.553 291.933 229.223 291.524 228.912C291.119 228.572 290.695 228.371 290.251 228.309C289.724 228.236 289.228 228.35 288.761 228.652C288.323 228.958 287.916 229.339 287.541 229.796C287.194 230.256 286.91 230.768 286.69 231.331C286.446 231.862 286.294 232.336 286.236 232.752C285.937 234.689 286.594 236.252 288.209 237.439C288.622 237.723 289.009 237.89 289.369 237.941C289.979 238.026 290.488 237.928 290.895 237.646C291.33 237.367 291.679 236.992 291.943 236.52C292.235 236.052 292.461 235.546 292.622 235.003C292.815 234.436 292.956 233.933 293.046 233.493L293.212 233.517C293.664 233.721 294.07 233.849 294.431 233.899C294.847 233.958 295.257 233.959 295.66 233.902C296.092 233.849 296.515 233.753 296.931 233.613C297.018 233.597 297.156 233.518 297.346 233.375C297.441 233.303 297.468 233.208 297.428 233.089Z" fill="#D3413B"/>
<path d="M297.442 238.357C297.412 238.039 297.412 237.713 297.442 237.377C297.499 237.046 297.582 236.733 297.69 236.439C297.991 235.525 298.43 234.635 299.007 233.769C299.611 232.908 300.384 232.303 301.326 231.955C301.483 231.869 301.617 231.835 301.727 231.855C301.81 231.869 301.915 232.001 302.042 232.25C302.078 232.37 302.1 232.488 302.109 232.603C302.144 232.723 302.18 232.843 302.216 232.963C302.251 233.253 302.289 233.444 302.33 233.537C302.375 233.602 302.508 233.738 302.728 233.947C302.071 234.941 301.331 235.85 300.506 236.673C299.713 237.473 298.692 238.035 297.442 238.357ZM309.66 235.024C309.509 234.913 309.364 234.845 309.226 234.821C309.006 234.783 308.816 234.892 308.658 235.149C308.346 235.634 307.998 236.085 307.613 236.502C307.228 236.918 306.795 237.283 306.314 237.597C306.152 237.711 305.978 237.809 305.794 237.891C305.636 237.977 305.463 238.075 305.274 238.184C305.27 238.041 305.25 237.91 305.214 237.79C305.117 237.205 305.105 236.62 305.178 236.036C305.251 235.452 305.338 234.87 305.439 234.291C305.687 233.026 305.988 231.785 306.342 230.568C306.701 229.323 307.1 228.085 307.542 226.854C307.936 225.729 308.331 224.604 308.725 223.479C309.148 222.359 309.57 221.238 309.992 220.118C310.292 219.374 310.058 218.836 309.292 218.504L309.168 218.482C309.03 218.458 308.907 218.508 308.801 218.632C308.712 218.815 308.612 218.983 308.5 219.134C308.389 219.285 308.289 219.452 308.2 219.636C307.15 221.585 306.202 223.609 305.354 225.706C304.511 227.777 303.803 229.885 303.231 232.031C302.912 231.577 302.542 231.172 302.121 230.815C301.732 230.434 301.248 230.194 300.669 230.093C299.924 229.964 299.177 230.175 298.427 230.727C296.599 232.086 295.525 233.931 295.205 236.263C295.092 237.238 295.289 238.068 295.795 238.753C296.329 239.443 297.065 239.869 298.003 240.032C298.803 240.171 299.499 240.008 300.092 239.543C300.712 239.082 301.268 238.582 301.76 238.042C301.936 237.845 302.099 237.646 302.247 237.445C302.424 237.248 302.602 237.038 302.783 236.813C302.819 236.933 302.851 237.081 302.877 237.256C303.227 238.51 304.074 239.283 305.416 239.573C305.912 239.659 306.385 239.557 306.834 239.265C307.282 238.974 307.688 238.604 308.05 238.155C308.44 237.711 308.777 237.244 309.061 236.753C309.378 236.24 309.622 235.814 309.795 235.474C309.884 235.291 309.839 235.141 309.66 235.024Z" fill="#D3413B"/>
<path fill-rule="evenodd" clip-rule="evenodd" d="M286.653 113.436C286.653 113.436 237.847 101.423 201.433 113.994C196.657 106.189 197.327 96.1734 197.721 92.8297C198.196 92.6586 198.786 92.451 199.458 92.2256C199.756 92.1285 200.068 92.0197 200.394 91.9058L200.394 91.9057C201.049 91.6769 201.761 91.4282 202.531 91.2163C203.668 90.8733 204.884 90.5089 206.1 90.1445C207.316 89.7666 208.535 89.4292 209.705 89.151L210.191 89.0289C211.163 88.7849 212.069 88.5575 212.866 88.3507C214.726 87.8823 215.961 87.5705 215.961 87.5705L216.001 87.5665C216.452 87.4406 216.721 86.9924 216.608 86.5408C216.497 86.1026 216.064 85.8458 215.636 85.9286C215.636 85.9286 214.368 86.1757 212.485 86.5511L211.728 86.7013C210.966 86.8521 210.128 87.018 209.255 87.1949C208.065 87.4206 206.813 87.6933 205.565 88.0199C204.836 88.2026 204.107 88.3808 203.391 88.5558C202.88 88.6805 202.376 88.8037 201.884 88.9257C201.124 89.1063 200.396 89.3182 199.721 89.5146C199.356 89.6207 199.007 89.7224 198.677 89.8121C198.299 89.9171 197.948 90.0172 197.63 90.1102L195.079 74.0873C195.569 73.9246 196.05 73.7429 196.535 73.5437C197.136 73.2941 197.735 73.0176 198.303 72.7032C198.886 72.4011 199.452 72.0598 199.986 71.6807C200.535 71.3138 201.052 70.8956 201.554 70.4653C201.762 70.3071 201.941 70.1185 202.122 69.929C202.173 69.8753 202.224 69.8217 202.275 69.7686C202.334 69.7084 202.394 69.6489 202.454 69.5895C202.633 69.4112 202.812 69.2329 202.966 69.034L203.61 68.2495L204.18 67.4043C204.346 67.1774 204.486 66.9339 204.617 66.6842C205.026 66.7903 205.429 66.8869 205.84 66.9827C206.619 67.1512 207.398 67.3196 208.186 67.4463C209.752 67.728 211.335 67.9127 212.911 68.0165C213.707 68.088 214.5 68.119 215.303 68.1218C216.094 68.1394 216.899 68.1556 217.696 68.0909C217.989 68.0671 218.284 68.0561 218.579 68.0451C219.084 68.0263 219.59 68.0074 220.089 67.924C220.355 67.8887 220.622 67.8549 220.891 67.8209L220.893 67.8207L220.893 67.8206C221.423 67.7535 221.955 67.6861 222.48 67.6075L224.851 67.0753C225.36 66.9725 225.856 66.7971 226.354 66.6211C226.626 66.5249 226.899 66.4284 227.175 66.3436C227.302 66.2994 227.429 66.2566 227.557 66.2139C227.811 66.1284 228.066 66.0429 228.32 65.9454L229.425 65.4151C229.682 65.2788 229.946 65.159 230.209 65.0393C230.688 64.8217 231.166 64.6045 231.601 64.2897L233.66 62.9444C234.104 62.6268 234.512 62.2576 234.923 61.8864C235.123 61.7046 235.325 61.5223 235.531 61.3455L236.445 60.5345L237.238 59.5994L238.08 58.5912C238.268 58.6706 238.455 58.7463 238.645 58.8216C239.169 59.0287 239.691 59.2089 240.226 59.3877C241.28 59.7331 242.37 60.0207 243.455 60.2544L245.091 60.5564L246.746 60.7749C247.108 60.8199 247.475 60.841 247.839 60.8619L247.84 60.8619C248.029 60.8728 248.218 60.8836 248.405 60.8977C248.818 60.939 249.235 60.9338 249.654 60.9285C249.792 60.9267 249.93 60.925 250.068 60.9249C250.866 60.9448 251.669 60.8719 252.471 60.7992L252.472 60.7991C252.78 60.7711 253.089 60.7432 253.396 60.7205L255.043 60.4364C255.575 60.3577 256.089 60.2172 256.614 60.0735L256.666 60.0592C256.828 60.0143 256.991 59.9731 257.154 59.9317L257.156 59.9313C257.528 59.8371 257.904 59.7422 258.268 59.6025L259.818 59.0285C260.522 58.7749 261.193 58.437 261.86 58.101L261.86 58.1009L261.861 58.1004C262.177 57.9409 262.493 57.7817 262.812 57.6323C263.189 57.4591 263.35 57.0215 263.179 56.6573C263.02 56.2919 262.596 56.1294 262.229 56.2743L262.124 56.3119C261.769 56.4512 261.422 56.6062 261.075 56.7609L261.074 56.7611C260.473 57.0293 259.873 57.2966 259.244 57.4792L257.766 57.9509C257.444 58.0543 257.107 58.1236 256.774 58.1922L256.773 58.1924C256.601 58.2278 256.43 58.2631 256.262 58.3027C256.147 58.3263 256.033 58.3512 255.92 58.3761C255.531 58.461 255.145 58.5454 254.737 58.5749L253.204 58.7663C252.949 58.7745 252.694 58.7861 252.439 58.7976L252.434 58.7978C251.662 58.8328 250.891 58.8677 250.119 58.8107C250.042 58.8082 249.965 58.8059 249.889 58.8037C249.45 58.7907 249.02 58.778 248.585 58.7164C248.452 58.701 248.318 58.6867 248.184 58.6723C247.805 58.6316 247.424 58.5908 247.056 58.5264L245.532 58.2542L244.027 57.8986C243.034 57.6287 242.05 57.317 241.102 56.9475C240.621 56.7634 240.154 56.5779 239.684 56.3656C239.229 56.1653 238.742 55.9273 238.368 55.7191C237.78 55.4095 237.074 55.574 236.66 56.0638L236.611 56.123L235.209 57.7848L234.501 58.6163L233.687 59.3358C233.476 59.5123 233.272 59.698 233.067 59.8838C232.736 60.1849 232.404 60.4865 232.043 60.7492L230.226 61.9345C229.844 62.2124 229.407 62.4084 228.969 62.6047C228.738 62.7084 228.506 62.8122 228.282 62.9283L227.295 63.4062C227.124 63.4706 226.949 63.5286 226.775 63.5866C226.6 63.6445 226.425 63.7025 226.255 63.7669C226.021 63.8397 225.792 63.9212 225.563 64.0027C225.104 64.1657 224.645 64.3287 224.155 64.4222L221.997 64.9062L219.794 65.2042C219.325 65.2856 218.839 65.3056 218.356 65.3255C218.094 65.3363 217.834 65.347 217.578 65.3674C216.835 65.4267 216.086 65.4187 215.349 65.3958C214.599 65.3878 213.862 65.3649 213.107 65.303C211.614 65.2047 210.126 65.0242 208.644 64.7615C207.958 64.6538 207.291 64.5097 206.616 64.3637L206.437 64.3251C205.712 64.1513 204.972 63.9654 204.314 63.7716C203.697 63.5873 203.042 63.8556 202.727 64.39L202.657 64.5058C202.564 64.6723 202.479 64.8429 202.395 65.0133C202.238 65.3292 202.082 65.6442 201.871 65.9301L201.421 66.6139L200.897 67.2368C200.776 67.3953 200.639 67.5343 200.502 67.6723C200.449 67.7265 200.396 67.7805 200.343 67.8355C200.266 67.9065 200.193 67.9832 200.119 68.0605C200.004 68.1824 199.886 68.3059 199.747 68.4112C199.332 68.7649 198.904 69.1199 198.431 69.4249C197.972 69.7422 197.497 70.0337 196.992 70.301C196.501 70.567 195.98 70.8086 195.457 71.0233C195.081 71.179 194.692 71.3253 194.299 71.4578C191.473 71.989 172.29 75.0377 163.755 61.7263C154.529 47.3374 167.027 32.1215 183.602 31.8001C183.602 31.8001 192.825 -3.60073 234.943 11.1368C234.943 11.1368 263.566 -17.2971 289.501 19.7676C289.501 19.7676 320.457 17.4488 319.395 49.0411C318.783 67.2239 301.063 73.5483 294.671 75.2416C294.606 75.2432 294.54 75.2495 294.474 75.2608L294.326 75.2754C294.326 75.2754 294.245 75.2833 294.113 75.3235C294.057 75.3354 293.983 75.3491 293.893 75.3657C293.79 75.3846 293.667 75.4073 293.525 75.4357C292.988 75.5156 292.209 75.6194 291.257 75.6312C290.307 75.6565 289.186 75.6033 287.999 75.4341C286.811 75.2649 285.557 74.9663 284.345 74.541C283.933 74.4181 283.541 74.245 283.149 74.0718C282.953 73.9852 282.757 73.8986 282.559 73.8183C282.196 73.6592 281.851 73.4719 281.511 73.2872C281.305 73.1752 281.101 73.0642 280.896 72.9611C280.578 72.7817 280.283 72.5856 279.996 72.3944C279.8 72.2644 279.608 72.1366 279.415 72.0179C279.096 71.8224 278.816 71.5929 278.552 71.3759C278.42 71.2674 278.292 71.1621 278.164 71.0657C278.031 70.9518 277.897 70.8468 277.767 70.7451C277.534 70.5634 277.316 70.3922 277.14 70.2002C276.997 70.0578 276.861 69.9282 276.737 69.8094C276.613 69.6906 276.501 69.5826 276.403 69.4833C275.996 69.0878 275.755 68.8529 275.755 68.8529L275.71 68.803C275.408 68.506 274.919 68.5132 274.622 68.8145C274.337 69.1011 274.341 69.5633 274.602 69.8642C274.602 69.8642 274.846 70.1261 275.258 70.5755C275.378 70.7022 275.508 70.8452 275.651 71.0019C275.761 71.1224 275.878 71.2511 276.004 71.3867C276.2 71.6169 276.448 71.8352 276.714 72.0689C276.825 72.1666 276.939 72.2671 277.054 72.3722C277.183 72.4823 277.312 72.601 277.443 72.7223C277.72 72.9775 278.01 73.2448 278.346 73.47C278.536 73.6026 278.726 73.7454 278.919 73.8908C279.229 74.1247 279.549 74.3657 279.898 74.5831C280.099 74.7008 280.299 74.8236 280.5 74.9471C280.877 75.1783 281.258 75.4123 281.66 75.6211C281.897 75.7284 282.129 75.8454 282.361 75.9628C282.759 76.1635 283.159 76.3651 283.586 76.5206C284.905 77.0578 286.28 77.4807 287.598 77.7323C288.917 77.9974 290.169 78.133 291.248 78.1632C291.521 78.1742 291.783 78.1785 292.033 78.1777L290.343 89.2843C289.705 88.9971 288.99 88.6978 288.208 88.3815C287.914 88.2752 287.613 88.1625 287.302 88.0467C286.333 87.6845 285.282 87.2922 284.136 86.9716C282.632 86.4798 280.984 86.0565 279.227 85.6303C277.471 85.2176 275.613 84.8694 273.686 84.5143C273.028 84.4269 272.365 84.3244 271.697 84.2211C270.392 84.0192 269.066 83.8141 267.714 83.7128L267.348 83.6757C265.42 83.4802 263.478 83.2833 261.514 83.233C260.995 83.2092 260.475 83.182 259.955 83.1548C259.435 83.1276 258.915 83.1004 258.396 83.0766C257.727 83.0633 257.06 83.0612 256.397 83.0591H256.396L256.393 83.059L256.391 83.059C256.027 83.0579 255.665 83.0567 255.304 83.0537L255.182 83.0527C253.18 83.0359 251.205 83.0194 249.296 83.1402C248.644 83.1724 248 83.1977 247.365 83.2226L247.364 83.2227L247.363 83.2227C246.1 83.2723 244.874 83.3204 243.688 83.4187C242.707 83.5076 241.758 83.5891 240.844 83.6677L240.842 83.6679L240.84 83.668L240.835 83.6685C240.093 83.7322 239.375 83.794 238.681 83.856C237.127 83.9678 235.715 84.1473 234.467 84.3243C233.922 84.3955 233.409 84.4638 232.928 84.5276L232.916 84.5293L232.912 84.5297L232.911 84.5299L232.908 84.5303L232.9 84.5313C232.288 84.6127 231.729 84.6869 231.228 84.7512C229.427 84.9825 228.407 85.1236 228.407 85.1236C228.002 85.1633 227.713 85.5455 227.766 85.9485C227.806 86.3528 228.173 86.6297 228.576 86.5765L228.603 86.5738C228.603 86.5738 229.627 86.4597 231.417 86.2567C231.95 86.2043 232.556 86.1351 233.222 86.0589C233.667 86.008 234.139 85.954 234.635 85.8999C235.873 85.7511 237.287 85.5986 238.817 85.5164C239.999 85.4316 241.254 85.3477 242.568 85.2599C242.967 85.2333 243.37 85.2063 243.779 85.1788C244.985 85.0977 246.241 85.0757 247.529 85.0531L247.532 85.0531C248.121 85.0427 248.716 85.0323 249.317 85.016C251.242 84.9358 253.22 84.9864 255.241 85.0466C255.507 85.0527 255.774 85.0579 256.041 85.063L256.042 85.063C256.789 85.0773 257.539 85.0917 258.284 85.1287C259.298 85.1925 260.326 85.2684 261.341 85.3456C263.298 85.4391 265.232 85.6711 267.14 85.9001L267.141 85.9002L267.415 85.933C268.707 86.0516 269.969 86.2692 271.209 86.483C271.894 86.601 272.573 86.718 273.245 86.8164C275.12 87.1903 276.927 87.5707 278.616 88.0036C280.307 88.4499 281.887 88.8798 283.325 89.3782C284.463 89.7231 285.484 90.1293 286.422 90.5028L286.423 90.5032L286.424 90.5038L286.425 90.5042C286.688 90.6087 286.944 90.7107 287.194 90.808C288.266 91.274 289.196 91.6797 289.953 92.0753C290.161 93.4109 292.092 106.815 286.666 113.421L286.653 113.436ZM195.003 34.1096C194.903 34.3372 194.848 34.4651 194.848 34.4651L194.9 34.4463L194.743 34.7883C194.576 35.1586 194.161 35.3762 193.757 35.2798C193.284 35.1765 192.994 34.7152 193.097 34.2424C193.097 34.2424 193.124 34.1036 193.181 33.8531L193.191 33.8137C193.261 33.5264 193.383 33.0225 193.571 32.5494C193.63 32.4061 193.689 32.2492 193.751 32.0823L193.752 32.0814C193.888 31.7198 194.042 31.3111 194.252 30.8904C194.342 30.7161 194.431 30.5322 194.522 30.3423C194.755 29.8602 195.006 29.339 195.357 28.836C195.479 28.6527 195.599 28.4632 195.722 28.2703L195.722 28.2699C196.076 27.7121 196.449 27.1249 196.931 26.5722L196.994 26.4924C197.581 25.7483 198.205 24.9563 199.007 24.2864C199.299 24.011 199.598 23.7348 199.905 23.452L199.914 23.444C200.01 23.3552 200.107 23.2657 200.204 23.1755C200.454 22.938 200.745 22.7444 201.04 22.5484C201.216 22.4314 201.393 22.3134 201.564 22.1847C201.704 22.0878 201.845 21.9894 201.987 21.8905C202.311 21.6658 202.638 21.4381 202.966 21.217L203.323 20.9777C203.461 20.8865 203.533 20.851 203.604 20.8163C203.645 20.7963 203.685 20.7766 203.736 20.7467L204.449 20.3774C204.901 20.1289 205.435 19.8859 205.984 19.6551C206.107 19.6021 206.231 19.5478 206.354 19.4935C206.765 19.3124 207.174 19.1321 207.581 19.0084L209.163 18.4856C209.409 18.4237 209.652 18.365 209.893 18.3067C210.174 18.2389 210.453 18.1715 210.731 18.1003C211.415 17.9254 212.094 17.8339 212.751 17.7454C213.089 17.6999 213.421 17.6551 213.745 17.6002C214.177 17.5701 214.597 17.5382 215.006 17.5073L215.006 17.5073C215.506 17.4695 215.987 17.4331 216.448 17.4028C217.065 17.3929 217.648 17.409 218.187 17.424C218.371 17.4291 218.551 17.4341 218.724 17.4378C219.178 17.4487 219.596 17.488 219.969 17.5229L219.97 17.523C220.146 17.5395 220.311 17.5551 220.466 17.5662C221.429 17.6757 221.979 17.7305 221.979 17.7305C222.405 17.7703 222.738 18.1186 222.767 18.5512C222.788 19.039 222.422 19.4696 221.934 19.4903L221.88 19.4956C221.88 19.4956 221.339 19.5351 220.419 19.5847C220.239 19.5972 220.047 19.6049 219.844 19.6132C219.511 19.6267 219.147 19.6415 218.754 19.6801C218.551 19.7001 218.339 19.7237 218.12 19.7481C217.656 19.7998 217.157 19.8555 216.624 19.8893C216.465 19.9132 216.305 19.9373 216.142 19.9617L216.141 19.9618C215.504 20.0573 214.833 20.1579 214.13 20.2703C213.8 20.3547 213.461 20.43 213.117 20.5065C212.561 20.6303 211.99 20.7574 211.418 20.9313C211.163 21.0087 210.908 21.0821 210.65 21.1561C210.441 21.2165 210.229 21.2774 210.015 21.3412C209.812 21.415 209.61 21.4915 209.407 21.5684C209.148 21.666 208.888 21.7644 208.623 21.8589C208.272 21.9738 207.939 22.1242 207.61 22.2729C207.494 22.3253 207.379 22.3775 207.263 22.4278C206.82 22.6211 206.364 22.8292 205.887 23.1073L205.176 23.4901C205.086 23.5398 204.879 23.6553 204.879 23.6553L204.56 23.8636C204.271 24.05 203.983 24.2426 203.699 24.4325L203.698 24.4335C203.567 24.5213 203.436 24.6085 203.307 24.6942C202.609 25.1044 202.01 25.6209 201.421 26.1296C201.282 26.249 201.144 26.368 201.006 26.4851C200.466 26.8958 200.015 27.3733 199.577 27.8373L199.577 27.8377L199.576 27.838C199.398 28.0269 199.222 28.2135 199.043 28.3924C198.593 28.8113 198.231 29.2827 197.886 29.7321C197.742 29.919 197.601 30.1022 197.458 30.2762C197.172 30.6157 196.95 30.9668 196.739 31.2988C196.582 31.5471 196.431 31.7847 196.266 31.9989C196.022 32.3479 195.833 32.685 195.664 32.988L195.664 32.9883C195.585 33.1293 195.51 33.2628 195.436 33.3868C195.24 33.7462 195.122 33.9347 195.003 34.1096ZM289.49 29.6343C289.49 29.6343 289.924 29.6189 290.633 29.6309C290.765 29.6431 290.906 29.6489 291.056 29.655C291.312 29.6655 291.595 29.6771 291.908 29.7235C292.102 29.7589 292.308 29.7801 292.523 29.8022C292.845 29.8352 293.186 29.8703 293.537 29.9581C293.731 30.0022 293.932 30.0396 294.137 30.078C294.552 30.1555 294.988 30.2369 295.43 30.3845C295.57 30.4256 295.711 30.4653 295.854 30.5054C296.384 30.6542 296.931 30.8078 297.47 31.0551C297.62 31.117 297.772 31.1768 297.924 31.2367C298.473 31.4536 299.027 31.6721 299.549 31.9939L300.585 32.559L300.843 32.6969L301.061 32.8388L301.6 33.1941C301.973 33.4268 302.28 33.666 302.572 33.8935L302.581 33.9006C302.68 33.9816 302.78 34.0595 302.88 34.1374C303.08 34.2932 303.279 34.4489 303.47 34.6298C303.767 34.8863 304.064 35.143 304.348 35.4008C304.62 35.6735 304.892 35.9462 305.15 36.2202C305.505 36.5685 305.822 36.9381 306.131 37.2991C306.293 37.4894 306.454 37.6774 306.618 37.8586C307.053 38.4146 307.46 38.9462 307.835 39.4401C308.072 39.8007 308.314 40.1406 308.536 40.4526C308.628 40.5829 308.717 40.7083 308.801 40.8284C309.002 41.1093 309.159 41.3763 309.299 41.6144C309.367 41.7319 309.432 41.8423 309.496 41.944C309.898 42.5713 310.123 42.9166 310.123 42.9166L310.155 42.9679C310.413 43.378 310.969 43.5003 311.38 43.2423C311.739 43.0165 311.871 42.568 311.725 42.1877C311.725 42.1877 311.562 41.7684 311.287 41.047C311.01 40.3121 310.558 39.3087 309.922 38.1056C309.58 37.5269 309.205 36.897 308.787 36.2441C308.642 36.0532 308.5 35.8544 308.355 35.6521C308.028 35.1966 307.689 34.7233 307.287 34.2821L306.416 33.3063L306.415 33.306L306.415 33.3055C306.099 32.9966 305.783 32.6878 305.452 32.3668C305.174 32.084 304.846 31.8271 304.521 31.5724C304.475 31.5365 304.429 31.5006 304.384 31.4648C304.014 31.1609 303.631 30.8719 303.283 30.6476L302.756 30.2774C302.709 30.2488 302.681 30.2273 302.65 30.2041C302.605 30.1704 302.556 30.1328 302.436 30.064L302.134 29.9031C301.926 29.7943 301.722 29.6886 301.518 29.5829L301.516 29.5818C301.312 29.4763 301.108 29.3707 300.901 29.2622C300.106 28.7959 299.248 28.5128 298.418 28.2404C297.607 27.9299 296.785 27.7801 296.017 27.64L295.991 27.6352C295.304 27.4751 294.64 27.4392 294.015 27.4054C293.93 27.4008 293.845 27.3963 293.762 27.3914C293.269 27.3423 292.797 27.368 292.364 27.3915C292.194 27.4008 292.029 27.4098 291.872 27.4137C291.522 27.431 291.196 27.4782 290.906 27.5204C290.735 27.5451 290.576 27.5681 290.432 27.5823C289.642 27.7144 289.221 27.8646 289.221 27.8646L289.116 27.9021C288.642 28.0711 288.393 28.5854 288.562 29.0587C288.695 29.4402 289.059 29.6767 289.452 29.6653L289.49 29.6343Z" fill="#D3413B"/>
</svg>
